<!DOCTYPE svg PUBLIC "-//W3C//DTD SVG 1.1//EN" "http://www.w3.org/Graphics/SVG/1.1/DTD/svg11.dtd">

<svg fill="#F05941" version="1.1" xmlns="http://www.w3.org/2000/svg" xmlns:xlink="http://www.w3.org/1999/xlink"
    width="800px" height="800px" viewBox="0 0 512 512" enable-background="new 0 0 512 512" xml:space="preserve">

    <g id="SVGRepo_bgCarrier" stroke-width="0" />

    <g id="SVGRepo_tracerCarrier" stroke-linecap="round" stroke-linejoin="round" />

    <g id="SVGRepo_iconCarrier">
        <g id="c133de6af664cd4f011a55de6b0011b2">
            <path display="inline"
                d="M30.713,0.501L71.717,460.42l184.006,51.078l184.515-51.15L481.287,0.501H30.713z M395.754,109.646 l-2.567,28.596l-1.128,12.681h-0.187H256h-0.197h-79.599l5.155,57.761h74.444H256h115.723h15.201l-1.377,15.146l-13.255,148.506 l-0.849,9.523L256,413.854v0.012l-0.259,0.072l-115.547-32.078l-7.903-88.566h26.098h30.526l4.016,44.986l62.82,16.965l0.052-0.014 v-0.006l62.916-16.977l6.542-73.158H256h-0.197H129.771l-13.863-155.444l-1.351-15.131h141.247H256h141.104L395.754,109.646z">
            </path>
        </g>
    </g>

</svg>