<svg xmlns="http://www.w3.org/2000/svg" xmlns:xlink="http://www.w3.org/1999/xlink" width="982" zoomAndPan="magnify" viewBox="0 0 736.5 741.749978" height="989" preserveAspectRatio="xMidYMid meet" version="1.0"><defs><clipPath id="b3466c4114"><path d="M 0 0.125 L 736 0.125 L 736 741.375 L 0 741.375 Z M 0 0.125 " clip-rule="nonzero"/></clipPath></defs><g clip-path="url(#b3466c4114)"><path fill="#000000" d="M 367.996094 978.042969 C 33.132812 978.042969 -239.304688 705.609375 -239.304688 370.746094 C -239.304688 35.882812 33.132812 -236.554688 367.996094 -236.554688 C 702.859375 -236.554688 975.292969 35.882812 975.292969 370.746094 C 975.292969 705.609375 702.859375 978.042969 367.996094 978.042969 Z M 367.996094 978.042969 " fill-opacity="1" fill-rule="nonzero"/></g><path fill="#ffffff" d="M 199.554688 531.863281 C 190.550781 531.863281 181.476562 529.015625 173.785156 523.117188 L 20.816406 406.035156 C 10.457031 398.109375 4.316406 385.851562 4.164062 372.8125 C 4.011719 359.761719 9.863281 347.371094 20.042969 339.210938 L 169.859375 218.976562 C 188.15625 204.285156 214.878906 207.230469 229.550781 225.515625 C 244.222656 243.804688 241.300781 270.535156 223.011719 285.207031 L 115.453125 371.527344 L 225.398438 455.6875 C 244.027344 469.9375 247.566406 496.59375 233.308594 515.210938 C 224.945312 526.136719 212.320312 531.863281 199.554688 531.863281 Z M 199.554688 531.863281 " fill-opacity="1" fill-rule="nonzero"/><path fill="#ffffff" d="M 536.4375 531.863281 C 523.671875 531.863281 511.046875 526.136719 502.683594 515.210938 C 488.425781 496.59375 491.976562 469.9375 510.59375 455.6875 L 620.539062 371.527344 L 512.980469 285.207031 C 494.691406 270.527344 491.757812 243.804688 506.441406 225.515625 C 521.132812 207.230469 547.855469 204.296875 566.132812 218.976562 L 715.945312 339.210938 C 726.128906 347.371094 731.980469 359.761719 731.828125 372.8125 C 731.675781 385.863281 725.535156 398.109375 715.171875 406.035156 L 562.207031 523.117188 C 554.507812 529.015625 545.4375 531.863281 536.4375 531.863281 Z M 536.4375 531.863281 " fill-opacity="1" fill-rule="nonzero"/><path fill="#ffffff" d="M 298.960938 613.15625 C 295.28125 613.15625 291.546875 612.675781 287.820312 611.664062 C 265.191406 605.53125 251.8125 582.207031 257.945312 559.570312 L 366.355469 159.691406 C 372.488281 137.054688 395.804688 123.683594 418.449219 129.816406 C 441.078125 135.949219 454.457031 159.277344 448.324219 181.914062 L 339.914062 581.789062 C 334.789062 600.699219 317.65625 613.144531 298.960938 613.144531 Z M 298.960938 613.15625 " fill-opacity="1" fill-rule="nonzero"/></svg>