<svg xmlns="http://www.w3.org/2000/svg" xmlns:xlink="http://www.w3.org/1999/xlink" width="982" zoomAndPan="magnify" viewBox="0 0 736.5 741.749978" height="989" preserveAspectRatio="xMidYMid meet" version="1.0"><defs><clipPath id="152571403a"><path d="M 88 59 L 733.25 59 L 733.25 741.375 L 88 741.375 Z M 88 59 " clip-rule="nonzero"/></clipPath></defs><path fill="#ffde59" d="M 481.476562 738.703125 C 451.761719 738.703125 424.957031 730.734375 399.542969 714.339844 C 371.066406 695.976562 345.441406 673.054688 320.660156 650.894531 C 316.289062 646.984375 311.917969 643.074219 307.53125 639.1875 C 295.066406 628.144531 282.347656 616.96875 270.050781 606.160156 C 226.539062 567.914062 181.539062 528.367188 139.277344 487.3125 C 129.992188 478.292969 123.636719 470.378906 118.65625 461.664062 C 103.582031 435.246094 104.097656 424.808594 121.292969 408.492188 C 125.824219 404.191406 133.976562 401.726562 143.660156 401.726562 C 154.71875 401.726562 165.832031 404.894531 174.140625 410.410156 C 187.953125 419.582031 214.5 443.664062 240.175781 466.960938 C 260.3125 485.230469 279.335938 502.484375 292.816406 513.21875 C 294.019531 514.171875 295.425781 514.679688 296.871094 514.679688 C 296.875 514.679688 296.875 514.679688 296.875 514.679688 C 299.351562 514.679688 301.675781 513.195312 302.792969 510.902344 C 303.894531 508.644531 303.605469 506.09375 302.023438 504.066406 C 281.710938 478.074219 231.613281 426.535156 207.960938 402.917969 C 197.039062 392.015625 185.863281 380.964844 175.050781 370.289062 C 155.429688 350.90625 135.132812 330.855469 115.558594 310.816406 C 100.605469 295.515625 85.289062 277.238281 92.929688 253.917969 C 98.636719 236.507812 111.359375 226.914062 128.757812 226.914062 C 141.703125 226.914062 155.871094 232.503906 167.632812 242.246094 C 189.773438 260.597656 209.914062 282.261719 229.382812 303.207031 C 236.621094 310.992188 244.101562 319.042969 251.585938 326.816406 C 256.144531 331.546875 262.042969 337.871094 268.875 345.183594 C 290.816406 368.683594 320.871094 400.863281 338.800781 415.0625 C 340.113281 416.097656 341.644531 416.652344 343.234375 416.652344 C 345.816406 416.652344 348.300781 415.152344 349.582031 412.828125 C 350.839844 410.53125 350.738281 407.800781 349.296875 405.53125 C 342.417969 394.683594 332.566406 384.039062 323.878906 374.644531 C 319.066406 369.4375 314.515625 364.523438 310.96875 360.117188 C 295.746094 341.210938 279.367188 322.796875 263.527344 304.992188 C 249.472656 289.1875 234.941406 272.855469 221.273438 256.238281 C 215.398438 249.09375 206.957031 240.003906 197.183594 229.476562 C 174.023438 204.53125 145.195312 173.484375 136.773438 152.980469 C 129.546875 135.375 134.679688 117.09375 149.855469 106.402344 C 157.519531 100.996094 165.710938 98.253906 174.199219 98.253906 C 183.542969 98.253906 193.019531 101.550781 202.359375 108.042969 C 217.171875 118.34375 228.683594 132.375 239.8125 145.953125 C 243.445312 150.386719 247.199219 154.96875 251.03125 159.367188 C 290.578125 204.835938 369.59375 294.222656 399.710938 327.753906 C 400.835938 329.003906 402.332031 329.6875 403.933594 329.6875 C 406.003906 329.6875 408.007812 328.507812 409.03125 326.675781 C 410.027344 324.898438 409.964844 322.761719 408.859375 320.964844 C 394.472656 297.492188 359.949219 249.59375 309.03125 182.449219 C 306.785156 179.484375 304.441406 176.421875 302.046875 173.289062 C 287.445312 154.183594 270.898438 132.53125 262.082031 115.839844 C 257.574219 106.921875 257.574219 97.289062 262.097656 87.253906 C 267.832031 74.539062 279.773438 65.121094 293.277344 62.679688 C 295.488281 62.28125 297.722656 62.074219 299.921875 62.074219 C 307.90625 62.074219 315.761719 64.707031 323.269531 69.898438 C 334.730469 77.828125 354.113281 102.574219 374.625 128.777344 C 388.4375 146.414062 402.722656 164.652344 415.9375 179.53125 C 423.484375 188.035156 440.792969 210.597656 459.117188 234.484375 C 482.910156 265.507812 509.878906 300.667969 521.839844 313.3125 C 531.558594 323.578125 542.222656 328.785156 553.539062 328.785156 C 558.15625 328.785156 562.933594 327.902344 567.742188 326.175781 C 584.289062 320.21875 593.277344 306.644531 593.050781 287.96875 C 592.609375 250.710938 603.011719 220.890625 624.855469 196.796875 C 636.785156 183.640625 666.226562 172.933594 690.480469 172.933594 C 699.609375 172.933594 707.242188 174.480469 712.5625 177.398438 C 730.046875 187.015625 735.28125 204.628906 726.207031 223.375 C 723.53125 228.902344 720.71875 234.484375 718.003906 239.886719 C 704.367188 266.976562 690.269531 294.992188 687.367188 327.625 C 685.75 345.84375 688.214844 363.410156 690.601562 380.402344 C 691.472656 386.589844 692.375 392.988281 693.054688 399.292969 C 694.558594 413.238281 696.804688 427.355469 698.980469 441.015625 C 704.183594 473.742188 709.574219 507.582031 704.972656 540.917969 L 704.957031 541.039062 L 704.949219 541.152344 C 702.296875 596.683594 670.363281 639.1875 644.046875 665.066406 C 613.046875 695.546875 572.179688 720.121094 534.722656 730.796875 C 516.140625 736.046875 498.222656 738.703125 481.476562 738.703125 " fill-opacity="1" fill-rule="nonzero"/><g clip-path="url(#152571403a)"><path fill="#c08625" d="M 299.921875 59.410156 C 297.582031 59.410156 295.210938 59.617188 292.796875 60.054688 C 278.25 62.683594 265.742188 72.679688 259.664062 86.160156 C 255.671875 95.015625 254.066406 105.894531 259.722656 117.082031 C 270.097656 136.726562 290.894531 162.949219 306.90625 184.0625 C 332.503906 217.816406 386.359375 289.375 406.585938 322.359375 C 408.007812 324.679688 406.054688 327.023438 403.933594 327.023438 C 403.160156 327.023438 402.367188 326.710938 401.699219 325.96875 C 371.636719 292.503906 292.207031 202.648438 253.042969 157.617188 C 237.445312 139.679688 223.878906 119.753906 203.878906 105.851562 C 194.109375 99.054688 184.050781 95.589844 174.199219 95.589844 C 165.28125 95.589844 156.527344 98.433594 148.316406 104.21875 C 133.246094 114.84375 126.019531 133.816406 134.308594 153.996094 C 146.445312 183.546875 199.203125 233.605469 219.210938 257.929688 C 248.316406 293.324219 280.210938 326.171875 308.890625 361.785156 C 318.960938 374.296875 336.527344 390.390625 347.042969 406.964844 C 349.164062 410.304688 346.429688 413.984375 343.234375 413.984375 C 342.3125 413.984375 341.351562 413.679688 340.460938 412.964844 C 317.175781 394.53125 272.8125 345.015625 253.507812 324.96875 C 225.867188 296.257812 199.859375 265.484375 169.339844 240.199219 C 157.035156 230 142.324219 224.25 128.757812 224.25 C 111.988281 224.25 96.964844 233.035156 90.394531 253.089844 C 82.324219 277.714844 97.992188 296.65625 113.644531 312.679688 C 144.039062 343.789062 175.339844 374.113281 206.078125 404.808594 C 229.878906 428.574219 279.6875 479.816406 299.914062 505.710938 C 302.125 508.535156 299.738281 512.015625 296.875 512.015625 C 296.082031 512.015625 295.257812 511.75 294.480469 511.128906 C 263.40625 486.390625 200.210938 424.519531 175.613281 408.1875 C 166.40625 402.074219 154.5 399.0625 143.660156 399.0625 C 133.734375 399.0625 124.699219 401.582031 119.453125 406.558594 C 100.949219 424.117188 100.839844 435.824219 116.339844 462.988281 C 122.089844 473.070312 129.339844 481.378906 137.425781 489.230469 C 191.679688 541.9375 249.179688 591.054688 305.765625 641.183594 C 335.507812 667.539062 364.492188 694.914062 398.09375 716.585938 C 424.816406 733.820312 452.660156 741.375 481.476562 741.375 C 499.109375 741.375 517.121094 738.539062 535.453125 733.363281 C 605.207031 713.484375 702.882812 640.230469 707.617188 541.285156 C 714.195312 493.589844 700.824219 446.398438 695.703125 399.007812 C 693.171875 375.476562 687.84375 352.394531 690.027344 327.863281 C 693.453125 289.285156 712.550781 257.722656 728.609375 224.535156 C 738.230469 204.660156 732.660156 185.402344 713.851562 175.0625 C 707.8125 171.746094 699.601562 170.265625 690.480469 170.265625 C 666.335938 170.265625 635.871094 180.675781 622.882812 195 C 598.660156 221.714844 589.964844 253.015625 590.378906 287.996094 C 590.585938 304.980469 582.6875 317.953125 566.835938 323.664062 C 562.238281 325.316406 557.808594 326.113281 553.539062 326.113281 C 542.550781 326.113281 532.648438 320.84375 523.78125 311.476562 C 502.738281 289.246094 435.398438 197.429688 417.929688 177.757812 C 384.839844 140.5 344.375 81.246094 324.789062 67.707031 C 317.269531 62.507812 308.898438 59.410156 299.921875 59.410156 Z M 299.921875 64.746094 C 307.355469 64.746094 314.699219 67.214844 321.753906 72.097656 C 332.882812 79.792969 352.140625 104.386719 372.53125 130.421875 C 386.367188 148.09375 400.667969 166.363281 413.9375 181.304688 C 421.421875 189.730469 438.707031 212.261719 457 236.117188 C 480.835938 267.183594 507.84375 302.402344 519.90625 315.144531 C 530.144531 325.960938 541.464844 331.449219 553.539062 331.449219 C 558.464844 331.449219 563.550781 330.523438 568.644531 328.6875 C 586.085938 322.40625 595.953125 307.550781 595.71875 287.933594 C 595.511719 270.054688 597.710938 254.402344 602.460938 240.078125 C 607.59375 224.589844 615.5625 211.019531 626.835938 198.585938 C 638.324219 185.914062 666.875 175.601562 690.480469 175.601562 C 699.160156 175.601562 706.347656 177.03125 711.277344 179.742188 C 719.222656 184.105469 724.582031 190.332031 726.773438 197.734375 C 728.976562 205.1875 727.945312 213.648438 723.804688 222.210938 C 721.140625 227.722656 718.335938 233.292969 715.621094 238.683594 C 701.871094 266.003906 687.65625 294.25 684.707031 327.390625 C 683.058594 345.914062 685.554688 363.636719 687.960938 380.769531 C 688.828125 386.9375 689.726562 393.316406 690.402344 399.578125 C 691.910156 413.585938 694.167969 427.746094 696.34375 441.429688 C 701.523438 473.960938 706.875 507.605469 702.324219 540.554688 L 702.296875 540.789062 L 702.285156 541.027344 C 699.671875 595.695312 668.152344 637.621094 642.175781 663.167969 C 611.480469 693.347656 571.035156 717.675781 534 728.230469 C 515.652344 733.410156 497.980469 736.035156 481.476562 736.035156 C 452.289062 736.035156 425.960938 728.207031 400.988281 712.101562 C 372.691406 693.851562 347.144531 671 322.4375 648.902344 C 318.136719 645.054688 313.691406 641.082031 309.300781 637.191406 C 296.835938 626.148438 284.117188 614.964844 271.816406 604.160156 C 228.324219 565.933594 183.351562 526.40625 141.136719 485.402344 C 132.039062 476.5625 125.824219 468.832031 120.976562 460.339844 C 113.292969 446.878906 110.152344 438.234375 110.480469 431.425781 C 110.796875 424.738281 114.457031 418.660156 123.128906 410.433594 C 127.113281 406.648438 134.789062 404.398438 143.660156 404.398438 C 154.207031 404.398438 164.777344 407.398438 172.660156 412.632812 C 186.304688 421.6875 212.78125 445.710938 238.382812 468.933594 C 258.550781 487.234375 277.605469 504.515625 291.15625 515.300781 C 292.832031 516.644531 294.8125 517.351562 296.875 517.351562 C 300.363281 517.351562 303.628906 515.277344 305.195312 512.070312 C 306.726562 508.929688 306.316406 505.230469 304.125 502.425781 C 283.734375 476.328125 233.542969 424.6875 209.84375 401.03125 C 198.914062 390.113281 187.734375 379.066406 176.921875 368.386719 C 157.304688 349.011719 137.027344 328.972656 117.460938 308.949219 C 102.402344 293.535156 88.292969 276.648438 95.46875 254.746094 C 100.78125 238.523438 112.609375 229.585938 128.757812 229.585938 C 141.09375 229.585938 154.644531 234.945312 165.929688 244.304688 C 187.9375 262.539062 208.011719 284.140625 227.425781 305.023438 C 234.671875 312.816406 242.160156 320.878906 249.664062 328.667969 C 254.207031 333.382812 260.101562 339.695312 266.925781 347.007812 C 288.929688 370.566406 319.058594 402.832031 337.144531 417.152344 C 338.933594 418.566406 341.042969 419.324219 343.234375 419.324219 C 346.820312 419.324219 350.148438 417.324219 351.917969 414.113281 C 353.65625 410.949219 353.519531 407.207031 351.550781 404.105469 C 344.542969 393.054688 334.605469 382.3125 325.839844 372.835938 C 321.058594 367.664062 316.539062 362.777344 313.046875 358.441406 C 297.785156 339.480469 281.382812 321.046875 265.519531 303.214844 C 251.480469 287.433594 236.96875 271.117188 223.332031 254.546875 C 217.410156 247.335938 208.9375 238.21875 199.140625 227.664062 C 176.125 202.871094 147.484375 172.027344 139.242188 151.960938 C 135.785156 143.535156 135.230469 134.9375 137.648438 127.09375 C 139.929688 119.714844 144.683594 113.3125 151.390625 108.585938 C 158.601562 103.5 166.269531 100.925781 174.199219 100.925781 C 182.988281 100.925781 191.953125 104.058594 200.832031 110.230469 C 215.347656 120.320312 226.230469 133.589844 237.746094 147.644531 C 241.394531 152.089844 245.160156 156.691406 249.019531 161.121094 C 288.589844 206.621094 367.617188 296.019531 397.726562 329.539062 C 399.367188 331.359375 401.566406 332.359375 403.933594 332.359375 C 407 332.359375 409.851562 330.679688 411.359375 327.976562 C 412.832031 325.347656 412.753906 322.203125 411.140625 319.566406 C 396.707031 296.027344 362.132812 248.058594 311.152344 180.835938 C 308.902344 177.871094 306.558594 174.804688 304.164062 171.664062 C 289.644531 152.660156 273.183594 131.125 264.460938 114.628906 C 260.335938 106.441406 260.367188 97.597656 264.535156 88.351562 C 269.90625 76.421875 281.105469 67.589844 293.75 65.304688 C 295.804688 64.929688 297.882812 64.746094 299.921875 64.746094 " fill-opacity="1" fill-rule="nonzero"/></g><path fill="#ffffff" d="M 402.125 20.648438 C 446.726562 45.753906 482.832031 84.398438 505.449219 130.273438 C 511.714844 142.976562 516.746094 156.113281 520.734375 169.746094 C 523.886719 180.492188 540.722656 175.917969 537.554688 165.105469 C 522.34375 113.152344 491.066406 65.949219 449.089844 31.738281 C 437.105469 21.972656 424.398438 13.175781 410.925781 5.59375 C 401.132812 0.0820312 392.335938 15.140625 402.125 20.648438 " fill-opacity="1" fill-rule="nonzero"/><path fill="#ffffff" d="M 384.265625 72.054688 C 423.765625 95.246094 452.921875 134.011719 465.476562 177.96875 C 468.550781 188.742188 485.378906 184.164062 482.285156 173.335938 C 471.605469 135.921875 449.878906 101.472656 420.140625 76.285156 C 411.675781 69.109375 402.636719 62.609375 393.066406 56.996094 C 383.367188 51.300781 374.578125 66.363281 384.265625 72.054688 " fill-opacity="1" fill-rule="nonzero"/><path fill="#ffffff" d="M 2.558594 491.378906 C 25.953125 540.070312 64.730469 581.242188 111.53125 608.144531 C 125.015625 615.898438 139.214844 622.394531 153.828125 627.71875 C 158.25 629.332031 163.375 625.90625 164.554688 621.628906 C 165.882812 616.773438 162.902344 612.523438 158.460938 610.902344 C 111.214844 593.691406 69.046875 561.351562 39.851562 520.304688 C 31.375 508.386719 23.949219 495.753906 17.613281 482.574219 C 15.578125 478.332031 9.511719 477.210938 5.683594 479.449219 C 1.347656 481.988281 0.507812 487.117188 2.558594 491.378906 " fill-opacity="1" fill-rule="nonzero"/><path fill="#ffffff" d="M 55.003906 476.875 C 72.367188 511.390625 100.753906 540.21875 134.425781 559.042969 C 144.386719 564.609375 154.863281 569.265625 165.609375 573.101562 C 170.039062 574.679688 175.148438 571.3125 176.328125 567.011719 C 177.660156 562.179688 174.691406 557.875 170.242188 556.285156 C 127.1875 540.929688 90.613281 508.921875 70.058594 468.070312 C 67.949219 463.867188 62.011719 462.675781 58.128906 464.945312 C 53.851562 467.449219 52.878906 472.65625 55.003906 476.875 " fill-opacity="1" fill-rule="nonzero"/></svg>