<svg xmlns="http://www.w3.org/2000/svg" xmlns:xlink="http://www.w3.org/1999/xlink" width="982" zoomAndPan="magnify" viewBox="0 0 736.5 741.749978" height="989" preserveAspectRatio="xMidYMid meet" version="1.0"><path fill="#ffffff" d="M 369.929688 245.066406 C 300.519531 245.066406 244.25 301.335938 244.25 370.75 C 244.25 440.160156 300.519531 496.429688 369.929688 496.429688 C 439.339844 496.429688 495.609375 440.160156 495.609375 370.75 C 495.609375 301.335938 439.339844 245.066406 369.929688 245.066406 Z M 369.929688 245.066406 " fill-opacity="1" fill-rule="nonzero"/><path fill="#ffffff" d="M 239.753906 195.269531 C 251.238281 206.433594 251.496094 224.796875 240.328125 236.28125 C 168.214844 310.457031 168.214844 431.039062 240.328125 505.214844 C 251.496094 516.699219 251.238281 535.0625 239.753906 546.226562 C 228.269531 557.394531 209.90625 557.136719 198.738281 545.648438 C 104.734375 448.964844 104.734375 292.53125 198.738281 195.847656 C 209.90625 184.363281 228.269531 184.101562 239.753906 195.269531 Z M 500.109375 195.269531 C 511.589844 184.101562 529.953125 184.363281 541.117188 195.847656 C 635.125 292.53125 635.125 448.964844 541.117188 545.648438 C 529.953125 557.136719 511.589844 557.394531 500.109375 546.226562 C 488.621094 535.0625 488.363281 516.699219 499.53125 505.214844 C 571.644531 431.039062 571.644531 310.457031 499.53125 236.28125 C 488.363281 224.796875 488.621094 206.433594 500.109375 195.269531 Z M 500.109375 195.269531 " fill-opacity="1" fill-rule="evenodd"/><path fill="#ffffff" d="M 158.027344 118.230469 C 169.34375 129.566406 169.328125 147.933594 157.992188 159.25 C 40.976562 276.0625 40.976562 465.433594 157.992188 582.246094 C 169.328125 593.566406 169.34375 611.929688 158.027344 623.265625 C 146.710938 634.601562 128.347656 634.617188 117.011719 623.300781 C -22.707031 483.828125 -22.707031 257.671875 117.011719 118.195312 C 128.347656 106.878906 146.710938 106.894531 158.027344 118.230469 Z M 581.832031 118.230469 C 593.148438 106.894531 611.511719 106.878906 622.851562 118.195312 C 762.5625 257.671875 762.5625 483.828125 622.851562 623.300781 C 611.511719 634.617188 593.148438 634.601562 581.832031 623.265625 C 570.515625 611.929688 570.53125 593.566406 581.867188 582.246094 C 698.882812 465.433594 698.882812 276.0625 581.867188 159.25 C 570.53125 147.933594 570.515625 129.566406 581.832031 118.230469 Z M 581.832031 118.230469 " fill-opacity="1" fill-rule="evenodd"/></svg>