<svg xmlns="http://www.w3.org/2000/svg" xmlns:xlink="http://www.w3.org/1999/xlink" width="1905" zoomAndPan="magnify" viewBox="0 0 1428.75 545.249983" height="727" preserveAspectRatio="xMidYMid meet" version="1.0"><defs><clipPath id="915c8ed3ed"><path d="M 0.855469 0 L 38 0 L 38 544.5 L 0.855469 544.5 Z M 0.855469 0 " clip-rule="nonzero"/></clipPath><clipPath id="2a483baca4"><path d="M 0.855469 0 L 733 0 L 733 303 L 0.855469 303 Z M 0.855469 0 " clip-rule="nonzero"/></clipPath><clipPath id="7ad637c591"><path d="M 698 0 L 1427.644531 0 L 1427.644531 303 L 698 303 Z M 698 0 " clip-rule="nonzero"/></clipPath><clipPath id="66b9419a1b"><path d="M 1392 0 L 1427.644531 0 L 1427.644531 544.5 L 1392 544.5 Z M 1392 0 " clip-rule="nonzero"/></clipPath></defs><g clip-path="url(#915c8ed3ed)"><path stroke-linecap="butt" transform="matrix(0.00295528, -0.748964, 0.748964, 0.00295528, 7.841628, 565.622704)" fill="none" stroke-linejoin="miter" d="M -0.00165249 3.001774 L 753.388087 3.001888 " stroke="#ffffff" stroke-width="6" stroke-opacity="1" stroke-miterlimit="4"/></g><g clip-path="url(#2a483baca4)"><path stroke-linecap="butt" transform="matrix(0.694635, 0.280067, -0.280067, 0.694635, 10.652851, -0.0122811)" fill="none" stroke-linejoin="miter" d="M 0.00223697 2.001858 L 1015.737987 1.999698 " stroke="#ffffff" stroke-width="4" stroke-opacity="1" stroke-miterlimit="4"/></g><g clip-path="url(#7ad637c591)"><path stroke-linecap="butt" transform="matrix(0.694245, -0.281033, 0.281033, 0.694245, 715.096993, 284.46078)" fill="none" stroke-linejoin="miter" d="M 0.00216767 1.998553 L 1012.246445 1.999829 " stroke="#ffffff" stroke-width="4" stroke-opacity="1" stroke-miterlimit="4"/></g><g clip-path="url(#66b9419a1b)"><path stroke-linecap="butt" transform="matrix(-0.00116222, -0.748969, 0.748969, -0.00116222, 1416.160338, 586.330003)" fill="none" stroke-linejoin="miter" d="M -0.00214572 2.998669 L 780.998743 3.000597 " stroke="#ffffff" stroke-width="6" stroke-opacity="1" stroke-miterlimit="4"/></g></svg>