<svg width="536" height="535" viewBox="0 0 536 535" fill="none" xmlns="http://www.w3.org/2000/svg">
<path d="M456.654 271.399C561.119 331.699 561.119 429.467 456.653 489.769C352.186 550.069 182.813 550.069 78.3484 489.769C-26.1165 429.468 -26.1161 331.7 78.3494 271.399C182.816 211.098 352.188 211.098 456.654 271.399" fill="#FFD88C"/>
<path d="M348.067 417.017C367.274 428.103 367.274 446.08 348.067 457.168C328.858 468.255 297.717 468.255 278.509 457.168C259.302 446.08 259.302 428.104 278.509 417.017C297.718 405.93 328.86 405.93 348.067 417.017Z" fill="#F5AA1A"/>
<path d="M92.771 425.73C91.3822 424.928 90.2562 422.892 90.2562 421.183L90.2554 173.52C90.2554 171.811 91.4556 169.733 92.9367 168.878L384.359 0.66996C385.84 -0.18451 388.166 -0.227327 389.556 0.574852C390.944 1.37584 392.071 3.41163 392.071 5.12176L392.072 252.784C392.072 254.494 390.872 256.572 389.39 257.427L97.9668 425.634C96.486 426.49 94.1597 426.532 92.771 425.73" fill="#FFD990"/>
<path d="M97.4573 425.867L97.3459 425.904L97.0858 426.002L96.888 426.064C96.7767 426.101 96.6532 426.139 96.5166 426.151L96.2686 426.201C96.1451 426.226 95.9961 426.25 95.8601 426.263C94.7579 426.386 93.6058 426.212 92.7766 425.73C91.3771 424.926 90.2627 422.895 90.2627 421.186L90.2503 205.271L95.2899 208.18V424.083C95.2899 425.296 95.8972 426.002 96.7767 426.002C96.9002 426.002 97.0115 425.99 97.1352 425.952L97.1973 425.94L97.4573 425.867Z" fill="#26B6A6"/>
<path d="M95.1725 426.301C94.2944 426.301 93.4341 426.113 92.7766 425.73C91.3771 424.925 90.2627 422.894 90.2627 421.186L90.253 253.226L95.2899 256.156V424.083C95.2899 424.089 95.2899 424.094 95.2904 424.1C95.2918 424.435 95.3396 424.729 95.4268 424.983C95.4278 424.986 95.4292 424.989 95.4302 424.992C95.6581 425.641 96.1475 426.002 96.7767 426.002C96.8732 426.002 96.9623 425.995 97.0561 425.974C97.1402 425.961 97.2266 425.94 97.3143 425.915L97.0858 426.002L96.888 426.064C96.7767 426.101 96.6532 426.139 96.5166 426.151L96.2686 426.201C96.1451 426.226 95.9961 426.249 95.8601 426.262C95.6321 426.288 95.4014 426.301 95.1725 426.301" fill="#FFE2AD"/>
<path d="M95.2899 208.18L90.2503 205.271V253.225L95.2899 256.156V208.18Z" fill="#26B6A6"/>
<path d="M95.2899 256.156L90.253 253.226L90.2503 253.225V205.271L95.2899 208.18V256.156Z" fill="#AF7607"/>
<path d="M96.0704 173.785C95.5875 174.614 95.2899 175.568 95.2899 176.422V208.18L90.2503 205.271V173.525C90.2503 173.413 90.2502 173.314 90.2627 173.203C90.2869 172.98 90.3245 172.757 90.3742 172.535C90.5097 171.977 90.7457 171.395 91.0428 170.876L96.0704 173.785Z" fill="#AF7607"/>
<path d="M392.065 5.11697V19.4433L178.449 142.745C176.975 143.599 175.774 142.905 175.774 141.196V135.774C175.774 134.065 174.573 133.372 173.087 134.226L108.033 171.779C106.547 172.633 105.346 174.713 105.346 176.422V181.846C105.346 183.554 104.144 185.635 102.671 186.488L95.2899 190.747V176.422C95.2899 174.713 96.4915 172.633 97.9653 171.779L389.39 3.56966C390.863 2.71519 392.065 3.40922 392.065 5.11697Z" fill="#F5AA1A"/>
<path d="M392.078 252.779C392.078 254.488 390.876 256.568 389.39 257.421L97.9653 425.63C96.4915 426.486 95.2899 425.792 95.2899 424.083V190.747L102.671 186.488C104.144 185.635 106.547 172.633 108.033 171.779L171.998 134.854C172.741 134.427 173.985 136.613 175.227 138.799C176.471 140.986 177.712 143.171 178.449 142.745L392.065 19.4432V36.876L392.078 252.779Z" fill="#FEEAC5"/>
<path d="M96.7725 425.996C96.6011 425.996 96.44 425.97 96.2919 425.918C96.44 425.97 96.6006 425.996 96.7725 425.996C96.8644 425.996 96.9601 425.989 97.058 425.974C97.0575 425.974 97.0566 425.974 97.0561 425.974C96.9586 425.989 96.8639 425.996 96.7725 425.996V425.996ZM97.3143 425.915L97.3162 425.914C97.5242 425.855 97.7415 425.761 97.9653 425.63L285.287 317.509L97.9653 425.63C97.741 425.761 97.5228 425.855 97.3143 425.915Z" fill="#1D9B8F"/>
<path d="M97.0561 425.974C97.0566 425.974 97.0575 425.974 97.058 425.974C97.1421 425.959 97.2285 425.94 97.3162 425.914L97.3143 425.915C97.2266 425.94 97.1402 425.961 97.0561 425.974Z" fill="#60C9B9"/>
<path d="M96.7725 425.996C96.6006 425.996 96.44 425.97 96.2919 425.918C95.6818 425.703 95.2899 425.059 95.2899 424.083V190.747V208.18L96.4786 207.494V424.083C96.4786 424.204 96.4934 424.808 96.7725 424.808C96.8458 424.808 97.0492 424.788 97.3691 424.603L285.268 316.149C285.273 316.603 285.279 317.053 285.287 317.51L97.9653 425.63C97.7415 425.761 97.5242 425.855 97.3162 425.914C97.2285 425.94 97.1421 425.959 97.058 425.974C96.9601 425.989 96.8644 425.996 96.7725 425.996ZM361.795 273.349L362.273 271.702L388.796 256.393C389.911 255.751 390.889 254.062 390.889 252.779L390.876 37.5618L392.065 36.8761L392.078 252.779C392.078 254.488 390.876 256.568 389.39 257.421L361.795 273.349" fill="#FCBC45"/>
<path d="M180.683 141.454L392.065 19.4433L180.803 141.388C180.762 141.411 180.723 141.434 180.683 141.454" fill="#78D1C5"/>
<path d="M94.8512 207.914V255.89L391.626 84.605V36.6097L94.8512 207.914Z" fill="#F5AA1A"/>
<path d="M391.626 19.1767V36.6096L94.8507 207.914V190.481L100.363 187.289C101.837 186.435 102.332 185.135 103.038 182.647L104.907 176.156C105.497 173.902 106.108 172.367 107.594 171.512L171.559 134.587C173.044 133.733 174.205 133.639 175.335 135.507L177.628 139.669C178.47 141.121 178.89 141.976 180.364 141.121L391.626 19.1767Z" fill="#EDEDEB"/>
<path d="M379.495 14.1011C381.358 13.0256 382.868 13.8979 382.868 16.0489C382.868 18.1999 381.358 20.8156 379.495 21.8912C377.63 22.9667 376.12 22.0944 376.12 19.9433C376.12 17.7923 377.63 15.1766 379.495 14.1011Z" fill="#26B6A6"/>
<path d="M367.347 21.1034C369.211 20.0279 370.722 20.899 370.722 23.05C370.722 25.2022 369.211 27.8179 367.347 28.8934C365.484 29.9689 363.974 29.0967 363.974 26.9456C363.974 24.7946 365.484 22.1789 367.347 21.1034Z" fill="#26B6A6"/>
<path d="M355.2 28.1043C357.064 27.03 358.575 27.9022 358.575 30.0533C358.575 32.2043 357.064 34.82 355.2 35.8955C353.338 36.971 351.827 36.0987 351.827 33.9477C351.827 31.7967 353.338 29.181 355.2 28.1043" fill="#26B6A6"/>
<path d="M104.762 197.752H104.539L102.256 195.996L102.249 195.988L102.188 195.895L102.17 195.865L102.14 195.671L102.17 195.444L102.188 195.392L102.249 195.229L102.256 195.212L104.539 190.82C104.636 190.634 104.768 190.527 104.882 190.527C104.932 190.527 104.979 190.549 105.017 190.594C105.14 190.74 105.126 191.078 104.985 191.349L103.38 194.434L107.589 192.005C107.631 191.981 107.671 191.969 107.709 191.969C107.837 191.969 107.928 192.107 107.928 192.33C107.928 192.618 107.777 192.939 107.589 193.047L103.38 195.476L104.985 196.709C105.126 196.818 105.14 197.138 105.017 197.427C104.95 197.583 104.856 197.697 104.762 197.752" fill="#899EA2"/>
<path d="M113.932 192.458L113.678 192.428C113.554 192.281 113.569 191.944 113.71 191.674L115.315 188.588L111.106 191.017C111.063 191.042 111.023 191.053 110.986 191.053C110.858 191.053 110.767 190.915 110.767 190.691C110.767 190.404 110.918 190.083 111.106 189.975L115.315 187.546L113.71 186.312C113.569 186.204 113.554 185.883 113.678 185.594C113.773 185.371 113.923 185.234 114.052 185.234C114.089 185.234 114.124 185.246 114.156 185.27L116.439 187.025L116.445 187.035L116.506 187.126L116.525 187.158L116.555 187.351L116.525 187.578L116.506 187.631L116.445 187.793L116.439 187.809L114.156 192.202C114.091 192.325 114.012 192.413 113.932 192.458" fill="#899EA2"/>
<path d="M121.946 188.09C121.6 188.09 121.276 187.963 120.999 187.695C119.956 186.692 119.956 184.081 120.999 181.876C121.762 180.258 122.874 179.311 123.827 179.311C123.878 179.311 123.928 179.315 123.976 179.319L124.554 177.91C124.615 177.761 124.707 177.683 124.783 177.683C124.848 177.683 124.901 177.74 124.913 177.857L125.164 180.317C125.182 180.49 125.093 180.709 124.972 180.787L123.256 181.907C123.226 181.927 123.198 181.935 123.173 181.935C123.05 181.935 122.996 181.72 123.088 181.491L123.523 180.428C122.828 180.47 122.031 181.164 121.477 182.336C120.699 183.983 120.699 185.934 121.477 186.682C121.685 186.883 121.926 186.976 122.184 186.976C122.895 186.976 123.729 186.26 124.3 185.052C124.397 184.848 124.539 184.727 124.659 184.727C124.703 184.727 124.744 184.742 124.779 184.777C124.912 184.904 124.912 185.233 124.779 185.513C124.258 186.616 123.573 187.413 122.889 187.808C122.569 187.993 122.249 188.09 121.946 188.09" fill="#899EA2"/>
<path d="M167.47 147.897C167.41 147.897 167.354 147.875 167.305 147.828C167.123 147.654 167.123 147.201 167.305 146.817L168.84 143.57L167.305 142.094C167.123 141.919 167.123 141.466 167.305 141.082C167.438 140.801 167.631 140.634 167.796 140.634C167.857 140.634 167.914 140.657 167.961 140.703L169.496 142.179L171.03 138.932C171.162 138.651 171.356 138.484 171.521 138.484C171.582 138.484 171.638 138.507 171.686 138.553C171.868 138.727 171.868 139.18 171.686 139.565L170.153 142.811L171.686 144.289C171.868 144.462 171.868 144.915 171.686 145.299C171.596 145.49 171.477 145.629 171.358 145.698C171.303 145.73 171.248 145.747 171.196 145.747C171.135 145.747 171.079 145.724 171.03 145.678L169.496 144.201L167.961 147.449C167.871 147.641 167.752 147.779 167.633 147.848C167.577 147.88 167.523 147.897 167.47 147.897" fill="#899EA2"/>
<path d="M130.499 181.848V176.424C130.499 174.714 131.699 172.636 133.18 171.781L374.298 32.6715C375.779 31.817 376.98 32.5099 376.98 34.22V39.6427C376.979 41.3529 375.778 43.4314 374.298 44.2871L133.18 183.397C131.699 184.251 130.499 183.559 130.499 181.848" fill="white"/>
<path d="M369.771 40.2737L370.857 41.058C371.037 41.1888 371.121 41.4205 371.088 41.6962L370.865 43.5489L372.041 42.0551C372.209 41.84 372.425 41.733 372.645 41.758L374.054 41.9327L374.104 41.6475L373.835 39.7127C373.808 39.5166 373.855 39.2885 373.959 39.0876L375.098 36.9532L373.795 37.4536C373.517 37.5581 373.241 37.4476 373.118 37.1814L372.532 35.936L372.525 35.9561L371.822 38.2653C371.754 38.4827 371.627 38.6764 371.469 38.7964L369.895 40.011L369.771 40.2737ZM370.649 44.5912L370.452 44.5531C370.26 44.4735 370.071 44.2489 370.118 43.8579L370.386 41.6118L370.391 41.594L369.303 40.8085C369.154 40.7003 369.068 40.5197 369.065 40.301C369.059 39.9801 369.219 39.6391 369.463 39.4513L371.038 38.2379L371.146 38.0584L371.85 35.7506C371.965 35.3714 372.244 35.1017 372.545 35.0803C372.76 35.0624 372.957 35.1813 373.055 35.3869V35.3881L373.69 36.7369L375.116 36.1902C375.335 36.107 375.558 36.1593 375.703 36.3233C375.902 36.548 375.91 36.933 375.723 37.2812L374.585 39.4192L374.535 39.6164L374.803 41.55C374.851 41.8911 374.685 42.2334 374.499 42.4223C374.341 42.5816 374.153 42.6576 373.968 42.6338L372.559 42.4591L371.189 44.2905C371.016 44.5115 370.819 44.5912 370.649 44.5912" fill="#DADBD8"/>
<path d="M380.142 32.0094C379.818 32.0094 379.507 31.843 379.336 31.5459C379.079 31.1015 379.231 30.5334 379.674 30.2778L387.221 25.9212C387.367 25.8368 387.528 25.7963 387.685 25.7963C388.006 25.7963 388.317 25.9639 388.49 26.261C388.745 26.7043 388.593 27.2735 388.15 27.5291L380.604 31.8846C380.458 31.9701 380.299 32.0094 380.142 32.0094" fill="#899EA2"/>
<path d="M380.142 36.3672C379.818 36.3672 379.507 36.2009 379.336 35.9026C379.079 35.4581 379.231 34.89 379.674 34.6345L387.221 30.279C387.367 30.1934 387.528 30.153 387.685 30.153C388.006 30.153 388.317 30.3206 388.49 30.6177C388.745 31.0622 388.593 31.6302 388.15 31.8869L380.604 36.2425C380.458 36.3269 380.299 36.3672 380.142 36.3672" fill="#899EA2"/>
<path d="M380.142 40.7241C379.818 40.7241 379.507 40.5577 379.336 40.2594C379.079 39.8162 379.231 39.2481 379.674 38.9914L387.221 34.6359C387.367 34.5503 387.528 34.5099 387.685 34.5099C388.006 34.5099 388.317 34.6775 388.49 34.9757C388.745 35.4202 388.593 35.9871 388.15 36.2438L380.604 40.5993C380.458 40.6837 380.299 40.7241 380.142 40.7241" fill="#899EA2"/>
<path d="M95.2904 190.747V208.18L90.2503 205.271V187.85L95.2904 190.747Z" fill="#DADBD8"/>
<path d="M280.397 134.281C280.27 134.362 280.165 134.376 280.08 134.324C279.996 134.272 279.96 134.172 279.974 134.023C279.988 133.874 280.005 133.767 280.026 133.701L287.562 111.901C287.726 111.411 287.998 111.046 288.377 110.806L289.988 109.785C290.368 109.545 290.602 109.589 290.69 109.919L294.885 124.286L294.904 124.563C294.891 124.712 294.831 124.873 294.726 125.045C294.621 125.217 294.506 125.342 294.379 125.423L293.17 126.188C292.997 126.298 292.867 126.337 292.78 126.304C292.696 126.252 292.643 126.18 292.622 126.089L291.682 122.947L283.909 127.872L282.241 132.665C282.199 132.797 282.118 132.954 281.997 133.136C281.894 133.289 281.763 133.416 281.605 133.516L280.397 134.281ZM291.215 120.98L288.926 113.089L284.817 125.034L291.215 120.98ZM303.144 120.133C301.438 121.214 300.206 121.336 299.45 120.5L299.342 121.673C299.325 121.859 299.255 122.053 299.133 122.253C299.027 122.425 298.896 122.561 298.738 122.661L297.648 123.352C297.49 123.452 297.361 123.481 297.26 123.439C297.177 123.369 297.145 123.241 297.162 123.054L298.864 104.504C298.881 104.317 298.942 104.138 299.047 103.966C299.17 103.766 299.31 103.616 299.468 103.516L300.63 102.78C300.788 102.68 300.908 102.665 300.991 102.735C301.075 102.787 301.109 102.906 301.092 103.092L300.502 109.518C301.559 107.568 302.901 106.077 304.529 105.046C306.172 104.005 307.353 103.862 308.073 104.616C308.794 105.352 309.098 106.66 308.985 108.538C308.982 108.733 308.964 109.007 308.932 109.361C308.899 109.715 308.866 109.999 308.831 110.214C308.59 112.191 307.993 114.078 307.039 115.875C306.086 117.672 304.787 119.091 303.144 120.133ZM302.854 118.185C303.976 117.474 304.827 116.549 305.408 115.409C306.005 114.259 306.388 112.999 306.559 111.628C306.591 111.431 306.624 111.156 306.657 110.802C306.98 107.282 306.035 106.223 303.823 107.624C302.765 108.295 301.913 109.22 301.269 110.4C300.625 111.58 300.237 112.729 300.105 113.848L299.981 114.953L299.907 116C299.847 117.143 300.046 117.973 300.505 118.489C300.981 118.977 301.764 118.876 302.854 118.185ZM316.196 111.863C314.458 112.964 313.16 113.243 312.302 112.699C311.46 112.145 311.096 110.928 311.209 109.05L311.295 107.864L311.429 106.647C311.667 104.707 312.32 102.855 313.39 101.089C314.462 99.3055 315.858 97.8679 317.58 96.7768C319.303 95.6857 320.592 95.4216 321.448 95.9844C322.306 96.5285 322.679 97.7305 322.568 99.5902C322.565 99.7851 322.536 100.181 322.481 100.777C322.427 101.373 322.382 101.778 322.347 101.993C322.108 103.951 321.453 105.813 320.384 107.579C319.33 109.334 317.934 110.762 316.196 111.863ZM316.393 109.712C317.389 109.081 318.205 108.213 318.842 107.108C319.495 105.993 319.909 104.722 320.085 103.295C320.118 103.098 320.158 102.739 320.206 102.218C320.254 101.696 320.279 101.348 320.28 101.171C320.361 99.8045 320.143 98.9337 319.627 98.5591C319.126 98.1744 318.378 98.2974 317.383 98.9281C316.388 99.5587 315.564 100.432 314.911 101.547C314.258 102.662 313.851 103.929 313.691 105.346L313.57 106.422L313.497 107.469C313.4 108.846 313.61 109.721 314.126 110.096C314.642 110.471 315.398 110.343 316.393 109.712ZM329.354 103.527C327.853 104.478 326.744 104.645 326.027 104.03C325.311 103.395 325.041 102.128 325.215 100.229L325.938 92.3501C325.955 92.1639 326.016 91.9849 326.121 91.813C326.244 91.6126 326.384 91.4623 326.542 91.3622L327.727 90.6115C327.885 90.5114 328.005 90.4965 328.088 90.5668C328.189 90.6085 328.23 90.7224 328.213 90.9087L327.503 98.6475C327.248 101.423 328.148 102.16 330.202 100.858C331.197 100.228 332.02 99.364 332.672 98.2672C333.325 97.1519 333.711 95.9423 333.831 94.6385L334.541 86.8997C334.558 86.7134 334.619 86.5344 334.724 86.3626C334.847 86.1621 334.987 86.0119 335.145 85.9118L336.33 85.161C336.488 85.0609 336.608 85.046 336.691 85.1163C336.776 85.168 336.809 85.287 336.792 85.4733L335.577 98.7159C335.56 98.9021 335.498 99.0905 335.391 99.2809C335.286 99.4527 335.155 99.5887 334.997 99.6888L333.883 100.394C333.725 100.495 333.596 100.524 333.495 100.482C333.412 100.412 333.379 100.284 333.397 100.097L333.509 98.868C333.002 99.856 332.415 100.737 331.749 101.509C331.085 102.264 330.286 102.936 329.354 103.527ZM343.85 94.0797C341.353 95.6613 340.256 94.8131 340.556 91.535L341.233 84.1594L339.385 85.3305C339.227 85.4306 339.098 85.4599 338.997 85.4182C338.915 85.3479 338.882 85.2196 338.899 85.0333L338.986 84.0834C339.003 83.8972 339.064 83.7181 339.169 83.5463C339.292 83.3459 339.432 83.1956 339.59 83.0955L341.439 81.9243L341.867 77.2587C341.884 77.0724 341.945 76.8934 342.05 76.7216C342.173 76.5211 342.313 76.3709 342.471 76.2708L343.585 75.5651C343.743 75.465 343.863 75.4501 343.946 75.5204C344.046 75.5621 344.088 75.676 344.071 75.8623L343.643 80.5279L346.581 78.6661C346.739 78.566 346.86 78.5511 346.943 78.6214C347.043 78.6631 347.084 78.777 347.067 78.9633L346.98 79.9132C346.963 80.0994 346.893 80.2928 346.771 80.4932C346.666 80.6651 346.534 80.801 346.376 80.9011L343.437 82.763L342.778 89.943C342.693 90.8743 342.762 91.497 342.986 91.8111C343.212 92.1065 343.633 92.0591 344.25 91.6687L345.695 90.7528C345.853 90.6527 345.974 90.6378 346.056 90.7081C346.157 90.7498 346.198 90.8637 346.181 91.05L346.089 92.0558C346.072 92.242 346.002 92.4354 345.88 92.6358C345.774 92.8076 345.643 92.9436 345.485 93.0437L343.85 94.0797ZM354.65 87.2367C354.492 87.3368 354.363 87.366 354.263 87.3244C354.18 87.254 354.147 87.1258 354.164 86.9395L355.38 73.6969C355.397 73.5106 355.458 73.3316 355.563 73.1598C355.685 72.9593 355.826 72.8091 355.984 72.709L357.05 72.0333C357.208 71.9332 357.329 71.9183 357.411 71.9886C357.512 72.0303 357.553 72.1443 357.536 72.3305L357.447 73.3084C358.384 71.5213 359.588 70.1623 361.057 69.2314C362.811 68.1203 363.973 68.1913 364.542 69.4443C364.993 68.4218 365.588 67.4575 366.326 66.5515C367.063 65.6454 367.867 64.9171 368.736 64.3665C370.031 63.5457 371.042 63.3965 371.768 63.919C372.494 64.4415 372.766 65.6899 372.585 67.6642L371.844 75.7383C371.827 75.9245 371.757 76.1179 371.635 76.3183C371.529 76.4902 371.398 76.6261 371.24 76.7262L370.126 77.4319C369.968 77.532 369.839 77.5612 369.739 77.5195C369.656 77.4492 369.623 77.3209 369.64 77.1347L370.358 69.312C370.491 67.8593 370.326 66.9814 369.863 66.6785C369.416 66.3655 368.773 66.4743 367.936 67.0049C367.193 67.4753 366.523 68.2067 365.926 69.1989C365.331 70.1725 364.968 71.3764 364.836 72.8106L364.118 80.6332C364.101 80.8194 364.031 81.0128 363.909 81.2132C363.804 81.3851 363.672 81.521 363.514 81.6211L362.4 82.3268C362.242 82.4269 362.113 82.4561 362.013 82.4144C361.93 82.3441 361.897 82.2158 361.914 82.0296L362.632 74.2069C362.765 72.7542 362.592 71.8813 362.113 71.5884C361.65 71.2855 361.016 71.3893 360.21 71.8998C359.467 72.3702 358.797 73.1016 358.2 74.0938C357.605 75.0674 357.242 76.262 357.113 77.6775L356.392 85.5281C356.375 85.7143 356.305 85.9077 356.183 86.1081C356.078 86.28 355.946 86.4159 355.788 86.516L354.65 87.2367ZM380.07 71.3949C378.443 72.4259 377.193 72.6651 376.321 72.1123C375.467 71.5309 375.086 70.2458 375.18 68.2571L375.243 67.3222L375.351 66.3852C375.647 64.3036 376.331 62.3615 377.404 60.5589C378.493 58.7462 379.835 57.3344 381.431 56.3234C383.185 55.2123 384.483 55.0126 385.325 55.7244C386.169 56.4176 386.489 57.8817 386.284 60.1167L386.24 60.5916C386.223 60.7779 386.153 60.9713 386.031 61.1717C385.926 61.3435 385.794 61.4795 385.636 61.5796L377.436 66.7748L377.413 67.0262C377.349 68.2068 377.563 69.0453 378.053 69.5417C378.56 70.0095 379.288 69.9431 380.236 69.3425C380.963 68.882 381.571 68.339 382.06 67.7135C382.566 67.0593 382.947 66.4759 383.202 65.9632C383.365 65.6496 383.48 65.4542 383.546 65.3769C383.631 65.271 383.767 65.158 383.957 65.0378L385.118 64.3021C385.26 64.212 385.375 64.1835 385.461 64.2166C385.547 64.2496 385.583 64.35 385.567 64.5176C385.53 64.9274 385.263 65.5611 384.768 66.4187C384.288 67.2664 383.634 68.1547 382.804 69.0836C381.993 69.9838 381.081 70.7543 380.07 71.3949ZM384.107 60.7329L384.114 60.6491C384.232 59.364 384.028 58.5111 383.501 58.0906C382.992 57.6415 382.239 57.7322 381.244 58.3629C380.248 58.9935 379.421 59.9037 378.761 61.0936C378.119 62.2549 377.739 63.4781 377.621 64.7632L377.613 64.847L384.107 60.7329Z" fill="white"/>
<path d="M206.27 221.062C205.096 221.062 204.292 220.126 204.292 218.5L204.293 218.086C204.293 215.789 205.907 212.995 207.897 211.847L306.914 154.69C307.51 154.347 308.071 154.184 308.565 154.184C309.724 154.184 310.518 155.079 310.518 156.638C310.518 158.863 308.909 161.605 306.925 162.763L207.884 220.563C207.304 220.902 206.755 221.062 206.27 221.062Z" fill="#B2E5DC"/>
<path d="M205.656 235.111C204.844 235.111 204.292 234.503 204.292 233.436C204.292 231.897 205.445 229.985 206.865 229.164L370.71 134.587C371.148 134.335 371.559 134.215 371.919 134.215C372.732 134.215 373.284 134.823 373.284 135.889C373.284 137.429 372.132 139.342 370.71 140.162L206.865 234.739C206.428 234.991 206.016 235.111 205.656 235.111Z" fill="#BFE9E0"/>
<path d="M205.656 246.301C204.844 246.301 204.292 245.693 204.292 244.627C204.292 243.088 205.445 241.175 206.865 240.355L288.388 193.297L291.847 195.334C291.382 196.062 290.96 196.819 290.582 197.606L206.865 245.929C206.428 246.181 206.016 246.301 205.656 246.301ZM292.641 194.175C292.64 194.15 292.64 194.125 292.638 194.098C292.667 194.087 292.697 194.075 292.725 194.062C292.697 194.098 292.668 194.138 292.641 194.175ZM291.956 192.344C291.762 192.113 291.539 191.905 291.27 191.747C291.238 191.728 291.205 191.709 291.172 191.691L291.706 191.382L291.956 192.344ZM294.331 192.15C294.396 191.905 294.431 191.649 294.43 191.391C294.43 191.156 294.4 190.918 294.338 190.682C294.276 190.443 294.185 190.219 294.071 190.017L370.71 145.779C371.148 145.526 371.559 145.407 371.919 145.407C372.732 145.407 373.284 146.014 373.284 147.08C373.284 148.619 372.132 150.532 370.71 151.354L310.982 185.831C310.339 185.768 309.687 185.734 309.029 185.734C308.992 185.734 308.955 185.736 308.919 185.736C303.213 185.767 298.048 188.217 294.331 192.15" fill="#BFE9E0"/>
<path d="M205.656 257.492C204.844 257.492 204.292 256.885 204.292 255.819C204.292 254.28 205.445 252.366 206.865 251.546L288.599 204.366C288.488 205.271 288.429 206.194 288.429 207.13C288.429 207.165 288.429 207.199 288.43 207.234C288.427 207.382 288.426 207.53 288.426 207.677C288.426 208.452 288.469 209.216 288.553 209.967L206.865 257.12C206.428 257.372 206.016 257.492 205.656 257.492V257.492ZM322.085 190.613C320.711 189.433 319.187 188.436 317.548 187.656L370.71 156.969C371.148 156.717 371.559 156.597 371.919 156.597C372.731 156.597 373.284 157.205 373.284 158.271C373.284 159.81 372.132 161.724 370.71 162.544L322.085 190.613" fill="#BFE9E0"/>
<path d="M205.656 268.682C204.844 268.682 204.292 268.076 204.292 267.009C204.292 265.47 205.445 263.558 206.865 262.736L289.745 214.896C290.326 216.423 291.086 217.856 291.999 219.169L206.865 268.311C206.428 268.563 206.016 268.682 205.656 268.682ZM327.825 198.49C327.188 196.989 326.39 195.579 325.455 194.283L370.71 168.16C371.148 167.908 371.559 167.788 371.919 167.788C372.732 167.788 373.284 168.395 373.284 169.461C373.284 171.002 372.132 172.915 370.71 173.735L327.825 198.49Z" fill="#BFE9E0"/>
<path d="M206.096 280.14C205.284 280.14 204.731 279.532 204.731 278.466C204.731 276.927 205.884 275.014 207.304 274.194L295.496 222.882C296.179 223.487 296.904 224.043 297.666 224.543C294.582 225.023 292.336 227.256 291.948 230.52L207.304 279.768C206.867 280.02 206.456 280.14 206.096 280.14" fill="#BFE9E0"/>
<path d="M206.096 296.14C205.284 296.14 204.731 295.532 204.731 294.466C204.731 292.927 205.884 291.014 207.304 290.194L295.496 238.882C296.179 239.487 296.904 240.043 297.666 240.543C294.582 241.023 292.336 243.256 291.948 246.52L207.304 295.768C206.867 296.02 206.456 296.14 206.096 296.14" fill="#BFE9E0"/>
<path d="M206.096 312.14C205.284 312.14 204.731 311.532 204.731 310.466C204.731 308.927 205.884 307.014 207.304 306.194L295.496 254.882C296.179 255.487 296.904 256.043 297.666 256.543C294.582 257.023 292.336 259.256 291.948 262.52L207.304 311.768C206.867 312.02 206.456 312.14 206.096 312.14" fill="#BFE9E0"/>
<path d="M205.656 324.637C204.844 324.637 204.292 324.03 204.292 322.964C204.292 321.424 205.445 319.512 206.865 318.692L210.227 316.751C210.571 316.815 210.921 316.846 211.268 316.846C212.923 316.846 214.557 316.132 215.704 314.824C216.326 314.113 216.983 313.317 217.664 312.457L292.218 269.424L293.743 274.118L206.865 324.265C206.428 324.517 206.016 324.637 205.656 324.637V324.637ZM337.832 248.668C336.872 247.312 335.923 245.976 335.02 244.717L370.71 224.114C371.148 223.862 371.559 223.742 371.919 223.742C372.731 223.742 373.284 224.35 373.284 225.417C373.284 226.956 372.132 228.869 370.71 229.689L337.832 248.668" fill="#BFE9E0"/>
<path d="M206.096 336.095C205.284 336.095 204.731 335.488 204.731 334.421C204.731 332.882 205.884 330.969 207.304 330.148L267.501 295.02C267.939 294.767 268.35 294.648 268.71 294.648C269.522 294.648 270.075 295.255 270.075 296.321C270.075 297.86 268.922 299.774 267.501 300.595L207.304 335.723C206.867 335.975 206.456 336.095 206.096 336.095Z" fill="#BFE9E0"/>
<path d="M377.602 219.656C373.084 215.105 371.47 216.874 370.898 221.866C370.478 225.549 369.391 227.965 369.391 227.965C369.071 226.424 368.936 225.719 368.541 224.954C367.757 223.434 366.428 223.397 365.861 223.635C365.42 223.819 365.965 224.876 365.896 226.809C365.807 229.285 365.007 230.653 365.586 233.283C365.803 234.268 365.622 235.295 365.143 236.182C362.705 240.692 354.928 249.042 349.447 255.048C344.603 250.671 333.765 240.882 328.578 236.208C321.46 229.796 319.138 226.905 312.255 227.376C312.255 227.376 314.921 228.187 318.111 230.885C321.301 233.583 320.541 249.023 320.541 249.023C320.541 249.023 344.221 266 346.657 267.615C347.014 267.852 347.38 268.067 347.742 268.259C350.119 269.525 353.064 268.924 354.837 266.899C359.894 261.119 367.257 249.752 371.519 243.841C373.517 241.07 375.448 237.283 376.667 234.879C380.896 226.534 380.432 222.508 377.602 219.656Z" fill="#9B3E49"/>
<path d="M312.956 226.954C312.956 226.954 317.752 225.7 322.48 229.287C326.544 232.371 343.831 248.266 343.831 248.266C343.831 248.266 344.302 256.684 335.517 261.71L314.265 246.727L312.956 226.954" fill="#26B6A6"/>
<path d="M335.517 261.71L328.941 257.074L326.491 255.347C326.331 250.821 326.174 246.755 326.033 243.706C325.55 233.325 323.162 228.098 312.956 226.954C312.956 226.954 313.768 226.742 315.053 226.742C316.892 226.742 319.698 227.176 322.48 229.287C326.544 232.371 343.831 248.266 343.831 248.266C343.831 248.266 343.836 248.344 343.836 248.49C343.836 248.756 343.822 249.245 343.741 249.893C343.431 252.37 342.15 257.179 336.985 260.782C336.527 261.102 336.039 261.412 335.517 261.71" fill="#FFD17B"/>
<path d="M283.46 433.131H292.459V417.087H283.46V433.131Z" fill="#9B3E49"/>
<path d="M314.664 416.23L323.659 416.553L324.109 399.573L314.664 399.251V416.23Z" fill="#9B3E49"/>
<path d="M282.193 278.179C282.193 287.128 283.511 359.152 283.511 359.152C283.301 361.727 280.983 366.475 281.484 376.366C282.167 389.801 283.075 425.109 283.075 425.109C283.075 425.109 287.444 427.767 293.096 425.315C293.096 425.315 301.608 376.412 303.221 363.097C304.629 351.477 307.017 312.353 307.017 312.353L311.895 357.844C311.895 357.844 310.235 364.775 310.78 372.738C311.201 378.897 314.095 410.971 314.095 410.971C314.095 410.971 318.331 413.964 324.486 411.8C324.486 411.8 329.606 363.494 329.71 357.844C329.829 351.401 326.717 278.083 326.717 278.083L282.193 278.179" fill="#D45108"/>
<path d="M292.459 428.504V427.164C293.321 427.555 295.323 435.504 298.893 438.896C301.732 441.592 305.604 444.706 306.59 447.713C307.613 450.839 301.197 452.565 298.544 452.076C295.463 451.507 290.121 449.248 288.78 447.154C287.439 445.059 286.812 441.969 285.722 440.434C284.632 438.898 282.121 437.184 281.532 435.408C281.209 434.431 281.592 432.294 282.048 430.488C282.464 428.831 282.917 427.008 283.46 427.164C283.462 427.366 283.46 428.186 283.46 428.186C284.114 428.939 285.92 429.688 287.96 429.77C289.276 429.822 292.471 429.55 292.459 428.504" fill="#17282F"/>
<path d="M323.755 413.662C324.222 413.68 324.603 414.365 325.633 415.528C326.879 416.931 328.916 418.446 330.927 419.495C334.297 421.251 340.849 423.953 343.815 425.344C345.668 426.214 345.58 428.543 343.666 429.87C341.751 431.196 337.127 432.151 331.576 430.858C328.553 430.154 324.616 427.246 322.123 427.402C319.632 427.559 314.97 427.522 313.131 426.202C311.291 424.882 312.027 422.063 312.547 419.64C313.114 416.996 313.824 412.871 314.664 413.053V413.964C315.746 415.67 321.33 416.364 323.706 415.109L323.755 413.662" fill="#17282F"/>
<path d="M307.017 312.353C307.017 312.353 314.21 310.243 319.55 304.87C319.55 304.87 317.131 309.585 309.939 313.973L311.478 354.598L307.017 312.353" fill="#873203"/>
<path d="M286.875 229.364C286.875 229.364 279.832 230.008 280.332 243.423L281.888 264.792L281.742 296.859C288.361 304.356 317.701 303.807 327.745 296.257C327.745 296.257 326.711 258.309 326.033 243.706C325.55 233.325 323.162 228.098 312.956 226.954L300.406 227.506L286.875 229.364Z" fill="#FEEAC5"/>
<path d="M308.008 248.266L306.874 236.399L308.49 247.665L312.255 247.594L308.008 248.266" fill="#06AB91"/>
<path d="M264.538 275.428C268.189 246.078 276.587 231.488 286.826 229.773L286.1 248.551C286.1 248.551 279.223 264.229 276.355 279.622C275.01 286.848 273.449 299.41 273.854 305.585C273.926 306.679 274.409 307.696 275.162 308.464C277.179 310.523 277.792 312.302 279.147 314.626C280.209 316.445 281.305 317.088 281.022 317.524C280.659 318.086 279.465 318.855 277.889 317.932C277.096 317.467 276.144 316.524 274.966 315.298C274.966 315.298 274.667 319.826 276.435 323.47C278.83 328.407 278.432 331.01 271.798 329.556C267.64 328.645 264.643 324.261 263.531 314.027C263.21 311.078 263.17 306.31 263.325 302.553C263.728 292.77 263.807 281.3 264.538 275.428" fill="#9B3E49"/>
<path d="M287.41 229.288C282.093 229.268 277.242 230.201 273.385 237.629C269.686 244.753 266.841 259.843 265.405 264.769C265.405 264.769 273.168 269.356 280.308 269.245L285.339 251.794C285.339 251.794 288.735 243.647 287.41 229.288Z" fill="#26B6A6"/>
<path d="M280.052 269.247C279.643 269.247 279.233 269.233 278.823 269.204C273.431 268.834 268.011 266.177 266.114 265.162C265.657 264.918 265.405 264.769 265.405 264.769C266.841 259.843 269.686 244.753 273.385 237.629C277.203 230.278 281.993 229.288 287.246 229.288C287.3 229.288 287.355 229.288 287.41 229.288C287.626 231.629 287.716 233.806 287.716 235.809C287.718 246.088 285.339 251.794 285.339 251.794L281.829 263.968L280.308 269.245C280.222 269.247 280.138 269.247 280.052 269.247" fill="#FFD17B"/>
<path d="M298.375 199.072C298.375 206.778 304.374 213.026 311.774 213.026C319.174 213.026 325.172 206.778 325.172 199.072C325.172 191.367 319.174 185.119 311.774 185.119C304.374 185.119 298.375 191.367 298.375 199.072Z" fill="#17282F"/>
<path d="M289.851 206.053C289.851 206.053 291.906 216.107 292.73 217.759C293.555 219.411 295.257 219.88 295.257 219.88L295.113 212.808L289.851 206.053" fill="#17282F"/>
<path d="M292.431 191.65C292.431 191.65 290.957 191.28 289.391 193.726C288.049 195.822 287.745 200.531 289.851 206.053L293.723 206.516L292.431 191.65" fill="#17282F"/>
<path d="M294.883 206.519C294.108 207.002 293 205.448 292.043 204.406C291.085 203.363 287.96 201.938 286.402 205.358C284.814 208.844 287.777 213.45 290.238 214.253C294.477 215.64 295.113 212.808 295.113 212.808L295.438 228.733C301.066 237.438 313.816 237.123 309.232 228.312L309.22 223.465C309.22 223.465 313.061 224.072 314.935 223.771C318.054 223.269 320.016 220.708 320.961 217.192C322.48 211.547 323.057 206.99 321.769 195.888C320.356 183.719 306.765 183.592 299.425 188.403C292.085 193.214 294.883 206.519 294.883 206.519" fill="#9B3E49"/>
<path d="M295.365 225.163C295.365 225.163 297.346 229.444 300.877 232.069C304.125 234.481 307.548 234.903 307.548 234.903C307.548 234.903 304.245 237.09 302.842 240.186C301.438 243.281 291.534 234.758 291.622 228.711C291.622 228.711 293.177 222.639 295.306 222.249L295.365 225.163" fill="#17282F"/>
<path d="M307.548 234.903C307.548 234.903 310.602 233.385 309.232 228.312L309.22 223.465L310.558 223.644C311.6 224.582 313.239 226.79 313.776 229.218C314.082 230.605 314.835 237.638 313.493 239.034C312.273 240.306 310.284 235.281 307.548 234.903Z" fill="#17282F"/>
<path d="M294.884 207.879C294.493 207.887 293.008 205.321 292.043 204.406C290.703 203.137 292.431 191.65 292.431 191.65C292.431 191.65 291.144 188.794 293.723 185.838C295.557 183.737 298.622 183.503 303.856 182.647C305.894 182.313 308.072 182.091 310.06 181.529C312.188 180.926 314.282 179.515 316.263 178.509C316.919 178.178 317.653 177.835 318.362 178.027C319.045 178.21 319.52 178.861 319.696 179.544C319.873 180.228 319.805 180.948 319.736 181.65C320.949 180.312 323.318 180.508 324.556 181.823C325.794 183.137 325.965 185.219 325.309 186.901C324.651 188.582 323.294 189.906 321.797 190.916C315.219 195.355 307.456 194.123 300.094 193.252C299.741 193.209 299.368 193.174 299.044 193.32C297.892 193.843 297.645 197.424 297.443 198.458C296.761 201.945 296.195 207.852 294.884 207.879Z" fill="#17282F"/>
<path d="M292.438 192.256L287.745 189.632C288.411 188.232 290.002 187.684 291.298 188.409C292.593 189.132 293.105 190.854 292.438 192.256Z" fill="#17282F"/>
<path d="M309.22 223.465C309.22 223.465 302.26 222.005 299.826 220.659C298.198 219.757 296.857 218.194 296.462 217.192C296.462 217.192 296.919 219.343 298.374 221.28C300.153 223.649 309.22 225.393 309.22 225.393V223.465Z" fill="#802933"/>
<path d="M306.702 204.293C306.702 205.126 306.077 205.8 305.307 205.798C304.537 205.796 303.913 205.118 303.913 204.285C303.913 203.452 304.537 202.778 305.307 202.78C306.077 202.783 306.702 203.46 306.702 204.293Z" fill="#17282F"/>
<path d="M304.308 198.257L301.323 199.971C300.883 199.078 301.196 197.971 302.018 197.498C302.843 197.023 303.868 197.365 304.308 198.257Z" fill="#17282F"/>
<path d="M308.59 214.74L311.774 215.985C311.459 216.934 310.491 217.426 309.611 217.083C308.732 216.739 308.275 215.69 308.59 214.74" fill="#802933"/>
<path d="M320.636 199.921L317.499 198.394C317.862 197.48 318.857 197.081 319.723 197.502C320.589 197.924 320.997 199.007 320.636 199.921Z" fill="#17282F"/>
<path d="M318.568 204.293C318.568 205.126 317.944 205.801 317.172 205.798C316.402 205.796 315.778 205.119 315.778 204.285C315.778 203.452 316.402 202.778 317.172 202.78C317.944 202.783 318.568 203.46 318.568 204.293Z" fill="#17282F"/>
<path d="M310.666 203.214L310.827 212.022L315.828 210.876L310.666 203.214Z" fill="#802933"/>
<path d="M300.43 204.135C300.43 201.825 302.275 199.946 304.543 199.946H305.179C307.446 199.946 309.292 201.825 309.292 204.135C309.292 206.445 307.446 208.324 305.179 208.324H304.543C302.275 208.324 300.43 206.445 300.43 204.135ZM304.543 200.652C302.658 200.652 301.123 202.215 301.123 204.135C301.123 206.057 302.658 207.618 304.543 207.618H305.179C307.064 207.618 308.597 206.057 308.597 204.135C308.597 202.215 307.064 200.652 305.179 200.652H304.543Z" fill="#26B6A6"/>
<path d="M312.97 204.135C312.97 201.825 314.815 199.946 317.083 199.946H317.719C319.986 199.946 321.831 201.825 321.831 204.135C321.831 206.445 319.986 208.324 317.719 208.324H317.083C314.815 208.324 312.97 206.445 312.97 204.135ZM317.083 200.652C315.198 200.652 313.663 202.215 313.663 204.135C313.663 206.057 315.198 207.618 317.083 207.618H317.719C319.603 207.618 321.138 206.057 321.138 204.135C321.138 202.215 319.603 200.652 317.719 200.652H317.083Z" fill="#26B6A6"/>
<path d="M309.241 203.308C309.621 202.672 310.473 202.23 311.413 202.18C312.222 202.139 312.936 202.411 313.308 202.91L313.861 202.482C313.343 201.787 312.439 201.42 311.378 201.475C310.197 201.536 309.153 202.098 308.649 202.941L309.241 203.308" fill="#26B6A6"/>
<path d="M293.723 203.981H300.812V203.275H293.723V203.981Z" fill="#26B6A6"/>
</svg>
