<svg width="534" height="408" viewBox="0 0 534 408" fill="none" xmlns="http://www.w3.org/2000/svg">
<path d="M429.069 366.621H336.421C337.963 361.075 341.669 340.691 341.669 340.691C341.669 340.691 310.221 313.748 308.567 309.333C307.463 306.391 308.015 251.863 303.324 226.759C298.635 201.655 292.567 196.597 279.877 190.345C266.763 183.883 247.324 177.839 247.324 177.839C247.324 177.839 251.187 186.759 254.772 207.724C258.36 228.691 261.669 264 262.497 288.276C263.248 310.287 263.771 357.921 263.863 366.621H224.853C225.516 360.393 228.12 335.072 226.911 332.415C226.379 331.241 213.504 330.564 197.9 330.172V230.621C197.9 230.621 182.032 229.513 164.764 229.513C148.648 229.513 131.312 230.479 124.52 234.207C110.452 241.931 111.555 268.691 111.555 268.691V334.951C103.799 299.575 101.964 249.543 130.863 201.931C150.545 169.504 181.579 150.897 215.291 142.128C215.441 142.471 215.595 142.809 215.752 143.143C214.645 151.94 212.468 168.397 211.463 170.207C210.084 172.689 210.084 172.689 210.084 172.689L203.187 177.38C203.187 177.38 216.428 196.139 232.704 199.172C234.915 199.585 236.799 199.763 238.405 199.763C248.631 199.763 247.6 192.552 247.6 192.552L245.117 187.311L247.283 168.553C248.98 168.816 250.705 168.959 252.425 168.959C259.575 168.959 266.644 166.516 271.324 160.276C275.585 154.595 278.221 145.615 279.755 136.252C313.192 138.237 343.92 147.455 363.464 160C415.037 193.104 440.297 236.139 445.559 281.379C448.596 307.491 438.311 342.059 429.069 366.621" fill="#95C3EB"/>
<path d="M491.877 226.851H432.381C428.701 226.851 425.715 223.865 425.715 220.184V190.483C425.715 186.801 428.701 183.816 432.381 183.816H491.877C495.559 183.816 498.544 186.801 498.544 190.483V220.184C498.544 223.865 495.559 226.851 491.877 226.851Z" fill="#599FDC"/>
<path d="M462.129 243.679L471.557 221.333H452.701L462.129 243.679Z" fill="#599FDC"/>
<path d="M461.904 197.944H478.935V200.436L487.284 195.621L478.935 190.808V193.3H461.904V197.944Z" fill="#293D8A"/>
<path d="M487.284 207.737H470.253V205.245L461.904 210.059L470.253 214.872V212.38H487.284V207.737" fill="white"/>
<path d="M451.451 212.117L450.64 212.413C450.64 212.413 448.113 209.528 446.801 206.385C445.489 203.244 445.444 199.407 445.444 199.407L446.037 199.159L442.435 190.54C441.793 191.041 441.181 191.687 440.687 192.523C438.649 195.967 438.851 201.252 440.901 206.416C442.951 211.579 445.143 216.184 449.143 219.08C451.503 220.789 453.525 221.088 455.096 220.84L451.451 212.117" fill="#293D8A"/>
<path d="M454.037 211.103L452.917 211.509L456.603 220.333C457.02 220.197 457.393 220.029 457.717 219.852C458.669 219.331 459.088 218.185 458.687 217.177L456.761 212.325C456.333 211.249 455.127 210.705 454.037 211.103Z" fill="#293D8A"/>
<path d="M445.251 189.029C444.797 189.192 444.304 189.413 443.808 189.705L447.485 198.508L448.723 197.991C449.797 197.543 450.317 196.319 449.893 195.235L447.96 190.272C447.541 189.195 446.339 188.636 445.251 189.029Z" fill="#293D8A"/>
<path d="M111.555 368V268.691C111.555 268.691 110.452 241.931 124.52 234.207C138.589 226.483 197.9 230.621 197.9 230.621V368H111.555" fill="#3A76C4"/>
<path d="M216.428 137.655C216.428 137.655 212.843 167.724 211.463 170.207C210.084 172.689 210.084 172.689 210.084 172.689L203.187 177.38C203.187 177.38 216.428 196.139 232.704 199.172C248.98 202.207 247.6 192.552 247.6 192.552L245.117 187.311L248.429 158.62C248.429 158.62 218.911 145.104 216.428 137.655" fill="#6B3530"/>
<path d="M194.635 179.863L205.393 175.172C205.393 175.172 212.291 186.483 228.291 193.104C244.291 199.724 244.567 195.863 245.393 193.104C246.221 190.345 245.117 187.311 245.117 187.311L246.301 177.652L252.7 179.784L274.911 359.448L217.808 362.207L194.635 179.863" fill="#FEEAC5"/>
<path d="M247.324 177.839C247.324 177.839 251.187 186.759 254.772 207.724C258.36 228.691 261.669 264 262.497 288.276C263.324 312.552 263.877 368 263.877 368C263.877 368 335.048 368 335.877 368C336.704 368 341.669 340.691 341.669 340.691C341.669 340.691 310.221 313.748 308.567 309.333C307.463 306.391 308.015 251.863 303.324 226.759C298.635 201.655 292.567 196.597 279.877 190.345C266.763 183.883 247.324 177.839 247.324 177.839" fill="#F5AA1A"/>
<path d="M284.841 336.391C284.473 336.391 284.175 336.092 284.175 335.724C284.175 333.752 283.824 305.729 283.487 278.629C283.147 251.525 282.796 223.499 282.796 221.517C282.796 221.148 283.095 220.851 283.463 220.851C283.831 220.851 284.129 221.148 284.129 221.517C284.129 223.489 284.48 251.512 284.819 278.612C285.157 305.716 285.508 333.743 285.508 335.724C285.508 336.092 285.211 336.391 284.841 336.391" fill="#8B3403"/>
<path d="M141.393 329.655L140.843 368H224.704C224.704 368 228.291 335.448 226.911 332.415C225.532 329.379 141.393 329.655 141.393 329.655" fill="#8B3403"/>
<path d="M246.46 175.681C242.819 174.345 238.144 172.135 234.727 169.38C228.74 164.553 224.905 158.804 222.42 153.164C225.187 156.309 228.248 159.031 231.324 161.655C235.22 164.977 241.065 167.587 247.283 168.553L246.46 175.681" fill="#492421"/>
<path d="M274.36 81.6547C274.36 81.6547 280.153 91.5867 281.256 103.724C282.36 115.863 281.256 147.035 271.324 160.276C261.393 173.517 240.704 169.655 231.324 161.655C222.717 154.313 214.221 146.207 212.015 130.207C209.808 114.207 216.704 83.8614 236.291 77.5174C255.876 71.172 274.36 81.6547 274.36 81.6547Z" fill="#6B3530"/>
<path d="M299.245 350.657C299.245 350.657 298.272 350.657 296.792 350.617C296.445 350.604 296.059 350.617 295.657 350.604C294.232 350.564 292.499 350.525 290.752 350.472C290.365 350.457 289.965 350.444 289.579 350.431C287.845 350.391 286.365 350.604 284.979 350.525H284.939C284.645 350.511 284.219 350.551 283.872 350.564C283.699 350.579 283.539 350.591 283.432 350.579C282.632 350.431 282.472 350.245 281.605 349.859C280.485 349.351 265.324 345.965 252.991 346.044C240.672 346.097 229.619 346.937 227.819 345.431C226.005 343.897 224.912 328.419 235.432 327.404L248.365 332.311C248.365 332.311 277.899 328.805 288.725 336.791C299.579 344.777 299.245 350.657 299.245 350.657" fill="#F57C83"/>
<path d="M284.939 350.525C284.645 350.511 284.219 350.551 283.872 350.564C283.605 350.139 283.044 349.364 282.739 349.044C279.405 345.644 271.352 343.444 268.432 342.737C268.165 342.671 267.991 342.404 268.059 342.139C268.112 341.871 268.392 341.711 268.672 341.764C272.925 342.791 281.952 345.419 284.512 349.724C284.592 349.844 284.805 350.257 284.939 350.525" fill="#293D8A"/>
<path d="M290.756 350.471C290.369 350.461 289.969 350.451 289.583 350.428C285.943 343.791 279.988 341.885 272.629 339.519L272.193 339.373C271.941 339.288 271.788 339.004 271.876 338.74C271.961 338.488 272.232 338.335 272.509 338.421L272.932 338.565C280.713 341.063 286.975 343.069 290.756 350.471" fill="#293D8A"/>
<path d="M296.793 350.617C296.447 350.608 296.06 350.612 295.659 350.603C293.452 345.961 286.147 338.195 276.481 336.384C276.203 336.337 276.021 336.08 276.068 335.801C276.128 335.535 276.385 335.356 276.652 335.403C286.608 337.272 294.64 345.404 296.793 350.617Z" fill="#293D8A"/>
<path d="M218.635 116.552C218.635 116.552 224.704 113.655 228.98 105.517C233.256 97.38 232.704 90.0693 232.704 90.0693C232.704 90.0693 240.428 88.828 252.015 92.276C263.6 95.724 277.393 100.415 288.98 93.7934C300.567 87.172 300.567 76.552 294.911 72.1387C288.577 67.1947 276.015 70.2067 276.015 70.2067C276.015 70.2067 280.841 65.5174 278.221 62.7587C275.6 60 266.084 63.5867 266.084 63.5867C266.084 63.5867 254.497 54.3453 232.567 55.448C210.635 56.552 200.152 71.8627 198.911 88.9654C197.669 106.069 203.877 123.172 203.877 123.172L218.635 116.552" fill="white"/>
<path d="M263.552 144.688C263.299 144.688 263.033 144.681 262.752 144.669C261.128 144.607 259.087 144.339 257.693 143.467C257.281 143.208 257.437 142.535 257.943 142.535C257.944 142.535 257.944 142.535 257.945 142.535C258.812 142.539 259.659 142.8 260.524 142.865C261.328 142.924 262.141 142.959 262.947 142.996C263.415 143.017 263.969 143.06 264.535 143.06C265.381 143.06 266.247 142.964 266.863 142.556C269.556 140.773 264.32 138.573 263.212 137.757C260.895 136.049 261.36 133.1 261.603 130.571C261.916 127.319 261.885 123.761 263.128 120.697C263.217 120.479 263.447 120.363 263.659 120.363C263.899 120.363 264.119 120.511 264.091 120.828C263.74 124.732 262.837 128.585 262.592 132.508C262.488 134.14 262.368 135.9 263.828 136.945C264.881 137.7 266.161 138.06 267.205 138.833C268.111 139.505 269.013 140.584 268.852 141.787C268.711 142.856 267.839 143.487 266.939 143.933C265.731 144.533 264.768 144.688 263.552 144.688" fill="#492421"/>
<path d="M274.404 129.871C273.992 132.196 272.301 133.84 270.625 133.544C268.951 133.248 267.927 131.121 268.337 128.797C268.749 126.472 270.44 124.827 272.116 125.123C273.791 125.419 274.816 127.545 274.404 129.871" fill="#341616"/>
<path d="M253.296 128.028C252.923 130.537 251.156 132.352 249.348 132.084C247.54 131.815 246.377 129.563 246.751 127.055C247.124 124.545 248.892 122.729 250.7 122.999C252.507 123.268 253.669 125.52 253.296 128.028" fill="#341616"/>
<path d="M269.489 120.285C270.779 120.503 272.08 120.28 273.38 120.372C273.693 120.393 274.001 120.44 274.315 120.471C274.536 120.491 273.9 120.404 274.209 120.455L274.408 120.488C274.571 120.517 274.733 120.551 274.893 120.589C275.171 120.657 275.439 120.761 275.716 120.823C275.968 120.877 276.248 120.936 276.501 120.924C276.644 120.905 276.784 120.887 276.927 120.867L276.659 120.916L277.187 120.859C277.927 120.685 278.383 119.829 278.176 119.115C278.116 118.909 278.025 118.723 277.895 118.553L277.725 118.339L277.881 118.517L277.711 118.291C277.637 118.168 277.54 118.069 277.416 117.996L277.104 117.759C276.763 117.521 276.313 117.383 275.908 117.279C275.139 117.08 274.331 116.979 273.539 116.975C272.749 116.971 271.971 117.053 271.191 117.161C270.503 117.256 269.737 117.491 269.179 117.905C268.748 118.227 268.483 118.639 268.557 119.203C268.62 119.669 268.988 120.2 269.489 120.285" fill="#341616"/>
<path d="M254.776 116.595C254.601 116.491 254.423 116.4 254.237 116.316C254.081 116.245 253.655 116.021 253.977 116.197L253.623 116.008C253.088 115.739 252.533 115.559 251.956 115.412C250.697 115.091 249.372 115.009 248.081 115.145C246.704 115.291 245.447 115.624 244.253 116.343C244.085 116.445 243.912 116.544 243.772 116.684C243.677 116.804 243.584 116.925 243.493 117.048L243.572 116.928C243.204 117.185 242.989 117.607 242.993 118.052C242.996 118.48 243.219 118.837 243.591 119.044C244.04 119.295 244.467 119.175 244.931 119.056C244.697 119.056 244.464 119.056 244.232 119.056C244.615 119.115 244.884 119.131 245.271 119.045C245.285 119.043 245.643 118.953 245.407 119.003C245.185 119.051 245.783 118.957 245.848 118.948C245.924 118.937 246.339 118.896 245.9 118.939L246.143 118.911C246.349 118.885 246.559 118.859 246.767 118.843C247.677 118.769 248.585 118.728 249.497 118.699C250.344 118.671 251.207 118.664 252.052 118.7C252.416 118.716 252.776 118.728 253.14 118.739C253.343 118.744 253.257 118.776 253.117 118.732L253.344 118.791C253.495 118.832 253.643 118.881 253.788 118.937C254.377 119.161 255.083 118.736 255.3 118.195C255.537 117.605 255.336 116.928 254.776 116.595" fill="#341616"/>
<path d="M261.325 154.943C262.592 152.397 264.895 150.532 267.557 149.332C265.247 149.097 254.333 148.087 251.58 149.651C248.495 151.401 252.151 158.435 258.529 158.788C259.2 158.825 259.809 158.771 260.389 158.68C260.441 157.396 260.737 156.125 261.325 154.943" fill="#341616"/>
<path d="M210.911 140.139C210.911 140.139 212.015 144.415 218.359 149.38C224.704 154.345 233.9 157.977 233.9 157.977L234.635 154.759C234.635 154.759 225.117 150.62 220.704 146.069C216.291 141.517 215.739 139.035 215.739 139.035L210.911 140.139" fill="#D6DCEB"/>
<path d="M235.739 152.377C240.845 152.14 243.695 156.177 244.051 158.789C244.407 161.403 241.953 164.332 236.213 161.759C229.084 158.563 230.633 152.615 235.739 152.377Z" fill="#293D8A"/>
<path d="M214.911 108.552C214.911 108.552 217.116 92.6987 227.739 81.9307C248.015 61.38 265.256 62.62 265.256 62.62C265.256 62.62 265.117 59.724 258.635 57.5173C252.548 55.4453 249.808 56.552 249.808 56.552C249.808 56.552 233.117 57.9307 219.049 73.5173C204.98 89.104 203.463 108.965 203.463 108.965L214.911 108.552" fill="#D6DCEB"/>
<path d="M213.393 106.62C200.111 104.369 192.704 114.759 192.152 125.241C191.6 135.724 199.217 143.693 209.393 142.896C232.291 141.104 229.669 109.38 213.393 106.62" fill="white"/>
<path d="M206.78 132.709C203.273 132.709 200.309 130.947 198.616 127.844C196.801 124.52 196.953 120.428 199.004 117.419C199.16 117.193 199.469 117.133 199.699 117.288C199.927 117.444 199.987 117.755 199.831 117.983C197.989 120.684 197.857 124.367 199.493 127.364C201.047 130.209 203.788 131.821 207.035 131.705C210.069 131.624 212.641 130.236 214.277 127.796C216.144 125.011 216.573 121.165 215.371 118C214.177 114.859 210.905 112.717 207.931 113.107C207.661 113.141 207.405 112.951 207.369 112.676C207.332 112.403 207.524 112.152 207.799 112.115C211.279 111.651 214.933 114.029 216.305 117.644C217.62 121.104 217.149 125.307 215.108 128.352C213.287 131.069 210.429 132.615 207.061 132.705L206.78 132.709" fill="#7588BB"/>
<path d="M197.117 176C197.117 176 156.843 185.931 142.773 201.931C128.704 217.931 122.084 296.828 121.808 311.448C121.532 326.069 131.739 332.139 137.808 336.276C143.877 340.415 170.635 347.863 192.152 348.967C213.669 350.069 234.084 348.967 234.084 348.967C234.084 348.967 234.015 344.276 237.324 337.379C240.395 330.983 244.291 329.655 244.291 329.655L225.808 323.035C225.808 323.035 222.572 265.043 217.532 236.967C211.739 204.689 197.117 176 197.117 176Z" fill="#F5AA1A"/>
<path d="M263.877 313.769L263.607 313.712C263.269 313.563 263.117 313.169 263.267 312.833C267.041 304.319 270.951 287.604 273.153 275.877L273.333 274.929C274 271.48 274.829 267.191 273.175 264.229C272.331 262.719 270.425 259.441 268.592 256.291C266.689 253.02 264.892 249.929 264.393 249.008C263.423 247.207 266.481 242.396 270.909 235.797C272.104 234.013 273.139 232.473 273.741 231.431C275.32 228.7 274.268 226.199 273.052 223.303L272.639 222.305C271.536 219.597 270.281 216.885 269.071 214.263C268.576 213.192 268.08 212.119 267.592 211.04C266.944 209.615 266.295 208.164 265.636 206.697C261.737 198.007 257.707 189.021 252.544 180.34C252.356 180.024 252.46 179.615 252.776 179.427C253.093 179.24 253.501 179.343 253.691 179.66C258.891 188.405 262.937 197.427 266.852 206.151C267.509 207.617 268.159 209.065 268.805 210.491C269.293 211.565 269.787 212.636 270.28 213.704C271.499 216.34 272.759 219.067 273.873 221.803L274.281 222.787C275.523 225.74 276.805 228.795 274.895 232.097C274.269 233.18 273.225 234.737 272.016 236.539C269.708 239.98 264.903 247.143 265.567 248.373C266.055 249.277 267.847 252.359 269.744 255.62C271.581 258.779 273.492 262.064 274.339 263.579C276.232 266.965 275.351 271.521 274.644 275.183L274.463 276.123C273.66 280.393 269.412 302.259 264.487 313.372C264.376 313.623 264.132 313.769 263.877 313.769" fill="#8B3403"/>
<path d="M224.567 316.115C224.395 316.115 224.223 316.049 224.093 315.919C220.959 312.759 205.841 286.584 204.716 281.661C204.1 278.967 205.647 272.132 207.143 265.521C208.301 260.4 209.5 255.104 209.159 253.671C208.649 251.528 204.784 248.369 201.045 245.316C196.529 241.628 191.86 237.812 190.956 234.376C189.928 230.471 190.807 206.021 191.388 189.844C191.597 184.027 191.763 179.432 191.761 177.793C191.761 177.425 192.06 177.127 192.428 177.127C192.796 177.127 193.095 177.424 193.095 177.792C193.096 179.456 192.931 184.061 192.72 189.892C192.177 205.013 191.268 230.32 192.245 234.037C193.04 237.053 197.741 240.895 201.889 244.284C205.98 247.625 209.843 250.781 210.456 253.363C210.868 255.096 209.744 260.064 208.443 265.815C207.048 271.979 205.468 278.964 206.016 281.364C207.12 286.191 221.961 311.876 225.04 314.977C225.299 315.24 225.297 315.661 225.036 315.92C224.905 316.049 224.736 316.115 224.567 316.115" fill="#8B3403"/>
<path d="M170.36 304.667L170.267 304.66C169.901 304.608 169.648 304.271 169.699 303.907C170.188 300.439 177.841 231.372 178.192 226.083C178.217 225.713 178.535 225.425 178.903 225.461C179.269 225.485 179.547 225.804 179.523 226.171C179.171 231.469 171.509 300.621 171.019 304.093C170.972 304.425 170.687 304.667 170.36 304.667" fill="#8B3403"/>
<path d="M225.256 323.424L225.005 323.376C223.309 322.689 215.817 320.161 206.332 316.964C187.188 310.507 160.968 301.665 155.983 299.075C155.656 298.905 155.529 298.503 155.699 298.176C155.868 297.848 156.268 297.717 156.597 297.892C161.492 300.435 188.733 309.621 206.759 315.699C216.265 318.907 223.773 321.437 225.507 322.14C225.848 322.279 226.012 322.667 225.873 323.008C225.768 323.267 225.519 323.424 225.256 323.424" fill="#788CBD"/>
<path d="M216.049 350.925C199.201 350.925 166.537 347.888 141.724 339.112C141.376 338.988 141.195 338.608 141.317 338.26C141.439 337.915 141.824 337.732 142.168 337.855C173.515 348.943 217.365 350.836 225.524 349.004C225.883 348.927 226.239 349.151 226.32 349.509C226.401 349.868 226.175 350.225 225.816 350.307C224.049 350.701 220.635 350.925 216.049 350.925" fill="#D45108"/>
<path d="M23.2051 185.303C28.4358 189.903 35.0603 192.852 39.6504 198.172C41.456 200.265 43.0784 202.493 44.7556 204.688C45.976 206.285 49.2334 208.935 49.7614 210.943C49.9947 211.827 49.9454 210.629 49.7107 209.743L49.672 209.632C49.2134 205.567 48.8854 201.485 48.7427 197.396C48.6 193.317 48.8547 189.223 48.5987 185.151C48.2387 179.405 46.4454 173.843 41.7494 170.244C39.454 168.484 36.5046 167.413 34.3942 165.461C32.3915 163.608 33.1951 161.485 34.3727 159.419C35.4743 157.484 36.8103 155.584 37.2394 153.357C37.7275 150.827 36.7764 148.216 35.4926 146.061C32.7614 141.475 26.7024 136.361 20.9655 137.047C16.18 137.619 15.6379 143.139 15.706 146.984C15.7727 150.723 16.1426 154.449 16.178 158.191C16.2155 162.033 15.5618 165.804 15.5071 169.629C15.4144 176.137 18.4212 181.096 23.2051 185.303" fill="#60A6DF"/>
<path d="M71.804 245.012C73.26 241.539 74.9307 238.292 76.9854 235.133C79.804 230.8 82.9307 226.577 84.8227 221.724C86.756 216.769 86.472 211.471 86.6627 206.252C86.8014 202.419 87.9414 198.595 87.6334 194.751C87.4867 192.907 86.424 189.924 84.0387 190.229C82.1827 190.467 81.0801 192.768 80.3667 194.236C79.1214 196.799 78.2587 199.532 77.3334 202.22C76.9734 203.272 76.628 204.343 76.172 205.357C75.9067 205.948 75.0627 207.388 74.2667 207.192C72.9107 206.857 74.1414 201.323 74.3427 200.343C75.3547 195.42 76.8787 190.845 77.0907 185.78C77.3974 178.436 76.8267 169.693 69.644 165.677C67.7654 164.628 65.3867 164.003 63.6027 165.573C61.8427 167.121 61.3454 169.807 61.084 172.016C60.2827 178.799 61.8787 185.221 64.052 191.603C65.8467 196.872 67.9854 202.309 68.1414 207.944C68.292 213.368 65.4694 218.175 64.1454 223.299C62.0347 231.464 62.4707 235.793 62.4614 238.437C62.4467 241.751 62.568 245.028 62.8094 248.331C63.0334 251.367 63.296 254.404 63.6667 257.425C63.7427 258.037 63.812 258.676 63.8934 259.315C62.7267 256.505 62.3187 253.288 61.352 250.465C59.636 245.447 57.6414 240.532 55.9934 235.489C54.632 231.323 53.3467 227.128 51.548 223.123C49.8627 219.364 47.8267 215.392 44.6816 212.635C42.7806 210.968 40.4759 209.993 37.9332 210.013C36.3071 210.025 34.8456 210.588 33.2926 210.999C31.3811 211.504 29.8775 211.329 28.3051 210.121C23.1571 206.164 21.5915 199.069 17.7806 194.059C14.9379 190.321 8.19364 183.951 3.23418 188.027C0.60351 190.188 -0.121955 194.365 0.016045 197.568C0.189378 201.585 1.94511 205.26 4.03631 208.62C6.26031 212.192 9.13111 215.391 11.1748 219.064C12.3832 221.233 12.5723 223.312 12.38 225.76C12.1999 228.065 11.9983 230.299 12.7842 232.523C15.1442 239.201 22.5134 238.269 28.2447 238.444C32.2551 238.565 36.5576 239.163 40.365 240.445C44.7655 241.927 47.628 244.791 49.2014 249.143C50.3387 252.293 50.948 255.869 53.092 258.545C54.1 259.804 55.4347 260.733 56.9027 261.383C59.1374 262.369 65.952 262.801 66.0027 262.179C66.1707 260.095 67.1587 257.896 67.7774 255.919C68.9374 252.211 70.3014 248.593 71.804 245.012" fill="#60A6DF"/>
<path d="M103.445 243.753C102.852 239.935 102.965 235.727 101.157 232.22C101.028 231.969 100.687 231.905 100.453 232.035C99.1574 232.753 99.104 234.847 98.9974 236.129C98.8227 238.257 98.9534 240.391 98.6907 242.513C98.232 246.241 97.3707 250.084 96.0267 253.597C94.508 257.573 91.744 259.827 87.7307 261.068C85.152 261.864 82.6227 262.559 80.4707 264.269C78.5427 265.803 77.204 267.916 76.2107 270.141C73.532 276.151 72.256 282.868 71.0134 289.288C70.1774 293.611 69.4947 297.953 68.4454 302.233C67.396 306.509 66.2694 310.764 65.668 315.133C65.5667 315.353 65.4587 315.572 65.3654 315.795C65.0907 316.448 66.112 316.801 66.464 316.257C70.608 309.88 75.6547 304.156 82.54 300.644C85.6494 299.059 89.78 298.729 92.3734 296.237C94.3467 294.341 94.6174 291.448 94.3227 288.869C93.9347 285.481 92.312 282.693 90.62 279.807C89.692 278.22 88.5947 276.521 88.9694 274.593C89.3227 272.775 90.8347 271.439 92.3347 270.507C95.1974 268.729 98.544 267.929 100.888 265.368C103.065 262.989 104.272 260.029 104.513 256.824C104.835 252.552 104.099 247.972 103.445 243.753" fill="#60A6DF"/>
<path d="M46.9573 265.771C43.3019 261.061 38.8889 257 33.9248 253.703C31.2759 251.944 25.0264 248.473 23.7655 253.663C23.0259 256.704 26.0024 259.696 27.9613 261.603C30.9056 264.468 34.3108 266.94 36.7947 270.243C33.7191 271.223 30.5056 271.415 27.8332 273.54C24.6696 276.059 23.2504 280.92 26.3873 284.004C27.916 285.507 29.9431 286.429 31.8467 287.352C34.3212 288.549 36.8415 289.636 39.378 290.696C44.8551 292.983 50.4013 295.304 55.072 299.052C59.832 302.871 64.308 309.328 64.6853 315.559C64.7227 316.153 64.496 315.612 64.8507 315.34C65.0453 315.515 65.6987 315.201 65.6947 314.855C65.5973 305.608 63.936 296.805 60.1573 288.336C56.656 280.484 52.2373 272.573 46.9573 265.771" fill="#60A6DF"/>
<path d="M34.3306 179.699C36.3472 183.885 38.456 187.975 40.6951 192.056C42.8499 195.985 45.003 199.885 46.6147 204.077C48.6 209.239 50.6814 214.323 52.78 219.439C54.9614 224.756 56.9107 230.175 58.4747 235.705C61.528 246.504 63.796 257.619 64.9173 268.787C65.488 274.467 65.7467 280.18 65.5907 285.885C65.468 290.345 64.9654 294.756 64.5467 299.193C64.1107 303.808 63.796 308.479 64.1827 313.111C64.5054 316.983 65.1214 321.585 68.1267 324.348C68.7134 324.889 69.5467 324.215 69.2053 323.516C65.6347 316.193 65.8347 308.209 66.5173 300.269C66.8947 295.885 67.4174 291.525 67.5654 287.125C67.7534 281.527 67.5334 275.917 67.0067 270.341C65.9707 259.38 63.7853 248.549 60.9507 237.92C59.496 232.471 57.6974 227.127 55.6254 221.879C53.5467 216.621 51.148 211.508 49.1347 206.224C45.4947 196.668 39.9456 188.195 35.0316 179.289C34.7764 178.827 34.106 179.233 34.3306 179.699" fill="#3E579E"/>
<path d="M65.0814 257.839C65.6587 250.88 66.2747 244.179 68.6213 237.54C69.7147 234.444 71.0414 231.433 72.0974 228.325C72.9694 225.756 74.2747 222.233 73.6027 219.503C73.528 219.197 73.084 219.213 73 219.503C72.5507 221.063 72.6 222.773 72.2774 224.372C71.9614 225.928 71.5413 227.459 71.0573 228.971C70.028 232.187 68.6827 235.268 67.5173 238.433C65.2667 244.548 64.1107 251.321 64.6027 257.839C64.6253 258.147 65.056 258.147 65.0814 257.839" fill="#3E579E"/>
<path d="M24.756 217.847C27.5186 224.52 35.8223 224.905 41.8702 226.4C46.1894 227.467 49.3774 230.348 51.6667 234.088C54.1734 238.18 55.868 242.984 57.2614 247.551L57.3427 247.529C55.6507 239.531 53.2267 229.9 44.9816 226.179C38.3743 223.196 29.6675 224.695 25.4415 217.557C25.2338 217.207 24.589 217.443 24.756 217.847" fill="#3E579E"/>
<path d="M60.7147 256.783C61.0441 257.227 61.3454 257.691 61.684 258.125C61.852 258.341 62.0227 258.544 62.2347 258.717C62.452 258.895 62.7054 259.115 63.0027 259.109C63.1267 259.107 63.2134 258.969 63.1467 258.859C63.0107 258.636 62.764 258.501 62.572 258.332C62.3734 258.157 62.1721 257.985 61.9801 257.805C61.5934 257.44 61.2401 257.043 60.8627 256.669L60.7147 256.783" fill="#3E579E"/>
<path d="M43.4415 277.952C48.2067 281.863 52.6027 286.491 56.0947 291.561C57.7641 293.985 59.3054 296.551 60.7027 299.14C62.2294 301.969 63.2307 304.959 64.4267 307.925C64.5174 308.151 64.9294 308.156 64.8974 307.863C64.2361 301.587 60.2614 296.207 57.0774 290.985C55.4241 288.273 53.3681 286.087 51.1574 283.825C48.8747 281.489 46.5481 279.28 43.8718 277.396C43.5462 277.167 43.1306 277.696 43.4415 277.952" fill="#3E579E"/>
<path d="M81.3828 270.564C79.0881 271.864 79.0134 275.489 78.9681 277.804C78.8814 282.251 79.9828 286.427 78.0308 290.664C76.2681 294.492 73.4521 297.688 71.2387 301.243C69.1654 304.569 67.1214 308.823 67.1668 312.828C67.1694 313.059 67.5241 313.191 67.6321 312.955C68.4668 311.136 68.7668 309.071 69.3654 307.165C70.0374 305.023 70.9761 303.077 72.1921 301.193C74.3227 297.892 76.9374 294.887 78.6668 291.336C80.4881 287.593 80.2214 283.887 80.1001 279.832C80.0241 277.247 79.7654 273.092 81.8494 271.169C82.1774 270.868 81.7588 270.352 81.3828 270.564Z" fill="#3E579E"/>
<path d="M66.0387 313.241C56.7947 313.113 39.1868 313.012 39.1868 313.012L43.5442 345.361C44.5238 352.639 50.736 358.069 58.0787 358.069H65.6707H66.4054H73.996C81.34 358.069 87.552 352.639 88.532 345.361L92.8894 313.012C92.8894 313.012 75.2814 313.113 66.0387 313.241Z" fill="white"/>
<path d="M512.843 253.793L460.105 358.252L306.36 359.357L353.808 252.321L512.843 253.793Z" fill="#F5F6F9"/>
<path d="M204.32 358.705L204.349 350.345H303.877L349.669 249.931H508.841L512.843 253.793H357.348L309.761 358.621C309.761 358.621 204.32 358.431 204.32 358.705" fill="#D1D8E8"/>
<path d="M433.005 311.436C431.268 316.647 421.841 320.671 411.949 320.423C402.057 320.176 395.447 315.752 397.183 310.54C398.92 305.331 408.347 301.307 418.239 301.555C428.131 301.803 434.743 306.227 433.005 311.436" fill="#D1D8E8"/>
<path d="M309.763 359.288L309.487 359.228C309.152 359.076 309.003 358.681 309.155 358.345L356.919 253.127H512.843C513.212 253.127 513.509 253.424 513.509 253.793C513.509 254.161 513.212 254.46 512.843 254.46H357.777L310.369 358.897C310.259 359.141 310.015 359.288 309.763 359.288" fill="white"/>
<path d="M14.4973 407.172H197.393V366.622H14.4973V407.172Z" fill="#481C03"/>
<path d="M196.348 407.172H525.415V366.622H196.348V407.172Z" fill="#B64607"/>
<path d="M14.4973 374.069H196.348V366.621H14.4973V374.069Z" fill="#401B07"/>
<path d="M525.415 374.069H196.348V366.621H525.415V374.069Z" fill="#553321"/>
<path d="M205.393 368.552H5.66962V358.621H205.393V368.552Z" fill="#8A5233"/>
<path d="M533.415 368.552H204.349V358.621H533.415V368.552Z" fill="#D27F50"/>
<path d="M151.217 145.86H86.652C82.656 145.86 79.4174 142.621 79.4174 138.625V106.392C79.4174 102.397 82.656 99.1574 86.652 99.1574H151.217C155.212 99.1574 158.452 102.397 158.452 106.392V138.625C158.452 142.621 155.212 145.86 151.217 145.86Z" fill="white"/>
<path d="M176.852 122.509L152.603 112.277V132.741L176.852 122.509Z" fill="white"/>
<path d="M108.084 122.509C108.084 124.976 106.084 126.975 103.617 126.975C101.151 126.975 99.1507 124.976 99.1507 122.509C99.1507 120.041 101.151 118.043 103.617 118.043C106.084 118.043 108.084 120.041 108.084 122.509Z" fill="#293D8A"/>
<path d="M123.401 122.509C123.401 124.976 121.401 126.975 118.935 126.975C116.468 126.975 114.468 124.976 114.468 122.509C114.468 120.041 116.468 118.043 118.935 118.043C121.401 118.043 123.401 120.041 123.401 122.509Z" fill="#293D8A"/>
<path d="M138.719 122.509C138.719 124.976 136.719 126.975 134.252 126.975C131.785 126.975 129.785 124.976 129.785 122.509C129.785 120.041 131.785 118.043 134.252 118.043C136.719 118.043 138.719 120.041 138.719 122.509Z" fill="#293D8A"/>
<path d="M479.923 2.42343e-05H330.865C321.292 2.42343e-05 313.532 7.76002 313.532 17.3334V88.0467C313.532 97.6187 321.292 105.38 330.865 105.38H344.225C344.601 111.789 343.683 121.325 338.329 133.517C355.551 125.573 365.468 113.645 370.648 105.38H479.923C489.495 105.38 497.256 97.6187 497.256 88.0467V17.3334C497.256 7.76002 489.495 2.42343e-05 479.923 2.42343e-05Z" fill="#599FDC"/>
<path d="M416.336 33.7014H342.405C340.375 33.7014 338.727 32.0548 338.727 30.0241C338.727 27.9921 340.375 26.3454 342.405 26.3454H416.336C418.368 26.3454 420.015 27.9921 420.015 30.0241C420.015 32.0548 418.368 33.7014 416.336 33.7014Z" fill="white"/>
<path d="M469.348 55.1267H340.98C339.736 55.1267 338.727 54.1187 338.727 52.8747C338.727 51.6307 339.736 50.6214 340.98 50.6214H469.348C470.592 50.6214 471.601 51.6307 471.601 52.8747C471.601 54.1187 470.592 55.1267 469.348 55.1267Z" fill="#C3E4F7"/>
<path d="M469.348 67.6333H340.98C339.736 67.6333 338.727 66.6239 338.727 65.3799C338.727 64.1359 339.736 63.1266 340.98 63.1266H469.348C470.592 63.1266 471.601 64.1359 471.601 65.3799C471.601 66.6239 470.592 67.6333 469.348 67.6333Z" fill="#C3E4F7"/>
<path d="M441.345 80.9667H340.98C339.736 80.9667 338.727 79.9573 338.727 78.7133C338.727 77.4693 339.736 76.46 340.98 76.46H441.345C442.591 76.46 443.6 77.4693 443.6 78.7133C443.6 79.9573 442.591 80.9667 441.345 80.9667" fill="#C3E4F7"/>
<path d="M468.34 33.7014H433.072C431.041 33.7014 429.393 32.0548 429.393 30.0241C429.393 27.9921 431.041 26.3454 433.072 26.3454H468.34C470.372 26.3454 472.017 27.9921 472.017 30.0241C472.017 32.0548 470.372 33.7014 468.34 33.7014Z" fill="white"/>
<path d="M379.451 196.323H339.405C337.932 196.323 336.739 195.128 336.739 193.656V166.299C336.739 164.827 337.932 163.632 339.405 163.632H379.451C380.924 163.632 382.117 164.827 382.117 166.299V193.656C382.117 195.128 380.924 196.323 379.451 196.323Z" fill="white"/>
<path d="M359.705 184.863C359.48 184.863 359.253 184.785 359.068 184.633L337.273 166.632C336.848 166.28 336.788 165.651 337.14 165.224C337.493 164.799 338.124 164.74 338.547 165.091L359.688 182.551L380.289 164.624C380.705 164.263 381.337 164.307 381.7 164.723C382.063 165.14 382.019 165.771 381.601 166.133L360.361 184.616C360.173 184.78 359.939 184.863 359.705 184.863" fill="#647AB4"/>
<path d="M337.911 195.576C337.663 195.576 337.415 195.484 337.221 195.3C336.821 194.919 336.805 194.287 337.187 193.887L352.429 177.863C352.807 177.461 353.443 177.445 353.841 177.827C354.243 178.208 354.259 178.84 353.877 179.241L338.635 195.265C338.439 195.472 338.175 195.576 337.911 195.576Z" fill="#647AB4"/>
<path d="M380.945 194.989C380.689 194.989 380.433 194.892 380.237 194.696L365.056 179.473C364.667 179.083 364.667 178.448 365.059 178.059C365.451 177.668 366.084 177.669 366.473 178.06L381.655 193.283C382.044 193.675 382.044 194.308 381.652 194.697C381.456 194.892 381.201 194.989 380.945 194.989" fill="#647AB4"/>
<path d="M397.577 162.62C397.577 170.009 391.588 176 384.199 176C376.809 176 370.82 170.009 370.82 162.62C370.82 155.232 376.809 149.241 384.199 149.241C391.588 149.241 397.577 155.232 397.577 162.62Z" fill="#F1494A"/>
<path d="M380.939 162.571C381.472 162.827 381.904 163.195 382.235 163.675C382.576 164.144 382.747 164.677 382.747 165.275C382.747 165.84 382.592 166.363 382.283 166.843C381.984 167.323 381.568 167.701 381.035 167.979C380.512 168.256 379.936 168.395 379.307 168.395C378.677 168.395 378.101 168.256 377.579 167.979C377.056 167.701 376.64 167.323 376.331 166.843C376.032 166.363 375.883 165.84 375.883 165.275C375.883 164.656 376.048 164.117 376.379 163.659C376.709 163.2 377.131 162.843 377.643 162.587C377.216 162.363 376.859 162.032 376.571 161.595C376.283 161.147 376.139 160.651 376.139 160.107C376.139 159.541 376.277 159.029 376.555 158.571C376.843 158.101 377.227 157.733 377.707 157.467C378.197 157.2 378.731 157.067 379.307 157.067C379.883 157.067 380.411 157.2 380.891 157.467C381.381 157.733 381.765 158.101 382.043 158.571C382.32 159.029 382.459 159.541 382.459 160.107C382.459 160.661 382.309 161.152 382.011 161.579C381.723 162.005 381.365 162.336 380.939 162.571ZM379.307 157.979C378.656 157.979 378.128 158.176 377.723 158.571C377.317 158.965 377.115 159.477 377.115 160.107C377.115 160.523 377.216 160.896 377.419 161.227C377.621 161.547 377.888 161.797 378.219 161.979C378.56 162.16 378.923 162.251 379.307 162.251C379.691 162.251 380.048 162.16 380.379 161.979C380.72 161.797 380.987 161.547 381.179 161.227C381.381 160.896 381.483 160.523 381.483 160.107C381.483 159.477 381.28 158.965 380.875 158.571C380.469 158.176 379.947 157.979 379.307 157.979ZM379.307 167.467C380.032 167.467 380.624 167.264 381.083 166.859C381.541 166.443 381.771 165.915 381.771 165.275C381.771 164.859 381.659 164.48 381.435 164.139C381.211 163.797 380.907 163.531 380.523 163.339C380.149 163.136 379.744 163.035 379.307 163.035C378.869 163.035 378.464 163.136 378.091 163.339C377.717 163.531 377.419 163.797 377.195 164.139C376.971 164.48 376.859 164.859 376.859 165.275C376.859 165.915 377.083 166.443 377.531 166.859C377.989 167.264 378.581 167.467 379.307 167.467ZM387.89 160.827C388.572 160.827 389.186 160.981 389.73 161.291C390.284 161.589 390.716 162.016 391.026 162.571C391.346 163.115 391.506 163.728 391.506 164.411C391.506 165.157 391.33 165.829 390.978 166.427C390.636 167.013 390.156 167.472 389.538 167.803C388.919 168.133 388.215 168.299 387.426 168.299C386.978 168.299 386.53 168.224 386.082 168.075C385.644 167.925 385.26 167.712 384.93 167.435C384.866 167.392 384.812 167.333 384.77 167.259C384.738 167.173 384.722 167.093 384.722 167.019C384.722 166.912 384.764 166.811 384.85 166.715C384.946 166.608 385.058 166.555 385.186 166.555C385.303 166.555 385.42 166.603 385.538 166.699C385.815 166.912 386.114 167.077 386.434 167.195C386.764 167.312 387.095 167.371 387.426 167.371C388.034 167.371 388.572 167.248 389.042 167.003C389.522 166.757 389.89 166.411 390.146 165.963C390.412 165.515 390.546 165.008 390.546 164.443C390.546 163.632 390.284 162.981 389.762 162.491C389.239 161.989 388.54 161.739 387.666 161.739C387.335 161.739 387.026 161.787 386.738 161.883C386.46 161.979 386.146 162.107 385.794 162.267C385.538 162.395 385.372 162.459 385.298 162.459C385.138 162.459 385.004 162.411 384.898 162.315C384.802 162.208 384.754 162.085 384.754 161.947C384.754 161.893 384.759 161.851 384.77 161.819L385.458 157.467C385.479 157.36 385.532 157.269 385.618 157.195C385.714 157.109 385.826 157.067 385.954 157.067H390.77C390.898 157.067 391.004 157.115 391.09 157.211C391.186 157.296 391.234 157.408 391.234 157.547C391.234 157.675 391.186 157.787 391.09 157.883C391.004 157.968 390.898 158.011 390.77 158.011H386.29L385.746 161.323C386.023 161.184 386.348 161.067 386.722 160.971C387.106 160.875 387.495 160.827 387.89 160.827Z" fill="white"/>
<path d="M518.576 157.696H440.415C437.469 157.696 435.081 155.308 435.081 152.363V140.133C435.081 137.188 437.469 134.8 440.415 134.8H518.576C521.521 134.8 523.909 137.188 523.909 140.133V152.363C523.909 155.308 521.521 157.696 518.576 157.696Z" fill="#293D8A"/>
<path d="M446.057 152.252C445.707 152.252 445.425 152.128 445.212 151.877C444.999 151.628 444.905 151.315 444.932 150.94L445.268 147.975L445.232 147.825L445.044 147.863L442.604 149.625C442.304 149.851 441.991 149.933 441.665 149.869C441.341 149.808 441.079 149.613 440.879 149.288C440.653 148.888 440.609 148.537 440.747 148.237C440.883 147.937 441.116 147.725 441.44 147.6L444.18 146.361L444.293 146.249L444.18 146.136L441.44 144.897C441.091 144.748 440.865 144.511 440.767 144.185C440.665 143.86 440.704 143.535 440.879 143.209C441.079 142.884 441.341 142.691 441.665 142.627C441.991 142.565 442.304 142.635 442.604 142.835L445.044 144.636L445.232 144.672L445.268 144.523L444.932 141.557C444.905 141.183 445.005 140.869 445.232 140.62C445.457 140.369 445.757 140.245 446.132 140.245C446.483 140.245 446.769 140.369 446.995 140.62C447.22 140.869 447.308 141.183 447.257 141.557L446.92 144.523L446.957 144.672L447.147 144.636L449.585 142.872C449.884 142.645 450.204 142.565 450.543 142.627C450.879 142.691 451.135 142.884 451.311 143.209C451.536 143.609 451.58 143.96 451.44 144.26C451.304 144.56 451.072 144.773 450.747 144.897L448.008 146.136L447.896 146.249L448.008 146.361L450.747 147.6C451.099 147.749 451.329 147.988 451.44 148.312C451.553 148.639 451.511 148.964 451.311 149.288C451.135 149.613 450.879 149.808 450.543 149.869C450.204 149.933 449.884 149.863 449.585 149.664L447.147 147.863L446.957 147.825L446.92 147.975L447.257 150.94C447.308 151.315 447.213 151.628 446.977 151.877C446.737 152.128 446.432 152.252 446.057 152.252" fill="white"/>
<path d="M462.223 152.252C461.873 152.252 461.592 152.128 461.379 151.877C461.165 151.628 461.072 151.315 461.097 150.94L461.435 147.975L461.397 147.825L461.211 147.863L458.771 149.625C458.471 149.851 458.157 149.933 457.832 149.869C457.508 149.808 457.245 149.613 457.045 149.288C456.82 148.888 456.776 148.537 456.913 148.237C457.049 147.937 457.281 147.725 457.607 147.6L460.347 146.361L460.46 146.249L460.347 146.136L457.607 144.897C457.257 144.748 457.032 144.511 456.932 144.185C456.832 143.86 456.871 143.535 457.045 143.209C457.245 142.884 457.508 142.691 457.832 142.627C458.157 142.565 458.471 142.635 458.771 142.835L461.211 144.636L461.397 144.672L461.435 144.523L461.097 141.557C461.072 141.183 461.172 140.869 461.397 140.62C461.623 140.369 461.923 140.245 462.299 140.245C462.649 140.245 462.936 140.369 463.161 140.62C463.387 140.869 463.475 141.183 463.424 141.557L463.087 144.523L463.124 144.672L463.312 144.636L465.751 142.872C466.049 142.645 466.371 142.565 466.708 142.627C467.045 142.691 467.301 142.884 467.477 143.209C467.701 143.609 467.745 143.96 467.607 144.26C467.471 144.56 467.239 144.773 466.913 144.897L464.175 146.136L464.063 146.249L464.175 146.361L466.913 147.6C467.264 147.749 467.496 147.988 467.607 148.312C467.72 148.639 467.677 148.964 467.477 149.288C467.301 149.613 467.045 149.808 466.708 149.869C466.371 149.933 466.049 149.863 465.751 149.664L463.312 147.863L463.124 147.825L463.087 147.975L463.424 150.94C463.475 151.315 463.38 151.628 463.143 151.877C462.904 152.128 462.599 152.252 462.223 152.252" fill="white"/>
<path d="M478.389 152.252C478.04 152.252 477.757 152.128 477.545 151.877C477.331 151.628 477.237 151.315 477.264 150.94L477.601 147.975L477.564 147.825L477.377 147.863L474.936 149.625C474.636 149.851 474.323 149.933 473.999 149.869C473.673 149.808 473.411 149.613 473.212 149.288C472.985 148.888 472.941 148.537 473.08 148.237C473.216 147.937 473.448 147.725 473.773 147.6L476.513 146.361L476.625 146.249L476.513 146.136L473.773 144.897C473.424 144.748 473.197 144.511 473.099 144.185C472.999 143.86 473.037 143.535 473.212 143.209C473.411 142.884 473.673 142.691 473.999 142.627C474.323 142.565 474.636 142.635 474.936 142.835L477.377 144.636L477.564 144.672L477.601 144.523L477.264 141.557C477.237 141.183 477.339 140.869 477.564 140.62C477.789 140.369 478.089 140.245 478.465 140.245C478.816 140.245 479.101 140.369 479.327 140.62C479.553 140.869 479.641 141.183 479.589 141.557L479.253 144.523L479.291 144.672L479.479 144.636L481.917 142.872C482.216 142.645 482.536 142.565 482.875 142.627C483.212 142.691 483.468 142.884 483.644 143.209C483.868 143.609 483.912 143.96 483.773 144.26C483.637 144.56 483.404 144.773 483.08 144.897L480.341 146.136L480.228 146.249L480.341 146.361L483.08 147.6C483.431 147.749 483.661 147.988 483.773 148.312C483.885 148.639 483.843 148.964 483.644 149.288C483.468 149.613 483.212 149.808 482.875 149.869C482.536 149.933 482.216 149.863 481.917 149.664L479.479 147.863L479.291 147.825L479.253 147.975L479.589 150.94C479.641 151.315 479.545 151.628 479.309 151.877C479.071 152.128 478.764 152.252 478.389 152.252" fill="white"/>
<path d="M494.555 152.252C494.205 152.252 493.924 152.128 493.712 151.877C493.497 151.628 493.404 151.315 493.431 150.94L493.768 147.975L493.729 147.825L493.543 147.863L491.103 149.625C490.803 149.851 490.489 149.933 490.164 149.869C489.84 149.808 489.577 149.613 489.377 149.288C489.152 148.888 489.108 148.537 489.245 148.237C489.381 147.937 489.615 147.725 489.939 147.6L492.679 146.361L492.792 146.249L492.679 146.136L489.939 144.897C489.589 144.748 489.364 144.511 489.265 144.185C489.164 143.86 489.203 143.535 489.377 143.209C489.577 142.884 489.84 142.691 490.164 142.627C490.489 142.565 490.803 142.635 491.103 142.835L493.543 144.636L493.729 144.672L493.768 144.523L493.431 141.557C493.404 141.183 493.504 140.869 493.729 140.62C493.956 140.369 494.256 140.245 494.631 140.245C494.981 140.245 495.268 140.369 495.493 140.62C495.719 140.869 495.807 141.183 495.756 141.557L495.419 144.523L495.456 144.672L495.645 144.636L498.084 142.872C498.383 142.645 498.703 142.565 499.041 142.627C499.377 142.691 499.633 142.884 499.809 143.209C500.035 143.609 500.079 143.96 499.939 144.26C499.803 144.56 499.571 144.773 499.245 144.897L496.507 146.136L496.395 146.249L496.507 146.361L499.245 147.6C499.597 147.749 499.828 147.988 499.939 148.312C500.052 148.639 500.009 148.964 499.809 149.288C499.633 149.613 499.377 149.808 499.041 149.869C498.703 149.933 498.383 149.863 498.084 149.664L495.645 147.863L495.456 147.825L495.419 147.975L495.756 150.94C495.807 151.315 495.712 151.628 495.476 151.877C495.236 152.128 494.931 152.252 494.555 152.252" fill="white"/>
<path d="M510.721 152.252C510.372 152.252 510.091 152.128 509.879 151.877C509.664 151.628 509.571 151.315 509.596 150.94L509.935 147.975L509.896 147.825L509.709 147.863L507.269 149.625C506.969 149.851 506.656 149.933 506.331 149.869C506.007 149.808 505.744 149.613 505.544 149.288C505.319 148.888 505.275 148.537 505.412 148.237C505.548 147.937 505.78 147.725 506.105 147.6L508.845 146.361L508.959 146.249L508.845 146.136L506.105 144.897C505.756 144.748 505.531 144.511 505.431 144.185C505.331 143.86 505.369 143.535 505.544 143.209C505.744 142.884 506.007 142.691 506.331 142.627C506.656 142.565 506.969 142.635 507.269 142.835L509.709 144.636L509.896 144.672L509.935 144.523L509.596 141.557C509.571 141.183 509.671 140.869 509.896 140.62C510.121 140.369 510.421 140.245 510.797 140.245C511.148 140.245 511.435 140.369 511.66 140.62C511.885 140.869 511.973 141.183 511.923 141.557L511.585 144.523L511.623 144.672L511.811 144.636L514.249 142.872C514.548 142.645 514.869 142.565 515.207 142.627C515.544 142.691 515.8 142.884 515.976 143.209C516.2 143.609 516.244 143.96 516.105 144.26C515.969 144.56 515.737 144.773 515.412 144.897L512.673 146.136L512.56 146.249L512.673 146.361L515.412 147.6C515.763 147.749 515.995 147.988 516.105 148.312C516.219 148.639 516.176 148.964 515.976 149.288C515.8 149.613 515.544 149.808 515.207 149.869C514.869 149.933 514.548 149.863 514.249 149.664L511.811 147.863L511.623 147.825L511.585 147.975L511.923 150.94C511.973 151.315 511.879 151.628 511.641 151.877C511.403 152.128 511.097 152.252 510.721 152.252" fill="#5DA4DE"/>
</svg>
