<svg width="161" height="487" viewBox="0 0 161 487" fill="none" xmlns="http://www.w3.org/2000/svg">
<path d="M113.934 156.225C112.663 157.85 111.448 159.399 110.335 160.741C103.036 162.287 100.761 164.559 97.7169 171.369L103.039 197.343C113.631 193.66 121.707 183.221 128.757 174.502C129.36 173.756 129.953 173.02 130.53 172.289C129.981 172.261 129.424 172.197 128.855 172.095C121.338 170.842 114.786 163.845 113.934 156.225" fill="#D45108"/>
<path d="M137.961 147.761C136.838 144.273 134.281 140.549 130.617 140.635C128.624 140.682 126.854 141.881 125.323 143.159C121.833 146.07 117.647 151.477 113.934 156.226C114.786 163.846 121.338 170.842 128.855 172.095C129.424 172.197 129.981 172.261 130.53 172.289C136.696 164.501 141.1 157.522 137.961 147.761" fill="#6B3530"/>
<path d="M66.0686 173.319C66.1172 171.219 65.085 169.188 63.5853 167.717C62.0843 166.247 60.1503 165.288 58.1588 164.616C53.8948 163.175 49.0955 163.183 44.7248 164.261C36.9366 158.959 29.4321 153.243 22.2541 147.142C17.8181 150.419 13.2038 157.374 9.72636 161.655C23.3334 178.321 41.0927 189.349 61.2885 196.771L66.0686 173.319" fill="#6B3530"/>
<path d="M137.422 407.619C168.859 425.777 168.859 455.221 137.422 473.381C105.984 491.54 55.0144 491.54 23.5776 473.381C-7.8592 455.221 -7.8592 425.779 23.5776 407.619C55.0163 389.46 105.986 389.46 137.422 407.619Z" fill="white"/>
<path d="M66.0686 173.319C66.1172 171.219 65.085 169.188 63.5853 167.717C62.0843 166.247 60.1503 165.288 58.1588 164.616C53.8948 163.175 49.0955 163.183 44.7248 164.261C42.362 162.652 40.0347 160.993 37.7253 159.309C32.947 165.417 30.7539 172.762 29.8628 180.487C39.3661 187.294 49.9424 192.602 61.2885 196.771L66.0686 173.319" fill="#D45108"/>
<path d="M57.4409 195.296C48.4453 188.286 39.8212 180.761 31.1107 173.453C30.5458 175.745 30.1382 178.096 29.8628 180.486C38.2828 186.517 47.5472 191.368 57.4409 195.296Z" fill="#873203"/>
<path d="M56.2632 265.975C84.2324 269.326 83.8211 286.751 83.8211 286.751L72.5261 359.387L64.4566 422.677H51.1164C45.4331 339.489 56.2632 265.975 56.2632 265.975" fill="#A3571E"/>
<path d="M76.3058 285.754C76.3058 285.754 63.8637 277.072 62.4061 269.478L109.11 271.287C109.11 271.287 116.919 369.377 116.72 422.677H103.489L76.3058 285.754" fill="#F68619"/>
<path d="M115.624 422.677C115.62 424.658 115.608 426.585 115.585 428.436H105.029L104.439 422.677H115.624Z" fill="#F89B87"/>
<path d="M63.3541 422.677C63.3502 424.658 63.3387 426.585 63.3158 428.436H52.7591L52.1689 422.677H63.3541Z" fill="#F89B87"/>
<path d="M66.6843 277.111C64.215 274.409 62.0536 271.329 61.4928 268.407L108.691 265.976C108.691 265.976 109.074 271.501 109.254 273.797C95.1836 277.363 80.7896 278.695 66.6843 277.111Z" fill="#A3571E"/>
<path d="M104.431 427.574L116.786 427.205C120.229 431.105 122.684 436.015 123.885 441.264H101.576C102.027 436.591 102.947 431.996 104.431 427.574" fill="#021D19"/>
<path d="M64.021 427.574L51.6657 427.205C48.2218 431.105 27.4876 436.015 26.287 441.264H66.876C66.4251 436.591 65.5054 431.996 64.021 427.574Z" fill="#021D19"/>
<path d="M105.832 364.713C107.365 361.847 108.967 359.054 110.237 356.029C111.519 352.972 112.437 349.795 113.364 346.597C113.478 346.206 113.989 346.369 113.922 346.765C113.365 350.085 112.262 353.317 111.01 356.395C109.759 359.464 108.307 362.538 106.376 365.169C106.127 365.51 105.639 365.075 105.832 364.713" fill="#A3571E"/>
<path d="M58.4115 176.694C58.6095 172.867 61.0149 169.53 64.5508 168.051C72.0646 164.907 80.4676 163.87 88.638 164.384C96.1326 164.858 103.478 166.566 110.647 168.858C115.34 170.358 118.187 175.096 117.415 179.963C113.001 207.786 111.206 236.374 112.305 264.476C112.376 266.304 112.546 268.934 110.801 269.478C94.7402 274.49 71.8424 275.312 56.558 271.242C52.7678 270.233 55.7532 266.737 55.743 262.814C55.6676 234.737 56.9655 204.479 58.4115 176.694" fill="#D45108"/>
<path d="M92.7195 146.555C92.2302 152.808 92.3759 159.112 93.15 165.337C93.3071 166.596 92.7731 167.842 91.7333 168.57C88.8655 170.579 85.2057 171.466 81.7656 170.949C80.0168 170.686 78.7879 169.078 78.9348 167.315C79.2695 163.269 79.3717 159.428 79.2759 155.242C82.6994 150.9 87.4552 148.249 92.7195 146.555Z" fill="#6B3530"/>
<path d="M79.2759 155.242C82.6994 150.9 87.4552 148.249 92.7195 146.555C92.5113 149.221 92.4257 151.897 92.4461 154.571C90.065 161.091 85.7524 167.306 79.9401 170.018C79.2478 169.329 78.8479 168.352 78.9348 167.315C79.2695 163.269 79.3717 159.428 79.2759 155.242Z" fill="#492421"/>
<path d="M93.9241 145.01C94.6471 142.294 95.3701 139.575 96.0931 136.858C96.47 135.438 96.8507 133.959 96.5671 132.516C96.2835 131.075 95.1223 129.692 93.6533 129.671C89.7584 123.944 82.7172 120.718 75.8396 121.548C73.4738 121.833 71.0556 122.637 69.4511 124.398C67.5976 126.431 67.1416 129.373 67.1594 132.124C67.1812 135.401 68.6489 135.753 70.8946 138.142C73.0331 140.415 75.4372 144.453 78.5132 144.979C83.7277 145.871 88.6968 145.819 93.9241 145.01" fill="white"/>
<path d="M93.1717 145.065C93.827 142.588 94.4811 140.109 95.1351 137.631C95.4775 136.336 95.8211 134.987 95.5656 133.672C95.3089 132.358 94.2563 131.096 92.9265 131.078C89.4008 125.853 83.0251 122.913 76.7977 123.669C74.6567 123.931 72.4659 124.663 71.0135 126.269C69.335 128.122 68.9223 130.805 68.939 133.314C68.9594 136.303 70.2879 136.625 72.3203 138.801C74.2569 140.875 76.4349 144.556 79.2197 145.036C83.9398 145.85 88.4401 145.803 93.1717 145.065" fill="white"/>
<path d="M70.5856 136.359C69.4206 145.091 73.0127 160.553 77.8388 160.728C88.1425 161.101 90.3486 154.629 92.077 148.276C92.0476 148.386 92.7872 148.797 93.5422 148.752C94.2882 148.709 95.2782 147.829 95.687 147.218C96.4752 146.037 97.2787 144.195 96.4305 142.843C95.4098 141.218 93.15 140.886 92.1945 142.796C92.2661 139.602 91.2224 136.646 90.1149 133.665C89.7636 132.719 89.0214 131.963 88.071 131.63C83.4837 130.024 77.8094 129.951 73.1851 131.415C72.2769 131.703 71.5717 132.421 71.2882 133.33C70.9675 134.362 70.6967 135.53 70.5856 136.359Z" fill="#6B3530"/>
<path d="M77.8758 160.73C77.8643 160.73 77.8515 160.73 77.8388 160.728C77.8349 160.728 77.8298 160.728 77.8247 160.728C77.8298 160.728 77.8349 160.728 77.8388 160.728C77.8515 160.73 77.8643 160.73 77.8758 160.73ZM77.8234 160.728C77.8196 160.728 77.8157 160.727 77.8106 160.727C77.8157 160.727 77.8196 160.728 77.8234 160.728ZM77.8094 160.727C77.8055 160.727 77.8017 160.727 77.7966 160.727C77.8017 160.727 77.8055 160.727 77.8094 160.727ZM77.7953 160.727C77.7915 160.726 77.7876 160.726 77.7825 160.726C77.7876 160.726 77.7915 160.726 77.7953 160.727ZM77.7813 160.726C77.7774 160.726 77.7723 160.726 77.7685 160.725C77.7723 160.726 77.7774 160.726 77.7813 160.726ZM77.7672 160.725C77.7634 160.725 77.7595 160.725 77.7544 160.725C77.7595 160.725 77.7634 160.725 77.7672 160.725ZM77.7532 160.723C77.7493 160.723 77.7455 160.723 77.7404 160.723C77.7442 160.723 77.7493 160.723 77.7532 160.723ZM77.7391 160.723C77.7353 160.722 77.7314 160.722 77.7263 160.722C77.7314 160.722 77.7353 160.722 77.7391 160.723ZM77.7251 160.722C77.7212 160.721 77.7174 160.721 77.7123 160.721C77.7161 160.721 77.7212 160.721 77.7251 160.722ZM77.711 160.721C77.7072 160.72 77.7033 160.72 77.6982 160.72C77.7033 160.72 77.7072 160.72 77.711 160.721ZM77.697 160.72C77.6931 160.718 77.6893 160.718 77.6842 160.718C77.6893 160.718 77.6931 160.718 77.697 160.72ZM77.6842 160.718C77.6791 160.717 77.6752 160.717 77.6701 160.716C77.6752 160.717 77.6791 160.717 77.6842 160.718ZM77.6688 160.716C77.665 160.716 77.6599 160.716 77.6561 160.714C77.6612 160.716 77.665 160.716 77.6688 160.716ZM77.6561 160.714C77.651 160.714 77.6471 160.713 77.642 160.713C77.6471 160.713 77.651 160.714 77.6561 160.714ZM77.642 160.713C77.6369 160.712 77.6331 160.712 77.628 160.712C77.6331 160.712 77.6369 160.712 77.642 160.713ZM77.628 160.711C77.6229 160.711 77.619 160.711 77.6152 160.709C77.619 160.711 77.6229 160.711 77.628 160.711ZM77.6139 160.709C77.6088 160.709 77.605 160.708 77.5999 160.708C77.605 160.708 77.6088 160.709 77.6139 160.709ZM77.5999 160.708C77.5948 160.707 77.5909 160.705 77.5858 160.705C77.5909 160.705 77.5948 160.707 77.5999 160.708ZM77.5858 160.705C77.5488 160.7 77.5117 160.694 77.4747 160.686C77.5117 160.694 77.5488 160.7 77.5858 160.705ZM77.4709 160.685C77.467 160.685 77.4645 160.684 77.4606 160.684C77.4645 160.684 77.467 160.685 77.4709 160.685ZM77.4542 160.682C77.4517 160.681 77.4491 160.681 77.4479 160.681C77.4491 160.681 77.4517 160.681 77.4542 160.682ZM77.4389 160.679C77.4376 160.679 77.4351 160.679 77.4338 160.677C77.4364 160.679 77.4376 160.679 77.4389 160.679ZM77.4249 160.676C77.4236 160.676 77.4223 160.675 77.421 160.675C77.4223 160.675 77.4236 160.676 77.4249 160.676ZM77.4108 160.672C77.4095 160.672 77.4083 160.672 77.407 160.672C77.4083 160.672 77.4095 160.672 77.4108 160.672ZM77.3955 160.67C77.3955 160.67 77.3955 160.67 77.3942 160.67C77.3955 160.67 77.3955 160.67 77.3955 160.67Z" fill="#95968B"/>
<path d="M96.4304 142.843C95.5771 141.487 93.8641 141.037 92.7655 142.035C92.6773 142.179 92.5917 142.323 92.5049 142.469L91.8304 149.164C91.9147 148.869 91.9965 148.573 92.0769 148.276C92.0476 148.386 92.7872 148.797 93.5422 148.753C94.2882 148.709 95.2782 147.83 95.687 147.219C96.4751 146.037 97.2786 144.195 96.4304 142.843Z" fill="#6B3530"/>
<path d="M92.1945 142.796C92.2661 139.602 91.2224 136.646 90.1149 133.665C89.7636 132.719 89.0214 131.963 88.071 131.63C83.4838 130.024 77.8094 129.951 73.1852 131.415C72.2769 131.703 71.5718 132.421 71.2882 133.33C70.9675 134.361 70.6967 135.53 70.5856 136.359C69.9801 140.9 70.6635 147.257 72.1338 152.341C76.7543 149.866 82.4631 149.318 87.5664 150.698C89.213 147.955 90.8583 145.211 92.5049 142.469L92.5216 142.3C92.4028 142.446 92.2903 142.605 92.1945 142.796" fill="#6B3530"/>
<path d="M92.5215 142.3L92.5049 142.469C92.5917 142.323 92.6773 142.179 92.7655 142.034L92.5215 142.3" fill="#F89B87"/>
<path d="M79.9299 136.903C81.3363 135.118 85.2018 136.35 86.6262 137.496C86.8855 137.705 87.1997 137.973 87.1678 138.344C87.1512 138.536 87.0464 138.702 86.8535 138.757C86.4167 138.882 86.0015 138.519 85.6374 138.329C85.1558 138.077 84.6449 137.887 84.1148 137.768C83.4607 137.622 82.7811 137.583 82.1143 137.653C81.4692 137.722 80.8509 138.022 80.1994 137.925C79.691 137.85 79.6834 137.216 79.9299 136.903Z" fill="#1B1512"/>
<path d="M81.9866 140.031L82.1642 139.755L82.4401 139.578C82.5423 139.524 82.6534 139.5 82.7709 139.504L82.9996 139.534C83.1452 139.575 83.2704 139.649 83.3777 139.755L83.5118 139.929C83.5897 140.062 83.6281 140.208 83.6294 140.362V140.454C83.6332 140.572 83.6089 140.683 83.5553 140.785L83.3777 141.061L83.1018 141.238C82.9996 141.292 82.8897 141.316 82.7709 141.313L82.5423 141.282C82.3979 141.241 82.2715 141.167 82.1642 141.061L82.03 140.887C81.9521 140.753 81.9138 140.609 81.9125 140.454V140.362C81.9087 140.245 81.9329 140.134 81.9866 140.031Z" fill="#341616"/>
<path d="M72.5937 140.564L72.7713 140.287L73.0472 140.11C73.1494 140.056 73.2606 140.032 73.3781 140.036L73.6067 140.066C73.7524 140.107 73.8775 140.181 73.9849 140.287L74.119 140.461C74.1969 140.595 74.2352 140.739 74.2365 140.894V140.986C74.2403 141.105 74.2161 141.215 74.1624 141.317L73.9849 141.593L73.7089 141.77C73.6067 141.824 73.4969 141.848 73.3781 141.844L73.1494 141.814C73.0051 141.773 72.8786 141.7 72.7713 141.593L72.6372 141.419C72.5592 141.285 72.5209 141.142 72.5196 140.986V140.894C72.5158 140.776 72.5401 140.667 72.5937 140.564Z" fill="#341616"/>
<path d="M70.8947 138.142C71.2268 137.496 71.9435 137.162 72.632 136.981C73.3026 136.803 73.9886 136.774 74.6631 136.943C74.9735 137.021 75.1639 137.341 75.123 137.648C75.0527 138.169 74.6107 138.188 74.1968 138.193C73.6399 138.2 73.1097 138.272 72.5911 138.491C72.2436 138.639 70.4233 139.549 70.7887 138.398L70.8947 138.142" fill="#1B1512"/>
<path d="M92.8996 146.074C93.1691 146.166 93.5485 146.029 93.6098 145.715C93.6405 145.554 93.5587 145.423 93.4591 145.297C93.3646 145.177 93.2215 145.107 93.0823 145.106C92.8613 145.102 92.6901 144.887 92.7514 144.67C93.0082 143.753 93.7414 142.815 94.8004 142.921C95.2692 142.967 95.6959 143.233 95.8952 143.67C95.9884 143.873 96.0076 144.098 95.9514 144.314C95.9207 144.438 95.7623 144.761 95.586 144.6C95.48 144.504 95.5132 144.362 95.4787 144.238C95.4429 144.107 95.388 143.983 95.3101 143.869C95.1542 143.639 94.8873 143.551 94.6177 143.578C94.0787 143.629 93.7325 144.054 93.5319 144.525C94.0161 144.743 94.3277 145.278 94.1796 145.833C94.0199 146.432 93.3377 146.824 92.7425 146.644C92.3784 146.534 92.5406 145.953 92.8996 146.074" fill="#492421"/>
<path d="M67.2067 266.01C73.8544 266.636 80.6376 265.472 86.7156 262.719C92.3299 260.176 97.2582 256.218 101.039 251.357C103.131 248.669 104.851 245.703 106.163 242.559C106.353 242.099 107.038 242.463 106.847 242.919C104.46 248.642 100.691 253.758 95.959 257.764C90.9349 262.015 84.8454 264.923 78.388 266.194C74.6477 266.931 70.8308 267.123 67.0343 266.765C66.5412 266.719 66.7175 265.964 67.2067 266.01" fill="#1E2437"/>
<path d="M79.5353 172.414C84.8225 173.922 90.774 172.504 94.7852 168.733C95.1467 168.393 95.7203 168.913 95.3562 169.255C91.1483 173.211 84.9234 174.753 79.3628 173.168C78.8863 173.033 79.0537 172.278 79.5353 172.414" fill="#1E2437"/>
<path d="M74.6861 144.31C75.275 143.588 75.9673 142.892 76.1321 141.939C76.2164 141.448 76.9701 141.621 76.8858 142.111C76.5997 143.773 74.9773 144.637 74.4204 146.153C74.1164 146.982 74.308 147.972 74.9211 148.617C75.5611 149.289 76.555 149.5 77.4249 149.216C77.9001 149.062 78.1377 149.799 77.6638 149.952C75.5982 150.624 73.392 149.036 73.5083 146.829C73.5594 145.846 74.0806 145.049 74.6861 144.31" fill="#492421"/>
<path d="M83.2423 152.232C81.8091 154.139 79.2478 155.126 76.9063 154.65C76.394 154.546 76.1373 155.326 76.6534 155.431C79.3807 155.984 82.2574 154.905 83.9309 152.677C84.2489 152.254 83.5579 151.813 83.2423 152.232Z" fill="#341616"/>
<path d="M71.9717 5.70666e-05L90.4011 37.3405L131.61 43.3291L101.791 72.3943L108.829 113.437L71.9717 94.0595L35.1147 113.437L42.154 72.3943L12.3357 43.3291L53.5435 37.3405L71.9717 5.70666e-05" fill="#F9A81D"/>
<path d="M28.8049 40.9352L12.3357 43.3291L42.1535 72.3943L35.1147 113.437L71.9717 94.0595L108.829 113.437L102.856 78.6065C74.179 77.384 45.6937 63.9812 28.8049 40.9352" fill="#F7990F"/>
<path d="M46.1497 97.1944C46.6389 97.1395 47.1448 97.0999 47.6175 97.2417C48.0888 97.3848 48.5244 97.7488 48.6113 98.2342C48.7148 98.8206 48.2804 99.389 47.7516 99.6586C47.2215 99.9281 46.6108 99.9766 46.0232 100.062C44.0137 100.359 42.0836 101.181 40.4768 102.425C39.648 103.067 38.899 103.822 37.9849 104.334C34.8272 106.104 32.3596 102.701 35.6471 100.679C38.7807 98.7529 42.5093 97.6032 46.1497 97.1944" fill="#6B3530"/>
<path d="M48.0263 100.243C48.5168 100.189 49.0227 100.148 49.4941 100.291C49.9667 100.432 50.4023 100.798 50.4892 101.283C50.5927 101.868 50.1583 102.438 49.6282 102.708C49.0993 102.977 48.4887 103.024 47.9011 103.111C45.8905 103.408 43.9614 104.23 42.3547 105.473C41.5263 106.114 40.7763 106.869 39.8627 107.382C36.7045 109.153 34.237 105.75 37.5248 103.728C40.6585 101.801 44.3865 100.651 48.0263 100.243" fill="#6B3530"/>
<path d="M47.4681 103.685C47.9586 103.63 48.4645 103.59 48.9359 103.732C49.4072 103.874 49.8441 104.239 49.9297 104.725C50.0331 105.31 49.5988 105.878 49.07 106.149C48.5398 106.418 47.9305 106.466 47.3429 106.553C45.3321 106.849 43.4025 107.67 41.7958 108.914C40.9674 109.556 40.2174 110.311 39.3038 110.823C36.1456 112.595 33.6781 109.19 36.966 107.17C40.0996 105.242 43.8277 104.092 47.4681 103.685" fill="#6B3530"/>
<path d="M45.8228 107.201C46.2239 107.156 46.6352 107.123 47.021 107.239C47.4068 107.355 47.7632 107.653 47.8322 108.049C47.9178 108.527 47.5639 108.992 47.1309 109.213C46.6991 109.432 46.2009 109.471 45.7206 109.542C44.0797 109.784 42.5044 110.455 41.1925 111.471C40.5158 111.993 39.9036 112.61 39.1575 113.028C36.5793 114.475 34.5643 111.696 37.2489 110.045C39.8078 108.472 42.8511 107.534 45.8228 107.201" fill="#6B3530"/>
<path d="M35.2589 100.946C33.5373 102.425 32.6371 103.404 31.3853 105.297C30.1328 107.189 29.3948 109.53 29.8687 111.75C30.3428 113.969 32.2405 115.948 34.5079 116.054C35.8587 116.118 37.1751 115.541 38.2569 114.729C40.4969 113.051 41.8935 110.299 41.9259 107.5C41.9589 104.7 40.6271 101.917 38.4266 100.186L35.2589 100.946" fill="#6B3530"/>
<path d="M32.1042 107.16C26.9965 113.312 7.11709 144.43 7.00187 152.32C6.94144 156.459 8.3461 160.859 11.5177 163.654C15.0481 166.765 19.2147 165.98 21.5426 161.923C25.7495 154.59 34.0902 122.154 36.0757 112.204L32.1042 107.16" fill="#6B3530"/>
<path d="M98.2763 94.1529C97.7857 94.098 97.2799 94.0584 96.8085 94.2002C96.3358 94.342 95.9002 94.7073 95.8146 95.1927C95.7099 95.7778 96.1442 96.3475 96.6744 96.6171C97.2032 96.8879 97.8125 96.9339 98.4014 97.0207C100.411 97.3184 102.341 98.1398 103.948 99.3827C104.777 100.025 105.527 100.779 106.44 101.292C109.598 103.064 112.066 99.6599 108.778 97.6377C105.643 95.7114 101.916 94.5604 98.2763 94.1529" fill="#6B3530"/>
<path d="M96.3985 97.2022C95.9079 97.1472 95.4021 97.1063 94.9307 97.2494C94.4581 97.3912 94.0225 97.7566 93.9369 98.242C93.8321 98.827 94.2677 99.3955 94.7966 99.6651C95.3254 99.9359 95.936 99.9831 96.5237 100.07C98.533 100.366 100.463 101.188 102.07 102.432C102.899 103.073 103.649 103.828 104.563 104.34C107.72 106.112 110.188 102.708 106.9 100.687C103.767 98.7594 100.038 97.6097 96.3985 97.2022" fill="#6B3530"/>
<path d="M96.958 100.644C96.4674 100.589 95.9616 100.548 95.4889 100.691C95.0175 100.833 94.582 101.198 94.4951 101.683C94.3916 102.268 94.8259 102.837 95.3561 103.106C95.8849 103.377 96.4942 103.425 97.0831 103.511C99.0925 103.808 101.023 104.629 102.628 105.873C103.457 106.515 104.207 107.27 105.122 107.782C108.279 109.554 110.746 106.151 107.458 104.128C104.325 102.201 100.597 101.051 96.958 100.644" fill="#6B3530"/>
<path d="M98.6021 104.158C98.2023 104.113 97.7884 104.081 97.4039 104.197C97.0181 104.313 96.663 104.611 96.5915 105.008C96.5071 105.485 96.8623 105.95 97.294 106.169C97.7271 106.39 98.224 106.429 98.7043 106.5C100.346 106.742 101.921 107.412 103.233 108.428C103.909 108.952 104.522 109.567 105.268 109.986C107.846 111.432 109.86 108.654 107.176 107.004C104.618 105.43 101.573 104.491 98.6021 104.158Z" fill="#6B3530"/>
<path d="M109.166 97.9048C110.887 99.3841 111.788 100.363 113.04 102.254C114.293 104.148 115.03 106.489 114.556 108.709C114.082 110.928 112.184 112.907 109.918 113.013C108.566 113.076 107.25 112.499 106.168 111.688C103.928 110.01 102.531 107.257 102.498 104.458C102.466 101.659 103.799 98.8757 105.998 97.1447L109.166 97.9048" fill="#6B3530"/>
<path d="M112.32 104.117C117.429 110.269 137.307 141.388 137.423 149.279C137.484 153.419 136.079 157.816 132.907 160.612C129.377 163.723 125.21 162.94 122.882 158.881C118.676 151.548 110.335 119.112 108.35 109.163L112.32 104.117" fill="#6B3530"/>
<path d="M129.439 172.726C124.429 178.647 119.42 184.568 114.413 190.489C112.978 192.184 111.544 193.879 110.109 195.574C109.773 195.973 110.322 196.582 110.663 196.178C115.672 190.257 120.681 184.338 125.69 178.417L129.992 173.33C130.329 172.933 129.779 172.324 129.439 172.726Z" fill="#1E2437"/>
<path d="M56.4189 175.94C55.9718 182.866 55.6039 189.798 55.3203 196.731C55.0354 203.7 54.8336 210.672 54.7148 217.645C54.6484 221.557 54.6087 225.47 54.5934 229.381C54.5921 229.907 55.411 229.947 55.4135 229.418C55.4391 222.477 55.5464 215.536 55.7354 208.6C55.9271 201.629 56.2004 194.659 56.5581 187.694C56.7587 183.786 56.986 179.881 57.239 175.976C57.2722 175.45 56.4534 175.414 56.4189 175.94" fill="#1E2437"/>
<path d="M71.8912 138.107C69.8958 138.107 68.2748 139.729 68.2748 141.723C68.2748 143.717 69.8958 145.339 71.8912 145.339C73.8852 145.339 75.5076 143.717 75.5076 141.723C75.5076 139.729 73.8852 138.107 71.8912 138.107ZM71.8912 145.749C69.671 145.749 67.8647 143.943 67.8647 141.723C67.8647 139.503 69.671 137.696 71.8912 137.696C74.1113 137.696 75.9176 139.503 75.9176 141.723C75.9176 143.943 74.1113 145.749 71.8912 145.749Z" fill="#26B6A6"/>
<path d="M81.7426 138.107C79.7486 138.107 78.1263 139.729 78.1263 141.723C78.1263 143.717 79.7486 145.339 81.7426 145.339C83.7367 145.339 85.359 143.717 85.359 141.723C85.359 139.729 83.7367 138.107 81.7426 138.107ZM81.7426 145.749C79.5237 145.749 77.7162 143.943 77.7162 141.723C77.7162 139.503 79.5237 137.696 81.7426 137.696C83.9628 137.696 85.7691 139.503 85.7691 141.723C85.7691 143.943 83.9628 145.749 81.7426 145.749Z" fill="#26B6A6"/>
<path d="M75.7706 140.475L75.487 140.178C76.1998 139.495 77.4044 139.444 78.1722 140.066L77.9141 140.385C77.3125 139.897 76.3314 139.938 75.7706 140.475" fill="#26B6A6"/>
<path d="M93.3812 141.729C90.871 140.778 88.1425 140.482 85.4829 140.876L85.4241 140.47C88.1489 140.066 90.9515 140.37 93.5268 141.345L93.3812 141.729" fill="#26B6A6"/>
</svg>
