<svg width="536" height="535" viewBox="0 0 536 535" fill="none" xmlns="http://www.w3.org/2000/svg">
<path d="M456.654 271.399C561.119 331.699 561.119 429.467 456.653 489.769C352.186 550.069 182.813 550.069 78.3484 489.769C-26.1165 429.468 -26.1161 331.7 78.3494 271.399C182.816 211.098 352.188 211.098 456.654 271.399" fill="#FFD88C"/>
<path d="M348.067 417.017C367.274 428.103 367.274 446.08 348.067 457.168C328.858 468.255 297.717 468.255 278.509 457.168C259.302 446.08 259.302 428.104 278.509 417.017C297.718 405.93 328.86 405.93 348.067 417.017Z" fill="#F5AA1A"/>
<path d="M92.771 425.73C91.3822 424.928 90.2562 422.892 90.2562 421.183L90.2554 173.52C90.2554 171.811 91.4556 169.733 92.9367 168.878L384.359 0.66996C385.84 -0.18451 388.166 -0.227327 389.556 0.574852C390.944 1.37584 392.071 3.41163 392.071 5.12176L392.072 252.784C392.072 254.494 390.872 256.572 389.39 257.427L97.9668 425.634C96.486 426.49 94.1597 426.532 92.771 425.73" fill="#FFD990"/>
<path d="M97.4573 425.867L97.3459 425.904L97.0858 426.002L96.888 426.064C96.7767 426.101 96.6532 426.139 96.5166 426.151L96.2686 426.201C96.1451 426.226 95.9961 426.25 95.8601 426.263C94.7578 426.386 93.6058 426.212 92.7766 425.73C91.3771 424.926 90.2627 422.895 90.2627 421.186L90.2502 205.271L95.2899 208.18V424.083C95.2899 425.296 95.8972 426.002 96.7767 426.002C96.9002 426.002 97.0115 425.99 97.1351 425.952L97.1973 425.94L97.4573 425.867Z" fill="#26B6A6"/>
<path d="M95.1725 426.301C94.2944 426.301 93.4341 426.113 92.7766 425.73C91.3771 424.925 90.2627 422.894 90.2627 421.186L90.253 253.226L95.2899 256.156V424.083C95.2899 424.089 95.2899 424.094 95.2904 424.1C95.2918 424.435 95.3396 424.729 95.4268 424.983C95.4278 424.986 95.4292 424.989 95.4302 424.992C95.6581 425.641 96.1475 426.002 96.7767 426.002C96.8732 426.002 96.9623 425.995 97.0561 425.974C97.1402 425.961 97.2266 425.94 97.3143 425.915L97.0858 426.002L96.8881 426.064C96.7767 426.101 96.6532 426.139 96.5166 426.151L96.2686 426.201C96.1451 426.226 95.9961 426.249 95.8601 426.262C95.6321 426.288 95.4014 426.301 95.1725 426.301" fill="#FFE2AD"/>
<path d="M95.2899 208.18L90.2502 205.271V253.225L95.2899 256.156V208.18Z" fill="#26B6A6"/>
<path d="M95.2899 256.156L90.253 253.226L90.2502 253.225V205.271L95.2899 208.18V256.156Z" fill="#AF7607"/>
<path d="M96.0704 173.785C95.5875 174.614 95.2899 175.568 95.2899 176.422V208.18L90.2502 205.271V173.525C90.2502 173.413 90.2502 173.314 90.2627 173.203C90.2869 172.98 90.3245 172.757 90.3742 172.535C90.5097 171.977 90.7457 171.395 91.0428 170.876L96.0704 173.785Z" fill="#AF7607"/>
<path d="M392.065 5.11697V19.4433L178.449 142.745C176.975 143.599 175.774 142.905 175.774 141.196V135.774C175.774 134.065 174.573 133.372 173.087 134.226L108.033 171.779C106.547 172.633 105.346 174.713 105.346 176.422V181.846C105.346 183.554 104.144 185.635 102.671 186.488L95.2899 190.747V176.422C95.2899 174.713 96.4915 172.633 97.9653 171.779L389.391 3.56966C390.863 2.71519 392.065 3.40922 392.065 5.11697Z" fill="#F5AA1A"/>
<path d="M392.078 252.779C392.078 254.488 390.876 256.568 389.39 257.421L97.9653 425.63C96.4915 426.486 95.2899 425.792 95.2899 424.083V190.747L102.671 186.488C104.144 185.635 106.547 172.633 108.033 171.779L171.998 134.854C172.741 134.427 173.985 136.613 175.227 138.799C176.471 140.986 177.712 143.171 178.449 142.745L392.065 19.4432V36.876L392.078 252.779Z" fill="#FEEAC5"/>
<path d="M96.7725 425.996C96.6011 425.996 96.44 425.97 96.2919 425.918C96.44 425.97 96.6006 425.996 96.7725 425.996C96.8644 425.996 96.9601 425.989 97.058 425.974C97.0575 425.974 97.0566 425.974 97.0561 425.974C96.9586 425.989 96.8639 425.996 96.7725 425.996V425.996ZM97.3143 425.915L97.3162 425.914C97.5242 425.855 97.7415 425.761 97.9653 425.63L285.287 317.509L97.9653 425.63C97.741 425.761 97.5228 425.855 97.3143 425.915Z" fill="#1D9B8F"/>
<path d="M97.0562 425.974C97.0566 425.974 97.0576 425.974 97.0581 425.974C97.1421 425.959 97.2285 425.94 97.3162 425.914L97.3143 425.915C97.2266 425.94 97.1402 425.961 97.0562 425.974Z" fill="#60C9B9"/>
<path d="M96.7725 425.996C96.6006 425.996 96.4401 425.97 96.2919 425.918C95.6818 425.703 95.2899 425.059 95.2899 424.083V190.747V208.18L96.4786 207.494V424.083C96.4786 424.204 96.4934 424.808 96.7725 424.808C96.8459 424.808 97.0492 424.788 97.3691 424.603L285.268 316.149C285.273 316.603 285.279 317.053 285.287 317.51L97.9653 425.63C97.7415 425.761 97.5242 425.855 97.3162 425.914C97.2285 425.94 97.1421 425.959 97.058 425.974C96.9601 425.989 96.8644 425.996 96.7725 425.996ZM361.795 273.349L362.273 271.702L388.796 256.393C389.911 255.751 390.889 254.062 390.889 252.779L390.876 37.5618L392.065 36.8761L392.078 252.779C392.078 254.488 390.876 256.568 389.39 257.421L361.795 273.349" fill="#FCBC45"/>
<path d="M180.683 141.454L392.065 19.4433L180.803 141.388C180.762 141.411 180.723 141.434 180.683 141.454" fill="#78D1C5"/>
<path d="M94.8511 207.914V255.89L391.626 84.605V36.6097L94.8511 207.914Z" fill="#F5AA1A"/>
<path d="M391.626 19.1767V36.6096L94.8506 207.914V190.481L100.363 187.289C101.837 186.435 102.332 185.135 103.038 182.647L104.907 176.156C105.497 173.902 106.108 172.367 107.594 171.512L171.559 134.587C173.044 133.733 174.205 133.639 175.335 135.507L177.628 139.669C178.469 141.121 178.89 141.976 180.364 141.121L391.626 19.1767Z" fill="#EDEDEB"/>
<path d="M379.495 14.1012C381.358 13.0257 382.868 13.8979 382.868 16.049C382.868 18.2 381.358 20.8157 379.495 21.8912C377.63 22.9667 376.12 22.0944 376.12 19.9434C376.12 17.7924 377.63 15.1767 379.495 14.1012Z" fill="#26B6A6"/>
<path d="M367.347 21.1034C369.211 20.0279 370.722 20.899 370.722 23.05C370.722 25.2022 369.211 27.8179 367.347 28.8934C365.484 29.9689 363.974 29.0967 363.974 26.9456C363.974 24.7946 365.484 22.1789 367.347 21.1034Z" fill="#26B6A6"/>
<path d="M355.2 28.1043C357.064 27.03 358.575 27.9022 358.575 30.0533C358.575 32.2043 357.064 34.82 355.2 35.8955C353.338 36.971 351.827 36.0987 351.827 33.9477C351.827 31.7967 353.338 29.181 355.2 28.1043" fill="#26B6A6"/>
<path d="M104.762 197.752H104.539L102.256 195.996L102.249 195.988L102.188 195.895L102.17 195.865L102.14 195.671L102.17 195.444L102.188 195.392L102.249 195.229L102.256 195.212L104.539 190.82C104.636 190.634 104.768 190.527 104.882 190.527C104.932 190.527 104.979 190.549 105.017 190.594C105.14 190.74 105.126 191.078 104.985 191.349L103.38 194.434L107.589 192.005C107.631 191.981 107.671 191.969 107.709 191.969C107.837 191.969 107.928 192.107 107.928 192.33C107.928 192.618 107.777 192.939 107.589 193.047L103.38 195.476L104.985 196.709C105.126 196.818 105.14 197.138 105.017 197.427C104.95 197.583 104.856 197.697 104.762 197.752" fill="#899EA2"/>
<path d="M113.932 192.458L113.678 192.428C113.554 192.281 113.569 191.944 113.71 191.674L115.315 188.588L111.106 191.017C111.063 191.042 111.023 191.053 110.986 191.053C110.858 191.053 110.767 190.915 110.767 190.691C110.767 190.404 110.918 190.083 111.106 189.975L115.315 187.546L113.71 186.312C113.569 186.204 113.554 185.883 113.678 185.594C113.773 185.371 113.923 185.234 114.052 185.234C114.089 185.234 114.124 185.246 114.156 185.27L116.439 187.025L116.445 187.035L116.506 187.126L116.525 187.158L116.555 187.351L116.525 187.578L116.506 187.631L116.445 187.793L116.439 187.809L114.156 192.202C114.091 192.325 114.012 192.413 113.932 192.458" fill="#899EA2"/>
<path d="M121.946 188.09C121.6 188.09 121.276 187.963 120.999 187.695C119.956 186.692 119.956 184.081 120.999 181.876C121.762 180.258 122.875 179.311 123.827 179.311C123.878 179.311 123.928 179.315 123.976 179.319L124.554 177.91C124.615 177.761 124.707 177.683 124.783 177.683C124.848 177.683 124.901 177.74 124.913 177.857L125.164 180.317C125.182 180.49 125.093 180.709 124.972 180.787L123.256 181.907C123.226 181.927 123.198 181.935 123.173 181.935C123.05 181.935 122.996 181.72 123.088 181.491L123.524 180.428C122.828 180.47 122.031 181.164 121.477 182.336C120.699 183.983 120.699 185.934 121.477 186.682C121.685 186.883 121.926 186.976 122.184 186.976C122.895 186.976 123.729 186.26 124.3 185.052C124.397 184.848 124.539 184.727 124.659 184.727C124.703 184.727 124.744 184.742 124.779 184.777C124.912 184.904 124.912 185.233 124.779 185.513C124.258 186.616 123.573 187.413 122.889 187.808C122.569 187.993 122.249 188.09 121.946 188.09" fill="#899EA2"/>
<path d="M167.47 147.896C167.41 147.896 167.354 147.875 167.305 147.828C167.123 147.654 167.123 147.201 167.305 146.817L168.84 143.569L167.305 142.093C167.123 141.919 167.123 141.466 167.305 141.082C167.438 140.8 167.631 140.634 167.796 140.634C167.857 140.634 167.914 140.657 167.961 140.703L169.496 142.179L171.03 138.932C171.162 138.651 171.356 138.484 171.521 138.484C171.582 138.484 171.638 138.507 171.686 138.553C171.868 138.727 171.868 139.179 171.686 139.565L170.153 142.811L171.686 144.288C171.868 144.462 171.868 144.915 171.686 145.299C171.596 145.49 171.477 145.629 171.358 145.698C171.303 145.73 171.248 145.747 171.196 145.747C171.135 145.747 171.079 145.724 171.03 145.678L169.496 144.201L167.961 147.448C167.871 147.641 167.752 147.779 167.633 147.848C167.577 147.88 167.523 147.896 167.47 147.896" fill="#899EA2"/>
<path d="M130.499 181.848V176.424C130.499 174.714 131.699 172.636 133.18 171.781L374.298 32.6715C375.779 31.817 376.98 32.5099 376.98 34.22V39.6427C376.979 41.3529 375.778 43.4314 374.298 44.2871L133.18 183.397C131.699 184.251 130.499 183.559 130.499 181.848" fill="white"/>
<path d="M369.771 40.2737L370.857 41.058C371.037 41.1888 371.121 41.4205 371.088 41.6962L370.865 43.5489L372.041 42.0551C372.209 41.84 372.425 41.733 372.645 41.758L374.054 41.9327L374.104 41.6475L373.835 39.7127C373.808 39.5166 373.855 39.2885 373.959 39.0876L375.098 36.9532L373.795 37.4536C373.517 37.5581 373.241 37.4476 373.118 37.1814L372.532 35.936L372.525 35.9561L371.822 38.2653C371.754 38.4827 371.627 38.6764 371.469 38.7964L369.895 40.011L369.771 40.2737ZM370.649 44.5912L370.452 44.5531C370.26 44.4735 370.071 44.2489 370.118 43.8579L370.386 41.6118L370.391 41.594L369.303 40.8085C369.154 40.7003 369.068 40.5197 369.065 40.301C369.059 39.9801 369.219 39.6391 369.463 39.4513L371.038 38.2379L371.146 38.0584L371.85 35.7506C371.965 35.3714 372.244 35.1017 372.545 35.0803C372.76 35.0624 372.957 35.1813 373.055 35.3869V35.3881L373.69 36.7369L375.116 36.1902C375.335 36.107 375.558 36.1593 375.703 36.3233C375.902 36.548 375.91 36.933 375.723 37.2812L374.585 39.4192L374.535 39.6164L374.803 41.55C374.851 41.8911 374.685 42.2334 374.499 42.4223C374.341 42.5816 374.153 42.6576 373.968 42.6338L372.559 42.4591L371.189 44.2905C371.016 44.5115 370.819 44.5912 370.649 44.5912" fill="#DADBD8"/>
<path d="M380.142 32.0094C379.818 32.0094 379.507 31.843 379.336 31.5459C379.079 31.1015 379.231 30.5334 379.674 30.2778L387.221 25.9212C387.367 25.8368 387.528 25.7963 387.685 25.7963C388.006 25.7963 388.317 25.9639 388.49 26.261C388.745 26.7043 388.593 27.2735 388.15 27.5291L380.604 31.8846C380.458 31.9701 380.299 32.0094 380.142 32.0094" fill="#899EA2"/>
<path d="M380.142 36.3672C379.818 36.3672 379.507 36.2008 379.336 35.9025C379.079 35.458 379.231 34.89 379.674 34.6345L387.221 30.2789C387.367 30.1934 387.528 30.153 387.685 30.153C388.006 30.153 388.317 30.3205 388.49 30.6177C388.745 31.0621 388.593 31.6301 388.15 31.8868L380.604 36.2424C380.458 36.3268 380.299 36.3672 380.142 36.3672" fill="#899EA2"/>
<path d="M380.142 40.7241C379.818 40.7241 379.507 40.5577 379.336 40.2594C379.079 39.8162 379.231 39.2481 379.674 38.9914L387.221 34.6359C387.367 34.5503 387.528 34.5099 387.685 34.5099C388.006 34.5099 388.317 34.6775 388.49 34.9757C388.745 35.4202 388.593 35.9871 388.15 36.2438L380.604 40.5993C380.458 40.6837 380.299 40.7241 380.142 40.7241" fill="#899EA2"/>
<path d="M95.2904 190.747V208.18L90.2502 205.271V187.85L95.2904 190.747Z" fill="#DADBD8"/>
<path d="M282.056 133.23C281.898 133.33 281.768 133.36 281.668 133.318C281.585 133.248 281.552 133.119 281.569 132.933L283.244 114.69C283.263 114.485 283.324 114.296 283.43 114.125C283.552 113.924 283.692 113.774 283.85 113.674L289.87 109.86C291.655 108.729 293.014 108.35 293.947 108.724C294.88 109.098 295.258 110.253 295.08 112.19C294.902 114.127 294.253 115.933 293.132 117.608C292.029 119.255 290.576 120.648 288.775 121.789L284.58 124.447L283.939 131.432C283.922 131.618 283.852 131.811 283.73 132.012C283.609 132.194 283.47 132.334 283.312 132.435L282.056 133.23ZM288.872 119.518C290.025 118.787 290.923 117.929 291.564 116.944C292.22 115.949 292.603 114.865 292.71 113.692C292.818 112.518 292.608 111.809 292.08 111.565C291.553 111.302 290.705 111.541 289.536 112.282L285.436 114.879L284.772 122.115L288.872 119.518ZM296.953 123.792C296.795 123.892 296.666 123.921 296.565 123.88C296.483 123.809 296.45 123.681 296.467 123.495L297.68 110.28C297.697 110.094 297.759 109.905 297.865 109.715C297.988 109.515 298.128 109.364 298.286 109.264L299.376 108.573C299.534 108.473 299.663 108.453 299.761 108.514C299.86 108.574 299.901 108.697 299.884 108.884L299.771 110.113C300.535 108.436 301.699 107.102 303.263 106.111L304.187 105.525C304.345 105.425 304.466 105.41 304.549 105.481C304.649 105.522 304.691 105.636 304.673 105.823L304.568 106.968C304.551 107.154 304.482 107.338 304.361 107.52C304.256 107.692 304.125 107.828 303.967 107.928L302.545 108.829C301.692 109.37 300.993 110.093 300.448 110.999C299.906 111.887 299.588 112.834 299.496 113.839L298.742 122.053C298.725 122.239 298.655 122.433 298.532 122.633C298.412 122.815 298.272 122.956 298.114 123.056L296.953 123.792ZM310.202 115.661C308.464 116.762 307.166 117.041 306.308 116.497C305.466 115.942 305.101 114.726 305.214 112.848L305.301 111.661L305.435 110.445C305.672 108.505 306.326 106.653 307.396 104.887C308.467 103.103 309.864 101.666 311.586 100.575C313.308 99.4835 314.597 99.2193 315.454 99.7821C316.311 100.326 316.685 101.528 316.574 103.388C316.571 103.583 316.542 103.978 316.487 104.574C316.432 105.17 316.388 105.576 316.353 105.791C316.114 107.749 315.459 109.611 314.389 111.376C313.336 113.132 311.94 114.56 310.202 115.661ZM310.399 113.51C311.394 112.879 312.211 112.011 312.848 110.906C313.501 109.79 313.915 108.519 314.091 107.092C314.124 106.896 314.164 106.537 314.212 106.016C314.26 105.494 314.284 105.145 314.286 104.969C314.366 103.602 314.149 102.731 313.632 102.357C313.132 101.972 312.384 102.095 311.389 102.726C310.393 103.356 309.569 104.229 308.916 105.345C308.263 106.46 307.857 107.726 307.697 109.143L307.576 110.22L307.502 111.267C307.406 112.643 307.616 113.519 308.132 113.894C308.648 114.269 309.404 114.141 310.399 113.51ZM320.962 92.3449C320.804 92.445 320.675 92.4742 320.575 92.4325C320.492 92.3622 320.459 92.2339 320.476 92.0477L320.615 90.539C320.632 90.3527 320.694 90.1644 320.801 89.974C320.923 89.7735 321.063 89.6232 321.221 89.5231L322.738 88.5622C322.896 88.4621 323.024 88.4422 323.123 88.5025C323.222 88.5628 323.262 88.6861 323.245 88.8723L323.107 90.381C323.09 90.5672 323.02 90.7606 322.897 90.961C322.777 91.1429 322.637 91.2838 322.479 91.3839L320.962 92.3449ZM316.286 116.543C316.128 116.643 316.008 116.658 315.925 116.587C315.825 116.546 315.783 116.432 315.8 116.245L315.887 115.295C315.904 115.109 315.974 114.916 316.097 114.715C316.202 114.544 316.333 114.408 316.491 114.307L316.823 114.097C317.597 113.607 318.132 113.049 318.428 112.423C318.723 111.797 318.913 111.028 318.997 110.115L320.299 95.9227C320.316 95.7364 320.377 95.5574 320.482 95.3856C320.605 95.1851 320.745 95.0348 320.903 94.9347L322.065 94.199C322.223 94.0989 322.343 94.084 322.426 94.1543C322.526 94.196 322.568 94.31 322.551 94.4962L321.246 108.717C320.941 112.032 319.438 114.546 316.737 116.257L316.286 116.543ZM329.709 103.302C328.082 104.333 326.832 104.572 325.96 104.019C325.106 103.438 324.725 102.153 324.819 100.164L324.882 99.2292L324.99 98.2922C325.286 96.2106 325.97 94.2685 327.043 92.4658C328.132 90.6532 329.474 89.2413 331.07 88.2303C332.824 87.1192 334.122 86.9196 334.964 87.6313C335.808 88.3245 336.128 89.7886 335.923 92.0237L335.879 92.4986C335.862 92.6849 335.792 92.8782 335.67 93.0787C335.565 93.2505 335.433 93.3864 335.275 93.4865L327.075 98.6817L327.052 98.9332C326.988 100.114 327.202 100.952 327.692 101.449C328.199 101.916 328.927 101.85 329.875 101.249C330.602 100.789 331.21 100.246 331.699 99.6204C332.205 98.9663 332.586 98.3828 332.842 97.8702C333.004 97.5566 333.119 97.3612 333.186 97.2839C333.27 97.1779 333.406 97.0649 333.596 96.9448L334.757 96.2091C334.9 96.119 335.014 96.0905 335.1 96.1235C335.186 96.1566 335.222 96.2569 335.206 96.4246C335.169 96.8343 334.902 97.468 334.407 98.3257C333.927 99.1734 333.273 100.062 332.444 100.991C331.632 101.891 330.72 102.661 329.709 103.302ZM333.746 92.6399L333.753 92.5561C333.871 91.2709 333.667 90.4181 333.14 89.9976C332.631 89.5484 331.878 89.6392 330.883 90.2698C329.887 90.9004 329.06 91.8107 328.4 93.0006C327.758 94.1618 327.378 95.385 327.26 96.6702L327.252 96.754L333.746 92.6399ZM343.018 94.8698C341.327 95.9409 340.051 96.223 339.19 95.7161C338.347 95.1806 337.986 93.9177 338.109 91.9276L338.188 90.8251L338.315 89.6926C338.564 87.6224 339.214 85.7282 340.265 84.0101C341.333 82.2633 342.712 80.8544 344.403 79.7833C345.54 79.0626 346.482 78.6941 347.227 78.6779C347.973 78.6616 348.503 78.8873 348.817 79.3548C349.147 79.8123 349.295 80.3849 349.262 81.0727C349.261 81.2489 349.199 81.428 349.079 81.6098C348.958 81.7916 348.818 81.9326 348.66 82.0327L347.523 82.7534C347.365 82.8535 347.25 82.8913 347.178 82.8669C347.105 82.8424 347.04 82.7435 346.982 82.57C346.795 81.8462 346.474 81.4531 346.018 81.3909C345.564 81.3101 344.966 81.5049 344.224 81.9754C343.244 82.596 342.429 83.4547 341.777 84.5515C341.144 85.6196 340.736 86.9044 340.553 88.4058L340.437 89.4266L340.374 90.3615C340.284 91.8215 340.492 92.7252 340.995 93.0726C341.499 93.42 342.249 93.2784 343.244 92.6477C343.987 92.1773 344.62 91.6006 345.144 90.9178C345.67 90.2164 346.108 89.3335 346.458 88.2694C346.558 87.9958 346.651 87.7967 346.737 87.6722C346.824 87.529 346.947 87.4074 347.105 87.3073L348.242 86.5866C348.4 86.4865 348.529 86.4666 348.627 86.5269C348.728 86.5685 348.761 86.6875 348.728 86.8838C348.634 87.5929 348.355 88.4358 347.894 89.4125C347.45 90.3605 346.81 91.3269 345.976 92.3116C345.157 93.2864 344.171 94.1391 343.018 94.8698ZM355.954 86.4109C353.458 87.9925 352.36 87.1443 352.661 83.8662L353.338 76.4906L351.489 77.6617C351.331 77.7618 351.202 77.791 351.102 77.7494C351.019 77.679 350.986 77.5508 351.003 77.3645L351.09 76.4146C351.107 76.2284 351.168 76.0493 351.273 75.8775C351.396 75.6771 351.536 75.5268 351.694 75.4267L353.543 74.2555L353.971 69.5899C353.988 69.4036 354.049 69.2246 354.154 69.0528C354.277 68.8523 354.417 68.7021 354.575 68.602L355.689 67.8962C355.847 67.7961 355.967 67.7813 356.05 67.8516C356.15 67.8933 356.192 68.0072 356.175 68.1935L355.747 72.8591L358.685 70.9973C358.843 70.8972 358.964 70.8823 359.047 70.9526C359.147 70.9943 359.189 71.1082 359.172 71.2945L359.084 72.2444C359.067 72.4306 358.997 72.624 358.875 72.8244C358.77 72.9962 358.638 73.1322 358.48 73.2323L355.542 75.0942L354.883 82.2742C354.797 83.2055 354.867 83.8282 355.091 84.1423C355.317 84.4377 355.738 84.3903 356.354 83.9999L357.799 83.084C357.957 82.9839 358.078 82.969 358.161 83.0393C358.261 83.081 358.303 83.1949 358.286 83.3812L358.193 84.387C358.176 84.5732 358.106 84.7666 357.984 84.967C357.879 85.1388 357.747 85.2748 357.589 85.3749L355.954 86.4109ZM364.641 81.1704C363.535 81.8711 362.621 82.2568 361.901 82.3275C361.197 82.3696 360.681 82.2407 360.351 81.9408C360.037 81.6309 359.897 81.299 359.929 80.9451C359.946 80.7589 360.015 80.5842 360.134 80.421C360.27 80.2291 360.402 80.0932 360.528 80.0131L361.595 79.3374C361.753 79.2373 361.886 79.2404 361.996 79.3465C362.327 79.6278 362.7 79.7773 363.115 79.795C363.53 79.8127 364.109 79.5864 364.852 79.1159C365.673 78.5954 366.354 77.9887 366.894 77.2959C367.451 76.5744 367.76 75.8784 367.822 75.2079C367.863 74.7609 367.786 74.4678 367.59 74.3285C367.412 74.1607 367.072 74.1395 366.569 74.2649C366.084 74.3617 365.348 74.6001 364.361 74.98C363.019 75.497 362.086 75.6054 361.563 75.3052C361.056 74.9951 360.851 74.3092 360.948 73.2475C361.013 72.5398 361.249 71.7592 361.654 70.9057C362.077 70.0236 362.647 69.1717 363.362 68.3502C364.095 67.5 364.943 66.7695 365.907 66.1589C366.918 65.5183 367.761 65.1683 368.436 65.109C369.111 65.0497 369.598 65.18 369.896 65.4999C370.211 65.7912 370.353 66.1137 370.32 66.4676C370.305 66.6353 370.237 66.81 370.116 66.9918C370.011 67.1636 369.887 67.2946 369.745 67.3847L368.75 68.0153C368.56 68.1354 368.411 68.1424 368.301 68.0362C368.081 67.8425 367.885 67.7126 367.712 67.6464C367.557 67.5517 367.313 67.5399 366.979 67.6111C366.661 67.6723 366.241 67.8681 365.72 68.1984C364.961 68.6789 364.359 69.2448 363.912 69.8962C363.467 70.529 363.216 71.1527 363.16 71.7673C363.124 72.1585 363.18 72.4387 363.328 72.6079C363.478 72.7586 363.788 72.7905 364.257 72.7037C364.742 72.6069 365.448 72.3792 366.373 72.0208C367.84 71.4423 368.849 71.3118 369.4 71.6291C369.969 71.9179 370.204 72.6024 370.105 73.6827C370.031 74.4835 369.767 75.3351 369.312 76.2372C368.857 77.1393 368.226 78.0219 367.417 78.8849C366.625 79.7379 365.699 80.4997 364.641 81.1704Z" fill="white"/>
<path d="M206.27 221.062C205.096 221.062 204.292 220.126 204.292 218.5L204.293 218.086C204.293 215.789 205.907 212.995 207.897 211.847L306.914 154.69C307.51 154.347 308.071 154.184 308.565 154.184C309.724 154.184 310.518 155.079 310.518 156.638C310.518 158.863 308.909 161.605 306.925 162.763L207.884 220.563C207.304 220.902 206.755 221.062 206.27 221.062Z" fill="#B2E5DC"/>
<path d="M205.656 235.111C204.844 235.111 204.292 234.503 204.292 233.436C204.292 231.897 205.445 229.985 206.865 229.164L370.71 134.587C371.148 134.335 371.559 134.215 371.919 134.215C372.732 134.215 373.284 134.823 373.284 135.889C373.284 137.429 372.132 139.342 370.71 140.162L206.865 234.739C206.428 234.991 206.016 235.111 205.656 235.111Z" fill="#BFE9E0"/>
<path d="M205.656 246.301C204.844 246.301 204.292 245.693 204.292 244.627C204.292 243.088 205.445 241.175 206.865 240.355L288.388 193.297L291.847 195.334C291.382 196.062 290.96 196.819 290.582 197.606L206.865 245.929C206.428 246.181 206.016 246.301 205.656 246.301ZM292.641 194.175C292.639 194.15 292.639 194.125 292.638 194.098C292.667 194.087 292.697 194.075 292.725 194.062C292.697 194.098 292.668 194.138 292.641 194.175ZM291.956 192.344C291.762 192.113 291.539 191.905 291.27 191.747C291.238 191.728 291.205 191.709 291.172 191.691L291.706 191.382L291.956 192.344ZM294.331 192.15C294.396 191.905 294.431 191.649 294.43 191.391C294.43 191.156 294.4 190.918 294.338 190.682C294.276 190.443 294.185 190.219 294.071 190.017L370.71 145.779C371.148 145.526 371.559 145.407 371.919 145.407C372.732 145.407 373.284 146.014 373.284 147.08C373.284 148.619 372.132 150.532 370.71 151.354L310.982 185.831C310.339 185.768 309.687 185.734 309.029 185.734C308.992 185.734 308.955 185.736 308.919 185.736C303.213 185.767 298.048 188.217 294.331 192.15" fill="#BFE9E0"/>
<path d="M205.656 257.492C204.844 257.492 204.292 256.885 204.292 255.819C204.292 254.28 205.445 252.366 206.865 251.546L288.599 204.366C288.488 205.271 288.429 206.194 288.429 207.13C288.429 207.165 288.429 207.199 288.43 207.234C288.427 207.382 288.426 207.53 288.426 207.677C288.426 208.452 288.469 209.216 288.553 209.967L206.865 257.12C206.428 257.372 206.016 257.492 205.656 257.492V257.492ZM322.085 190.613C320.711 189.433 319.187 188.436 317.548 187.656L370.71 156.969C371.148 156.717 371.559 156.597 371.919 156.597C372.731 156.597 373.284 157.205 373.284 158.271C373.284 159.81 372.132 161.724 370.71 162.544L322.085 190.613" fill="#BFE9E0"/>
<path d="M205.656 268.682C204.844 268.682 204.292 268.076 204.292 267.009C204.292 265.47 205.445 263.558 206.865 262.736L289.745 214.896C290.326 216.423 291.086 217.856 291.999 219.169L206.865 268.311C206.428 268.563 206.016 268.682 205.656 268.682ZM327.825 198.49C327.188 196.989 326.39 195.579 325.455 194.283L370.71 168.16C371.148 167.908 371.559 167.788 371.919 167.788C372.732 167.788 373.284 168.395 373.284 169.461C373.284 171.002 372.132 172.915 370.71 173.735L327.825 198.49Z" fill="#BFE9E0"/>
<path d="M206.096 280.14C205.284 280.14 204.731 279.532 204.731 278.466C204.731 276.927 205.884 275.014 207.304 274.194L295.497 222.882C296.179 223.487 296.904 224.043 297.666 224.543C294.582 225.023 292.336 227.256 291.948 230.52L207.304 279.768C206.867 280.02 206.456 280.14 206.096 280.14" fill="#BFE9E0"/>
<path d="M206.096 296.14C205.284 296.14 204.731 295.532 204.731 294.466C204.731 292.927 205.884 291.014 207.304 290.194L295.497 238.882C296.179 239.487 296.904 240.043 297.666 240.543C294.582 241.023 292.336 243.256 291.948 246.52L207.304 295.768C206.867 296.02 206.456 296.14 206.096 296.14" fill="#BFE9E0"/>
<path d="M206.096 312.14C205.284 312.14 204.731 311.532 204.731 310.466C204.731 308.927 205.884 307.014 207.304 306.194L295.497 254.882C296.179 255.487 296.904 256.043 297.666 256.543C294.582 257.023 292.336 259.256 291.948 262.52L207.304 311.768C206.867 312.02 206.456 312.14 206.096 312.14" fill="#BFE9E0"/>
<path d="M205.656 324.637C204.844 324.637 204.292 324.03 204.292 322.964C204.292 321.424 205.445 319.512 206.865 318.692L210.227 316.751C210.571 316.815 210.921 316.846 211.268 316.846C212.923 316.846 214.557 316.132 215.704 314.824C216.326 314.113 216.983 313.317 217.664 312.457L292.218 269.424L293.743 274.118L206.865 324.265C206.428 324.517 206.016 324.637 205.656 324.637V324.637ZM337.832 248.668C336.872 247.312 335.923 245.976 335.02 244.717L370.71 224.114C371.148 223.862 371.559 223.742 371.919 223.742C372.731 223.742 373.284 224.35 373.284 225.417C373.284 226.956 372.132 228.869 370.71 229.689L337.832 248.668" fill="#BFE9E0"/>
<path d="M206.096 336.095C205.284 336.095 204.731 335.488 204.731 334.421C204.731 332.882 205.884 330.969 207.304 330.148L267.501 295.02C267.939 294.767 268.35 294.648 268.71 294.648C269.522 294.648 270.075 295.255 270.075 296.321C270.075 297.86 268.922 299.774 267.501 300.595L207.304 335.723C206.867 335.975 206.456 336.095 206.096 336.095Z" fill="#BFE9E0"/>
<path d="M377.602 219.656C373.084 215.105 371.47 216.874 370.898 221.866C370.478 225.549 369.391 227.965 369.391 227.965C369.071 226.424 368.936 225.719 368.541 224.954C367.757 223.434 366.428 223.397 365.861 223.635C365.42 223.819 365.965 224.876 365.896 226.809C365.807 229.285 365.007 230.653 365.586 233.283C365.803 234.268 365.622 235.295 365.143 236.182C362.705 240.692 354.928 249.042 349.447 255.048C344.603 250.671 333.765 240.882 328.578 236.208C321.46 229.796 319.138 226.905 312.255 227.376C312.255 227.376 314.921 228.187 318.111 230.885C321.301 233.583 320.541 249.023 320.541 249.023C320.541 249.023 344.221 266 346.657 267.615C347.014 267.852 347.38 268.067 347.742 268.259C350.119 269.525 353.064 268.924 354.837 266.899C359.894 261.119 367.257 249.752 371.519 243.841C373.517 241.07 375.448 237.283 376.667 234.879C380.896 226.534 380.432 222.508 377.602 219.656Z" fill="#9B3E49"/>
<path d="M312.956 226.954C312.956 226.954 317.752 225.7 322.48 229.287C326.544 232.371 343.831 248.266 343.831 248.266C343.831 248.266 344.302 256.684 335.517 261.71L314.265 246.727L312.956 226.954" fill="#26B6A6"/>
<path d="M335.517 261.71L328.941 257.074L326.491 255.347C326.331 250.821 326.174 246.755 326.033 243.706C325.55 233.325 323.162 228.098 312.956 226.954C312.956 226.954 313.768 226.742 315.053 226.742C316.892 226.742 319.698 227.176 322.48 229.287C326.544 232.371 343.831 248.266 343.831 248.266C343.831 248.266 343.836 248.344 343.836 248.49C343.836 248.756 343.822 249.245 343.741 249.893C343.431 252.37 342.15 257.179 336.985 260.782C336.527 261.102 336.039 261.412 335.517 261.71" fill="#FFD17B"/>
<path d="M283.46 433.131H292.459V417.087H283.46V433.131Z" fill="#9B3E49"/>
<path d="M314.664 416.23L323.659 416.553L324.109 399.573L314.664 399.251V416.23Z" fill="#9B3E49"/>
<path d="M282.193 278.179C282.193 287.128 283.511 359.152 283.511 359.152C283.301 361.727 280.983 366.475 281.484 376.366C282.167 389.801 283.075 425.109 283.075 425.109C283.075 425.109 287.444 427.767 293.096 425.315C293.096 425.315 301.608 376.412 303.221 363.097C304.629 351.477 307.017 312.353 307.017 312.353L311.895 357.844C311.895 357.844 310.235 364.775 310.78 372.738C311.201 378.897 314.095 410.971 314.095 410.971C314.095 410.971 318.331 413.964 324.486 411.8C324.486 411.8 329.606 363.494 329.71 357.844C329.829 351.401 326.717 278.083 326.717 278.083L282.193 278.179" fill="#D45108"/>
<path d="M292.459 428.504V427.164C293.321 427.555 295.323 435.504 298.893 438.896C301.732 441.592 305.604 444.706 306.59 447.713C307.613 450.839 301.197 452.565 298.544 452.076C295.463 451.507 290.121 449.248 288.78 447.154C287.439 445.059 286.812 441.969 285.722 440.434C284.632 438.898 282.121 437.184 281.532 435.408C281.209 434.431 281.592 432.294 282.048 430.488C282.464 428.831 282.917 427.008 283.46 427.164C283.462 427.366 283.46 428.186 283.46 428.186C284.114 428.939 285.92 429.688 287.96 429.77C289.276 429.822 292.471 429.55 292.459 428.504" fill="#17282F"/>
<path d="M323.755 413.662C324.222 413.68 324.603 414.365 325.633 415.528C326.879 416.931 328.916 418.446 330.927 419.495C334.297 421.251 340.849 423.953 343.815 425.344C345.668 426.214 345.58 428.543 343.666 429.87C341.751 431.196 337.127 432.151 331.576 430.858C328.553 430.154 324.616 427.246 322.123 427.402C319.632 427.559 314.97 427.522 313.131 426.202C311.291 424.882 312.027 422.063 312.547 419.64C313.114 416.996 313.824 412.871 314.664 413.053V413.964C315.746 415.67 321.33 416.364 323.706 415.109L323.755 413.662" fill="#17282F"/>
<path d="M307.017 312.353C307.017 312.353 314.21 310.243 319.55 304.87C319.55 304.87 317.131 309.585 309.939 313.973L311.478 354.598L307.017 312.353" fill="#873203"/>
<path d="M286.875 229.364C286.875 229.364 279.832 230.008 280.332 243.423L281.888 264.792L281.742 296.859C288.361 304.356 317.701 303.807 327.745 296.257C327.745 296.257 326.711 258.309 326.033 243.706C325.55 233.325 323.162 228.098 312.956 226.954L300.406 227.506L286.875 229.364Z" fill="#FEEAC5"/>
<path d="M308.008 248.266L306.874 236.399L308.49 247.665L312.255 247.594L308.008 248.266" fill="#06AB91"/>
<path d="M264.538 275.428C268.189 246.078 276.587 231.488 286.826 229.773L286.1 248.551C286.1 248.551 279.223 264.229 276.355 279.622C275.01 286.848 273.449 299.41 273.854 305.585C273.926 306.679 274.409 307.696 275.162 308.464C277.179 310.523 277.792 312.302 279.147 314.626C280.209 316.445 281.305 317.088 281.022 317.524C280.659 318.086 279.465 318.855 277.889 317.932C277.096 317.467 276.144 316.524 274.966 315.298C274.966 315.298 274.667 319.826 276.435 323.47C278.83 328.407 278.432 331.01 271.798 329.556C267.64 328.645 264.643 324.261 263.531 314.027C263.21 311.078 263.17 306.31 263.325 302.553C263.728 292.77 263.807 281.3 264.538 275.428" fill="#9B3E49"/>
<path d="M287.41 229.288C282.093 229.268 277.242 230.201 273.385 237.629C269.686 244.753 266.841 259.843 265.405 264.769C265.405 264.769 273.168 269.356 280.308 269.245L285.339 251.794C285.339 251.794 288.735 243.647 287.41 229.288Z" fill="#26B6A6"/>
<path d="M280.052 269.247C279.643 269.247 279.233 269.233 278.823 269.204C273.431 268.834 268.011 266.177 266.114 265.162C265.657 264.918 265.405 264.769 265.405 264.769C266.841 259.843 269.686 244.753 273.385 237.629C277.203 230.278 281.993 229.288 287.246 229.288C287.3 229.288 287.355 229.288 287.41 229.288C287.626 231.629 287.716 233.806 287.716 235.809C287.718 246.088 285.339 251.794 285.339 251.794L281.829 263.968L280.308 269.245C280.222 269.247 280.138 269.247 280.052 269.247" fill="#FFD17B"/>
<path d="M298.375 199.072C298.375 206.778 304.374 213.026 311.774 213.026C319.174 213.026 325.172 206.778 325.172 199.072C325.172 191.367 319.174 185.119 311.774 185.119C304.374 185.119 298.375 191.367 298.375 199.072Z" fill="#17282F"/>
<path d="M289.851 206.053C289.851 206.053 291.906 216.107 292.73 217.759C293.555 219.411 295.257 219.88 295.257 219.88L295.113 212.808L289.851 206.053" fill="#17282F"/>
<path d="M292.431 191.65C292.431 191.65 290.957 191.28 289.391 193.726C288.049 195.822 287.745 200.531 289.851 206.053L293.723 206.516L292.431 191.65" fill="#17282F"/>
<path d="M294.883 206.519C294.108 207.002 293 205.448 292.043 204.406C291.085 203.363 287.96 201.938 286.402 205.358C284.814 208.844 287.777 213.45 290.238 214.253C294.477 215.64 295.113 212.808 295.113 212.808L295.438 228.733C301.066 237.438 313.816 237.123 309.232 228.312L309.22 223.465C309.22 223.465 313.061 224.072 314.935 223.771C318.054 223.269 320.016 220.708 320.961 217.192C322.48 211.547 323.057 206.99 321.769 195.888C320.356 183.719 306.765 183.592 299.425 188.403C292.085 193.214 294.883 206.519 294.883 206.519" fill="#9B3E49"/>
<path d="M295.365 225.163C295.365 225.163 297.346 229.444 300.877 232.069C304.125 234.481 307.548 234.903 307.548 234.903C307.548 234.903 304.245 237.09 302.842 240.186C301.438 243.281 291.534 234.758 291.622 228.711C291.622 228.711 293.177 222.639 295.306 222.249L295.365 225.163" fill="#17282F"/>
<path d="M307.548 234.903C307.548 234.903 310.602 233.385 309.232 228.312L309.22 223.465L310.558 223.644C311.6 224.582 313.239 226.79 313.776 229.218C314.082 230.605 314.835 237.638 313.493 239.034C312.273 240.306 310.284 235.281 307.548 234.903Z" fill="#17282F"/>
<path d="M294.884 207.879C294.493 207.887 293.008 205.321 292.043 204.406C290.703 203.137 292.431 191.65 292.431 191.65C292.431 191.65 291.144 188.794 293.723 185.838C295.557 183.737 298.622 183.503 303.856 182.647C305.894 182.313 308.072 182.091 310.06 181.529C312.188 180.926 314.282 179.515 316.263 178.509C316.919 178.178 317.653 177.835 318.362 178.027C319.045 178.21 319.52 178.861 319.696 179.544C319.873 180.228 319.805 180.948 319.736 181.65C320.949 180.312 323.318 180.508 324.556 181.823C325.794 183.137 325.965 185.219 325.309 186.901C324.651 188.582 323.294 189.906 321.797 190.916C315.219 195.355 307.456 194.123 300.094 193.252C299.741 193.209 299.368 193.174 299.044 193.32C297.892 193.843 297.645 197.424 297.443 198.458C296.761 201.945 296.195 207.852 294.884 207.879Z" fill="#17282F"/>
<path d="M292.438 192.256L287.745 189.632C288.411 188.232 290.002 187.684 291.298 188.409C292.593 189.132 293.105 190.854 292.438 192.256Z" fill="#17282F"/>
<path d="M309.22 223.465C309.22 223.465 302.26 222.005 299.826 220.659C298.198 219.757 296.857 218.194 296.462 217.192C296.462 217.192 296.919 219.343 298.374 221.28C300.153 223.649 309.22 225.393 309.22 225.393V223.465Z" fill="#802933"/>
<path d="M306.702 204.293C306.702 205.126 306.077 205.8 305.307 205.798C304.537 205.796 303.913 205.118 303.913 204.285C303.913 203.452 304.537 202.778 305.307 202.78C306.077 202.783 306.702 203.46 306.702 204.293Z" fill="#17282F"/>
<path d="M304.308 198.257L301.323 199.971C300.883 199.078 301.196 197.971 302.018 197.498C302.843 197.023 303.868 197.365 304.308 198.257Z" fill="#17282F"/>
<path d="M308.59 214.74L311.774 215.985C311.459 216.934 310.491 217.426 309.611 217.083C308.732 216.739 308.275 215.69 308.59 214.74" fill="#802933"/>
<path d="M320.636 199.921L317.499 198.394C317.862 197.48 318.857 197.081 319.723 197.502C320.589 197.924 320.997 199.007 320.636 199.921Z" fill="#17282F"/>
<path d="M318.568 204.293C318.568 205.126 317.944 205.801 317.172 205.798C316.402 205.796 315.778 205.119 315.778 204.285C315.778 203.452 316.402 202.778 317.172 202.78C317.944 202.783 318.568 203.46 318.568 204.293Z" fill="#17282F"/>
<path d="M310.666 203.214L310.827 212.022L315.828 210.876L310.666 203.214Z" fill="#802933"/>
<path d="M300.43 204.135C300.43 201.825 302.275 199.946 304.543 199.946H305.179C307.446 199.946 309.292 201.825 309.292 204.135C309.292 206.445 307.446 208.324 305.179 208.324H304.543C302.275 208.324 300.43 206.445 300.43 204.135ZM304.543 200.652C302.658 200.652 301.123 202.215 301.123 204.135C301.123 206.057 302.658 207.618 304.543 207.618H305.179C307.064 207.618 308.597 206.057 308.597 204.135C308.597 202.215 307.064 200.652 305.179 200.652H304.543Z" fill="#26B6A6"/>
<path d="M312.97 204.135C312.97 201.825 314.815 199.946 317.083 199.946H317.719C319.986 199.946 321.831 201.825 321.831 204.135C321.831 206.445 319.986 208.324 317.719 208.324H317.083C314.815 208.324 312.97 206.445 312.97 204.135ZM317.083 200.652C315.198 200.652 313.663 202.215 313.663 204.135C313.663 206.057 315.198 207.618 317.083 207.618H317.719C319.603 207.618 321.138 206.057 321.138 204.135C321.138 202.215 319.603 200.652 317.719 200.652H317.083Z" fill="#26B6A6"/>
<path d="M309.241 203.308C309.621 202.672 310.473 202.23 311.413 202.18C312.222 202.139 312.936 202.411 313.308 202.91L313.861 202.482C313.343 201.787 312.439 201.42 311.378 201.475C310.197 201.536 309.153 202.098 308.649 202.941L309.241 203.308" fill="#26B6A6"/>
<path d="M293.723 203.981H300.812V203.275H293.723V203.981Z" fill="#26B6A6"/>
</svg>
