<svg xmlns="http://www.w3.org/2000/svg" xmlns:xlink="http://www.w3.org/1999/xlink" viewBox="0 0 82 81" fill="#fff" fill-rule="evenodd" stroke="#000" stroke-linecap="round" stroke-linejoin="round"><use xlink:href="#A" x=".5" y=".5"/><symbol id="A" overflow="visible"><g stroke="none"><path d="M39.675 13c-13.694 0-24.797 11.477-24.797 25.632 0 11.327 7.104 20.932 16.959 24.321 1.24.235 1.692-.557 1.692-1.233l-.035-4.772c-6.895 1.549-8.353-3.022-8.353-3.022-1.129-2.96-2.753-3.748-2.753-3.748-2.254-1.589.171-1.558.171-1.558 2.49.178 3.8 2.641 3.8 2.641 2.213 3.917 5.806 2.785 7.216 2.128.225-1.652.867-2.785 1.574-3.423-5.505-.648-11.295-2.847-11.295-12.669 0-2.8.967-5.084 2.55-6.879-.253-.651-1.106-3.259.245-6.787 0 0 2.08-.688 6.82 2.628 1.977-.571 4.097-.853 6.205-.862 2.107.009 4.229.294 6.208.865 4.731-3.32 6.814-2.628 6.814-2.628 1.356 3.531.502 6.136.248 6.783 1.589 1.794 2.549 4.078 2.549 6.879 0 9.847-5.8 12.015-11.324 12.65.893.795 1.683 2.353 1.683 4.743l-.033 7.034c0 .682.451 1.48 1.707 1.23 9.847-3.395 16.945-13.001 16.945-24.321C64.472 24.477 53.369 13 39.675 13z"/><path d="M6.667 0Q0 0 0 6.667v66.667Q0 80 6.667 80h66.667Q80 80 80 73.333V6.667Q80 0 73.333 0z" fill="#000"/><path d="M61.872 26.768c-2.395-4.137-5.643-7.412-9.746-9.826s-8.583-3.621-13.443-3.621-9.34 1.207-13.442 3.621a26.77 26.77 0 0 0-9.746 9.826c-2.394 4.137-3.592 8.654-3.592 13.552 0 5.883 1.703 11.174 5.108 15.873s7.805 7.951 13.198 9.756c.628.117 1.092.035 1.395-.246a1.38 1.38 0 0 0 .453-1.054l-.018-1.898-.018-3.128-.802.14c-.511.094-1.156.134-1.935.123s-1.587-.093-2.423-.246-1.616-.503-2.336-1.054-1.232-1.272-1.534-2.162l-.349-.809c-.232-.539-.598-1.137-1.098-1.793s-1.005-1.101-1.517-1.336l-.244-.176c-.163-.117-.314-.258-.453-.422a1.93 1.93 0 0 1-.314-.492c-.07-.164-.012-.299.174-.405s.523-.157 1.011-.157l.697.105c.465.094 1.04.375 1.726.844s1.249 1.078 1.691 1.828c.535.961 1.179 1.694 1.935 2.197s1.517.756 2.284.756 1.429-.059 1.988-.175 1.081-.293 1.569-.528c.209-1.571.779-2.778 1.708-3.621-1.325-.14-2.516-.352-3.574-.633s-2.15-.738-3.277-1.372-2.064-1.418-2.807-2.355-1.354-2.168-1.83-3.691-.715-3.281-.715-5.273c0-2.836.918-5.25 2.755-7.242-.86-2.132-.779-4.523.244-7.171.674-.211 1.674-.053 2.999.474s2.295.979 2.912 1.354 1.11.692 1.482.949a24.57 24.57 0 0 1 6.695-.914c2.301 0 4.533.305 6.696.914l1.325-.843c.906-.563 1.976-1.078 3.207-1.547s2.174-.598 2.825-.386c1.046 2.648 1.139 5.039.278 7.171 1.836 1.992 2.755 4.407 2.755 7.242 0 1.992-.239 3.755-.715 5.291s-1.092 2.765-1.847 3.691-1.698 1.705-2.825 2.338-2.221 1.09-3.278 1.371-2.249.493-3.574.634c1.208 1.054 1.813 2.718 1.813 4.992v7.417c0 .421.145.773.436 1.054s.749.363 1.377.246c5.394-1.804 9.793-5.056 13.199-9.755s5.108-9.989 5.108-15.873c-.001-4.897-1.199-9.414-3.592-13.551z"/><path d="M.992 2.701l77.603 76.124A4.42 4.42 0 0 0 80 75.584V4.415C80 1.976 78.039 0 75.621 0H5.029A4.38 4.38 0 0 0 .992 2.701z" fill-opacity=".19"/></g></symbol></svg>