<!DOCTYPE svg PUBLIC "-//W3C//DTD SVG 1.1//EN" "http://www.w3.org/Graphics/SVG/1.1/DTD/svg11.dtd">

<svg width="800px" height="800px" viewBox="0 0 24 24" fill="none" xmlns="http://www.w3.org/2000/svg">

    <g id="SVGRepo_bgCarrier" stroke-width="0" />

    <g id="SVGRepo_tracerCarrier" stroke-linecap="round" stroke-linejoin="round" />

    <g id="SVGRepo_iconCarrier">
        <g clip-path="url(#a)" fill="#ffffff">
            <path
                d="M12 0a1 1 0 0 1 1 1v4a1 1 0 1 1-2 0V1a1 1 0 0 1 1-1ZM4.929 3.515a1 1 0 0 0-1.414 1.414l2.828 2.828a1 1 0 0 0 1.414-1.414L4.93 3.515ZM1 11a1 1 0 1 0 0 2h4a1 1 0 1 0 0-2H1ZM18 12a1 1 0 0 1 1-1h4a1 1 0 1 1 0 2h-4a1 1 0 0 1-1-1ZM17.657 16.243a1 1 0 0 0-1.414 1.414l2.828 2.828a1 1 0 1 0 1.414-1.414l-2.828-2.828ZM7.757 17.657a1 1 0 1 0-1.414-1.414L3.515 19.07a1 1 0 1 0 1.414 1.414l2.828-2.828ZM20.485 4.929a1 1 0 0 0-1.414-1.414l-2.828 2.828a1 1 0 1 0 1.414 1.414l2.828-2.828ZM13 19a1 1 0 1 0-2 0v4a1 1 0 1 0 2 0v-4ZM12 7a5 5 0 1 0 0 10 5 5 0 0 0 0-10Z" />
        </g>
        <defs>
            <clipPath id="a">
                <path fill="#ffffff" d="M0 0h24v24H0z" />
            </clipPath>
        </defs>
    </g>

</svg>