<svg width="30" height="30" viewBox="0 0 30 30" fill="none" xmlns="http://www.w3.org/2000/svg">
<path d="M21.7209 0H8.27874C3.71384 0 0 3.71402 0 8.27892V21.7211C0 26.2862 3.71384 30 8.27874 30H21.7209C26.2862 30 30 26.286 30 21.7211V8.27892C30.0002 3.71402 26.2862 0 21.7209 0ZM27.3384 21.7211C27.3384 24.8185 24.8185 27.3383 21.7211 27.3383H8.27874C5.18153 27.3384 2.66175 24.8185 2.66175 21.7211V8.27892C2.66175 5.18171 5.18153 2.66175 8.27874 2.66175H21.7209C24.8183 2.66175 27.3383 5.18171 27.3383 8.27892V21.7211H27.3384Z" fill="#21243D"/>
<path d="M14.9998 7.27014C10.7373 7.27014 7.26953 10.7379 7.26953 15.0004C7.26953 19.2627 10.7373 22.7303 14.9998 22.7303C19.2623 22.7303 22.73 19.2627 22.73 15.0004C22.73 10.7379 19.2623 7.27014 14.9998 7.27014ZM14.9998 20.0683C12.2051 20.0683 9.93128 17.7949 9.93128 15.0002C9.93128 12.2054 12.2049 9.93171 14.9998 9.93171C17.7946 9.93171 20.0683 12.2054 20.0683 15.0002C20.0683 17.7949 17.7944 20.0683 14.9998 20.0683Z" fill="#21243D"/>
<path d="M23.0545 5.01318C22.5417 5.01318 22.0379 5.2208 21.6757 5.58457C21.3118 5.94657 21.1025 6.45053 21.1025 6.96513C21.1025 7.47814 21.3119 7.98192 21.6757 8.34569C22.0377 8.70769 22.5417 8.91708 23.0545 8.91708C23.5691 8.91708 24.0713 8.70769 24.435 8.34569C24.7988 7.98192 25.0064 7.47796 25.0064 6.96513C25.0064 6.45053 24.7988 5.94657 24.435 5.58457C24.073 5.2208 23.5691 5.01318 23.0545 5.01318Z" fill="#21243D"/>
</svg>
