<?xml version="1.0" encoding="utf-8"?><svg version="1.1" id="svg10" xmlns:svg="http://www.w3.org/2000/svg" xmlns="http://www.w3.org/2000/svg" xmlns:xlink="http://www.w3.org/1999/xlink" x="0px" y="0px" viewBox="0 0 464.8 464.8" style="enable-background:new 0 0 464.8 464.8" xml:space="preserve"><style type="text/css">.st0{fill:#36FBB1;} .st1{fill:#0EC983;} .st2{fill:#FFFFFF;}</style><g><circle class="st0" cx="232.4" cy="232.4" r="232.4"/><g><g><path class="st1" d="M343.9,333.4v-19.7c0-6.8-2.4-13.5-6.8-18.7c-4.1-4.9-9.4-10.6-13.7-13.9c-19-14.4-46.8-23.6-79.5-26.3 c-11.9-1-16.2-0.9-28.5,0.5c-39.2,4.5-69.2,18.1-84.8,38.4c-0.6,0.8-1.2,1.5-1.7,2.2c-3.9,5.1-6,11.3-6,17.7v19.9 c0,16.9,13.7,30.6,30.6,30.6h159.9C330.2,363.9,343.9,350.2,343.9,333.4z"/><circle class="st1" cx="232.4" cy="174.5" r="51"/></g><g><path class="st2" d="M343.9,320.4v-19.7c0-6.8-2.4-13.5-6.8-18.7c-4.1-4.9-9.4-10.6-13.7-13.9c-19-14.4-46.8-23.6-79.5-26.3 c-11.9-1-16.2-0.9-28.5,0.5c-39.2,4.5-69.2,18.1-84.8,38.4c-0.6,0.8-1.2,1.5-1.7,2.2c-3.9,5.1-6,11.3-6,17.7v19.9 c0,16.9,13.7,30.6,30.6,30.6h159.9C330.2,351,343.9,337.3,343.9,320.4z"/><circle class="st2" cx="232.4" cy="161.5" r="51"/></g></g></g></svg>