<?xml version="1.0" encoding="UTF-8" standalone="no"?>
<svg
   fill="#000000"
   viewBox="0 0 50.605377 53.122743"
   width="36.146698"
   height="37.944817"
   version="1.1"
   id="svg4"
   sodipodi:docname="icons8-python.svg"
   inkscape:version="1.1.1 (3bf5ae0d25, 2021-09-20)"
   xmlns:inkscape="http://www.inkscape.org/namespaces/inkscape"
   xmlns:sodipodi="http://sodipodi.sourceforge.net/DTD/sodipodi-0.dtd"
   xmlns="http://www.w3.org/2000/svg"
   xmlns:svg="http://www.w3.org/2000/svg">
  <defs
     id="defs8" />
  <sodipodi:namedview
     id="namedview6"
     pagecolor="#ffffff"
     bordercolor="#666666"
     borderopacity="1.0"
     inkscape:pageshadow="2"
     inkscape:pageopacity="0.0"
     inkscape:pagecheckerboard="0"
     showgrid="false"
     fit-margin-top="0"
     fit-margin-left="0"
     fit-margin-right="0"
     fit-margin-bottom="0"
     scale-x="1.4"
     inkscape:zoom="14.14"
     inkscape:cx="10.608204"
     inkscape:cy="25.636492"
     inkscape:window-width="1920"
     inkscape:window-height="1028"
     inkscape:window-x="0"
     inkscape:window-y="26"
     inkscape:window-maximized="1"
     inkscape:current-layer="svg4" />
  <rect
     id="rect134"
     width="50.605377"
     height="53.122742"
     x="0"
     y="0"
     style="fill:#e7e9e9;fill-opacity:1;stroke-width:1.38823"
     ry="8.3999996" />
  <g
     inkscape:groupmode="layer"
     id="layer1"
     inkscape:label="Layer 1"
     transform="translate(-52.049603,-0.00475001)" />
  <g
     inkscape:groupmode="layer"
     id="layer2"
     inkscape:label="Layer 2"
     transform="translate(-52.049603,-0.00475001)">
    <g
       id="g110"
       transform="translate(1.3493852,1.5984042)"
       style="fill:#f14b4b;fill-opacity:1">
      <path
         d="m 76.065467,2.0479519 c -4.058594,0 -6.8125,0.96875 -8.5625,2.375 -1.75,1.40625 -2.4375,3.214844 -2.4375,4.71875 v 4.9062501 h 10 v 1 h -14.90625 c -1.828125,0 -3.683594,0.792969 -5,2.46875 -1.316406,1.675781 -2.09375,4.175781 -2.09375,7.53125 0,3.355469 0.777344,5.855469 2.09375,7.53125 1.316406,1.675781 3.171875,2.46875 5,2.46875 h 4.90625 v 5.90625 c 0,1.503906 0.6875,3.3125 2.4375,4.71875 1.75,1.40625 4.503906,2.375 8.5625,2.375 4.058594,0 6.8125,-0.96875 8.5625,-2.375 1.75,-1.40625 2.4375,-3.214844 2.4375,-4.71875 v -4.90625 h -10 v -1 h 14.90625 c 1.828125,0 3.683594,-0.792969 5,-2.46875 1.316406,-1.675781 2.09375,-4.175781 2.09375,-7.53125 0,-3.355469 -0.777344,-5.855469 -2.09375,-7.53125 -1.316406,-1.675781 -3.171875,-2.46875 -5,-2.46875 h -4.90625 V 9.1417019 c 0,-1.542969 -0.683594,-3.355469 -2.4375,-4.75 -1.753906,-1.394531 -4.507812,-2.34375 -8.5625,-2.34375 z m 0,2 c 3.746094,0 6.015625,0.875 7.3125,1.90625 1.296875,1.03125 1.6875,2.230469 1.6875,3.1875 V 21.047952 c 0,1.65625 -1.34375,3 -3,3 h -12 c -2.058594,0 -3.832031,1.269531 -4.59375,3.0625 -0.128906,0.296875 -0.246094,0.613281 -0.3125,0.9375 -0.06641,0.324219 -0.09375,0.65625 -0.09375,1 v 4 h -4.90625 c -1.269531,0 -2.445312,-0.496094 -3.40625,-1.71875 -0.960937,-1.222656 -1.6875,-3.238281 -1.6875,-6.28125 0,-3.042969 0.726563,-5.058594 1.6875,-6.28125 0.960938,-1.222656 2.136719,-1.71875 3.40625,-1.71875 h 16.90625 v -5 h -10 V 9.1417019 c 0,-0.894531 0.386719,-2.113281 1.6875,-3.15625 1.300781,-1.042969 3.570313,-1.9375 7.3125,-1.9375 z m -5,3 c -1.101562,0 -2,0.898438 -2,2 0,1.1015631 0.898438,2.0000001 2,2.0000001 1.101563,0 2,-0.898437 2,-2.0000001 0,-1.101562 -0.898437,-2 -2,-2 z m 16,10.0000001 h 4.90625 c 1.269531,0 2.445313,0.496094 3.40625,1.71875 0.960938,1.222656 1.6875,3.238281 1.6875,6.28125 0,3.042969 -0.726562,5.058594 -1.6875,6.28125 -0.960937,1.222656 -2.136719,1.71875 -3.40625,1.71875 h -16.90625 v 5 h 10 v 2.90625 c 0,0.894531 -0.386719,2.113281 -1.6875,3.15625 -1.300781,1.042969 -3.570312,1.9375 -7.3125,1.9375 -3.742187,0 -6.011719,-0.894531 -7.3125,-1.9375 -1.300781,-1.042969 -1.6875,-2.261719 -1.6875,-3.15625 v -11.90625 c 0,-0.207031 0.02344,-0.398437 0.0625,-0.59375 0.28125,-1.367187 1.488281,-2.40625 2.9375,-2.40625 h 12 c 2.746094,0 5,-2.253906 5,-5 z m -6,22 c -1.101562,0 -2,0.898438 -2,2 0,1.101563 0.898438,2 2,2 1.101563,0 2,-0.898437 2,-2 0,-1.101562 -0.898437,-2 -2,-2 z"
         id="path2"
         style="fill:#f14b4b;fill-opacity:1" />
    </g>
  </g>
</svg>
