<svg width="374" height="401" viewBox="0 0 374 401" fill="none" xmlns="http://www.w3.org/2000/svg">
<rect width="374" height="401" fill="#393E46" fill-opacity="0.81"/>
<path d="M333.111 122.074C322.159 127.959 317.615 139.292 319.232 152.618C319.719 156.617 317.687 162.88 314.64 165.03C295.563 178.482 276.094 191.415 256.277 203.747C248.79 208.408 245.111 205.814 243.964 196.946C243.572 193.917 243.765 190.8 243.842 187.725C244.268 171.119 245.501 154.488 244.955 137.917C244.764 132.166 245.801 127.281 247.859 122.971C259.155 116.412 271.057 111.455 283.678 108.064C293.082 116.368 305.59 117.997 316.397 111.717C328.251 104.827 333.091 90.4166 327.938 77.3524C323.252 65.4723 310.29 58.5659 297.26 61.0115C283.277 63.633 274.936 74.5083 275.037 89.4174C275.054 91.9195 274.394 94.428 273.788 96.9329C262.347 100.492 251.406 105.331 241.027 111.403C237.294 112.109 234.165 111.927 231.244 110.751C226.709 105.949 222.171 101.146 217.636 96.3433C227.532 79.4129 227.196 67.066 216.548 56.7517C207.424 47.9153 193.349 46.5002 182.5 53.3327C171.474 60.2733 166.945 74.2257 171.699 86.5956C176.889 100.098 185.509 103.967 208.085 101.855C214.843 109.009 221.602 116.166 228.36 123.32C232.616 131.186 235.697 139.561 236.158 148.962C236.414 154.14 236.462 159.336 236.389 164.534C217.531 151.49 198.582 138.562 179.901 125.268C158.882 110.308 138.43 90.9287 135.368 64.1312C139.652 63.1118 143.734 61.2076 147.335 58.1926C150.416 55.6137 152.756 52.7605 154.432 49.749C156.773 47.5971 158.381 44.5165 158.546 40.4793C159.255 23.1022 148.676 9.66199 133.207 3.15678C120.361 -2.24389 106.264 3.15119 96.4904 12.0532C95.972 12.3867 95.5743 12.7991 95.2435 13.252C93.5612 14.9029 92.0038 16.6424 90.6488 18.4559C88.6162 21.1722 88.2743 24.5794 89.0516 27.794C85.971 46.563 105.256 63.2855 124.695 64.8939C127.465 88.5626 141.232 107.184 159.039 122.622C182.283 142.775 209.622 158.991 234.868 176.494C235.243 176.755 235.617 176.949 235.987 177.1C235.662 183.69 235.198 190.278 234.692 196.843C233.544 211.664 230.599 225.945 225.403 239.455C221.477 236.569 218.479 232.591 216.683 227.983C225.457 221.538 227.051 209.78 222.659 200.322C218.266 190.862 205.324 187.38 196.123 190.748C188.174 193.658 183.457 200.957 183.204 208.695C182.256 214.554 184.183 220.748 188.354 225.696C192.103 230.146 197.991 232.166 203.849 232.079C206.847 240.36 212.538 247.23 219.888 251.838C217.132 257.231 213.972 262.477 210.357 267.558C201.392 280.15 192.954 281.694 182.469 270.598C169.621 257.005 157.938 242.261 146.371 227.528C141.537 221.371 140.928 214.054 142.3 206.686C142.896 205.442 143.487 204.198 144.083 202.957C166.384 201.044 175.736 195.198 178.623 181.645C181.399 168.615 175.674 155.981 164.483 150.435C160.07 148.249 155.111 147.321 150.268 147.58C136.954 146.646 124.928 156.966 120.88 168.96C117.264 179.673 123.009 191.248 132.173 196.868C130.73 199.891 129.287 202.914 127.843 205.938C125.267 205.947 122.32 204.759 119.507 202.302C109.809 193.829 101.37 183.883 91.5028 175.635C83.7368 169.142 79.1071 161.805 77.2343 153.544C80.2124 139.574 83.1932 125.605 86.1705 111.635C87.3267 111.048 88.6329 110.539 90.1848 110.125C107.451 105.542 114.702 85.1387 105.418 69.8026C99.5961 60.1861 88.9037 55.2411 77.8491 57.0573C65.528 59.0815 57.3886 66.879 54.8181 79.1177C52.5183 90.0781 57.5994 101.155 67.3813 107.768C68.938 108.819 70.9259 110.248 72.4568 111.706C69.3566 126.245 66.2565 140.784 63.1563 155.323C60.5258 154.5 57.8785 153.763 55.1935 153.208C52.5999 134.569 46.0466 126.265 33.0766 124.332C19.7103 122.34 7.59998 128.639 2.69752 140.138C-2.38985 152.066 1.03755 165.577 11.1244 173.357C22.5006 182.132 32.7919 180.656 51.8882 166.211C55.6233 166.932 59.2928 167.985 62.9058 169.329C73.465 178.758 84.1038 188.289 94.8618 197.744C124.605 223.884 147.936 254.676 165.131 289.922C136.136 285.544 110.548 267.95 96.1318 241.779C98.583 239.652 100.718 237.107 102.384 234.204C109.079 222.512 103.112 207.474 92.2487 200.963C89.2846 199.187 86.2103 198.242 83.1157 197.932C80.7873 196.87 78.2733 196.226 75.6595 196.15C66.1567 195.868 58.2964 201.103 54.2173 209.246C52.8651 209.983 51.7633 211.25 51.3279 213.269C51.3049 213.377 51.2937 213.487 51.2707 213.596C50.1291 215.358 50.0377 217.269 50.6071 218.971C50.1117 230.629 55.9568 241.233 67.2047 246.398C72.8043 248.969 78.7485 249.327 84.2712 247.969C101.705 280.398 135.281 301.732 171.733 304.204C174.711 310.686 178.269 317.177 179.553 323.909C176.339 344.575 171.019 364.768 163.83 384.485C162.167 389.042 163.656 392.656 166.455 394.916C167.024 396.077 167.813 397.079 168.471 397.224C185.316 400.936 202.297 403.348 219.142 397.401C220.565 396.897 222.359 394.244 222.439 392.686C223.805 390.52 224.358 387.761 223.478 384.541C217.468 362.561 214.579 340.074 215.074 317.489C215.99 313.492 216.904 309.498 217.835 305.504C218.06 305.419 218.282 305.362 218.51 305.248C231.998 298.549 245.487 291.851 258.975 285.154C259.075 285.246 259.163 285.345 259.265 285.436C267.325 292.505 279.356 291.272 287.094 284.528C295.58 277.126 294.106 263.948 287.797 255.922C280.634 246.807 266.218 248.222 258.318 255.105C257.658 255.683 257.198 256.301 256.846 256.936C256.425 257.324 256.023 257.756 255.67 258.291C252.704 262.774 251.764 268.246 252.658 273.399C252.51 273.461 252.362 273.493 252.214 273.567C242.156 278.56 232.101 283.553 222.043 288.55C223.262 283.972 224.54 279.414 225.983 274.908C226.695 272.684 227.458 270.48 228.246 268.286C247.765 244.654 276.543 230.904 307.34 230.195C307.428 230.192 307.502 230.169 307.587 230.163C308.111 234.542 309.782 238.855 312.775 242.502C321.706 253.386 339.439 256.381 350.539 246.958C361.217 237.893 363.796 219.949 354.251 209.063C344.084 197.47 326.291 197.194 315.02 207.21C313.355 208.69 312.76 210.412 312.885 212.061C311.564 213.592 310.465 215.289 309.614 217.119C308.931 216.903 308.191 216.758 307.34 216.778C284.32 217.308 262.721 224.234 244.276 236.398C247.202 232.276 250.456 228.331 254.132 224.612C274.765 203.739 298.888 188.027 324.911 175.059C329.084 172.978 334.801 172.508 339.498 173.243C352.488 175.275 364.504 170.504 370.363 159.809C375.974 149.566 374.204 135.474 366.255 127.158C357.771 118.291 344.072 116.184 333.111 122.074Z" fill="white"/>
<g clip-path="url(#clip0_4_4)">
<rect x="175" y="58" width="40" height="40" rx="20" fill="#393E46"/>
<path d="M190.492 88.4691C190.485 90.1367 191.834 91.4939 193.502 91.4939V91.4939C195.163 91.4939 196.511 90.1467 196.51 88.4849L196.51 81.4163C196.51 80.7265 196.576 80.2408 196.71 79.9469C197.318 78.4653 198.351 77.7265 199.804 77.7264C201.841 77.7264 202.861 79.0896 202.861 81.8121L202.861 88.457C202.862 90.1341 204.221 91.4937 205.898 91.4936V91.4936C207.575 91.4936 208.935 90.134 208.935 88.4568L208.935 81.1344C208.935 78.4609 208.294 76.4405 207.008 75.061C205.726 73.6855 204.037 72.9957 201.947 72.9958C199.629 72.9958 197.805 74.0088 196.484 76.0307C196.478 76.0403 196.484 76.053 196.496 76.053V76.053C196.504 76.053 196.51 76.0466 196.51 76.0387L196.51 74.7428C196.51 74.0192 195.924 73.4326 195.2 73.4326L193.564 73.4327C191.883 73.4327 190.509 74.8344 190.514 76.5153C190.522 79.0412 190.515 83.0252 190.492 88.4691ZM184.086 70.9349C185.143 70.9349 185.984 70.6451 186.604 70.0614C187.224 69.4777 187.535 68.7389 187.535 67.841C187.51 66.9145 187.192 66.1594 186.583 65.5798C185.975 64.9961 185.155 64.7063 184.122 64.7064C183.118 64.7064 182.298 65.0044 181.661 65.6003C181.024 66.1962 180.71 66.9432 180.71 67.8411C180.71 68.7391 181.016 69.4819 181.624 70.0615C182.233 70.6452 183.041 70.935 184.045 70.9349L184.086 70.9349ZM181.074 88.4574C181.074 90.1346 182.433 91.4942 184.111 91.4941V91.4941C185.788 91.4941 187.147 90.1345 187.147 88.4573L187.147 76.4736C187.147 74.7965 185.787 73.4369 184.11 73.437V73.437C182.433 73.437 181.073 74.7966 181.073 76.4738L181.074 88.4574ZM175 95.1433L175 60.8576C175 60.0657 175.285 59.3882 175.853 58.8331C176.42 58.278 177.114 58.0004 177.934 58.0004L212.061 57.9996C212.881 57.9996 213.575 58.2771 214.142 58.8322C214.714 59.3873 215 60.0649 215 60.8567L215 95.1424C215 95.9342 214.715 96.6118 214.147 97.1669C213.58 97.722 212.886 97.9996 212.066 97.9996L177.935 98.0004C177.115 98.0004 176.421 97.7229 175.854 97.1678C175.286 96.6127 175 95.9351 175 95.1433Z" fill="white"/>
</g>
<path d="M175 174C175 186.703 164.255 197 151 197C137.745 197 127 186.703 127 174C127 161.297 137.745 151 151 151C164.255 151 175 161.297 175 174Z" fill="white"/>
<rect x="127" y="151" width="48" height="46" rx="23" fill="white"/>
<path d="M150.196 156C149.044 156 147.938 156.143 146.647 156.675C144.022 157.784 142.685 160.382 142.685 164.43V168.381H139V174.981H142.685V194H150.196V174.977H155.309L156 168.377H150.196V165.391C150.196 164.476 150.287 163.802 150.517 163.418C150.838 162.84 151.484 162.549 152.5 162.549H155.909V156H150.196Z" fill="#393E46"/>
<path d="M152 30.5C152 45.6878 139.688 58 124.5 58C109.312 58 97 45.6878 97 30.5C97 15.3122 109.312 3 124.5 3C139.688 3 152 15.3122 152 30.5Z" fill="#393E46"/>
<path d="M97 30.7452C97 43.3018 104.694 53.9749 115.419 57.8944C116.862 58.2758 116.643 57.1961 116.643 56.4627V51.4753C108.303 52.5021 107.966 46.7225 107.405 45.7603C106.271 43.7418 103.6 43.2255 104.397 42.2632C106.299 41.2364 108.23 42.5214 110.475 45.9832C112.103 48.4946 115.257 48.0721 116.867 47.6496C117.215 46.1417 117.973 44.798 119 43.7418C110.363 42.1459 106.76 36.6245 106.76 30.0704C106.76 26.8961 107.759 23.9681 109.734 21.6094C108.483 17.7133 109.852 14.3923 110.037 13.8994C113.601 13.5532 117.305 16.5633 117.597 16.798C119.629 16.2288 121.941 15.9179 124.534 15.9179C127.138 15.9179 129.467 16.2347 131.51 16.8097C132.206 16.2582 135.646 13.6823 138.963 13.9933C139.142 14.4862 140.478 17.7368 139.299 21.5742C141.292 23.9388 142.302 26.8843 142.302 30.0763C142.302 36.6479 138.677 42.1693 130.017 43.7594C131.465 45.2498 132.357 47.321 132.357 49.6153V56.8441C132.408 57.4191 132.357 58 133.283 58C144.165 54.1685 152 43.4132 152 30.751C152 14.8676 139.687 2 124.5 2C109.308 1.99413 97 14.8617 97 30.7452Z" fill="white"/>
<path d="M360 226C360 239.807 348.807 251 335 251C321.193 251 310 239.807 310 226C310 212.193 321.193 201 335 201C348.807 201 360 212.193 360 226Z" fill="white"/>
<rect x="310" y="201" width="50" height="50" rx="25" fill="#393E46"/>
<path d="M341.801 226C341.801 229.801 338.699 232.801 335 232.801C331.199 232.801 328.199 229.699 328.199 226C328.199 225.102 328.398 224.199 328.699 223.398H325V233.602C325 234.903 326.102 236 327.398 236H342.699C344 236 345.097 234.898 345.097 233.602V223.398H341.398C341.699 224.199 341.801 225.102 341.801 226Z" fill="white"/>
<path d="M344.602 220.602V216.903V216.403H344.102H340.403V220.602H344.602Z" fill="white"/>
<path d="M335 230.398C337.398 230.398 339.398 228.398 339.398 226C339.398 225 339.097 224.199 338.597 223.398C337.796 222.296 336.495 221.597 334.995 221.597C333.495 221.597 332.194 222.296 331.393 223.398C330.893 224.097 330.592 225 330.592 226C330.602 228.398 332.602 230.398 335 230.398Z" fill="white"/>
<path d="M335 201C321.199 201 310 212.199 310 226C310 239.801 321.199 251 335 251C348.801 251 360 239.801 360 226C360 212.199 348.801 201 335 201ZM347.5 223.398V233.602C347.5 236.301 345.301 238.403 342.699 238.403H327.301C324.602 238.403 322.5 236.204 322.5 233.602V223.398V218.296C322.5 215.597 324.699 213.495 327.301 213.495H342.602C345.301 213.495 347.403 215.694 347.403 218.296V223.398H347.5Z" fill="white"/>
<defs>
<clipPath id="clip0_4_4">
<rect x="175" y="58" width="40" height="40" rx="20" fill="white"/>
</clipPath>
</defs>
</svg>
