<svg xmlns="http://www.w3.org/2000/svg" xmlns:xlink="http://www.w3.org/1999/xlink" width="174" zoomAndPan="magnify" viewBox="0 0 130.5 30.000001" height="40" preserveAspectRatio="xMidYMid meet" version="1.0"><defs><g/></defs><g fill="#2e3184" fill-opacity="1"><g transform="translate(70.515812, 23.689189)"><g><path d="M 6.644531 0 C 5.238281 0 4 -0.464844 2.929688 -1.398438 C 1.859375 -2.328125 1.234375 -3.488281 1.054688 -4.878906 C 1.011719 -5.171875 1.085938 -5.429688 1.273438 -5.652344 C 1.480469 -5.878906 1.726562 -5.992188 2.023438 -5.992188 C 2.269531 -5.992188 2.480469 -5.910156 2.660156 -5.75 C 2.839844 -5.585938 2.949219 -5.386719 2.992188 -5.148438 C 3.105469 -4.242188 3.515625 -3.480469 4.214844 -2.867188 C 4.910156 -2.261719 5.71875 -1.960938 6.644531 -1.960938 C 7.664062 -1.960938 8.535156 -2.320312 9.253906 -3.039062 C 9.972656 -3.765625 10.332031 -4.640625 10.332031 -5.664062 C 10.332031 -6.796875 10.046875 -7.640625 9.476562 -8.1875 C 9.074219 -8.570312 8.410156 -8.882812 7.476562 -9.121094 C 7.363281 -9.152344 7.171875 -9.199219 6.902344 -9.265625 C 5.832031 -9.519531 5.085938 -9.792969 4.671875 -10.085938 C 3.949219 -10.59375 3.589844 -11.367188 3.589844 -12.40625 C 3.589844 -13.238281 3.890625 -13.953125 4.484375 -14.550781 C 5.082031 -15.144531 5.800781 -15.445312 6.644531 -15.445312 C 7.304688 -15.445312 7.902344 -15.253906 8.433594 -14.867188 C 8.964844 -14.484375 9.332031 -13.976562 9.535156 -13.347656 C 9.617188 -13.019531 9.570312 -12.726562 9.390625 -12.464844 C 9.21875 -12.230469 8.957031 -12.097656 8.605469 -12.074219 C 8.128906 -12.074219 7.820312 -12.292969 7.671875 -12.734375 C 7.507812 -13.234375 7.167969 -13.484375 6.644531 -13.484375 C 6.339844 -13.484375 6.082031 -13.375 5.871094 -13.164062 C 5.660156 -12.953125 5.550781 -12.699219 5.550781 -12.40625 C 5.550781 -12.042969 5.730469 -11.761719 6.09375 -11.558594 C 6.34375 -11.417969 6.855469 -11.253906 7.625 -11.054688 C 8.679688 -10.785156 9.457031 -10.511719 9.964844 -10.234375 C 11.519531 -9.386719 12.292969 -7.859375 12.292969 -5.664062 C 12.292969 -4.101562 11.742188 -2.769531 10.640625 -1.667969 C 9.535156 -0.554688 8.203125 0 6.644531 0 Z M 2.011719 -5.332031 C 1.773438 -5.308594 1.667969 -5.1875 1.691406 -4.976562 C 1.855469 -3.742188 2.410156 -2.714844 3.359375 -1.886719 C 4.304688 -1.0625 5.402344 -0.648438 6.644531 -0.648438 C 8.023438 -0.648438 9.199219 -1.140625 10.171875 -2.121094 C 11.152344 -3.101562 11.644531 -4.28125 11.644531 -5.664062 C 11.644531 -7.609375 10.976562 -8.945312 9.644531 -9.671875 C 9.1875 -9.917969 8.460938 -10.167969 7.464844 -10.429688 C 6.597656 -10.644531 6.007812 -10.847656 5.6875 -11.042969 C 5.164062 -11.363281 4.902344 -11.816406 4.902344 -12.40625 C 4.902344 -12.878906 5.074219 -13.285156 5.417969 -13.628906 C 5.753906 -13.964844 6.160156 -14.132812 6.644531 -14.132812 C 7.476562 -14.132812 8.023438 -13.734375 8.285156 -12.945312 C 8.375 -12.730469 8.539062 -12.660156 8.777344 -12.734375 C 8.929688 -12.800781 8.976562 -12.941406 8.910156 -13.152344 C 8.746094 -13.640625 8.457031 -14.039062 8.039062 -14.339844 C 7.625 -14.636719 7.160156 -14.78125 6.644531 -14.78125 C 5.980469 -14.78125 5.417969 -14.550781 4.953125 -14.082031 C 4.484375 -13.617188 4.253906 -13.058594 4.253906 -12.40625 C 4.253906 -11.578125 4.523438 -10.976562 5.0625 -10.601562 C 5.398438 -10.375 6.058594 -10.136719 7.046875 -9.890625 C 7.308594 -9.835938 7.507812 -9.785156 7.648438 -9.746094 C 8.695312 -9.484375 9.464844 -9.101562 9.964844 -8.605469 C 10.652344 -7.933594 10.996094 -6.953125 10.996094 -5.664062 C 10.996094 -4.460938 10.570312 -3.4375 9.71875 -2.585938 C 8.871094 -1.738281 7.84375 -1.3125 6.644531 -1.3125 C 5.554688 -1.3125 4.605469 -1.667969 3.789062 -2.378906 C 2.960938 -3.097656 2.480469 -3.988281 2.339844 -5.050781 C 2.316406 -5.238281 2.207031 -5.332031 2.011719 -5.332031 Z M 6.644531 -2.609375 C 5.988281 -2.609375 5.394531 -2.804688 4.855469 -3.1875 C 4.324219 -3.570312 3.949219 -4.078125 3.738281 -4.707031 C 3.648438 -5.035156 3.703125 -5.328125 3.898438 -5.589844 C 4.078125 -5.835938 4.34375 -5.96875 4.695312 -5.992188 C 5.160156 -5.992188 5.464844 -5.765625 5.613281 -5.308594 C 5.777344 -4.816406 6.121094 -4.570312 6.644531 -4.570312 C 6.945312 -4.570312 7.203125 -4.679688 7.414062 -4.890625 C 7.621094 -5.101562 7.722656 -5.359375 7.722656 -5.664062 C 7.722656 -6.023438 7.546875 -6.300781 7.195312 -6.496094 C 6.941406 -6.644531 6.433594 -6.8125 5.675781 -7 C 3.976562 -7.433594 2.804688 -8.003906 2.15625 -8.714844 C 1.382812 -9.589844 0.992188 -10.820312 0.992188 -12.40625 C 0.992188 -13.957031 1.542969 -15.285156 2.648438 -16.386719 C 3.75 -17.5 5.082031 -18.054688 6.644531 -18.054688 C 8.050781 -18.054688 9.285156 -17.589844 10.355469 -16.65625 C 11.417969 -15.726562 12.050781 -14.566406 12.246094 -13.175781 C 12.269531 -12.867188 12.191406 -12.609375 12.011719 -12.40625 C 11.816406 -12.183594 11.570312 -12.074219 11.277344 -12.074219 C 11.023438 -12.074219 10.808594 -12.15625 10.628906 -12.320312 C 10.4375 -12.472656 10.328125 -12.671875 10.296875 -12.90625 C 10.171875 -13.8125 9.765625 -14.574219 9.070312 -15.1875 C 8.375 -15.792969 7.566406 -16.09375 6.644531 -16.09375 C 5.621094 -16.09375 4.75 -15.734375 4.03125 -15.015625 C 3.304688 -14.289062 2.941406 -13.417969 2.941406 -12.40625 C 2.941406 -11.152344 3.300781 -10.25 4.019531 -9.695312 C 4.445312 -9.367188 5.234375 -9.066406 6.386719 -8.789062 C 7.449219 -8.535156 8.191406 -8.257812 8.617188 -7.953125 C 9.328125 -7.457031 9.683594 -6.691406 9.683594 -5.664062 C 9.683594 -4.820312 9.386719 -4.101562 8.789062 -3.503906 C 8.199219 -2.910156 7.484375 -2.609375 6.644531 -2.609375 Z M 4.585938 -5.320312 C 4.371094 -5.238281 4.296875 -5.097656 4.363281 -4.902344 C 4.527344 -4.414062 4.816406 -4.015625 5.234375 -3.714844 C 5.660156 -3.410156 6.128906 -3.261719 6.644531 -3.261719 C 7.304688 -3.261719 7.871094 -3.496094 8.335938 -3.972656 C 8.800781 -4.4375 9.035156 -5 9.035156 -5.664062 C 9.035156 -6.480469 8.765625 -7.078125 8.226562 -7.453125 C 7.882812 -7.679688 7.214844 -7.914062 6.226562 -8.152344 C 4.992188 -8.453125 4.125 -8.792969 3.628906 -9.167969 C 2.738281 -9.863281 2.292969 -10.941406 2.292969 -12.40625 C 2.292969 -13.597656 2.71875 -14.617188 3.566406 -15.46875 C 4.417969 -16.320312 5.441406 -16.742188 6.644531 -16.742188 C 7.730469 -16.742188 8.683594 -16.386719 9.5 -15.675781 C 10.316406 -14.957031 10.796875 -14.0625 10.945312 -12.992188 C 10.988281 -12.796875 11.109375 -12.710938 11.3125 -12.734375 C 11.519531 -12.769531 11.613281 -12.890625 11.59375 -13.101562 C 11.421875 -14.320312 10.867188 -15.34375 9.929688 -16.167969 C 8.980469 -16.984375 7.886719 -17.394531 6.644531 -17.394531 C 5.261719 -17.394531 4.085938 -16.90625 3.113281 -15.933594 C 2.132812 -14.953125 1.640625 -13.777344 1.640625 -12.40625 C 1.640625 -10.984375 1.976562 -9.898438 2.648438 -9.15625 C 3.203125 -8.542969 4.265625 -8.035156 5.835938 -7.636719 C 6.691406 -7.414062 7.28125 -7.210938 7.597656 -7.023438 C 8.121094 -6.703125 8.382812 -6.25 8.382812 -5.664062 C 8.382812 -5.179688 8.210938 -4.769531 7.871094 -4.425781 C 7.535156 -4.089844 7.125 -3.921875 6.644531 -3.921875 C 5.808594 -3.921875 5.257812 -4.320312 4.988281 -5.109375 C 4.921875 -5.300781 4.789062 -5.367188 4.585938 -5.320312 Z M 4.585938 -5.320312 "/></g></g></g><g fill="#2e3184" fill-opacity="1"><g transform="translate(83.788812, 23.689189)"><g><path d="M 5.0625 0 C 4.792969 0 4.558594 -0.0976562 4.363281 -0.292969 C 4.175781 -0.480469 4.082031 -0.710938 4.082031 -0.980469 L 4.082031 -17.085938 C 4.082031 -17.355469 4.175781 -17.585938 4.363281 -17.773438 C 4.550781 -17.960938 4.785156 -18.054688 5.0625 -18.054688 C 5.332031 -18.054688 5.5625 -17.957031 5.75 -17.761719 C 5.9375 -17.574219 6.03125 -17.347656 6.03125 -17.085938 L 6.03125 -0.980469 C 6.03125 -0.710938 5.9375 -0.480469 5.75 -0.292969 C 5.5625 -0.0976562 5.332031 0 5.0625 0 Z M 5.0625 -17.394531 C 4.839844 -17.394531 4.730469 -17.289062 4.730469 -17.085938 L 4.730469 -0.980469 C 4.730469 -0.761719 4.839844 -0.648438 5.0625 -0.648438 C 5.273438 -0.648438 5.382812 -0.761719 5.382812 -0.980469 L 5.382812 -17.085938 C 5.382812 -17.289062 5.273438 -17.394531 5.0625 -17.394531 Z M 13.03125 0 C 12.761719 0 12.53125 -0.0976562 12.34375 -0.292969 C 12.148438 -0.480469 12.050781 -0.710938 12.050781 -0.980469 L 12.050781 -7.316406 L 7.597656 -7.316406 C 7.328125 -7.316406 7.097656 -7.414062 6.902344 -7.613281 C 6.714844 -7.800781 6.617188 -8.027344 6.617188 -8.296875 C 6.617188 -8.566406 6.714844 -8.800781 6.902344 -8.996094 C 7.097656 -9.183594 7.328125 -9.277344 7.597656 -9.277344 L 12.050781 -9.277344 L 12.050781 -9.929688 L 7.597656 -9.929688 C 7.328125 -9.929688 7.097656 -10.027344 6.902344 -10.222656 C 6.714844 -10.410156 6.617188 -10.640625 6.617188 -10.910156 C 6.617188 -11.179688 6.714844 -11.410156 6.902344 -11.609375 C 7.097656 -11.796875 7.328125 -11.890625 7.597656 -11.890625 L 12.050781 -11.890625 L 12.050781 -17.085938 C 12.050781 -17.347656 12.144531 -17.574219 12.332031 -17.761719 C 12.519531 -17.957031 12.746094 -18.054688 13.015625 -18.054688 C 13.296875 -18.054688 13.527344 -17.960938 13.714844 -17.773438 C 13.910156 -17.585938 14.011719 -17.355469 14.011719 -17.085938 L 14.011719 -0.980469 C 14.011719 -0.710938 13.910156 -0.480469 13.714844 -0.292969 C 13.527344 -0.0976562 13.300781 0 13.03125 0 Z M 7.597656 -8.628906 C 7.378906 -8.628906 7.269531 -8.519531 7.269531 -8.296875 C 7.269531 -8.085938 7.378906 -7.980469 7.597656 -7.980469 L 12.699219 -7.980469 L 12.699219 -0.980469 C 12.699219 -0.761719 12.808594 -0.648438 13.03125 -0.648438 C 13.25 -0.648438 13.359375 -0.761719 13.359375 -0.980469 L 13.359375 -17.085938 C 13.359375 -17.289062 13.246094 -17.394531 13.015625 -17.394531 C 12.804688 -17.394531 12.699219 -17.289062 12.699219 -17.085938 L 12.699219 -11.238281 L 7.597656 -11.238281 C 7.378906 -11.238281 7.269531 -11.128906 7.269531 -10.910156 C 7.269531 -10.695312 7.378906 -10.589844 7.597656 -10.589844 L 12.699219 -10.589844 L 12.699219 -8.628906 Z M 2.453125 0 C 2.183594 0 1.949219 -0.0976562 1.753906 -0.292969 C 1.566406 -0.480469 1.472656 -0.710938 1.472656 -0.980469 L 1.472656 -17.085938 C 1.472656 -17.347656 1.566406 -17.574219 1.753906 -17.761719 C 1.941406 -17.957031 2.167969 -18.054688 2.4375 -18.054688 C 2.71875 -18.054688 2.949219 -17.960938 3.136719 -17.773438 C 3.332031 -17.585938 3.433594 -17.355469 3.433594 -17.085938 L 3.433594 -0.980469 C 3.433594 -0.710938 3.332031 -0.480469 3.136719 -0.292969 C 2.949219 -0.0976562 2.722656 0 2.453125 0 Z M 2.4375 -17.394531 C 2.226562 -17.394531 2.121094 -17.289062 2.121094 -17.085938 L 2.121094 -0.980469 C 2.121094 -0.761719 2.230469 -0.648438 2.453125 -0.648438 C 2.664062 -0.648438 2.769531 -0.761719 2.769531 -0.980469 L 2.769531 -17.085938 C 2.769531 -17.289062 2.660156 -17.394531 2.4375 -17.394531 Z M 15.640625 0 C 15.371094 0 15.140625 -0.0976562 14.953125 -0.292969 C 14.757812 -0.480469 14.660156 -0.710938 14.660156 -0.980469 L 14.660156 -17.085938 C 14.660156 -17.347656 14.753906 -17.574219 14.941406 -17.761719 C 15.128906 -17.957031 15.359375 -18.054688 15.628906 -18.054688 C 15.90625 -18.054688 16.140625 -17.960938 16.328125 -17.773438 C 16.523438 -17.585938 16.621094 -17.355469 16.621094 -17.085938 L 16.621094 -0.980469 C 16.621094 -0.710938 16.523438 -0.480469 16.328125 -0.292969 C 16.140625 -0.0976562 15.910156 0 15.640625 0 Z M 15.628906 -17.394531 C 15.414062 -17.394531 15.308594 -17.289062 15.308594 -17.085938 L 15.308594 -0.980469 C 15.308594 -0.761719 15.417969 -0.648438 15.640625 -0.648438 C 15.859375 -0.648438 15.972656 -0.761719 15.972656 -0.980469 L 15.972656 -17.085938 C 15.972656 -17.289062 15.855469 -17.394531 15.628906 -17.394531 Z M 15.628906 -17.394531 "/></g></g></g><g fill="#2e3184" fill-opacity="1"><g transform="translate(101.890587, 23.689189)"><g><path d="M 4.214844 0 C 4.0625 0 3.910156 -0.0390625 3.761719 -0.121094 C 3.519531 -0.238281 3.355469 -0.425781 3.273438 -0.6875 C 3.191406 -0.941406 3.214844 -1.1875 3.347656 -1.433594 L 11.410156 -17.578125 C 11.535156 -17.820312 11.726562 -17.984375 11.988281 -18.066406 C 12.242188 -18.140625 12.484375 -18.121094 12.722656 -18.007812 C 12.960938 -17.882812 13.125 -17.695312 13.214844 -17.441406 C 13.296875 -17.179688 13.273438 -16.929688 13.152344 -16.695312 L 5.085938 -0.550781 C 4.964844 -0.296875 4.773438 -0.128906 4.511719 -0.0507812 C 4.414062 -0.015625 4.316406 0 4.214844 0 Z M 12.429688 -17.417969 C 12.25 -17.507812 12.105469 -17.464844 12 -17.296875 L 3.921875 -1.128906 C 3.839844 -0.929688 3.886719 -0.789062 4.058594 -0.699219 C 4.238281 -0.585938 4.382812 -0.628906 4.5 -0.832031 L 12.574219 -16.988281 C 12.648438 -17.191406 12.601562 -17.335938 12.429688 -17.417969 Z M 1.300781 0 C 1.144531 0 0.992188 -0.0390625 0.847656 -0.121094 C 0.617188 -0.238281 0.457031 -0.421875 0.367188 -0.675781 C 0.285156 -0.9375 0.304688 -1.183594 0.429688 -1.421875 L 8.496094 -17.578125 C 8.617188 -17.820312 8.804688 -17.984375 9.058594 -18.066406 C 9.3125 -18.148438 9.566406 -18.128906 9.816406 -18.007812 C 10.054688 -17.882812 10.214844 -17.699219 10.296875 -17.453125 C 10.386719 -17.191406 10.371094 -16.941406 10.246094 -16.695312 L 2.167969 -0.550781 C 2.046875 -0.296875 1.855469 -0.128906 1.59375 -0.0507812 C 1.496094 -0.015625 1.398438 0 1.300781 0 Z M 9.535156 -17.417969 C 9.339844 -17.515625 9.1875 -17.476562 9.082031 -17.296875 L 1.003906 -1.128906 C 0.929688 -0.949219 0.980469 -0.804688 1.152344 -0.699219 C 1.332031 -0.609375 1.476562 -0.652344 1.582031 -0.832031 L 9.660156 -16.988281 C 9.757812 -17.210938 9.714844 -17.351562 9.535156 -17.417969 Z M 9.535156 -17.417969 "/></g></g></g><g fill="#2e3184" fill-opacity="1"><g transform="translate(115.482238, 23.689189)"><g><path d="M 1.226562 -5.550781 C 1.226562 -5.820312 1.324219 -6.050781 1.519531 -6.238281 C 2.523438 -7.210938 3.179688 -7.847656 3.480469 -8.152344 C 3.773438 -8.4375 4.113281 -8.769531 4.5 -9.144531 C 3.984375 -9.640625 3.609375 -10.011719 3.371094 -10.246094 C 3.019531 -10.605469 2.425781 -11.191406 1.59375 -12 C 1.398438 -12.179688 1.300781 -12.40625 1.300781 -12.675781 C 1.292969 -12.945312 1.382812 -13.171875 1.570312 -13.359375 C 1.765625 -13.566406 1.996094 -13.667969 2.269531 -13.667969 C 2.539062 -13.675781 2.765625 -13.585938 2.953125 -13.398438 L 6.507812 -9.917969 C 6.714844 -9.71875 6.816406 -9.460938 6.816406 -9.144531 C 6.816406 -8.824219 6.714844 -8.566406 6.507812 -8.371094 L 2.894531 -4.828125 C 2.6875 -4.640625 2.453125 -4.550781 2.183594 -4.558594 C 1.914062 -4.566406 1.683594 -4.671875 1.496094 -4.867188 C 1.316406 -5.046875 1.226562 -5.269531 1.226562 -5.539062 Z M 5.195312 -8.910156 C 4.691406 -8.421875 4.269531 -8.011719 3.933594 -7.683594 C 3.632812 -7.382812 2.980469 -6.742188 1.972656 -5.761719 C 1.90625 -5.703125 1.875 -5.628906 1.875 -5.539062 C 1.867188 -5.457031 1.894531 -5.386719 1.960938 -5.320312 C 2.117188 -5.15625 2.277344 -5.148438 2.4375 -5.296875 L 6.054688 -8.835938 C 6.128906 -8.910156 6.164062 -9.011719 6.164062 -9.144531 C 6.164062 -9.273438 6.128906 -9.375 6.054688 -9.449219 L 2.488281 -12.929688 C 2.429688 -12.988281 2.363281 -13.015625 2.28125 -13.015625 C 2.191406 -13.015625 2.113281 -12.980469 2.046875 -12.90625 L 2.035156 -12.90625 C 1.96875 -12.839844 1.941406 -12.769531 1.949219 -12.6875 C 1.949219 -12.605469 1.980469 -12.53125 2.046875 -12.464844 C 2.898438 -11.632812 3.492188 -11.046875 3.835938 -10.710938 C 4.089844 -10.460938 4.542969 -10.015625 5.195312 -9.375 L 5.429688 -9.144531 Z M 2.132812 -2.769531 C 2.132812 -3.039062 2.226562 -3.269531 2.414062 -3.457031 C 3.117188 -4.144531 4.234375 -5.230469 5.761719 -6.71875 C 6.878906 -7.8125 7.710938 -8.621094 8.25 -9.144531 C 7.570312 -9.804688 6.566406 -10.785156 5.234375 -12.085938 C 4.066406 -13.222656 3.125 -14.136719 2.414062 -14.832031 C 2.226562 -15.011719 2.132812 -15.234375 2.132812 -15.503906 C 2.125 -15.773438 2.210938 -16.003906 2.390625 -16.191406 C 2.585938 -16.394531 2.820312 -16.5 3.089844 -16.5 C 3.359375 -16.507812 3.589844 -16.414062 3.789062 -16.214844 L 10.246094 -9.917969 C 10.453125 -9.71875 10.554688 -9.460938 10.554688 -9.144531 C 10.554688 -8.824219 10.453125 -8.566406 10.246094 -8.371094 L 3.789062 -2.070312 C 3.597656 -1.882812 3.371094 -1.789062 3.101562 -1.789062 C 2.832031 -1.789062 2.597656 -1.886719 2.402344 -2.082031 L 2.390625 -2.097656 C 2.21875 -2.285156 2.132812 -2.507812 2.132812 -2.769531 Z M 9.902344 -9.144531 C 9.902344 -9.273438 9.867188 -9.375 9.792969 -9.449219 L 3.332031 -15.75 C 3.269531 -15.816406 3.191406 -15.847656 3.101562 -15.847656 C 3.011719 -15.847656 2.929688 -15.8125 2.855469 -15.738281 C 2.71875 -15.589844 2.726562 -15.441406 2.878906 -15.285156 C 3.582031 -14.605469 4.519531 -13.695312 5.6875 -12.550781 C 7.109375 -11.164062 8.195312 -10.105469 8.949219 -9.375 L 9.191406 -9.144531 L 8.949219 -8.910156 C 8.34375 -8.332031 7.433594 -7.445312 6.214844 -6.25 C 4.785156 -4.863281 3.667969 -3.78125 2.867188 -3.003906 C 2.722656 -2.855469 2.722656 -2.703125 2.867188 -2.550781 C 3.023438 -2.394531 3.179688 -2.390625 3.332031 -2.539062 L 9.792969 -8.835938 C 9.867188 -8.910156 9.902344 -9.011719 9.902344 -9.144531 Z M 9.902344 -9.144531 "/></g></g></g><g fill="#000000" fill-opacity="1"><g transform="translate(3.624304, 23.689189)"><g><path d="M 9.941406 -5.539062 C 9.941406 -5.269531 9.851562 -5.046875 9.671875 -4.867188 C 9.484375 -4.671875 9.253906 -4.566406 8.984375 -4.558594 C 8.714844 -4.550781 8.476562 -4.640625 8.273438 -4.828125 L 4.65625 -8.371094 C 4.453125 -8.566406 4.351562 -8.824219 4.351562 -9.144531 C 4.351562 -9.460938 4.453125 -9.71875 4.65625 -9.917969 L 8.210938 -13.398438 C 8.398438 -13.585938 8.628906 -13.675781 8.898438 -13.667969 C 9.167969 -13.667969 9.402344 -13.566406 9.597656 -13.359375 C 9.785156 -13.171875 9.875 -12.945312 9.867188 -12.675781 C 9.867188 -12.40625 9.769531 -12.179688 9.574219 -12 C 8.738281 -11.191406 8.148438 -10.605469 7.796875 -10.246094 C 7.558594 -10.011719 7.183594 -9.640625 6.667969 -9.144531 C 7.050781 -8.769531 7.390625 -8.4375 7.683594 -8.152344 C 7.988281 -7.847656 8.640625 -7.210938 9.644531 -6.238281 C 9.84375 -6.050781 9.941406 -5.820312 9.941406 -5.550781 Z M 5.738281 -9.144531 L 5.96875 -9.375 C 6.621094 -10.015625 7.078125 -10.460938 7.328125 -10.710938 C 7.671875 -11.046875 8.269531 -11.632812 9.121094 -12.464844 C 9.183594 -12.53125 9.21875 -12.605469 9.21875 -12.6875 C 9.226562 -12.769531 9.195312 -12.839844 9.132812 -12.90625 L 9.121094 -12.90625 C 9.054688 -12.980469 8.976562 -13.015625 8.886719 -13.015625 C 8.804688 -13.015625 8.734375 -12.988281 8.679688 -12.929688 L 5.109375 -9.449219 C 5.039062 -9.375 5 -9.273438 5 -9.144531 C 5 -9.011719 5.039062 -8.910156 5.109375 -8.835938 L 8.726562 -5.296875 C 8.890625 -5.148438 9.050781 -5.15625 9.207031 -5.320312 C 9.269531 -5.386719 9.300781 -5.457031 9.289062 -5.539062 C 9.289062 -5.628906 9.257812 -5.703125 9.191406 -5.761719 C 8.1875 -6.742188 7.535156 -7.382812 7.230469 -7.683594 C 6.898438 -8.011719 6.476562 -8.421875 5.96875 -8.910156 Z M 9.035156 -2.769531 C 9.035156 -2.507812 8.949219 -2.285156 8.777344 -2.097656 L 8.765625 -2.082031 C 8.566406 -1.886719 8.335938 -1.789062 8.066406 -1.789062 C 7.796875 -1.789062 7.566406 -1.882812 7.378906 -2.070312 L 0.917969 -8.371094 C 0.714844 -8.566406 0.613281 -8.824219 0.613281 -9.144531 C 0.613281 -9.460938 0.714844 -9.71875 0.917969 -9.917969 L 7.378906 -16.214844 C 7.574219 -16.414062 7.808594 -16.507812 8.078125 -16.5 C 8.347656 -16.5 8.582031 -16.394531 8.777344 -16.191406 C 8.957031 -16.003906 9.042969 -15.773438 9.035156 -15.503906 C 9.035156 -15.234375 8.941406 -15.011719 8.75 -14.832031 C 8.039062 -14.136719 7.101562 -13.222656 5.933594 -12.085938 C 4.601562 -10.785156 3.59375 -9.804688 2.917969 -9.144531 C 3.457031 -8.621094 4.285156 -7.8125 5.40625 -6.71875 C 6.933594 -5.230469 8.050781 -4.144531 8.75 -3.457031 C 8.941406 -3.269531 9.035156 -3.039062 9.035156 -2.769531 Z M 1.261719 -9.144531 C 1.261719 -9.011719 1.300781 -8.910156 1.371094 -8.835938 L 7.832031 -2.539062 C 7.988281 -2.390625 8.144531 -2.394531 8.296875 -2.550781 C 8.445312 -2.703125 8.445312 -2.855469 8.296875 -3.003906 C 7.496094 -3.78125 6.382812 -4.863281 4.953125 -6.25 C 3.734375 -7.445312 2.824219 -8.332031 2.21875 -8.910156 L 1.972656 -9.144531 L 2.21875 -9.375 C 2.96875 -10.105469 4.058594 -11.164062 5.480469 -12.550781 C 6.648438 -13.695312 7.582031 -14.605469 8.285156 -15.285156 C 8.441406 -15.441406 8.449219 -15.589844 8.308594 -15.738281 C 8.238281 -15.8125 8.15625 -15.847656 8.066406 -15.847656 C 7.976562 -15.847656 7.898438 -15.816406 7.832031 -15.75 L 1.371094 -9.449219 C 1.300781 -9.375 1.261719 -9.273438 1.261719 -9.144531 Z M 1.261719 -9.144531 "/></g></g></g><g fill="#000000" fill-opacity="1"><g transform="translate(14.789311, 23.689189)"><g><path d="M 15.640625 0 C 15.371094 0 15.140625 -0.0976562 14.953125 -0.292969 C 14.757812 -0.480469 14.660156 -0.710938 14.660156 -0.980469 L 14.660156 -10.480469 C 14.660156 -12.023438 14.113281 -13.347656 13.015625 -14.453125 C 11.914062 -15.546875 10.589844 -16.09375 9.046875 -16.09375 C 7.492188 -16.09375 6.167969 -15.546875 5.074219 -14.453125 C 3.980469 -13.347656 3.433594 -12.023438 3.433594 -10.480469 L 3.433594 -0.980469 C 3.433594 -0.710938 3.332031 -0.480469 3.136719 -0.292969 C 2.949219 -0.0976562 2.722656 0 2.453125 0 C 2.183594 0 1.949219 -0.0976562 1.753906 -0.292969 C 1.566406 -0.480469 1.472656 -0.710938 1.472656 -0.980469 L 1.472656 -10.480469 C 1.472656 -12.5625 2.210938 -14.34375 3.6875 -15.824219 C 5.167969 -17.3125 6.953125 -18.054688 9.046875 -18.054688 C 11.128906 -18.054688 12.914062 -17.3125 14.402344 -15.824219 C 15.882812 -14.34375 16.621094 -12.5625 16.621094 -10.480469 L 16.621094 -0.980469 C 16.621094 -0.710938 16.523438 -0.480469 16.328125 -0.292969 C 16.140625 -0.0976562 15.910156 0 15.640625 0 Z M 9.046875 -16.742188 C 10.769531 -16.742188 12.246094 -16.128906 13.472656 -14.90625 C 14.695312 -13.679688 15.308594 -12.203125 15.308594 -10.480469 L 15.308594 -0.980469 C 15.308594 -0.761719 15.417969 -0.648438 15.640625 -0.648438 C 15.859375 -0.648438 15.972656 -0.761719 15.972656 -0.980469 L 15.972656 -10.480469 C 15.972656 -12.382812 15.292969 -14.015625 13.9375 -15.371094 C 12.578125 -16.71875 10.949219 -17.394531 9.046875 -17.394531 C 7.132812 -17.394531 5.503906 -16.71875 4.15625 -15.371094 C 2.796875 -14.015625 2.121094 -12.382812 2.121094 -10.480469 L 2.121094 -0.980469 C 2.121094 -0.761719 2.230469 -0.648438 2.453125 -0.648438 C 2.664062 -0.648438 2.769531 -0.761719 2.769531 -0.980469 L 2.769531 -10.480469 C 2.769531 -12.203125 3.382812 -13.679688 4.609375 -14.90625 C 5.835938 -16.128906 7.3125 -16.742188 9.046875 -16.742188 Z M 13.03125 0 C 12.761719 0 12.53125 -0.0976562 12.34375 -0.292969 C 12.148438 -0.480469 12.050781 -0.710938 12.050781 -0.980469 L 12.050781 -4.78125 L 7.597656 -4.78125 C 7.328125 -4.78125 7.097656 -4.878906 6.902344 -5.074219 C 6.714844 -5.261719 6.617188 -5.492188 6.617188 -5.761719 C 6.617188 -6.03125 6.714844 -6.261719 6.902344 -6.460938 C 7.097656 -6.648438 7.328125 -6.742188 7.597656 -6.742188 L 12.050781 -6.742188 L 12.050781 -7.390625 L 7.597656 -7.390625 C 7.328125 -7.390625 7.097656 -7.488281 6.902344 -7.683594 C 6.714844 -7.875 6.617188 -8.101562 6.617188 -8.371094 C 6.617188 -8.640625 6.714844 -8.875 6.902344 -9.070312 C 7.097656 -9.257812 7.328125 -9.351562 7.597656 -9.351562 L 12.050781 -9.351562 L 12.050781 -10.480469 C 12.050781 -11.304688 11.753906 -12.011719 11.167969 -12.601562 C 10.578125 -13.1875 9.871094 -13.484375 9.046875 -13.484375 C 8.210938 -13.484375 7.5 -13.1875 6.914062 -12.601562 C 6.324219 -12.011719 6.03125 -11.304688 6.03125 -10.480469 L 6.03125 -0.980469 C 6.03125 -0.710938 5.9375 -0.480469 5.75 -0.292969 C 5.5625 -0.0976562 5.332031 0 5.0625 0 C 4.792969 0 4.558594 -0.0976562 4.363281 -0.292969 C 4.175781 -0.480469 4.082031 -0.710938 4.082031 -0.980469 L 4.082031 -10.480469 C 4.082031 -11.84375 4.566406 -13.011719 5.539062 -13.984375 C 6.503906 -14.957031 7.671875 -15.445312 9.046875 -15.445312 C 10.410156 -15.445312 11.578125 -14.957031 12.550781 -13.984375 C 13.523438 -13.011719 14.011719 -11.84375 14.011719 -10.480469 L 14.011719 -0.980469 C 14.011719 -0.710938 13.917969 -0.480469 13.726562 -0.292969 C 13.53125 -0.0976562 13.300781 0 13.03125 0 Z M 7.597656 -6.09375 C 7.378906 -6.09375 7.269531 -5.980469 7.269531 -5.761719 C 7.269531 -5.546875 7.378906 -5.441406 7.597656 -5.441406 L 12.699219 -5.441406 L 12.699219 -0.980469 C 12.699219 -0.761719 12.808594 -0.648438 13.03125 -0.648438 C 13.25 -0.648438 13.359375 -0.761719 13.359375 -0.980469 L 13.359375 -10.480469 C 13.359375 -11.664062 12.941406 -12.679688 12.097656 -13.519531 C 11.25 -14.363281 10.230469 -14.78125 9.046875 -14.78125 C 7.851562 -14.78125 6.835938 -14.363281 5.992188 -13.519531 C 5.152344 -12.679688 4.730469 -11.664062 4.730469 -10.480469 L 4.730469 -0.980469 C 4.730469 -0.761719 4.839844 -0.648438 5.0625 -0.648438 C 5.273438 -0.648438 5.382812 -0.761719 5.382812 -0.980469 L 5.382812 -10.480469 C 5.382812 -11.484375 5.742188 -12.347656 6.460938 -13.066406 C 7.171875 -13.777344 8.03125 -14.132812 9.046875 -14.132812 C 10.050781 -14.132812 10.914062 -13.777344 11.632812 -13.066406 C 12.34375 -12.347656 12.699219 -11.484375 12.699219 -10.480469 L 12.699219 -8.703125 L 7.597656 -8.703125 C 7.378906 -8.703125 7.269531 -8.59375 7.269531 -8.371094 C 7.269531 -8.160156 7.378906 -8.054688 7.597656 -8.054688 L 12.699219 -8.054688 L 12.699219 -6.09375 Z M 7.597656 -6.09375 "/></g></g></g><g fill="#000000" fill-opacity="1"><g transform="translate(32.891086, 23.689189)"><g><path d="M 5.636719 -5 C 5.484375 -5.179688 5.320312 -5.195312 5.148438 -5.050781 C 5.007812 -4.910156 4.996094 -4.769531 5.109375 -4.621094 C 5.421875 -4.195312 5.808594 -3.859375 6.277344 -3.617188 C 6.742188 -3.378906 7.234375 -3.261719 7.757812 -3.261719 C 8.664062 -3.261719 9.4375 -3.578125 10.074219 -4.214844 C 10.722656 -4.863281 11.042969 -5.632812 11.042969 -6.53125 L 11.042969 -17.085938 C 11.042969 -17.175781 11.011719 -17.25 10.945312 -17.308594 C 10.878906 -17.371094 10.796875 -17.40625 10.699219 -17.40625 C 10.617188 -17.40625 10.546875 -17.371094 10.480469 -17.308594 C 10.414062 -17.242188 10.382812 -17.167969 10.382812 -17.085938 L 10.382812 -6.53125 C 10.382812 -5.8125 10.128906 -5.195312 9.621094 -4.683594 C 9.105469 -4.167969 8.484375 -3.910156 7.757812 -3.910156 C 7.34375 -3.910156 6.945312 -4.007812 6.570312 -4.203125 C 6.195312 -4.390625 5.882812 -4.65625 5.636719 -5 Z M 3.039062 -4.277344 C 2.925781 -4.480469 2.769531 -4.527344 2.574219 -4.414062 C 2.394531 -4.316406 2.351562 -4.175781 2.453125 -3.996094 C 2.941406 -2.972656 3.667969 -2.160156 4.632812 -1.558594 C 5.589844 -0.953125 6.632812 -0.648438 7.757812 -0.648438 C 9.386719 -0.648438 10.773438 -1.226562 11.925781 -2.378906 C 13.078125 -3.523438 13.65625 -4.90625 13.65625 -6.53125 L 13.65625 -17.085938 C 13.65625 -17.175781 13.621094 -17.25 13.554688 -17.308594 C 13.492188 -17.371094 13.414062 -17.40625 13.324219 -17.40625 C 13.234375 -17.40625 13.15625 -17.371094 13.089844 -17.308594 C 13.027344 -17.242188 12.992188 -17.167969 12.992188 -17.085938 L 12.992188 -6.53125 C 12.992188 -5.085938 12.480469 -3.851562 11.460938 -2.832031 C 10.4375 -1.808594 9.207031 -1.300781 7.757812 -1.300781 C 6.753906 -1.300781 5.828125 -1.570312 4.976562 -2.109375 C 4.125 -2.648438 3.480469 -3.371094 3.039062 -4.277344 Z M 2.132812 -4.890625 C 2.238281 -4.980469 2.367188 -5.046875 2.511719 -5.085938 C 2.742188 -5.144531 2.957031 -5.125 3.164062 -5.027344 C 3.375 -4.925781 3.53125 -4.773438 3.628906 -4.558594 C 4.011719 -3.765625 4.582031 -3.132812 5.332031 -2.660156 C 6.066406 -2.195312 6.875 -1.960938 7.757812 -1.960938 C 9.027344 -1.960938 10.109375 -2.40625 11.007812 -3.296875 C 11.898438 -4.1875 12.34375 -5.265625 12.34375 -6.53125 L 12.34375 -17.085938 C 12.34375 -17.347656 12.4375 -17.578125 12.625 -17.773438 C 12.820312 -17.960938 13.054688 -18.054688 13.324219 -18.054688 C 13.59375 -18.054688 13.820312 -17.960938 14.011719 -17.773438 C 14.207031 -17.585938 14.304688 -17.355469 14.304688 -17.085938 L 14.304688 -6.53125 C 14.304688 -4.726562 13.667969 -3.1875 12.390625 -1.914062 C 11.109375 -0.636719 9.566406 0 7.757812 0 C 6.5 0 5.339844 -0.335938 4.277344 -1.003906 C 3.214844 -1.675781 2.410156 -2.578125 1.863281 -3.714844 C 1.796875 -3.851562 1.765625 -3.992188 1.765625 -4.128906 C 1.765625 -4.277344 1.796875 -4.417969 1.863281 -4.546875 C 1.929688 -4.6875 2.019531 -4.800781 2.132812 -4.890625 Z M 9.21875 -6.53125 C 8.761719 -6.453125 8.273438 -6.402344 7.757812 -6.386719 C 5.960938 -6.386719 4.421875 -7.023438 3.136719 -8.296875 C 1.863281 -9.574219 1.226562 -11.113281 1.226562 -12.917969 L 1.226562 -17.085938 C 1.226562 -17.347656 1.320312 -17.578125 1.507812 -17.773438 C 1.703125 -17.960938 1.933594 -18.054688 2.195312 -18.054688 C 2.472656 -18.054688 2.703125 -17.960938 2.894531 -17.773438 C 3.089844 -17.585938 3.1875 -17.355469 3.1875 -17.085938 L 3.1875 -12.917969 C 3.1875 -11.660156 3.632812 -10.582031 4.523438 -9.683594 C 5.421875 -8.792969 6.5 -8.347656 7.757812 -8.347656 C 8.339844 -8.363281 8.824219 -8.433594 9.21875 -8.554688 Z M 8.582031 -7.097656 L 8.582031 -7.769531 C 8.261719 -7.722656 7.988281 -7.699219 7.757812 -7.699219 C 6.320312 -7.699219 5.089844 -8.207031 4.070312 -9.230469 C 3.046875 -10.25 2.539062 -11.480469 2.539062 -12.917969 L 2.539062 -17.085938 C 2.539062 -17.175781 2.503906 -17.25 2.4375 -17.308594 C 2.375 -17.371094 2.292969 -17.40625 2.195312 -17.40625 C 2.113281 -17.40625 2.039062 -17.371094 1.972656 -17.308594 C 1.90625 -17.242188 1.875 -17.167969 1.875 -17.085938 L 1.875 -12.917969 C 1.875 -11.292969 2.453125 -9.90625 3.605469 -8.765625 C 4.753906 -7.613281 6.140625 -7.035156 7.757812 -7.035156 C 8.101562 -7.035156 8.375 -7.054688 8.582031 -7.097656 Z M 9.230469 -9.253906 C 8.960938 -9.105469 8.46875 -9.019531 7.757812 -8.996094 C 6.679688 -8.996094 5.757812 -9.382812 4.988281 -10.148438 C 4.21875 -10.917969 3.835938 -11.839844 3.835938 -12.917969 L 3.835938 -17.085938 C 3.835938 -17.347656 3.929688 -17.578125 4.117188 -17.773438 C 4.316406 -17.960938 4.542969 -18.054688 4.804688 -18.054688 C 5.082031 -18.054688 5.316406 -17.960938 5.503906 -17.773438 C 5.699219 -17.585938 5.796875 -17.355469 5.796875 -17.085938 L 5.796875 -12.917969 C 5.796875 -12.378906 5.988281 -11.917969 6.375 -11.535156 C 6.757812 -11.148438 7.21875 -10.957031 7.757812 -10.957031 C 8.304688 -10.984375 8.796875 -11.125 9.230469 -11.386719 Z M 7.757812 -9.644531 C 8.144531 -9.664062 8.425781 -9.703125 8.605469 -9.769531 L 8.605469 -10.417969 C 8.300781 -10.335938 8.019531 -10.296875 7.757812 -10.296875 C 7.039062 -10.296875 6.421875 -10.554688 5.90625 -11.066406 C 5.402344 -11.582031 5.148438 -12.199219 5.148438 -12.917969 L 5.148438 -17.085938 C 5.148438 -17.175781 5.117188 -17.25 5.050781 -17.308594 C 4.984375 -17.371094 4.902344 -17.40625 4.804688 -17.40625 C 4.722656 -17.40625 4.648438 -17.371094 4.585938 -17.308594 C 4.519531 -17.242188 4.484375 -17.167969 4.484375 -17.085938 L 4.484375 -12.917969 C 4.484375 -12.019531 4.808594 -11.25 5.453125 -10.601562 C 6.09375 -9.964844 6.859375 -9.644531 7.757812 -9.644531 Z M 4.71875 -5.539062 C 4.832031 -5.636719 4.972656 -5.707031 5.136719 -5.75 C 5.332031 -5.796875 5.523438 -5.789062 5.710938 -5.722656 C 5.898438 -5.660156 6.050781 -5.542969 6.164062 -5.382812 C 6.351562 -5.128906 6.589844 -4.925781 6.875 -4.78125 C 7.152344 -4.640625 7.449219 -4.570312 7.757812 -4.570312 C 8.304688 -4.570312 8.773438 -4.765625 9.15625 -5.148438 C 9.539062 -5.53125 9.730469 -5.992188 9.730469 -6.53125 L 9.730469 -17.085938 C 9.730469 -17.347656 9.828125 -17.578125 10.015625 -17.773438 C 10.210938 -17.960938 10.4375 -18.054688 10.699219 -18.054688 C 10.976562 -18.054688 11.210938 -17.960938 11.398438 -17.773438 C 11.59375 -17.585938 11.695312 -17.355469 11.695312 -17.085938 L 11.695312 -6.53125 C 11.695312 -5.453125 11.308594 -4.53125 10.542969 -3.761719 C 9.773438 -2.996094 8.84375 -2.609375 7.757812 -2.609375 C 7.128906 -2.609375 6.539062 -2.753906 5.980469 -3.039062 C 5.417969 -3.324219 4.953125 -3.726562 4.585938 -4.242188 C 4.484375 -4.371094 4.425781 -4.515625 4.398438 -4.671875 C 4.382812 -4.824219 4.398438 -4.980469 4.449219 -5.136719 C 4.507812 -5.300781 4.597656 -5.433594 4.71875 -5.539062 Z M 4.71875 -5.539062 "/></g></g></g><g fill="#000000" fill-opacity="1"><g transform="translate(48.664264, 23.689189)"><g><path d="M 9.046875 0 C 6.953125 0 5.167969 -0.738281 3.6875 -2.21875 C 2.210938 -3.707031 1.472656 -5.492188 1.472656 -7.574219 L 1.472656 -17.074219 C 1.472656 -17.34375 1.566406 -17.574219 1.753906 -17.761719 C 1.949219 -17.957031 2.183594 -18.054688 2.453125 -18.054688 C 2.722656 -18.054688 2.949219 -17.957031 3.136719 -17.761719 C 3.332031 -17.574219 3.433594 -17.34375 3.433594 -17.074219 L 3.433594 -7.574219 C 3.433594 -6.03125 3.980469 -4.707031 5.074219 -3.605469 C 6.167969 -2.507812 7.492188 -1.960938 9.046875 -1.960938 C 10.589844 -1.960938 11.914062 -2.507812 13.015625 -3.605469 C 14.113281 -4.707031 14.660156 -6.03125 14.660156 -7.574219 L 14.660156 -17.074219 C 14.660156 -17.34375 14.757812 -17.574219 14.953125 -17.761719 C 15.140625 -17.957031 15.371094 -18.054688 15.640625 -18.054688 C 15.910156 -18.054688 16.140625 -17.957031 16.328125 -17.761719 C 16.523438 -17.574219 16.621094 -17.34375 16.621094 -17.074219 L 16.621094 -7.574219 C 16.621094 -5.492188 15.882812 -3.707031 14.402344 -2.21875 C 12.914062 -0.738281 11.128906 0 9.046875 0 Z M 2.453125 -17.394531 C 2.230469 -17.394531 2.121094 -17.285156 2.121094 -17.074219 L 2.121094 -7.574219 C 2.121094 -5.671875 2.796875 -4.039062 4.15625 -2.683594 C 5.503906 -1.328125 7.132812 -0.648438 9.046875 -0.648438 C 10.949219 -0.648438 12.578125 -1.328125 13.9375 -2.683594 C 15.292969 -4.039062 15.972656 -5.671875 15.972656 -7.574219 L 15.972656 -17.074219 C 15.972656 -17.285156 15.859375 -17.394531 15.640625 -17.394531 C 15.417969 -17.394531 15.308594 -17.285156 15.308594 -17.074219 L 15.308594 -7.574219 C 15.308594 -5.851562 14.695312 -4.375 13.472656 -3.148438 C 12.246094 -1.925781 10.769531 -1.3125 9.046875 -1.3125 C 7.3125 -1.3125 5.835938 -1.925781 4.609375 -3.148438 C 3.382812 -4.375 2.769531 -5.851562 2.769531 -7.574219 L 2.769531 -17.074219 C 2.769531 -17.285156 2.664062 -17.394531 2.453125 -17.394531 Z M 9.046875 -2.609375 C 7.671875 -2.609375 6.503906 -3.097656 5.539062 -4.070312 C 4.566406 -5.042969 4.082031 -6.210938 4.082031 -7.574219 L 4.082031 -17.074219 C 4.082031 -17.34375 4.175781 -17.574219 4.363281 -17.761719 C 4.558594 -17.957031 4.792969 -18.054688 5.0625 -18.054688 C 5.332031 -18.054688 5.5625 -17.957031 5.75 -17.761719 C 5.945312 -17.574219 6.042969 -17.34375 6.042969 -17.074219 L 6.042969 -7.574219 C 6.042969 -6.75 6.332031 -6.042969 6.914062 -5.453125 C 7.5 -4.867188 8.210938 -4.570312 9.046875 -4.570312 C 9.871094 -4.570312 10.578125 -4.867188 11.167969 -5.453125 C 11.753906 -6.042969 12.050781 -6.75 12.050781 -7.574219 L 12.050781 -17.074219 C 12.050781 -17.34375 12.148438 -17.574219 12.34375 -17.761719 C 12.53125 -17.957031 12.761719 -18.054688 13.03125 -18.054688 C 13.300781 -18.054688 13.53125 -17.957031 13.726562 -17.761719 C 13.917969 -17.574219 14.011719 -17.34375 14.011719 -17.074219 L 14.011719 -7.574219 C 14.011719 -6.210938 13.523438 -5.042969 12.550781 -4.070312 C 11.578125 -3.097656 10.410156 -2.609375 9.046875 -2.609375 Z M 5.0625 -17.394531 C 4.839844 -17.394531 4.730469 -17.285156 4.730469 -17.074219 L 4.730469 -7.574219 C 4.730469 -6.390625 5.152344 -5.371094 5.992188 -4.523438 C 6.835938 -3.679688 7.851562 -3.261719 9.046875 -3.261719 C 10.230469 -3.261719 11.25 -3.679688 12.097656 -4.523438 C 12.941406 -5.371094 13.359375 -6.390625 13.359375 -7.574219 L 13.359375 -17.074219 C 13.359375 -17.285156 13.25 -17.394531 13.03125 -17.394531 C 12.808594 -17.394531 12.699219 -17.285156 12.699219 -17.074219 L 12.699219 -7.574219 C 12.699219 -6.570312 12.34375 -5.707031 11.632812 -4.988281 C 10.914062 -4.277344 10.050781 -3.921875 9.046875 -3.921875 C 8.03125 -3.921875 7.171875 -4.277344 6.460938 -4.988281 C 5.742188 -5.707031 5.382812 -6.570312 5.382812 -7.574219 L 5.382812 -17.074219 C 5.382812 -17.285156 5.273438 -17.394531 5.0625 -17.394531 Z M 5.0625 -17.394531 "/></g></g></g></svg>