<svg height="511pt" viewBox="-27 0 511 511.74268" width="511pt" xmlns="http://www.w3.org/2000/svg"><path d="m425.136719 423.140625c3.867187-1.117187 8 .527344 10.042969 3.992187 2.046874 3.46875 1.480468 7.878907-1.367188 10.722657-16.671875 17.121093-35.75 31.71875-56.628906 43.34375-32.5625 17.550781-68.550782 27.832031-105.472656 30.128906-68.226563 3.859375-135.234376-19.242187-186.589844-64.328125-106.023438-93.675781-113.351563-261.554688-17.570313-365.0625 48.660157-52.042969 116.644531-81.691406 187.894531-81.9375 4.007813.0585938 7.480469 2.804688 8.457032 6.691406.980468 3.890625-.777344 7.949219-4.28125 9.898438-73.59375 38.722656-119.46875 115.230468-118.957032 198.382812 1.851563 97.480469 66.957032 182.402344 160.613282 209.5 40.5625 11.429688 83.554687 10.96875 123.859375-1.332031zm0 0" fill="#f0c419"/><g fill="#f3d55b"><path d="m392.300781 132.191406c0-34.125-23.714843-61.792968-52.964843-61.792968-29.253907 0-52.96875 27.667968-52.96875 61.792968 0 34.128906 23.714843 61.792969 52.96875 61.792969 29.25 0 52.964843-27.664063 52.964843-61.792969zm0 0"/><path d="m457.875 233.710938c0-26.816407-18.628906-48.554688-41.613281-48.554688s-41.617188 21.738281-41.617188 48.554688c0 26.8125 18.632813 48.550781 41.617188 48.550781s41.613281-21.738281 41.613281-48.550781zm0 0"/><path d="m430.699219 423.324219c-77.230469 56.507812-181.417969 59.160156-261.425781 6.660156-80.007813-52.5-119.042969-149.136719-97.945313-242.476563 21.097656-93.339843 97.898437-163.796874 192.707031-176.78125-.457031 2.535157-2.097656 4.699219-4.414062 5.824219-73.59375 38.753907-119.476563 115.273438-118.996094 198.445313 1.882812 97.480468 67 182.386718 160.664062 209.476562 40.554688 11.445313 83.546876 10.984375 123.847657-1.324218 1.816406-.613282 3.792969-.550782 5.5625.175781zm0 0"/></g></svg>