<svg height="512pt" viewBox="-32 0 511 512" width="512pt" xmlns="http://www.w3.org/2000/svg"><path d="m394.3125 256c0 94.257812-76.410156 170.667969-170.667969 170.667969-94.253906 0-170.664062-76.410157-170.664062-170.667969s76.410156-170.667969 170.664062-170.667969c94.257813 0 170.667969 76.410157 170.667969 170.667969zm0 0" fill="#ffd54f"/><g fill="#ffc107"><path d="m223.644531 69.332031c-8.832031 0-16-7.167969-16-16v-37.332031c0-8.832031 7.167969-16 16-16s16 7.167969 16 16v37.332031c0 8.832031-7.167969 16-16 16zm0 0"/><path d="m48.113281 170.667969c-2.410156 0-4.882812-.535157-7.1875-1.730469l-31.617187-16c-7.894532-3.988281-11.050782-13.609375-7.0625-21.503906 4.011718-7.847656 13.65625-11.09375 21.507812-7.039063l31.613282 16c7.894531 3.988281 11.050781 13.609375 7.0625 21.503907-2.835938 5.566406-8.46875 8.769531-14.316407 8.769531zm0 0"/><path d="m16.519531 389.332031c-5.84375 0-11.476562-3.199219-14.292969-8.765625-3.988281-7.894531-.832031-17.515625 7.0625-21.503906l31.613282-16c7.894531-4.054688 17.515625-.832031 21.503906 7.039062 3.992188 7.894532.832031 17.515626-7.058594 21.503907l-31.617187 16c-2.304688 1.195312-4.777344 1.726562-7.210938 1.726562zm0 0"/><path d="m223.644531 512c-8.832031 0-16-7.167969-16-16v-37.332031c0-8.832031 7.167969-16 16-16s16 7.167969 16 16v37.332031c0 8.832031-7.167969 16-16 16zm0 0"/><path d="m430.769531 389.332031c-2.429687 0-4.882812-.53125-7.210937-1.726562l-31.613282-16c-7.894531-3.988281-11.050781-13.609375-7.0625-21.503907 4.011719-7.871093 13.632813-11.09375 21.503907-7.039062l31.617187 16c7.890625 3.988281 11.050782 13.609375 7.058594 21.503906-2.816406 5.566406-8.445312 8.765625-14.292969 8.765625zm0 0"/><path d="m399.175781 170.667969c-5.84375 0-11.476562-3.203125-14.292969-8.769531-3.988281-7.894532-.832031-17.515626 7.0625-21.503907l31.613282-16c7.894531-4.054687 17.515625-.832031 21.503906 7.039063 3.992188 7.894531.832031 17.515625-7.058594 21.503906l-31.617187 16c-2.324219 1.195312-4.800781 1.730469-7.210938 1.730469zm0 0"/></g></svg>