<svg xmlns="http://www.w3.org/2000/svg" enable-background="new 0 0 512 512" viewBox="0 0 512 512" id="biofuel"><path fill="#81CC50" d="M311.915,71.76l71.68,72.32l19.04,19.2c3.2,3.04,5.04,7.2,5.04,11.68V472c0,17.68-14.32,32-32,32h-336
	c-17.68,0-32-14.32-32-32V80c0-17.68,14.32-32,32-32h235.36c8.08,0,15.92,3.12,21.84,8.64L311.915,71.76z"></path><path fill="#B3E096" d="M270.315,97.36c5.76,5.84,9.36,13.84,9.36,22.64c0,17.68-14.32,32-32,32h-160c-17.68,0-32-14.32-32-32
	s14.32-32,32-32h160C256.475,88,264.475,91.6,270.315,97.36z"></path><path fill="#81CC50" d="M279.675,120c0,17.68-14.32,32-32,32h-160c-8.4,0-16-3.28-21.76-8.56c1.84,0.4,3.76,0.56,5.76,0.56h160
	c17.68,0,32-14.32,32-32c0-8.8-3.6-16.8-9.36-22.64c-0.24-0.24-0.56-0.56-0.88-0.8c6.56,1.2,12.32,4.32,16.88,8.8
	C276.075,103.2,279.675,111.2,279.675,120z"></path><rect width="32" height="56" x="471.675" y="24" fill="#B3E096"></rect><rect width="32" height="28" x="471.675" y="52" fill="#81CC50"></rect><path fill="#B3E096" d="M439.675,24v56h-16l-28,28l-44-44l30.64-30.64c6-6,14.16-9.36,22.64-9.36H439.675z"></path><path fill="#81CC50" d="M439.675,51.92V80h-16l-28,28l-44-44l14.08-14l18.606,18.606c6.248,6.248,16.379,6.248,22.627,0
	l16.686-16.686H439.675z"></path><rect width="32" height="56" x="439.675" y="24" fill="#B3E096"></rect><rect width="32" height="28" x="439.675" y="52" fill="#81CC50"></rect><path fill="#81CC50" d="M395.675,108l0.72,0.72c6.24,6.24,6.24,16.32,0,22.56l-12.8,12.8l-71.68-72.32l12.48-12.48
	c6.24-6.24,16.32-6.24,22.56,0l4.72,4.72L395.675,108z"></path><path fill="#B3E096" d="M351.675,232v184c0,17.68-14.32,32-32,32h-224c-17.68,0-32-14.32-32-32V232c0-17.68,14.32-32,32-32h224
	C337.355,200,351.675,214.32,351.675,232z"></path><path fill="#81CC50" d="M319.675,200h-18.85c14.104,72.305,1.774,149.614-37.15,208c-12.213,16.284-27.471,29.505-44.81,40h100.81
	c17.68,0,32-14.32,32-32V232C351.675,214.32,337.355,200,319.675,200z"></path><path fill="#61993C" d="M402.635,163.28l-19.04-19.2l-71.68-72.32l-15.04-15.12c-5.92-5.52-13.76-8.64-21.84-8.64h-59.337
	c14.082,12.132,26.494,25.78,37.3,40.54c6.67,1.133,12.686,4.252,17.317,8.82c5.76,5.84,9.36,13.84,9.36,22.64
	c0,3.584-0.723,6.97-1.809,10.187c10.613,22.123,18.252,45.682,22.959,69.813h18.85c17.68,0,32,14.32,32,32v184
	c0,17.68-14.32,32-32,32h-100.81c-57.422,34.756-138.172,38.85-211.19,19.339V472c0,17.68,14.32,32,32,32h336
	c17.68,0,32-14.32,32-32V174.96C407.675,170.48,405.835,166.32,402.635,163.28z"></path><path fill="#61993C" d="M222.555,296.4c-11.36-10.96-27.36-19.36-49.68-22.8c17.2-22.88,49.04-39.12,107.12-31.84
	c7.28,58.24-9.04,90.08-32,107.2C245.115,330.96,238.075,311.36,222.555,296.4z"></path><path fill="#81CC50" d="M247.995,348.96c4.24,26.16-0.32,48.88-0.32,48.88s-143.28,28.64-124.16-124.08
	c19.2-2.4,35.44-2.24,49.36-0.16c22.32,3.44,38.32,11.84,49.68,22.8C238.075,311.36,245.115,330.96,247.995,348.96z"></path><path fill="#18260F" d="M503.675,16h-98.746c-10.68,0-20.727,4.164-28.281,11.719l-25.075,25.072
	c-9.196-8.097-24.134-7.867-32.867,0.866l-6.786,6.786l-9.542-9.622C294.941,43.844,285.222,40,275.019,40H39.675
	c-22.055,0-40,17.945-40,40v392c0,22.055,17.945,40,40,40h336c22.055,0,40-17.945,40-40V174.93c0-6.609-2.766-12.992-7.379-17.305
	l-13.411-13.523l7.137-7.133c7.609-7.618,8.915-19.076,4.134-28.138L426.988,88h76.688c4.418,0,8-3.578,8-8V24
	C511.675,19.578,508.093,16,503.675,16z M330.023,64.969c3.016-3.031,8.285-3.031,11.309,0l49.371,49.375
	c3.117,3.117,3.117,8.195,0.004,11.312l-7.087,7.085l-60.433-60.938L330.023,64.969z M397.148,169.094
	c1.605,1.508,2.527,3.633,2.527,5.836V472c0,13.234-10.766,24-24,24h-336c-13.234,0-24-10.766-24-24V80c0-13.234,10.766-24,24-24
	h235.344c6.121,0,11.953,2.305,16.207,6.289L397.148,169.094z M431.675,72h-8c-2.121,0-4.156,0.844-5.656,2.344l-22.343,22.343
	L362.99,63.999l24.971-24.968C392.429,34.562,398.613,32,404.929,32h26.746V72z M463.675,72h-16V32h16V72z M495.675,72h-16V32h16V72
	z"></path><path fill="#18260F" d="M87.675 160h160c22.055 0 40-17.945 40-40s-17.945-40-40-40h-160c-22.055 0-40 17.945-40 40S65.621 160 87.675 160zM87.675 96h160c13.234 0 24 10.766 24 24s-10.766 24-24 24h-160c-13.234 0-24-10.766-24-24S74.441 96 87.675 96zM55.675 232v184c0 22.055 17.945 40 40 40h224c22.055 0 40-17.945 40-40V232c0-22.055-17.945-40-40-40h-224C73.621 192 55.675 209.945 55.675 232zM343.675 232v184c0 13.234-10.766 24-24 24h-224c-13.234 0-24-10.766-24-24V232c0-13.234 10.766-24 24-24h224C332.91 208 343.675 218.766 343.675 232z"></path><path fill="#18260F" d="M143.746 381.594c23.543 21.883 55.453 26.453 78.004 26.453 15.355 0 26.375-2.117 27.457-2.336 3.164-.633 5.641-3.109 6.273-6.273.303-1.511 4.299-22.383 1.078-47.387 27.093-22.774 37.778-60.065 31.375-111.285-.453-3.633-3.312-6.492-6.941-6.945-51.227-6.422-88.519 4.269-111.35 31.405-14.153-1.699-29.813-1.581-47.115.587-3.633.453-6.492 3.312-6.945 6.945C109.441 321.898 118.914 358.516 143.746 381.594zM272.757 248.992c3.709 37.701-3.051 66.023-19.939 84.657-3.697-13.23-9.953-26.546-20.125-38.057 11.34-16.122 26.541-24.428 26.693-24.506 3.914-2.047 5.426-6.883 3.375-10.797-2.047-3.906-6.879-5.438-10.797-3.375-.806.42-17.688 9.422-31.131 27.631-9.272-7.094-20.143-12.353-32.57-15.764C206.936 252.002 235.191 245.294 272.757 248.992zM130.757 280.992c40.504-4.008 70.379 4.016 88.828 23.82 21.538 23.115 23.018 57.538 21.834 76.898-36.627-71.485-61.524-86.132-82.002-94.062-4.109-1.586-8.754.445-10.348 4.57s.453 8.758 4.574 10.352c12.997 5.034 37.143 14.441 74.983 89.231-19.76.844-52.043-1.478-74.045-21.981C134.781 351.375 126.777 321.508 130.757 280.992zM295.675 424h8c13.234 0 24-10.766 24-24v-16c0-4.422-3.582-8-8-8s-8 3.578-8 8v16c0 4.414-3.59 8-8 8h-8c-4.418 0-8 3.578-8 8S291.257 424 295.675 424zM319.675 360c4.418 0 8-3.578 8-8v-24c0-4.422-3.582-8-8-8s-8 3.578-8 8v24C311.675 356.422 315.257 360 319.675 360z"></path></svg>