<svg xmlns="http://www.w3.org/2000/svg" width="96" height="96" fill="none" viewBox="0 0 96 96" id="crypto-wallet-percent"><path fill="#021024" fill-opacity=".1" d="M10 34C10 30.6863 12.6863 28 16 28H80C83.3137 28 86 30.6863 86 34V76C86 79.3137 83.3137 82 80 82H18C13.5817 82 10 78.4183 10 74V34Z"></path><path fill="#6156E0" fill-rule="evenodd" d="M18 22C13.5817 22 10 25.5817 10 30V34V36V70C10 74.4183 13.5817 78 18 78H78C80.2091 78 82 76.2091 82 74V34C82 31.7909 80.2091 30 78 30V26C78 23.7909 76.2091 22 74 22H18Z" clip-rule="evenodd"></path><path fill="#22179B" fill-rule="evenodd" d="M8 30C8 24.4772 12.4772 20 18 20H74C77.3137 20 80 22.6863 80 26V28.3414C82.3304 29.1651 84 31.3876 84 34V74C84 77.3137 81.3137 80 78 80H18C12.4772 80 8 75.5228 8 70V30ZM78 30C80.2091 30 82 31.7909 82 34V74C82 76.2091 80.2091 78 78 78H18C13.5817 78 10 74.4183 10 70V30C10 25.5817 13.5817 22 18 22H74C76.2091 22 78 23.7909 78 26V30Z" clip-rule="evenodd"></path><path fill="#B982FF" fill-rule="evenodd" d="M12 32C12.5523 32 13 32.4477 13 33V71C13 71.5523 12.5523 72 12 72C11.4477 72 11 71.5523 11 71V33C11 32.4477 11.4477 32 12 32Z" clip-rule="evenodd"></path><path fill="#829DFF" fill-rule="evenodd" d="M12 32C12.5523 32 13 32.4477 13 33V48C13 48.5523 12.5523 49 12 49C11.4477 49 11 48.5523 11 48V33C11 32.4477 11.4477 32 12 32Z" clip-rule="evenodd"></path><path fill="#52D5FF" fill-rule="evenodd" d="M17 38C17 37.4477 17.4477 37 18 37H36C36.5523 37 37 37.4477 37 38 37 38.5523 36.5523 39 36 39H18C17.4477 39 17 38.5523 17 38zM17 46C17 45.4477 17.4477 45 18 45H28C28.5523 45 29 45.4477 29 46 29 46.5523 28.5523 47 28 47H18C17.4477 47 17 46.5523 17 46zM17 70C17 69.4477 17.4477 69 18 69H28C28.5523 69 29 69.4477 29 70 29 70.5523 28.5523 71 28 71H18C17.4477 71 17 70.5523 17 70zM39 54C39 53.4477 39.4477 53 40 53H46C46.1974 53 46.3904 53.0584 46.5547 53.1679L52.5547 57.1679C53.0142 57.4743 53.1384 58.0952 52.8321 58.5547 52.5257 59.0142 51.9048 59.1384 51.4453 58.8321L45.6972 55H40C39.4477 55 39 54.5523 39 54zM17 62C17 61.4477 17.4477 61 18 61H36C36.2084 61 36.4116 61.0651 36.5812 61.1863L43.5812 66.1863C44.0307 66.5073 44.1347 67.1318 43.8137 67.5812 43.4927 68.0307 42.8682 68.1347 42.4188 67.8137L35.6795 63H18C17.4477 63 17 62.5523 17 62zM43.4453 45.1679C43.6096 45.0584 43.8026 45 44 45H55C55.5523 45 56 45.4477 56 46 56 46.5523 55.5523 47 55 47H44.3028L32.5547 54.8321C32.3904 54.9416 32.1974 55 32 55H18C17.4477 55 17 54.5523 17 54 17 53.4477 17.4477 53 18 53H31.6972L43.4453 45.1679z" clip-rule="evenodd"></path><path fill="#52D5FF" fill-rule="evenodd" d="M57 49C58.6569 49 60 47.6569 60 46 60 44.3431 58.6569 43 57 43 55.3431 43 54 44.3431 54 46 54 47.6569 55.3431 49 57 49zM57 47C57.5523 47 58 46.5523 58 46 58 45.4477 57.5523 45 57 45 56.4477 45 56 45.4477 56 46 56 46.5523 56.4477 47 57 47zM54 62C55.6569 62 57 60.6569 57 59 57 57.3431 55.6569 56 54 56 52.3431 56 51 57.3431 51 59 51 60.6569 52.3431 62 54 62zM54 60C54.5523 60 55 59.5523 55 59 55 58.4477 54.5523 58 54 58 53.4477 58 53 58.4477 53 59 53 59.5523 53.4477 60 54 60zM45 71C46.6569 71 48 69.6569 48 68 48 66.3431 46.6569 65 45 65 43.3431 65 42 66.3431 42 68 42 69.6569 43.3431 71 45 71zM45 69C45.5523 69 46 68.5523 46 68 46 67.4477 45.5523 67 45 67 44.4477 67 44 67.4477 44 68 44 68.5523 44.4477 69 45 69zM30 49C31.6569 49 33 47.6569 33 46 33 44.3431 31.6569 43 30 43 28.3431 43 27 44.3431 27 46 27 47.6569 28.3431 49 30 49zM30 47C30.5523 47 31 46.5523 31 46 31 45.4477 30.5523 45 30 45 29.4477 45 29 45.4477 29 46 29 46.5523 29.4477 47 30 47zM30 73C31.6569 73 33 71.6569 33 70 33 68.3431 31.6569 67 30 67 28.3431 67 27 68.3431 27 70 27 71.6569 28.3431 73 30 73zM30 71C30.5523 71 31 70.5523 31 70 31 69.4477 30.5523 69 30 69 29.4477 69 29 69.4477 29 70 29 70.5523 29.4477 71 30 71zM38 41C39.6569 41 41 39.6569 41 38 41 36.3431 39.6569 35 38 35 36.3431 35 35 36.3431 35 38 35 39.6569 36.3431 41 38 41zM38 39C38.5523 39 39 38.5523 39 38 39 37.4477 38.5523 37 38 37 37.4477 37 37 37.4477 37 38 37 38.5523 37.4477 39 38 39z" clip-rule="evenodd"></path><path fill="#4B41BE" d="M74 22H17C15.3431 22 14 23.3432 14 25C14 26.6569 15.3432 28 17 28H78V26C78 23.7909 76.2092 22 74 22Z"></path><path fill="#382EA7" d="M78 30V26H16C14.8954 26 14 26.8954 14 28C14 29.1046 14.8954 30 16 30H78Z"></path><path fill="#22179B" fill-rule="evenodd" d="M17 22C15.3431 22 14 23.3431 14 25C14 26.6569 15.3431 28 17 28H79C79.5523 28 80 28.4477 80 29C80 29.5523 79.5523 30 79 30H17C14.2386 30 12 27.7614 12 25C12 22.2386 14.2386 20 17 20H34C34.5523 20 35 20.4477 35 21C35 21.5523 34.5523 22 34 22H17Z" clip-rule="evenodd"></path><path fill="#4438CE" d="M64 68C64 68.5523 63.5523 69 63 69 62.4477 69 62 68.5523 62 68 62 67.4477 62.4477 67 63 67 63.5523 67 64 67.4477 64 68zM68 67C68 67.5523 67.5523 68 67 68 66.4477 68 66 67.5523 66 67 66 66.4477 66.4477 66 67 66 67.5523 66 68 66.4477 68 67zM69 70.5C69 71.3284 68.3284 72 67.5 72 66.6716 72 66 71.3284 66 70.5 66 69.6716 66.6716 69 67.5 69 68.3284 69 69 69.6716 69 70.5zM79 72.5C79 73.3284 78.3284 74 77.5 74 76.6716 74 76 73.3284 76 72.5 76 71.6716 76.6716 71 77.5 71 78.3284 71 79 71.6716 79 72.5zM65 72.5C65 73.3284 64.3284 74 63.5 74 62.6716 74 62 73.3284 62 72.5 62 71.6716 62.6716 71 63.5 71 64.3284 71 65 71.6716 65 72.5zM59 71C59 71.5523 58.5523 72 58 72 57.4477 72 57 71.5523 57 71 57 70.4477 57.4477 70 58 70 58.5523 70 59 70.4477 59 71zM55 74C55 74.5523 54.5523 75 54 75 53.4477 75 53 74.5523 53 74 53 73.4477 53.4477 73 54 73 54.5523 73 55 73.4477 55 74zM79 62C79 62.5523 78.5523 63 78 63 77.4477 63 77 62.5523 77 62 77 61.4477 77.4477 61 78 61 78.5523 61 79 61.4477 79 62zM71 63C71 63.5523 70.5523 64 70 64 69.4477 64 69 63.5523 69 63 69 62.4477 69.4477 62 70 62 70.5523 62 71 62.4477 71 63zM67 75C67 75.5523 66.5523 76 66 76 65.4477 76 65 75.5523 65 75 65 74.4477 65.4477 74 66 74 66.5523 74 67 74.4477 67 75zM60 75C60 75.5523 59.5523 76 59 76 58.4477 76 58 75.5523 58 75 58 74.4477 58.4477 74 59 74 59.5523 74 60 74.4477 60 75zM72 68C72 68.5523 71.5523 69 71 69 70.4477 69 70 68.5523 70 68 70 67.4477 70.4477 67 71 67 71.5523 67 72 67.4477 72 68zM75 70C75 70.5523 74.5523 71 74 71 73.4477 71 73 70.5523 73 70 73 69.4477 73.4477 69 74 69 74.5523 69 75 69.4477 75 70zM80 67C80 67.5523 79.5523 68 79 68 78.4477 68 78 67.5523 78 67 78 66.4477 78.4477 66 79 66 79.5523 66 80 66.4477 80 67zM76 65.5C76 66.3284 75.3284 67 74.5 67 73.6716 67 73 66.3284 73 65.5 73 64.6716 73.6716 64 74.5 64 75.3284 64 76 64.6716 76 65.5zM71 73C71 73.5523 70.5523 74 70 74 69.4477 74 69 73.5523 69 73 69 72.4477 69.4477 72 70 72 70.5523 72 71 72.4477 71 73zM74 75C74 75.5523 73.5523 76 73 76 72.4477 76 72 75.5523 72 75 72 74.4477 72.4477 74 73 74 73.5523 74 74 74.4477 74 75z"></path><path fill="#8176FF" d="M62 55C62 52.2386 64.2386 50 67 50H84C85.1046 50 86 50.8954 86 52V58C86 59.1046 85.1046 60 84 60H67C64.2386 60 62 57.7614 62 55Z"></path><path fill="#22179B" fill-rule="evenodd" d="M67 48H84C86.2091 48 88 49.7909 88 52V58C88 60.2091 86.2091 62 84 62H67C63.134 62 60 58.866 60 55C60 51.134 63.134 48 67 48ZM67 50C64.2386 50 62 52.2386 62 55C62 57.7614 64.2386 60 67 60H84C85.1046 60 86 59.1046 86 58V52C86 50.8954 85.1046 50 84 50H67Z" clip-rule="evenodd"></path><path fill="#D7A5FF" fill-rule="evenodd" d="M62 55C62 52.2386 64.2386 50 67 50H83C83.5523 50 84 50.4477 84 51C84 51.5523 83.5523 52 83 52H67C65.3431 52 64 53.3431 64 55H62Z" clip-rule="evenodd"></path><path fill="#C4E2FF" fill-rule="evenodd" d="M62 55C62 52.2386 64.2386 50 67 50H68C68.5523 50 69 50.4477 69 51C69 51.5523 68.5523 52 68 52H67C65.3431 52 64 53.3431 64 55V56C64 56.5523 63.5523 57 63 57C62.4477 57 62 56.5523 62 56V55Z" clip-rule="evenodd"></path><path fill="#22179B" d="M70 55C70 56.6569 68.6569 58 67 58C65.3431 58 64 56.6569 64 55C64 53.3431 65.3431 52 67 52C68.6569 52 70 53.3431 70 55Z"></path><path fill="#6156E0" fill-rule="evenodd" d="M16 23C16 22.4477 16.4477 22 17 22H72C72.5523 22 73 22.4477 73 23C73 23.5523 72.5523 24 72 24H17C16.4477 24 16 23.5523 16 23Z" clip-rule="evenodd"></path><path fill="#D7A5FF" fill-rule="evenodd" d="M17 31C17 30.4477 17.4477 30 18 30H76C76.5523 30 77 30.4477 77 31C77 31.5523 76.5523 32 76 32H18C17.4477 32 17 31.5523 17 31Z" clip-rule="evenodd"></path><path fill="#C3E2FF" fill-rule="evenodd" d="M11.9855 27.1424C12.4591 26.8583 13.0734 27.0118 13.3575 27.4854C14.0153 28.5818 14.7461 29.1862 15.4854 29.5312C16.24 29.8834 17.0777 29.9999 18 29.9999H32C32.5523 29.9999 33 30.4476 33 30.9999C33 31.5522 32.5523 31.9999 32 31.9999H18C16.9223 31.9999 15.76 31.8664 14.6396 31.3436C13.504 30.8136 12.4847 29.918 11.6425 28.5144C11.3584 28.0408 11.512 27.4266 11.9855 27.1424Z" clip-rule="evenodd"></path><path fill="#021024" fill-opacity=".1" d="M89 29C89 38.9411 80.9411 47 71 47C61.0589 47 53 38.9411 53 29C53 19.0589 61.0589 11 71 11C80.9411 11 89 19.0589 89 29Z"></path><path fill="#FFCF23" d="M86 28C86 36.8366 78.8366 44 70 44C61.1634 44 54 36.8366 54 28C54 19.1634 61.1634 12 70 12C78.8366 12 86 19.1634 86 28Z"></path><path fill="#B96F00" fill-rule="evenodd" d="M88 28C88 37.9411 79.9411 46 70 46C60.0589 46 52 37.9411 52 28C52 18.0589 60.0589 10 70 10C79.9411 10 88 18.0589 88 28ZM70 44C78.8366 44 86 36.8366 86 28C86 19.1634 78.8366 12 70 12C61.1634 12 54 19.1634 54 28C54 36.8366 61.1634 44 70 44Z" clip-rule="evenodd"></path><path fill="#B96F00" fill-rule="evenodd" d="M64 21C62.8954 21 62 21.8954 62 23 62 24.1046 62.8954 25 64 25 65.1046 25 66 24.1046 66 23 66 21.8954 65.1046 21 64 21zM60 23C60 20.7909 61.7909 19 64 19 66.2091 19 68 20.7909 68 23 68 25.2091 66.2091 27 64 27 61.7909 27 60 25.2091 60 23zM76 31C74.8954 31 74 31.8954 74 33 74 34.1046 74.8954 35 76 35 77.1046 35 78 34.1046 78 33 78 31.8954 77.1046 31 76 31zM72 33C72 30.7909 73.7909 29 76 29 78.2091 29 80 30.7909 80 33 80 35.2091 78.2091 37 76 37 73.7909 37 72 35.2091 72 33z" clip-rule="evenodd"></path><path fill="#E7B400" fill-rule="evenodd" d="M70 42C77.732 42 84 35.732 84 28C84 27.4477 84.4477 27 85 27C85.5523 27 86 27.4477 86 28C86 36.8366 78.8366 44 70 44C69.4477 44 69 43.5523 69 43C69 42.4477 69.4477 42 70 42Z" clip-rule="evenodd"></path><path fill="#FFE792" fill-rule="evenodd" d="M70 14C62.268 14 56 20.268 56 28C56 28.5523 55.5523 29 55 29C54.4477 29 54 28.5523 54 28C54 19.1634 61.1634 12 70 12C70.5523 12 71 12.4477 71 13C71 13.5523 70.5523 14 70 14Z" clip-rule="evenodd"></path><path fill="#fff" fill-rule="evenodd" d="M61.7995 15.3994C62.1312 15.841 62.0422 16.4679 61.6006 16.7996C60.5401 17.5963 59.5962 18.54 58.7995 19.6004C58.4677 20.0419 57.8408 20.1309 57.3993 19.7991C56.9578 19.4674 56.8688 18.8405 57.2005 18.399C58.1105 17.1879 59.1882 16.1103 60.3994 15.2005C60.841 14.8688 61.4678 14.9579 61.7995 15.3994Z" clip-rule="evenodd"></path><path fill="#B96F00" fill-rule="evenodd" d="M76.7682 22.3598C77.1218 22.7841 77.0645 23.4147 76.6402 23.7682L64.6402 33.7682C64.2159 34.1218 63.5854 34.0645 63.2318 33.6402C62.8782 33.2159 62.9356 32.5854 63.3598 32.2318L75.3598 22.2318C75.7841 21.8782 76.4147 21.9356 76.7682 22.3598Z" clip-rule="evenodd"></path></svg>