<svg xmlns="http://www.w3.org/2000/svg" width="48" height="48" id="event"><g transform="translate(0 -1004.362)"><circle cx="24" cy="1028.362" r="24" fill="#ef4c45" fill-rule="evenodd"></circle><path style="line-height:normal;text-indent:0;text-align:start;text-decoration-line:none;text-decoration-style:solid;text-decoration-color:#000;text-transform:none;block-progression:tb;isolation:auto;mix-blend-mode:normal" fill="#fff" d="M15.992 1014.362a.5.5 0 0 0-.492.508v1.492h-4.506a.5.5 0 0 0-.5.5v4.5h1v-4H15.5v1.092c-.579.209-1 .761-1 1.408 0 .823.677 1.5 1.5 1.5s1.5-.677 1.5-1.5c0-.647-.421-1.2-1-1.408v-1.092h15v1.092c-.579.209-1 .761-1 1.408 0 .823.677 1.5 1.5 1.5s1.5-.677 1.5-1.5c0-.647-.421-1.2-1-1.408v-1.092h4.006v4h1v-4.5a.5.5 0 0 0-.5-.5H32.5v-1.492a.5.5 0 0 0-.508-.508.5.5 0 0 0-.492.508v1.492h-15v-1.492a.5.5 0 0 0-.508-.508zm-.047 5.01a.5.5 0 0 0 .108 0 .488.488 0 0 1 .447.49c0 .282-.218.5-.5.5a.493.493 0 0 1-.5-.5c0-.262.192-.463.445-.49zm16 0a.5.5 0 0 0 .108 0 .488.488 0 0 1 .447.49c0 .282-.218.5-.5.5a.493.493 0 0 1-.5-.5c0-.262.192-.463.445-.49zM11 1022.362a.5.5 0 0 0-.5.5v18a.5.5 0 0 0 .5.5h26a.5.5 0 0 0 .5-.5v-18a.5.5 0 0 0-.5-.5H11zm.5 1h25v17h-25v-17zm9.5 1a.5.5 0 0 0-.5.5v2a.5.5 0 0 0 .5.5h2a.5.5 0 0 0 .5-.5v-2a.5.5 0 0 0-.5-.5h-2zm4 0a.5.5 0 0 0-.5.5v2a.5.5 0 0 0 .5.5h2a.5.5 0 0 0 .5-.5v-2a.5.5 0 0 0-.5-.5h-2zm4 0a.5.5 0 0 0-.5.5v2a.5.5 0 0 0 .5.5h2a.5.5 0 0 0 .5-.5v-2a.5.5 0 0 0-.5-.5h-2zm4 0a.5.5 0 0 0-.5.5v2a.5.5 0 0 0 .5.5h2a.5.5 0 0 0 .5-.5v-2a.5.5 0 0 0-.5-.5h-2zm-14.014.684a.5.5 0 0 0-.343.148l-.975.965-.313-.309a.5.5 0 1 0-.703.711l.664.657a.5.5 0 0 0 .704 0l1.326-1.313a.5.5 0 0 0-.36-.86zm-5.486.316v1h1v-1h-1zm8 0h1v1h-1v-1zm4 0h1v1h-1v-1zm4 0h1v1h-1v-1zm4 0h1v1h-1v-1zm-20.5 3a.5.5 0 0 0-.5.5v2a.5.5 0 0 0 .5.5h2a.5.5 0 0 0 .5-.5v-2a.5.5 0 0 0-.5-.5h-2zm4 0a.5.5 0 0 0-.5.5v2a.5.5 0 0 0 .5.5h2a.5.5 0 0 0 .5-.5v-2a.5.5 0 0 0-.5-.5h-2zm4 0a.5.5 0 0 0-.5.5v2a.5.5 0 0 0 .5.5h2a.5.5 0 0 0 .5-.5v-2a.5.5 0 0 0-.5-.5h-2zm4 0a.5.5 0 0 0-.5.5v2a.5.5 0 0 0 .5.5h2a.5.5 0 0 0 .5-.5v-2a.5.5 0 0 0-.5-.5h-2zm8 0a.5.5 0 0 0-.5.5v2a.5.5 0 0 0 .5.5h2a.5.5 0 0 0 .5-.5v-2a.5.5 0 0 0-.5-.5h-2zm-2.012.684a.5.5 0 0 0-.343.148l-.977.965-.313-.309a.5.5 0 1 0-.703.711l.664.657a.5.5 0 0 0 .704 0l1.328-1.313a.5.5 0 0 0-.36-.86zm-17.488.316h1v1h-1v-1zm4 0h1v1h-1v-1zm4 0h1v1h-1v-1zm4 0h1v1h-1v-1zm8 0h1v1h-1v-1zm-20.5 3a.5.5 0 0 0-.5.5v2a.5.5 0 0 0 .5.5h2a.5.5 0 0 0 .5-.5v-2a.5.5 0 0 0-.5-.5h-2zm4 0a.5.5 0 0 0-.5.5v2a.5.5 0 0 0 .5.5h2a.5.5 0 0 0 .5-.5v-2a.5.5 0 0 0-.5-.5h-2zm8 0a.5.5 0 0 0-.5.5v2a.5.5 0 0 0 .5.5h2a.5.5 0 0 0 .5-.5v-2a.5.5 0 0 0-.5-.5h-2zm4 0a.5.5 0 0 0-.5.5v2a.5.5 0 0 0 .5.5h2a.5.5 0 0 0 .5-.5v-2a.5.5 0 0 0-.5-.5h-2zm4 0a.5.5 0 0 0-.5.5v2a.5.5 0 0 0 .5.5h2a.5.5 0 0 0 .5-.5v-2a.5.5 0 0 0-.5-.5h-2zm-10.012.682a.5.5 0 0 0-.345.148l-.975.967-.313-.309a.5.5 0 1 0-.703.711l.664.657a.5.5 0 0 0 .704 0l1.326-1.315a.5.5 0 0 0-.358-.86zm-9.488.318h1v1h-1v-1zm4 0h1v1h-1v-1zm8 0h1v1h-1v-1zm4 0h1v1h-1v-1zm4 0h1v1h-1v-1zm-20.5 3a.5.5 0 0 0-.5.5v2a.5.5 0 0 0 .5.5h2a.5.5 0 0 0 .5-.5v-2a.5.5 0 0 0-.5-.5h-2zm4 0a.5.5 0 0 0-.5.5v2a.5.5 0 0 0 .5.5h2a.5.5 0 0 0 .5-.5v-2a.5.5 0 0 0-.5-.5h-2zm-3.5 1h1v1h-1v-1zm4 0h1v1h-1v-1zm4 0v1h1v-1h-1zm4 0v1h1v-1h-1zm4 0v1h1v-1h-1zm4 0v1h1v-1h-1z" color="#000" font-family="sans-serif" font-weight="400" overflow="visible"></path></g></svg>