<svg xmlns="http://www.w3.org/2000/svg" width="131.211" height="105.479" id="google-cloud"><g data-name="google cloud"><path fill="#ea4335" d="m87.26 29.12 11.405-11.406.758-4.8c-20.781-18.9-53.818-16.755-72.557 4.471a52.674 52.674 0 0 0-11.122 20.839l4.083-.578 22.811-3.755 1.758-1.8a28.573 28.573 0 0 1 39.017-3.164Z" data-name="Path 215"></path><path fill="#4285f4" d="M114.917 37.883a51.382 51.382 0 0 0-15.489-24.974L83.419 28.918a28.452 28.452 0 0 1 10.445 22.568v2.84a14.167 14.167 0 1 1 0 28.334h-28.53l-2.8 3.042v17.091l2.8 2.684h28.531a36.956 36.956 0 0 0 21.053-67.594" data-name="Path 216"></path><path fill="#34a853" d="M36.836 105.477h28.5V82.666h-28.5a14.04 14.04 0 0 1-5.842-1.278l-4.043 1.238-11.486 11.405-1 3.881a36.987 36.987 0 0 0 22.371 7.565" data-name="Path 217"></path><path fill="#fbbc05" d="M36.837 31.484a37.062 37.062 0 0 0-22.371 66.438l16.53-16.53a14.247 14.247 0 1 1 18.849-18.849l16.53-16.53a37.023 37.023 0 0 0-29.538-14.529" data-name="Path 218"></path></g></svg>