<svg xmlns="http://www.w3.org/2000/svg" data-name="Layer 1" viewBox="0 0 512 512" id="election-box"><polygon fill="#00acea" points="344.49 53.97 341.49 44 396.13 27.57 432.18 147.48 377.54 163.91 370.41 140.2 344.49 53.97"></polygon><rect width="305.5" height="160.79" x="79.82" y="323.64" fill="#00efd1"></rect><polygon fill="#00acea" points="146.77 293.6 318.38 293.6 318.38 262.5 359.93 262.5 385.32 323.64 79.82 323.64 105.21 262.5 146.77 262.5 146.77 293.6"></polygon><path fill="#f7caa5" d="M318.38,174.13a81.321,81.321,0,0,1-20.7-.85l-5.88-.94a61.824,61.824,0,0,0-27.57,1.85l-26.99,12.25a38.629,38.629,0,0,1-33.67-5.6l-57.02,50.43-.76.68a29.185,29.185,0,0,1-40.28,1.01L202.9,100.97a46.017,46.017,0,0,1,34.91-18.65l69.91-3.21a32.746,32.746,0,0,0,22.24-10.16l14.53-14.98,25.92,86.23-.71.21C354.98,160.45,339.32,172.1,318.38,174.13Z"></path><path fill="#00efd1" d="M318.38,262.5v31.1H146.77V231.52l-.22-.25,57.02-50.43a38.629,38.629,0,0,0,33.67,5.6l26.99-12.25a61.824,61.824,0,0,1,27.57-1.85l5.88.94a81.321,81.321,0,0,0,20.7.85Z"></path><path fill="#083863" d="M72,484.43A7.491,7.491,0,0,0,79.82,492h305.5a7.375,7.375,0,0,0,7.68-7.57V324h.311a9.044,9.044,0,0,0-.6-3.248l-25.391-60.98A7.856,7.856,0,0,0,359.93,255H326V181.007c15-3.052,28.367-11.038,40.748-24.577l3.036,9.784a8.058,8.058,0,0,0,7.7,5.7,8.156,8.156,0,0,0,2.331-.341l54.652-16.43a8,8,0,0,0,5.363-9.964L403.788,25.267a8,8,0,0,0-9.963-5.358l-54.638,16.43a8,8,0,0,0-5.358,9.966l1.644,5.466L324.158,63.442a24.629,24.629,0,0,1-16.805,7.676l-69.913,3.21A53.785,53.785,0,0,0,196.463,96.22L99.072,228.21a8,8,0,0,0,1.062,10.675,37.367,37.367,0,0,0,25.1,9.667,40.348,40.348,0,0,0,13.764-2.6V255H105.21a7.78,7.78,0,0,0-7.389,4.682L72.432,320.877a8.379,8.379,0,0,0-.6,3.123H72ZM390.772,37.535l31.443,104.588-39.393,11.822L352,51.667v0l-.619-2.308ZM116.965,230.909l92.374-125.191a37.85,37.85,0,0,1,28.838-15.406l69.911-3.21A40.508,40.508,0,0,0,335.7,74.52l5.046-5.2L361.427,138.1c-13.64,17.767-27.248,26.461-43.823,28.067a72.81,72.81,0,0,1-18.662-.787l-5.881-.94a70.177,70.177,0,0,0-31.138,2.09,8.055,8.055,0,0,0-1,.375L234.45,178.921a30.753,30.753,0,0,1-34.728-13.816L250.9,146.131a8,8,0,1,0-5.562-15l-59.07,21.9a8,8,0,0,0-4.88,9.8,46.292,46.292,0,0,0,10.147,17.97L141.214,225.31l-.76.68c-.113.1-.224.206-.331.314A21.155,21.155,0,0,1,116.965,230.909ZM310,182.437V286H155V234.686l49.559-43.938a46,46,0,0,0,21.512,5.356,46.758,46.758,0,0,0,13.5-2,7.9,7.9,0,0,0,.99-.376L267.039,181.7a54.111,54.111,0,0,1,23.5-1.464l5.691.94A100.858,100.858,0,0,0,310,182.437ZM110.55,271H139v15h-9.16a8,8,0,0,0,0,16H335.3a8,8,0,0,0,0-16H326V271h28.59l18.746,45H91.805ZM88,332H377V476H88Z"></path></svg>