<svg xmlns="http://www.w3.org/2000/svg" width="780" height="441" viewBox="0 0 780 441" fill="none"><rect width="780" height="440" transform="translate(0 0.5)" fill="url(#paint0_linear_15_452)"></rect><line x1="272.747" y1="354.308" x2="272.747" y2="184.293" stroke="#040404" stroke-width="1.5" stroke-dasharray="3 6"></line><line y1="-0.75" x2="85.0076" y2="-0.75" transform="matrix(4.37114e-08 1 1 -4.37114e-08 369.362 269.3)" stroke="#040404" stroke-width="1.5" stroke-dasharray="3 6"></line><line x1="464.177" y1="354.308" x2="464.177" y2="304.871" stroke="#040404" stroke-width="1.5" stroke-dasharray="3 6"></line><line y1="-0.75" x2="143.396" y2="-0.75" transform="matrix(4.37114e-08 1 1 -4.37114e-08 560.192 210.912)" stroke="#040404" stroke-width="1.5" stroke-dasharray="3 6"></line><line y1="-0.75" x2="64.6384" y2="-0.75" transform="matrix(4.37114e-08 1 1 -4.37114e-08 177.815 289.67)" stroke="#040404" stroke-width="1.5" stroke-dasharray="3 6"></line><line x1="123.942" y1="305.69" x2="655.757" y2="305.69" stroke="#040404"></line><line x1="123.942" y1="253.22" x2="655.757" y2="253.22" stroke="#040404"></line><line x1="123.942" y1="200.751" x2="655.757" y2="200.751" stroke="#040404"></line><line x1="123.942" y1="148.282" x2="655.757" y2="148.282" stroke="#040404"></line><line x1="123.942" y1="95.8125" x2="655.757" y2="95.8125" stroke="#040404"></line><line y1="-0.75" x2="19.1762" y2="-0.75" transform="matrix(-2.03389e-06 1 1 9.39423e-10 560.492 358.659)" stroke="#040404" stroke-width="1.5"></line><line y1="-0.75" x2="19.1762" y2="-0.75" transform="matrix(-2.03389e-06 1 1 9.39423e-10 464.927 358.659)" stroke="#040404" stroke-width="1.5"></line><line y1="-0.75" x2="19.1762" y2="-0.75" transform="matrix(-2.03389e-06 1 1 9.39423e-10 369.362 358.659)" stroke="#040404" stroke-width="1.5"></line><line y1="-0.75" x2="19.1762" y2="-0.75" transform="matrix(-2.03389e-06 1 1 9.39423e-10 273.796 358.659)" stroke="#040404" stroke-width="1.5"></line><line y1="-0.75" x2="19.1762" y2="-0.75" transform="matrix(-2.03389e-06 1 1 9.39423e-10 178.231 358.659)" stroke="#040404" stroke-width="1.5"></line><path d="M123.942 358.659H656.058L655.506 63.165" stroke="#040404" stroke-width="1.5" stroke-linecap="round" stroke-linejoin="round"></path><path d="M177.815 306.493L273.215 199.359L370.462 253.62L467.569 312.932L560.767 199.359L654.957 94.3123" stroke="#040404" stroke-width="1.5"></path><path d="M273.796 225.333C287.096 225.333 297.878 214.551 297.878 201.251C297.878 187.951 287.096 177.169 273.796 177.169C260.496 177.169 249.714 187.951 249.714 201.251C249.714 214.551 260.496 225.333 273.796 225.333Z" fill="#205BBF" stroke="#040404" stroke-width="1.5" stroke-miterlimit="10" stroke-linecap="round" stroke-linejoin="round"></path><path d="M260.903 197.066C260.903 197.066 261.586 193.223 264.746 193.223C267.905 193.223 268.418 196.895 268.418 196.895" fill="#205BBF"></path><path d="M260.903 197.066C260.903 197.066 261.586 193.223 264.746 193.223C267.905 193.223 268.418 196.895 268.418 196.895" stroke="#040404" stroke-width="1.5" stroke-miterlimit="10" stroke-linecap="round" stroke-linejoin="round"></path><path d="M277.636 197.066C277.636 197.066 278.32 193.223 281.479 193.223C284.724 193.223 285.151 196.895 285.151 196.895" fill="#205BBF"></path><path d="M277.636 197.066C277.636 197.066 278.32 193.223 281.479 193.223C284.724 193.223 285.151 196.895 285.151 196.895" stroke="#040404" stroke-width="1.5" stroke-miterlimit="10" stroke-linecap="round" stroke-linejoin="round"></path><path d="M263.036 207.316H283.958C283.958 207.316 282.336 214.489 274.223 214.66C264.317 214.66 263.036 207.316 263.036 207.316Z" fill="white" stroke="#040404" stroke-width="1.5" stroke-miterlimit="10"></path><path d="M178.452 327.87C192.123 327.87 203.205 316.788 203.205 303.118C203.205 289.448 192.123 278.366 178.452 278.366C164.782 278.366 153.7 289.448 153.7 303.118C153.7 316.788 164.782 327.87 178.452 327.87Z" fill="#FDEFCD" stroke="#040404" stroke-width="1.5" stroke-miterlimit="10"></path><path d="M190.216 294.778C190.216 294.778 189.514 298.728 186.266 298.728C183.018 298.728 182.492 294.953 182.492 294.953" fill="#FDEFCD"></path><path d="M190.216 294.778C190.216 294.778 189.514 298.728 186.266 298.728C183.018 298.728 182.492 294.953 182.492 294.953" stroke="#040404" stroke-width="1.5" stroke-miterlimit="10" stroke-linecap="round" stroke-linejoin="round"></path><path d="M173.011 294.778C173.011 294.778 172.309 298.728 169.061 298.728C165.726 298.728 165.287 294.953 165.287 294.953" fill="#FDEFCD"></path><path d="M173.011 294.778C173.011 294.778 172.309 298.728 169.061 298.728C165.726 298.728 165.287 294.953 165.287 294.953" stroke="#040404" stroke-width="1.5" stroke-miterlimit="10" stroke-linecap="round" stroke-linejoin="round"></path><path d="M167.479 316.81C167.479 316.81 169.146 309.438 177.485 309.262C187.754 309.174 188.983 316.81 188.983 316.81" fill="#FDEFCD"></path><path d="M167.479 316.81C167.479 316.81 169.146 309.438 177.485 309.262C187.754 309.174 188.983 316.81 188.983 316.81" stroke="#040404" stroke-width="1.5" stroke-miterlimit="10"></path><path d="M369.361 277.8C382.661 277.8 393.441 267.019 393.441 253.72C393.441 240.421 382.661 229.64 369.361 229.64C356.062 229.64 345.281 240.421 345.281 253.72C345.281 267.019 356.062 277.8 369.361 277.8Z" fill="#FFBC00" stroke="#040404" stroke-width="1.5" stroke-linecap="round" stroke-linejoin="round"></path><path d="M359.599 262.44H378.603" stroke="#040404" stroke-width="1.5" stroke-miterlimit="10"></path><path d="M361.684 249.554C362.762 249.554 363.636 248.68 363.636 247.602C363.636 246.524 362.762 245.649 361.684 245.649C360.605 245.649 359.731 246.524 359.731 247.602C359.731 248.68 360.605 249.554 361.684 249.554Z" fill="#040404"></path><path d="M375.74 249.554C376.819 249.554 377.693 248.68 377.693 247.602C377.693 246.524 376.819 245.649 375.74 245.649C374.662 245.649 373.788 246.524 373.788 247.602C373.788 248.68 374.662 249.554 375.74 249.554Z" fill="#040404"></path><path d="M560.492 225.333C574.647 225.333 586.121 213.858 586.121 199.704C586.121 185.549 574.647 174.075 560.492 174.075C546.338 174.075 534.863 185.549 534.863 199.704C534.863 213.858 546.338 225.333 560.492 225.333Z" fill="#A1C2F8" stroke="#040404" stroke-width="1.5" stroke-linecap="round" stroke-linejoin="round"></path><path d="M546.781 195.27C546.781 195.27 547.474 191.114 550.937 191.114C554.401 191.114 554.816 194.993 554.816 194.993" stroke="#040404" stroke-width="1.5" stroke-linecap="round" stroke-linejoin="round"></path><path d="M564.649 195.27C564.649 195.27 565.341 191.114 568.805 191.114C572.268 191.114 572.684 194.993 572.684 194.993" stroke="#040404" stroke-width="1.5" stroke-linecap="round" stroke-linejoin="round"></path><path d="M550.105 206.079H570.331C570.885 206.079 571.162 206.633 571.024 207.049C570.193 209.127 567.699 213.698 561.049 213.837C552.737 213.975 550.105 209.127 549.413 207.049C549.135 206.633 549.551 206.079 550.105 206.079Z" fill="white" stroke="#040404" stroke-width="1.5" stroke-miterlimit="10"></path><path d="M656.058 121.941C670.212 121.941 681.687 110.467 681.687 96.3123C681.687 82.1578 670.212 70.6833 656.058 70.6833C641.903 70.6833 630.429 82.1578 630.429 96.3123C630.429 110.467 641.903 121.941 656.058 121.941Z" fill="#205BBF" stroke="#040404" stroke-width="1.5" stroke-linecap="round" stroke-linejoin="round"></path><path d="M642.347 91.8785C642.347 91.8785 643.039 87.7224 646.503 87.7224C649.966 87.7224 650.382 91.6014 650.382 91.6014" stroke="#040404" stroke-width="1.5" stroke-linecap="round" stroke-linejoin="round"></path><path d="M660.214 91.8785C660.214 91.8785 660.907 87.7224 664.37 87.7224C667.833 87.7224 668.249 91.6014 668.249 91.6014" stroke="#040404" stroke-width="1.5" stroke-linecap="round" stroke-linejoin="round"></path><path d="M645.671 102.687H665.897C666.451 102.687 666.728 103.241 666.589 103.657C665.758 105.735 663.264 110.307 656.615 110.445C648.303 110.584 645.671 105.735 644.978 103.657C644.701 103.241 645.116 102.687 645.671 102.687Z" fill="white" stroke="#040404" stroke-width="1.5" stroke-miterlimit="10"></path><path d="M464.452 334.013C478.123 334.013 489.205 322.931 489.205 309.261C489.205 295.591 478.123 284.509 464.452 284.509C450.782 284.509 439.7 295.591 439.7 309.261C439.7 322.931 450.782 334.013 464.452 334.013Z" fill="#FDEFCD" stroke="#040404" stroke-width="1.5" stroke-miterlimit="10"></path><path d="M476.216 300.921C476.216 300.921 475.514 304.871 472.266 304.871C469.018 304.871 468.492 301.096 468.492 301.096" fill="#FDEFCD"></path><path d="M476.216 300.921C476.216 300.921 475.514 304.871 472.266 304.871C469.018 304.871 468.492 301.096 468.492 301.096" stroke="#040404" stroke-width="1.5" stroke-miterlimit="10" stroke-linecap="round" stroke-linejoin="round"></path><path d="M459.011 300.921C459.011 300.921 458.309 304.871 455.061 304.871C451.726 304.871 451.287 301.096 451.287 301.096" fill="#FDEFCD"></path><path d="M459.011 300.921C459.011 300.921 458.309 304.871 455.061 304.871C451.726 304.871 451.287 301.096 451.287 301.096" stroke="#040404" stroke-width="1.5" stroke-miterlimit="10" stroke-linecap="round" stroke-linejoin="round"></path><path d="M453.479 322.954C453.479 322.954 455.146 315.581 463.485 315.405C473.754 315.317 474.983 322.954 474.983 322.954" fill="#FDEFCD"></path><path d="M453.479 322.954C453.479 322.954 455.146 315.581 463.485 315.405C473.754 315.317 474.983 322.954 474.983 322.954" stroke="#040404" stroke-width="1.5" stroke-miterlimit="10"></path><path d="M691.713 336.238L706.385 319.179H702.911L690.167 333.985L679.99 319.179H668.249L683.637 341.574L668.249 359.463H671.724L685.174 343.827L695.923 359.463H707.664L691.703 336.238H691.713ZM686.95 341.774L685.394 339.541L672.984 321.795H678.329L688.343 336.114L689.899 338.347L702.911 356.962H697.565L686.95 341.774Z" fill="#0C3F89"></path><defs><linearGradient id="paint0_linear_15_452" x1="526.537" y1="-15.4381" x2="112.65" y2="698.268" gradientUnits="userSpaceOnUse"><stop stop-color="white"></stop><stop offset="0.71" stop-color="#A1C2F8"></stop></linearGradient></defs></svg>