<svg xmlns="http://www.w3.org/2000/svg" xmlns:xlink="http://www.w3.org/1999/xlink" width="500" zoomAndPan="magnify" viewBox="0 0 375 208.499994" height="278" preserveAspectRatio="xMidYMid meet" version="1.0"><defs><g/></defs><g fill="#030303" fill-opacity="1"><g transform="translate(1.126631, 166.738759)"><g><path d="M 68.585938 -38.222656 C 68.585938 -36.363281 67.964844 -34.8125 66.722656 -33.574219 C 65.425781 -32.21875 63.847656 -31.515625 61.988281 -31.460938 C 60.128906 -31.402344 58.492188 -32.023438 57.082031 -33.320312 L 32.136719 -57.757812 C 30.726562 -59.113281 30.023438 -60.890625 30.023438 -63.085938 C 30.023438 -65.285156 30.726562 -67.0625 32.136719 -68.414062 L 56.660156 -92.433594 C 57.957031 -93.730469 59.535156 -94.347656 61.394531 -94.292969 C 63.257812 -94.292969 64.863281 -93.589844 66.214844 -92.179688 C 67.511719 -90.882812 68.132812 -89.304688 68.078125 -87.441406 C 68.078125 -85.582031 67.402344 -84.03125 66.046875 -82.792969 C 60.296875 -77.210938 56.210938 -73.179688 53.785156 -70.699219 C 52.148438 -69.0625 49.558594 -66.527344 46.003906 -63.085938 C 48.65625 -60.492188 50.996094 -58.210938 53.023438 -56.238281 C 55.109375 -54.152344 59.621094 -49.753906 66.554688 -43.046875 C 67.90625 -41.75 68.585938 -40.167969 68.585938 -38.308594 Z M 39.578125 -63.085938 L 41.183594 -64.695312 C 45.695312 -69.09375 48.824219 -72.164062 50.570312 -73.914062 C 52.9375 -76.222656 57.054688 -80.253906 62.917969 -86.003906 C 63.371094 -86.457031 63.59375 -86.964844 63.59375 -87.527344 C 63.652344 -88.089844 63.453125 -88.597656 63.003906 -89.050781 L 62.917969 -89.050781 C 62.46875 -89.558594 61.933594 -89.8125 61.3125 -89.8125 C 60.746094 -89.8125 60.269531 -89.613281 59.875 -89.21875 L 35.265625 -65.203125 C 34.757812 -64.695312 34.503906 -63.988281 34.503906 -63.085938 C 34.503906 -62.183594 34.757812 -61.480469 35.265625 -60.972656 L 60.210938 -36.535156 C 61.339844 -35.519531 62.4375 -35.574219 63.511719 -36.703125 C 63.960938 -37.152344 64.160156 -37.660156 64.101562 -38.222656 C 64.101562 -38.84375 63.875 -39.351562 63.425781 -39.746094 C 56.492188 -46.511719 51.980469 -50.9375 49.894531 -53.023438 C 47.582031 -55.277344 44.679688 -58.097656 41.183594 -61.480469 Z M 62.328125 -19.113281 C 62.328125 -17.308594 61.734375 -15.757812 60.550781 -14.460938 L 60.464844 -14.375 C 59.113281 -13.023438 57.507812 -12.347656 55.644531 -12.347656 C 53.785156 -12.347656 52.207031 -12.996094 50.910156 -14.292969 L 6.34375 -57.757812 C 4.933594 -59.113281 4.226562 -60.890625 4.226562 -63.085938 C 4.226562 -65.285156 4.933594 -67.0625 6.34375 -68.414062 L 50.910156 -111.882812 C 52.261719 -113.234375 53.871094 -113.882812 55.730469 -113.828125 C 57.589844 -113.828125 59.199219 -113.125 60.550781 -111.714844 C 61.789062 -110.417969 62.382812 -108.839844 62.328125 -106.976562 C 62.328125 -105.117188 61.679688 -103.566406 60.382812 -102.328125 C 55.476562 -97.535156 48.992188 -91.21875 40.929688 -83.382812 C 31.742188 -74.417969 24.804688 -67.652344 20.128906 -63.085938 C 23.847656 -59.480469 29.570312 -53.898438 37.292969 -46.34375 C 47.835938 -36.082031 55.53125 -28.582031 60.382812 -23.847656 C 61.679688 -22.550781 62.328125 -20.972656 62.328125 -19.113281 Z M 8.710938 -63.085938 C 8.710938 -62.183594 8.964844 -61.480469 9.472656 -60.972656 L 54.039062 -17.503906 C 55.109375 -16.492188 56.179688 -16.519531 57.253906 -17.589844 C 58.265625 -18.660156 58.265625 -19.703125 57.253906 -20.71875 C 51.726562 -26.074219 44.03125 -33.546875 34.164062 -43.128906 C 25.765625 -51.359375 19.480469 -57.476562 15.308594 -61.480469 L 13.617188 -63.085938 L 15.308594 -64.695312 C 20.492188 -69.710938 27.992188 -77.011719 37.800781 -86.597656 C 45.863281 -94.492188 52.320312 -100.777344 57.167969 -105.457031 C 58.238281 -106.527344 58.296875 -107.570312 57.335938 -108.585938 C 56.828125 -109.09375 56.265625 -109.347656 55.644531 -109.347656 C 55.023438 -109.347656 54.488281 -109.121094 54.039062 -108.667969 L 9.472656 -65.203125 C 8.964844 -64.695312 8.710938 -63.988281 8.710938 -63.085938 Z M 8.710938 -63.085938 "/></g></g></g><g fill="#030303" fill-opacity="1"><g transform="translate(78.164063, 166.738759)"><g><path d="M 107.910156 0 C 106.046875 0 104.46875 -0.675781 103.171875 -2.03125 C 101.820312 -3.328125 101.144531 -4.90625 101.144531 -6.765625 L 101.144531 -72.304688 C 101.144531 -82.960938 97.367188 -92.09375 89.8125 -99.707031 C 82.199219 -107.261719 73.066406 -111.039062 62.410156 -111.039062 C 51.699219 -111.039062 42.566406 -107.261719 35.011719 -99.707031 C 27.457031 -92.09375 23.679688 -82.960938 23.679688 -72.304688 L 23.679688 -6.765625 C 23.679688 -4.90625 23.003906 -3.328125 21.648438 -2.03125 C 20.351562 -0.675781 18.773438 0 16.914062 0 C 15.054688 0 13.445312 -0.675781 12.09375 -2.03125 C 10.796875 -3.328125 10.148438 -4.90625 10.148438 -6.765625 L 10.148438 -72.304688 C 10.148438 -86.683594 15.25 -98.972656 25.453125 -109.175781 C 35.660156 -119.4375 47.976562 -124.566406 62.410156 -124.566406 C 76.789062 -124.566406 89.105469 -119.4375 99.367188 -109.175781 C 109.570312 -98.972656 114.671875 -86.683594 114.671875 -72.304688 L 114.671875 -6.765625 C 114.671875 -4.90625 113.996094 -3.328125 112.644531 -2.03125 C 111.347656 -0.675781 109.769531 0 107.910156 0 Z M 62.410156 -115.519531 C 74.308594 -115.519531 84.484375 -111.292969 92.941406 -102.835938 C 101.398438 -94.378906 105.625 -84.203125 105.625 -72.304688 L 105.625 -6.765625 C 105.625 -5.242188 106.386719 -4.480469 107.910156 -4.480469 C 109.429688 -4.480469 110.191406 -5.242188 110.191406 -6.765625 L 110.191406 -72.304688 C 110.191406 -85.441406 105.511719 -96.6875 96.152344 -106.046875 C 86.792969 -115.351562 75.546875 -120 62.410156 -120 C 49.21875 -120 37.972656 -115.351562 28.667969 -106.046875 C 19.308594 -96.6875 14.628906 -85.441406 14.628906 -72.304688 L 14.628906 -6.765625 C 14.628906 -5.242188 15.390625 -4.480469 16.914062 -4.480469 C 18.378906 -4.480469 19.113281 -5.242188 19.113281 -6.765625 L 19.113281 -72.304688 C 19.113281 -84.203125 23.339844 -94.378906 31.796875 -102.835938 C 40.253906 -111.292969 50.457031 -115.519531 62.410156 -115.519531 Z M 89.894531 0 C 88.035156 0 86.457031 -0.675781 85.160156 -2.03125 C 83.804688 -3.328125 83.128906 -4.90625 83.128906 -6.765625 L 83.128906 -32.980469 L 52.433594 -32.980469 C 50.570312 -32.980469 48.964844 -33.65625 47.613281 -35.011719 C 46.316406 -36.308594 45.667969 -37.886719 45.667969 -39.746094 C 45.667969 -41.605469 46.316406 -43.214844 47.613281 -44.566406 C 48.964844 -45.863281 50.570312 -46.511719 52.433594 -46.511719 L 83.128906 -46.511719 L 83.128906 -50.996094 L 52.433594 -50.996094 C 50.570312 -50.996094 48.964844 -51.671875 47.613281 -53.023438 C 46.316406 -54.320312 45.667969 -55.898438 45.667969 -57.757812 C 45.667969 -59.621094 46.316406 -61.226562 47.613281 -62.582031 C 48.964844 -63.875 50.570312 -64.523438 52.433594 -64.523438 L 83.128906 -64.523438 L 83.128906 -72.304688 C 83.128906 -78 81.101562 -82.875 77.042969 -86.9375 C 72.980469 -90.996094 68.105469 -93.023438 62.410156 -93.023438 C 56.660156 -93.023438 51.753906 -90.996094 47.695312 -86.9375 C 43.636719 -82.875 41.605469 -78 41.605469 -72.304688 L 41.605469 -6.765625 C 41.605469 -4.90625 40.957031 -3.328125 39.664062 -2.03125 C 38.367188 -0.675781 36.785156 0 34.925781 0 C 33.066406 0 31.460938 -0.675781 30.105469 -2.03125 C 28.808594 -3.328125 28.160156 -4.90625 28.160156 -6.765625 L 28.160156 -72.304688 C 28.160156 -81.71875 31.515625 -89.78125 38.222656 -96.492188 C 44.878906 -103.199219 52.9375 -106.554688 62.410156 -106.554688 C 71.824219 -106.554688 79.886719 -103.199219 86.597656 -96.492188 C 93.304688 -89.78125 96.660156 -81.71875 96.660156 -72.304688 L 96.660156 -6.765625 C 96.660156 -4.90625 96.011719 -3.328125 94.714844 -2.03125 C 93.363281 -0.675781 91.757812 0 89.894531 0 Z M 52.433594 -42.03125 C 50.910156 -42.03125 50.148438 -41.269531 50.148438 -39.746094 C 50.148438 -38.28125 50.910156 -37.546875 52.433594 -37.546875 L 87.613281 -37.546875 L 87.613281 -6.765625 C 87.613281 -5.242188 88.375 -4.480469 89.894531 -4.480469 C 91.417969 -4.480469 92.179688 -5.242188 92.179688 -6.765625 L 92.179688 -72.304688 C 92.179688 -80.480469 89.273438 -87.472656 83.46875 -93.277344 C 77.605469 -99.085938 70.585938 -101.988281 62.410156 -101.988281 C 54.179688 -101.988281 47.160156 -99.085938 41.355469 -93.277344 C 35.546875 -87.472656 32.644531 -80.480469 32.644531 -72.304688 L 32.644531 -6.765625 C 32.644531 -5.242188 33.402344 -4.480469 34.925781 -4.480469 C 36.390625 -4.480469 37.125 -5.242188 37.125 -6.765625 L 37.125 -72.304688 C 37.125 -79.238281 39.605469 -85.1875 44.566406 -90.148438 C 49.472656 -95.054688 55.421875 -97.507812 62.410156 -97.507812 C 69.34375 -97.507812 75.292969 -95.054688 80.253906 -90.148438 C 85.160156 -85.1875 87.613281 -79.238281 87.613281 -72.304688 L 87.613281 -60.042969 L 52.433594 -60.042969 C 50.910156 -60.042969 50.148438 -59.28125 50.148438 -57.757812 C 50.148438 -56.292969 50.910156 -55.5625 52.433594 -55.5625 L 87.613281 -55.5625 L 87.613281 -42.03125 Z M 52.433594 -42.03125 "/></g></g></g><g fill="#030303" fill-opacity="1"><g transform="translate(203.064488, 166.738759)"><g><path d="M 29.089844 0 C 28.019531 0 26.976562 -0.28125 25.960938 -0.84375 C 24.269531 -1.636719 23.144531 -2.933594 22.578125 -4.734375 C 22.015625 -6.484375 22.183594 -8.203125 23.085938 -9.894531 L 78.734375 -121.269531 C 79.578125 -122.960938 80.902344 -124.089844 82.707031 -124.652344 C 84.453125 -125.160156 86.144531 -125.019531 87.78125 -124.230469 C 89.417969 -123.382812 90.542969 -122.085938 91.164062 -120.339844 C 91.726562 -118.535156 91.585938 -116.816406 90.742188 -115.179688 L 35.09375 -3.804688 C 34.25 -2.058594 32.925781 -0.902344 31.121094 -0.339844 C 30.445312 -0.113281 29.769531 0 29.089844 0 Z M 85.75 -120.171875 C 84.511719 -120.789062 83.523438 -120.507812 82.792969 -119.324219 L 27.0625 -7.78125 C 26.496094 -6.425781 26.808594 -5.441406 27.992188 -4.820312 C 29.230469 -4.03125 30.246094 -4.339844 31.035156 -5.75 L 86.765625 -117.210938 C 87.273438 -118.621094 86.9375 -119.605469 85.75 -120.171875 Z M 8.964844 0 C 7.894531 0 6.851562 -0.28125 5.835938 -0.84375 C 4.257812 -1.636719 3.15625 -2.902344 2.535156 -4.652344 C 1.972656 -6.457031 2.113281 -8.175781 2.960938 -9.808594 L 58.605469 -121.269531 C 59.449219 -122.960938 60.746094 -124.089844 62.496094 -124.652344 C 64.242188 -125.214844 65.992188 -125.074219 67.738281 -124.230469 C 69.375 -123.382812 70.472656 -122.117188 71.035156 -120.425781 C 71.65625 -118.621094 71.542969 -116.871094 70.699219 -115.179688 L 14.96875 -3.804688 C 14.121094 -2.058594 12.796875 -0.902344 10.992188 -0.339844 C 10.316406 -0.113281 9.640625 0 8.964844 0 Z M 65.792969 -120.171875 C 64.441406 -120.847656 63.398438 -120.566406 62.664062 -119.324219 L 6.933594 -7.78125 C 6.425781 -6.539062 6.765625 -5.554688 7.949219 -4.820312 C 9.191406 -4.199219 10.175781 -4.511719 10.910156 -5.75 L 66.640625 -117.210938 C 67.316406 -118.734375 67.035156 -119.71875 65.792969 -120.171875 Z M 65.792969 -120.171875 "/></g></g></g><g fill="#030303" fill-opacity="1"><g transform="translate(296.845523, 166.738759)"><g><path d="M 8.457031 -38.308594 C 8.457031 -40.167969 9.132812 -41.75 10.488281 -43.046875 C 17.421875 -49.753906 21.929688 -54.152344 24.015625 -56.238281 C 26.046875 -58.210938 28.386719 -60.492188 31.035156 -63.085938 C 27.484375 -66.527344 24.890625 -69.0625 23.257812 -70.699219 C 20.832031 -73.179688 16.746094 -77.210938 10.992188 -82.792969 C 9.640625 -84.03125 8.964844 -85.582031 8.964844 -87.441406 C 8.90625 -89.304688 9.527344 -90.882812 10.824219 -92.179688 C 12.179688 -93.589844 13.785156 -94.292969 15.644531 -94.292969 C 17.503906 -94.347656 19.085938 -93.730469 20.378906 -92.433594 L 44.90625 -68.414062 C 46.316406 -67.0625 47.019531 -65.285156 47.019531 -63.085938 C 47.019531 -60.890625 46.316406 -59.113281 44.90625 -57.757812 L 19.957031 -33.320312 C 18.546875 -32.023438 16.914062 -31.402344 15.054688 -31.460938 C 13.191406 -31.515625 11.613281 -32.21875 10.316406 -33.574219 C 9.078125 -34.8125 8.457031 -36.363281 8.457031 -38.222656 Z M 35.855469 -61.480469 C 32.359375 -58.097656 29.457031 -55.277344 27.144531 -53.023438 C 25.058594 -50.9375 20.550781 -46.511719 13.617188 -39.746094 C 13.164062 -39.351562 12.9375 -38.84375 12.9375 -38.222656 C 12.882812 -37.660156 13.078125 -37.152344 13.53125 -36.703125 C 14.601562 -35.574219 15.703125 -35.519531 16.828125 -36.535156 L 41.777344 -60.972656 C 42.285156 -61.480469 42.539062 -62.183594 42.539062 -63.085938 C 42.539062 -63.988281 42.285156 -64.695312 41.777344 -65.203125 L 17.167969 -89.21875 C 16.773438 -89.613281 16.292969 -89.8125 15.730469 -89.8125 C 15.109375 -89.8125 14.574219 -89.558594 14.121094 -89.050781 L 14.039062 -89.050781 C 13.585938 -88.597656 13.390625 -88.089844 13.445312 -87.527344 C 13.445312 -86.964844 13.671875 -86.457031 14.121094 -86.003906 C 19.984375 -80.253906 24.101562 -76.222656 26.46875 -73.914062 C 28.21875 -72.164062 31.347656 -69.09375 35.855469 -64.695312 L 37.464844 -63.085938 Z M 14.714844 -19.113281 C 14.714844 -20.972656 15.363281 -22.550781 16.660156 -23.847656 C 21.507812 -28.582031 29.203125 -36.082031 39.746094 -46.34375 C 47.46875 -53.898438 53.191406 -59.480469 56.914062 -63.085938 C 52.234375 -67.652344 45.300781 -74.417969 36.109375 -83.382812 C 28.046875 -91.21875 21.566406 -97.535156 16.660156 -102.328125 C 15.363281 -103.566406 14.714844 -105.117188 14.714844 -106.976562 C 14.660156 -108.839844 15.25 -110.417969 16.492188 -111.714844 C 17.84375 -113.125 19.449219 -113.828125 21.3125 -113.828125 C 23.171875 -113.882812 24.777344 -113.234375 26.132812 -111.882812 L 70.699219 -68.414062 C 72.109375 -67.0625 72.8125 -65.285156 72.8125 -63.085938 C 72.8125 -60.890625 72.109375 -59.113281 70.699219 -57.757812 L 26.132812 -14.292969 C 24.835938 -12.996094 23.257812 -12.347656 21.394531 -12.347656 C 19.535156 -12.347656 17.929688 -13.023438 16.574219 -14.375 L 16.492188 -14.460938 C 15.308594 -15.757812 14.714844 -17.308594 14.714844 -19.113281 Z M 68.332031 -63.085938 C 68.332031 -63.988281 68.078125 -64.695312 67.570312 -65.203125 L 23.003906 -108.667969 C 22.550781 -109.121094 22.015625 -109.347656 21.394531 -109.347656 C 20.777344 -109.347656 20.210938 -109.09375 19.703125 -108.585938 C 18.746094 -107.570312 18.800781 -106.527344 19.875 -105.457031 C 24.722656 -100.777344 31.175781 -94.492188 39.238281 -86.597656 C 49.050781 -77.011719 56.546875 -69.710938 61.734375 -64.695312 L 63.425781 -63.085938 L 61.734375 -61.480469 C 57.5625 -57.476562 51.277344 -51.359375 42.875 -43.128906 C 33.007812 -33.546875 25.3125 -26.074219 19.789062 -20.71875 C 18.773438 -19.703125 18.773438 -18.660156 19.789062 -17.589844 C 20.859375 -16.519531 21.929688 -16.492188 23.003906 -17.503906 L 67.570312 -60.972656 C 68.078125 -61.480469 68.332031 -62.183594 68.332031 -63.085938 Z M 68.332031 -63.085938 "/></g></g></g></svg>