<svg width="233" height="233" viewBox="0 0 233 233" fill="none" xmlns="http://www.w3.org/2000/svg">
<rect width="233" height="233" rx="21" fill="white"/>
<path d="M94.816 207.4H74.016L70.048 217H59.424L79.392 172.2H89.632L109.664 217H98.784L94.816 207.4ZM91.552 199.528L84.448 182.376L77.344 199.528H91.552ZM202.061 201.128V217H191.693V201L174.349 172.2H185.357L197.325 192.104L209.293 172.2H219.469L202.061 201.128Z" fill="#5924ED"/>
<path d="M94.816 207.4L96.6643 206.636L96.1534 205.4H94.816V207.4ZM74.016 207.4V205.4H72.6786L72.1677 206.636L74.016 207.4ZM70.048 217V219H71.3854L71.8963 217.764L70.048 217ZM59.424 217L57.5972 216.186L56.3429 219H59.424V217ZM79.392 172.2V170.2H78.0938L77.5652 171.386L79.392 172.2ZM89.632 172.2L91.4578 171.384L90.9285 170.2H89.632V172.2ZM109.664 217V219H112.749L111.49 216.184L109.664 217ZM98.784 217L96.9357 217.764L97.4466 219H98.784V217ZM91.552 199.528V201.528H94.5451L93.3998 198.763L91.552 199.528ZM84.448 182.376L86.2958 181.611L84.448 177.149L82.6002 181.611L84.448 182.376ZM77.344 199.528L75.4962 198.763L74.3509 201.528H77.344V199.528ZM94.816 205.4H74.016V209.4H94.816V205.4ZM72.1677 206.636L68.1997 216.236L71.8963 217.764L75.8643 208.164L72.1677 206.636ZM70.048 215H59.424V219H70.048V215ZM61.2508 217.814L81.2188 173.014L77.5652 171.386L57.5972 216.186L61.2508 217.814ZM79.392 174.2H89.632V170.2H79.392V174.2ZM87.8062 173.016L107.838 217.816L111.49 216.184L91.4578 171.384L87.8062 173.016ZM109.664 215H98.784V219H109.664V215ZM100.632 216.236L96.6643 206.636L92.9677 208.164L96.9357 217.764L100.632 216.236ZM93.3998 198.763L86.2958 181.611L82.6002 183.141L89.7042 200.293L93.3998 198.763ZM82.6002 181.611L75.4962 198.763L79.1918 200.293L86.2958 183.141L82.6002 181.611ZM77.344 201.528H91.552V197.528H77.344V201.528ZM157.64 217L155.64 217.005L155.645 219H157.64V217ZM157.576 190.12L159.576 190.115L159.559 182.88L155.858 189.097L157.576 190.12ZM144.392 212.264V214.264H145.529L146.11 213.287L144.392 212.264ZM139.72 212.264L138.011 213.303L138.596 214.264H139.72V212.264ZM126.6 190.696L128.309 189.657L124.6 183.56V190.696H126.6ZM126.6 217V219H128.6V217H126.6ZM116.872 217H114.872V219H116.872V217ZM116.872 172.2V170.2H114.872V172.2H116.872ZM125.448 172.2L127.161 171.168L126.578 170.2H125.448V172.2ZM142.216 200.04L140.503 201.072L142.229 203.938L143.936 201.06L142.216 200.04ZM158.728 172.2V170.2H157.589L157.008 171.18L158.728 172.2ZM167.24 172.2L169.24 172.194L169.234 170.2H167.24V172.2ZM167.368 217V219H169.374L169.368 216.994L167.368 217ZM159.64 216.995L159.576 190.115L155.576 190.125L155.64 217.005L159.64 216.995ZM155.858 189.097L142.674 211.241L146.11 213.287L159.294 191.143L155.858 189.097ZM144.392 210.264H139.72V214.264H144.392V210.264ZM141.429 211.225L128.309 189.657L124.891 191.735L138.011 213.303L141.429 211.225ZM124.6 190.696V217H128.6V190.696H124.6ZM126.6 215H116.872V219H126.6V215ZM118.872 217V172.2H114.872V217H118.872ZM116.872 174.2H125.448V170.2H116.872V174.2ZM123.735 173.232L140.503 201.072L143.929 199.008L127.161 171.168L123.735 173.232ZM143.936 201.06L160.448 173.22L157.008 171.18L140.496 199.02L143.936 201.06ZM158.728 174.2H167.24V170.2H158.728V174.2ZM165.24 172.206L165.368 217.006L169.368 216.994L169.24 172.194L165.24 172.206ZM167.368 215H157.64V219H167.368V215ZM202.061 201.128L200.347 200.097L200.061 200.573V201.128H202.061ZM202.061 217V219H204.061V217H202.061ZM191.693 217H189.693V219H191.693V217ZM191.693 201H193.693V200.444L193.406 199.968L191.693 201ZM174.349 172.2V170.2H170.81L172.636 173.232L174.349 172.2ZM185.357 172.2L187.071 171.169L186.488 170.2H185.357V172.2ZM197.325 192.104L195.611 193.135L197.325 195.985L199.039 193.135L197.325 192.104ZM209.293 172.2V170.2H208.162L207.579 171.169L209.293 172.2ZM219.469 172.2L221.183 173.231L223.007 170.2H219.469V172.2ZM200.061 201.128V217H204.061V201.128H200.061ZM202.061 215H191.693V219H202.061V215ZM193.693 217V201H189.693V217H193.693ZM193.406 199.968L176.062 171.168L172.636 173.232L189.98 202.032L193.406 199.968ZM174.349 174.2H185.357V170.2H174.349V174.2ZM183.643 173.231L195.611 193.135L199.039 191.073L187.071 171.169L183.643 173.231ZM199.039 193.135L211.007 173.231L207.579 171.169L195.611 191.073L199.039 193.135ZM209.293 174.2H219.469V170.2H209.293V174.2ZM217.755 171.169L200.347 200.097L203.775 202.159L221.183 173.231L217.755 171.169Z" fill="#5924ED"/>
</svg>
