<svg height="402" viewBox="0.08 0.49 2319.27 373.16" width="2500" xmlns="http://www.w3.org/2000/svg"><path d="m709.4 277.21 84.99-252.28h76.53l80.29 252.28h-63.36l-13.73-44.37h-87.06l-13.73 44.37zM831.81 95.99l-29.52 92.3h58.1zm157.95 181.22V17.79h60.17v259.42zm124.1 89.86V92.04h49.08l4.91 21.4.74-1.13c5.15-7.71 11.29-13.62 18.42-17.73 9.9-5.7 20.43-8.55 31.59-8.55 14.79 0 28.83 3.88 42.12 11.65s24.1 18.99 32.43 33.65c8.34 14.67 12.51 32.46 12.51 53.39 0 20.8-4.23 38.54-12.69 53.2-8.47 14.66-19.56 25.88-33.29 33.65-13.72 7.77-28.42 11.65-44.09 11.65-13.66 0-25.07-2.75-34.22-8.27l-1.09-.67a44.256 44.256 0 0 1-6.06-4.7l-.19-.17v97.66zm109.91-143.06c6.08-2.88 11.22-7.52 15.42-13.91s6.3-14.85 6.3-25.38c0-8.9-1.57-16.67-4.7-23.31-3.14-6.64-7.56-11.78-13.26-15.41-5.7-3.64-12.5-5.46-20.4-5.46-6.39 0-12.1 1.32-17.11 3.95-5.02 2.63-8.93 6.36-11.76 11.19l-.54.97c-2.28 4.28-3.5 9.2-3.67 14.75l-.02 1.29v30.45c0 5.02 1.45 9.4 4.33 13.16s6.77 6.71 11.66 8.84 10.21 3.19 15.98 3.19 11.69-1.44 17.77-4.32zm139.14-164.58c-6.2-5.83-9.3-14.07-9.3-24.72 0-10.4 3.1-18.71 9.3-24.91 6.21-6.2 15.02-9.31 26.42-9.31 11.03 0 19.75 3.11 26.14 9.31s9.59 14.51 9.59 24.91c0 10.65-3.2 18.89-9.59 24.72s-15.11 8.74-26.14 8.74c-11.4 0-20.21-2.91-26.42-8.74zm-3.66 217.78V90.92h60.17v186.29zm129.37 0V92.04h53.02l6.09 26.12.52-.87c5.02-8.25 10.93-14.78 17.74-19.61 10.97-7.77 23.41-11.65 37.33-11.65 15.92 0 28.92 3.57 39.01 10.71 10.09 7.15 17.52 16.98 22.29 29.52 4.76 12.53 7.14 26.88 7.14 43.05v107.9h-60.55v-107.9c0-9.78-2.38-17.02-7.14-21.72-4.77-4.7-10.53-7.05-17.3-7.05-6.9 0-13.23 1.95-18.99 5.83-5.77 3.89-10.38 10.12-13.82 18.71l-.46 1.18c-2.99 8.04-4.56 18.38-4.7 31.02l-.01 1.92v78.01zm272.27-6.02c-13.66-8.02-24.73-19.48-33.19-34.4-8.46-14.91-12.69-32.58-12.69-53.01s4.2-37.94 12.6-52.54 19.43-25.79 33.09-33.56 28.33-11.65 44-11.65c15.55 0 29.08 3.1 40.62 9.3 11.53 6.21 20.84 14.57 27.92 25.1s11.72 22.4 13.91 35.62l.33 2.09c1.81 12.57 1.23 25.5-1.74 38.8h-111.31v-.38c0 7.9 1.13 14.73 3.38 20.49 2.26 5.77 5.61 10.25 10.06 13.44 4.45 3.2 10.06 4.8 16.83 4.8 5.52 0 10.34-1.13 14.48-3.39 4.14-2.25 7.02-5.82 8.65-10.71h59.79c-1.88 11.53-6.48 21.99-13.82 31.39-7.33 9.4-16.86 16.86-28.58 22.37-11.72 5.52-25.23 8.27-40.52 8.27-15.54 0-30.15-4.01-43.81-12.03zm72.37-105.69c-.08-2.23-.29-4.47-.64-6.72-.69-4.51-2.03-8.68-4.04-12.5-2-3.83-4.86-6.9-8.55-9.21-3.7-2.32-8.43-3.48-14.2-3.48-6.39 0-11.94 1.53-16.64 4.6s-8.34 7.52-10.91 13.35l-.49 1.18c-1.6 4-2.63 8.57-3.09 13.71v.06h58.58zm89.24 104.19c-7.45-7.27-11.18-16.42-11.18-27.45 0-11.15 3.73-20.42 11.18-27.82 7.46-7.39 17.15-11.09 29.06-11.09 11.9 0 21.74 3.7 29.52 11.09 7.77 7.4 11.66 16.67 11.66 27.82 0 11.16-3.89 20.34-11.66 27.54-7.78 7.21-17.62 10.81-29.52 10.81-11.91 0-21.6-3.63-29.06-10.9zm117.62-210.26c-6.52-5.83-9.78-14.07-9.78-24.72 0-10.4 3.26-18.71 9.78-24.91s15.29-9.31 26.32-9.31c11.04 0 19.75 3.11 26.14 9.31s9.59 14.51 9.59 24.91c0 10.65-3.2 18.89-9.59 24.72s-15.1 8.74-26.14 8.74c-11.03 0-19.8-2.91-26.32-8.74zm-38.92 311.3c-8.53-1.94-17.11-4.1-25.76-6.48v-51.7c5.39 2.13 11.59 4.07 18.61 5.83 7.02 1.75 13.54 2.63 19.56 2.63 7.77 0 13.57-1.82 17.39-5.45 3.82-3.64 5.74-10.84 5.74-21.62V91.29h60.54v203.78c0 28.45-5.64 48.65-16.92 60.62s-27.89 17.96-49.83 17.96c-11.03 0-20.81-.98-29.33-2.92zm189.91-94.55c-13.54-4.7-24.1-11.79-31.68-21.25-7.59-9.46-11.32-21.4-11.19-35.81h54.34c.25 6.52 2.79 11.03 7.62 13.54 4.82 2.5 11.37 3.76 19.65 3.76 5.01 0 9.15-.63 12.41-1.88 3.26-1.26 5.7-2.92 7.33-4.99 1.63-2.06 2.44-4.29 2.44-6.67 0-3.13-1.12-5.64-3.38-7.52s-5.77-3.76-10.53-5.64l-44.94-17.48c-13.29-5.51-23.54-12.5-30.74-20.96-7.21-8.46-10.82-18.52-10.82-30.17 0-16.42 7.59-29.7 22.76-39.86 15.16-10.15 35.91-15.22 62.24-15.22 24.69 0 43.68 5.76 56.97 17.29s19.99 26.2 20.12 43.99h-55.09c0-4.01-1.7-7.49-5.08-10.43-3.39-2.95-9.03-4.42-16.92-4.42-6.52 0-11.66 1.07-15.42 3.2s-5.64 4.95-5.64 8.46c0 4.76 3.94 8.52 11.84 11.27l51.15 20.49c12.66 5.02 22.62 11.28 29.89 18.8 7.28 7.52 10.91 16.92 10.91 28.2 0 10.28-3.54 20.02-10.62 29.23-7.09 9.21-16.77 16.7-29.05 22.47-12.29 5.76-26.2 8.64-41.75 8.64-17.67 0-33.28-2.35-46.82-7.04z" fill="#2d3441"/><path d="M477.18 8.23 613.5 143.91 477.18 279.59 340.87 143.91z" fill="#77c1d2"/><path d="m136.39 8.23 282.6 281.28H146.36L.08 143.91z" fill="#2d3441"/></svg>