<svg xmlns="http://www.w3.org/2000/svg" xmlns:xlink="http://www.w3.org/1999/xlink" width="500" zoomAndPan="magnify" viewBox="0 0 375 374.999991" height="500" preserveAspectRatio="xMidYMid meet" version="1.0"><defs><g/><clipPath id="3f71022334"><path d="M 87.777344 53.722656 L 315.777344 53.722656 L 315.777344 351.472656 L 87.777344 351.472656 Z M 87.777344 53.722656 " clip-rule="nonzero"/></clipPath><clipPath id="6da681596c"><path d="M 0 80.128906 L 172.785156 80.128906 L 172.785156 286.378906 L 0 286.378906 Z M 0 80.128906 " clip-rule="nonzero"/></clipPath><clipPath id="ba718f3f54"><path d="M 201.890625 141.609375 L 375 141.609375 L 375 329.109375 L 201.890625 329.109375 Z M 201.890625 141.609375 " clip-rule="nonzero"/></clipPath></defs><g clip-path="url(#3f71022334)"><path fill="#000000" d="M 87.78125 53.722656 L 87.78125 351.472656 L 315.777344 351.472656 L 315.777344 53.722656 L 87.78125 53.722656 M 309.949219 345.644531 L 93.488281 345.644531 L 93.488281 59.429688 L 309.949219 59.429688 L 309.949219 345.644531 " fill-opacity="1" fill-rule="nonzero"/></g><g clip-path="url(#6da681596c)"><path fill="#ffffff" d="M -110.714844 80.132812 L 172.785156 80.132812 L 172.785156 286.378906 L -110.714844 286.378906 L -110.714844 80.132812 " fill-opacity="1" fill-rule="nonzero"/></g><g clip-path="url(#ba718f3f54)"><path fill="#ffffff" d="M 201.894531 141.609375 L 485.390625 141.609375 L 485.390625 329.109375 L 201.894531 329.109375 L 201.894531 141.609375 " fill-opacity="1" fill-rule="nonzero"/></g><g fill="#000000" fill-opacity="1"><g transform="translate(26.252482, 261.524497)"><g><path d="M 82.597656 -98.085938 C 57.960938 -103.71875 36.839844 -110.992188 36.839844 -135.632812 C 36.839844 -148.773438 42.707031 -164.023438 65 -164.023438 C 90.8125 -164.023438 117.09375 -144.078125 112.871094 -111.929688 L 135.164062 -146.191406 C 122.726562 -158.160156 103.25 -167.546875 76.027344 -167.546875 C 38.25 -167.546875 13.609375 -149.710938 13.609375 -120.847656 C 13.609375 -100.667969 26.046875 -76.96875 71.570312 -66.40625 C 99.496094 -59.835938 115.214844 -53.972656 115.214844 -33.085938 C 115.214844 -20.648438 109.585938 -0.46875 82.128906 -0.46875 C 55.613281 -0.46875 27.925781 -20.648438 30.976562 -53.03125 L 9.386719 -18.773438 C 22.058594 -6.570312 44.351562 3.285156 72.742188 3.285156 C 114.042969 3.285156 137.976562 -18.773438 137.976562 -47.402344 C 137.976562 -64.765625 128.828125 -87.527344 82.597656 -98.085938 Z M 82.597656 -98.085938 "/></g></g></g><g fill="#000000" fill-opacity="1"><g transform="translate(174.28604, 313.300362)"><g><path d="M 91.28125 -164.261719 L 3.519531 -164.261719 L 3.519531 -163.085938 C 13.140625 -161.914062 21.355469 -159.332031 21.355469 -150.882812 L 21.355469 -13.375 C 21.355469 -4.929688 13.140625 -2.347656 3.519531 -1.171875 L 3.519531 0 L 71.335938 0 L 71.335938 -1.171875 C 61.714844 -2.347656 53.5 -4.929688 53.5 -13.375 L 53.5 -58.664062 L 80.488281 -58.664062 C 126.949219 -58.664062 157.21875 -80.488281 157.21875 -116.15625 C 157.21875 -149.007812 133.050781 -164.261719 91.28125 -164.261719 Z M 89.40625 -62.417969 C 77.671875 -62.417969 65.46875 -64.53125 53.5 -68.050781 L 53.5 -160.503906 L 78.375 -160.503906 C 118.265625 -160.503906 125.542969 -132.113281 125.542969 -105.125 C 125.542969 -69.457031 113.574219 -62.417969 89.40625 -62.417969 Z M 89.40625 -62.417969 "/></g></g></g><path stroke-linecap="round" transform="matrix(3.755278, 0, 0, 3.592814, 131.114557, 16.436282)" fill="none" stroke-linejoin="miter" d="M 3.499943 0.000339066 L 34.248336 0.000339066 " stroke="#000000" stroke-width="1" stroke-opacity="1" stroke-miterlimit="4"/><path stroke-linecap="butt" transform="matrix(3.755278, 0, 0, 3.592814, 131.114557, 16.436282)" fill="none" stroke-linejoin="round" d="M 0.499998 0.000339066 L 1.99997 -1.500052 L 3.499943 0.000339066 L 1.99997 1.499643 Z M 0.499998 0.000339066 " stroke="#000000" stroke-width="1" stroke-opacity="1" stroke-miterlimit="4"/><path stroke-linecap="butt" transform="matrix(3.755278, 0, 0, 3.592814, 272.868443, 16.436282)" fill="none" stroke-linejoin="round" d="M -0.499632 0.000339066 L -1.999604 -1.500052 L -3.499576 0.000339066 L -1.999604 1.499643 Z M -0.499632 0.000339066 " stroke="#000000" stroke-width="1" stroke-opacity="1" stroke-miterlimit="4"/></svg>