<svg width="24" height="24" viewBox="0 0 24 24" fill="none" xmlns="http://www.w3.org/2000/svg">
<path d="M13.8333 3.5L2.59486 14.7385C2.38233 14.951 2.27606 15.0573 2.20619 15.1878C2.13633 15.3184 2.10685 15.4657 2.04791 15.7605L0.647087 22.7646C0.580565 23.0972 0.547304 23.2635 0.641912 23.3581C0.736518 23.4527 0.90282 23.4194 1.23542 23.3529L1.23544 23.3529L8.23954 21.9521C8.53427 21.8931 8.68163 21.8637 8.81218 21.7938C8.94273 21.7239 9.04899 21.6177 9.26152 21.4051L20.5 10.1667L13.8333 3.5Z" fill="#7E869E" fill-opacity="0.25"/>
<path d="M2.96761 15.184L2.96761 15.184C2.9667 15.1849 2.96579 15.1858 2.96488 15.1868C2.95399 15.1976 2.94311 15.2085 2.93227 15.2193C2.77265 15.3785 2.6192 15.5315 2.51081 15.7229C2.40241 15.9144 2.35015 16.1247 2.29579 16.3435C2.29178 16.3596 2.28777 16.3757 2.28372 16.3919L0.953524 21.7127C0.951115 21.7223 0.948676 21.7321 0.946217 21.7419C0.907606 21.8959 0.863935 22.0702 0.849431 22.2185C0.833277 22.3836 0.834763 22.6828 1.07605 22.9241L1.50031 22.4999L1.07605 22.9241C1.31733 23.1654 1.61657 23.1669 1.78169 23.1507C1.92997 23.1362 2.10425 23.0926 2.25833 23.0539C2.26813 23.0515 2.27785 23.049 2.28747 23.0466L7.60826 21.7164C7.62445 21.7124 7.6406 21.7084 7.65671 21.7044C7.87548 21.65 8.08578 21.5978 8.27723 21.4894C8.46868 21.381 8.62169 21.2275 8.78086 21.0679C8.79258 21.0561 8.80434 21.0444 8.81614 21.0326L22.0102 7.83848L22.0371 7.81164C22.3474 7.50136 22.6216 7.22715 22.813 6.97639C23.0204 6.70457 23.186 6.39104 23.186 6C23.186 5.60896 23.0204 5.29543 22.813 5.02361C22.6216 4.77284 22.3474 4.49863 22.037 4.18833L22.0102 4.16152L19.8386 1.98995L19.8118 1.9631C19.5015 1.65278 19.2273 1.37852 18.9765 1.1872C18.7047 0.979813 18.3912 0.814214 18.0002 0.814214C17.6091 0.814214 17.2956 0.979813 17.0238 1.1872C16.773 1.37853 16.4988 1.65279 16.1885 1.96313L16.1617 1.98995L2.96761 15.184Z" stroke="#141F37" stroke-width="1.2"/>
<path d="M13.8335 3.5L20.5002 10.1667" stroke="#141F37" stroke-width="1.2"/>
</svg>
