<svg width="75" height="75" viewBox="0 0 75 75" fill="none" xmlns="http://www.w3.org/2000/svg">
<path d="M62.5488 0H12.4512C5.57458 0 0 5.70837 0 12.75V62.13C0 69.1716 5.57458 74.88 12.4512 74.88H62.5488C69.4254 74.88 75 69.1716 75 62.13V12.75C75 5.70837 69.4254 0 62.5488 0Z" fill="#470137"/>
<path d="M39.4271 19.692L30.0688 35.5089L40.081 52.3044C40.1455 52.422 40.1634 52.56 40.1314 52.6908C40.1159 52.7466 40.0825 52.7604 40.0312 52.7625L39.9744 52.7616L39.9053 52.7598C39.8678 52.7598 39.8259 52.7616 39.7793 52.7694H32.5605L32.4187 52.767C32.0297 52.7565 31.7493 52.6995 31.5785 52.4073C30.9106 51.0748 30.2397 49.7439 29.5658 48.4146C28.963 47.229 28.3438 46.0521 27.7084 44.8845L27.4277 44.3703C26.6677 42.9871 25.9214 41.596 25.1889 40.1973H25.1385C24.462 41.5814 23.7659 42.9553 23.0505 44.3187C22.3289 45.6927 21.6161 47.0583 20.9121 48.4146C20.2077 49.772 19.4865 51.1202 18.7488 52.4589C18.6302 52.7319 18.433 52.7889 18.1585 52.7982L18.0442 52.8H11.1516L11.1217 52.8009L11.0232 52.8099C10.9684 52.8132 10.9356 52.8012 10.9251 52.7166C10.9062 52.591 10.9331 52.4626 11.0007 52.356L20.7108 36.024L11.252 19.641C11.1516 19.5042 11.1349 19.3926 11.2017 19.3062C11.2388 19.2622 11.2854 19.2276 11.3378 19.2052C11.3902 19.1828 11.447 19.1733 11.5037 19.1772H18.5976C18.7523 19.1685 18.907 19.195 19.0506 19.2546C19.1707 19.3245 19.2741 19.4214 19.3523 19.5381C19.9561 20.9121 20.627 22.2861 21.365 23.6595C22.0973 25.0242 22.8436 26.381 23.6039 27.7296C24.3525 29.0573 25.0491 30.4151 25.6919 31.7997H25.7423C26.401 30.4154 27.0803 29.0415 27.7799 27.6783C28.4669 26.3388 29.1715 24.9903 29.8928 23.6337C30.6049 22.2945 31.3009 20.9464 31.9808 19.5897C32.0194 19.4625 32.0886 19.3473 32.182 19.2546C32.3063 19.1902 32.4459 19.1633 32.5846 19.1772H39.1755C39.2361 19.1617 39.2999 19.1668 39.3575 19.1917C39.415 19.2166 39.463 19.26 39.4944 19.3153C39.5258 19.3706 39.5388 19.4348 39.5315 19.4983C39.5242 19.5618 39.4969 19.6211 39.4538 19.6674L39.4274 19.6926L39.4271 19.692ZM54.2133 53.4339L53.8664 53.4378C51.5506 53.4739 49.256 52.9812 47.1495 51.9954C45.1871 51.0654 43.5468 49.5472 42.4453 47.6418C41.3347 45.753 40.7645 43.3992 40.7358 40.5813L40.7347 40.3518C40.7158 37.9872 41.306 35.6593 42.4456 33.6027C43.5861 31.5671 45.2489 29.89 47.2538 28.7529L47.4264 28.6569C49.606 27.4203 52.2392 26.802 55.3254 26.802L55.4601 26.8035L55.6142 26.8086L55.7871 26.8164L55.9793 26.8278L56.3021 26.8512L56.6678 26.8812L56.9352 26.9052V16.7556C56.9352 16.5156 57.036 16.395 57.237 16.395H63.5765C63.6175 16.389 63.6593 16.3928 63.6986 16.4062C63.7379 16.4196 63.7736 16.4422 63.8029 16.4722C63.8322 16.5022 63.8543 16.5388 63.8674 16.579C63.8804 16.6192 63.8842 16.662 63.8783 16.704V47.1525C63.8783 47.6637 63.8976 48.2145 63.9363 48.8037L64.0301 50.1402L64.0799 50.9133C64.0861 51.0204 64.0605 51.1269 64.0066 51.2188C63.9528 51.3108 63.873 51.3839 63.7778 51.4287C62.1424 52.1271 60.4389 52.6451 58.6963 52.974C57.2169 53.2536 55.7174 53.4074 54.2133 53.4339ZM56.9352 47.0493V32.9844C56.6633 32.909 56.3857 32.8573 56.1053 32.8299C55.7625 32.7946 55.4182 32.7774 55.0737 32.7783C53.8528 32.7659 52.6463 33.0484 51.5519 33.6027C50.486 34.1453 49.5758 34.9619 48.9105 35.9727C48.2464 36.9675 47.9027 38.2665 47.8802 39.8697L47.879 40.0428C47.8545 41.1658 48.0336 42.2837 48.4072 43.3398C48.7114 44.1909 49.1921 44.9644 49.8164 45.6069C50.4138 46.1979 51.1371 46.6388 51.9293 46.8948C52.7661 47.1723 53.6407 47.3115 54.5203 47.3073C54.9896 47.3073 55.4256 47.2899 55.8284 47.2554C56.1497 47.2307 56.4682 47.1765 56.78 47.0934L56.9352 47.0493Z" fill="#FF61F6"/>
</svg>
