<svg width="24" height="4" viewBox="0 0 24 4" fill="none" xmlns="http://www.w3.org/2000/svg">
<g clip-path="url(#clip0_126_53)">
<path d="M11.9116 0.430406V3.25064L11.6042 3.49823V1.15214H11.0257L11.9116 0.430406ZM22.572 0C22.8295 0 23.0685 0.0388125 23.2891 0.116437C23.5013 0.18975 23.6844 0.272203 23.8383 0.363703L23.8652 0.379969L23.5465 0.986672C23.5174 0.962906 23.4764 0.935672 23.4233 0.905063L23.3932 0.888L23.3607 0.870281L23.3259 0.851859C23.2278 0.79875 23.1114 0.753797 22.9765 0.717047C22.8414 0.676139 22.701 0.655477 22.5598 0.655734C22.1758 0.655734 21.9837 0.764016 21.9837 0.980578C21.9837 1.10719 22.0532 1.19709 22.1921 1.2502L22.2238 1.26169L22.2574 1.27336L22.293 1.28522L22.3307 1.29722L22.3703 1.30945L22.412 1.32188C22.4191 1.32398 22.4263 1.32609 22.4335 1.32816L22.4782 1.34081L22.5248 1.35375L22.5735 1.36678L22.6241 1.38005L22.6768 1.3935L22.7595 1.41403L22.8172 1.42795C23.0582 1.48922 23.2666 1.55869 23.4423 1.63631C23.6146 1.7107 23.7475 1.80947 23.841 1.93266L23.8529 1.94888C23.951 2.07553 24 2.24302 24 2.45138C24 2.70469 23.9346 2.90897 23.8039 3.06427C23.6772 3.21539 23.5097 3.32573 23.3014 3.3952C23.093 3.46055 22.8682 3.49322 22.6272 3.49322C22.3494 3.49322 22.0736 3.45441 21.7999 3.37678C21.5392 3.30286 21.3063 3.20302 21.1012 3.0772L21.0706 3.05812L21.4015 2.41463C21.4546 2.46773 21.5425 2.52698 21.6651 2.59233C21.7917 2.65772 21.9388 2.71289 22.1063 2.7578C22.2738 2.8028 22.4515 2.82525 22.6395 2.82525C23.0153 2.82525 23.2033 2.72513 23.2033 2.52492C23.2033 2.39011 23.1155 2.29411 22.9398 2.23692L22.8975 2.22206L22.8532 2.20702L22.8067 2.19173L22.7581 2.17617L22.7074 2.16042L22.6545 2.14439L22.6274 2.13633L22.5713 2.11997L22.5132 2.10338L22.4529 2.08655L22.3906 2.06948L22.2931 2.04347L22.2595 2.03466C21.9082 1.9448 21.6467 1.83037 21.4751 1.69148C21.3075 1.54847 21.2238 1.34414 21.2238 1.07859C21.2238 0.841641 21.283 0.6435 21.4015 0.484172C21.5241 0.324797 21.6875 0.204281 21.8918 0.122578C22.1002 0.040875 22.3269 0 22.572 0ZM16.8887 0.00609375C17.148 0.00609375 17.3847 0.0533438 17.5987 0.147797L17.6242 0.159328C17.8448 0.257391 18.0328 0.390188 18.188 0.557672C18.3474 0.721125 18.4698 0.907031 18.5556 1.11539C18.6414 1.32375 18.6844 1.53619 18.6844 1.75275C18.6844 1.97747 18.6395 2.19398 18.5496 2.40239C18.4598 2.60667 18.333 2.79052 18.1695 2.95392C18.0102 3.1133 17.8203 3.23991 17.5997 3.33389C17.3791 3.42788 17.138 3.47484 16.8765 3.47484C16.6069 3.47484 16.3618 3.42788 16.1411 3.33389C15.9205 3.23583 15.7304 3.10514 15.571 2.94169C15.4117 2.77416 15.2891 2.58623 15.2033 2.37788C15.1177 2.16947 15.0746 1.95497 15.0746 1.73438C15.0746 1.50966 15.1196 1.29309 15.2095 1.08473C15.2944 0.887197 15.4159 0.707482 15.5675 0.555047L15.5895 0.533156C15.753 0.36975 15.9449 0.241031 16.1655 0.147094C16.3861 0.0531094 16.6272 0.00614062 16.8887 0.00614062V0.00609375ZM2.10206 0.0245625L3.59128 3.45038H2.80688L2.46366 2.6475H1.13377L0.790594 3.45033H0L1.49531 0.0245156L2.10206 0.0245625ZM6.48862 0.0245625L7.4325 1.23797L8.37623 0.0245156H9.17906L7.82466 1.75889L9.13617 3.45033H8.33334L7.43241 2.28595L6.5377 3.45033H5.72259L7.04025 1.75889L5.6797 0.0245156H6.48867L6.48862 0.0245625ZM12.4737 0.0088125V2.30123H13.0685L12.1669 3.04111V0.222375L12.4736 0.0088125H12.4737ZM16.8766 0.668016C16.6519 0.668016 16.4597 0.721125 16.3004 0.827344C16.1451 0.933562 16.0267 1.06837 15.945 1.23183C15.8632 1.39523 15.8224 1.56483 15.8224 1.74052C15.8224 1.92436 15.8654 2.10005 15.9512 2.26753C16.0369 2.43098 16.1574 2.56378 16.3126 2.66588C16.472 2.76806 16.662 2.81911 16.8826 2.81911C17.1073 2.81911 17.2973 2.766 17.4525 2.65973C17.6079 2.54944 17.7263 2.41256 17.808 2.24911C17.8897 2.08162 17.9307 1.91006 17.9307 1.73438C17.9307 1.55053 17.8878 1.37686 17.802 1.21345C17.7162 1.05 17.5936 0.919266 17.4342 0.821203C17.2789 0.719062 17.0931 0.668016 16.8766 0.668016ZM1.80178 0.925312L1.29923 2.00405H2.28595L1.80173 0.925453L1.80178 0.925312Z" fill="#5A29E4"/>
</g>
<defs>
<clipPath id="clip0_126_53">
<rect width="24" height="3.51562" fill="white"/>
</clipPath>
</defs>
</svg>
