<svg width="77" height="77" viewBox="0 0 77 77" fill="none" xmlns="http://www.w3.org/2000/svg">
<path d="M35.7268 0.091441C35.4357 0.122121 34.5267 0.2298 33.7248 0.324246C30.492 0.693003 26.8261 1.66393 23.609 3.01925C11.9657 7.88408 3.20275 18.5576 0.785074 30.8C0.215996 33.7116 0.0776367 35.1421 0.0776367 38.5C0.0776367 42.8282 0.507754 45.815 1.64771 49.5892C5.37439 61.9393 15.0764 71.6256 27.4584 75.3668C31.185 76.4923 34.188 76.9224 38.5 76.9224C42.8283 76.9224 45.815 76.4923 49.5892 75.3523C61.9393 71.6256 71.6257 61.9236 75.3668 49.5417C76.4923 45.815 76.9224 42.812 76.9224 38.5C76.9224 36.667 76.831 34.5736 76.7227 33.8024C75.4751 24.9017 71.8092 17.417 65.6973 11.3028C59.5968 5.2354 52.1435 1.55564 43.4268 0.308003C42.2261 0.138363 36.6665 -0.0168403 35.7268 0.091441ZM23.1764 24.3464C23.9946 24.5931 24.3772 24.8241 24.9318 25.3781C26.0104 26.473 26.257 27.0727 26.257 28.7198C26.257 29.9536 26.2101 30.184 25.8414 30.8301C25.1315 32.0308 23.4844 33.1401 22.3451 33.1702C21.5432 33.187 21.5763 32.8321 22.4534 31.9087C23.6234 30.6917 23.7924 30.2303 23.7924 28.4118C23.778 26.657 23.562 26.0573 22.7463 25.564C22.0678 25.1483 21.3296 25.179 20.251 25.6861C17.4478 27.0276 14.4141 31.493 13.2296 36.0679C11.6577 42.1659 14.4448 47.0464 19.0341 46.2144C20.3732 45.9678 22.8991 44.6756 23.9946 43.6578C24.9017 42.8282 24.9017 42.812 24.9932 41.7809C25.1953 39.6231 26.7178 37.4683 28.7529 36.4673C29.6902 36.0041 29.923 35.9596 31.185 35.9596C32.3858 35.9596 32.6631 36.021 33.2484 36.3428C35.1114 37.4076 34.7264 39.886 32.71 39.886C31.54 39.886 30.9384 39.2844 31.7866 38.9632C32.6186 38.6552 32.3082 37.499 31.3402 37.2379C30.2003 36.9444 28.9057 37.715 28.09 39.193C27.1034 40.9796 27.0583 43.1056 27.9962 44.0741C28.9057 45.0444 30.0451 44.2762 30.924 42.0715C31.3848 40.9484 32.0471 40.3468 32.8183 40.3468C33.495 40.3468 33.6196 40.7631 33.3254 42.027C32.8935 43.982 33.187 44.4898 34.404 43.8906C34.8034 43.7047 35.4664 43.2752 35.8658 42.9672L36.6202 42.3656L37.1303 39.7007C37.6849 36.714 37.8985 36.3121 39.0384 36.0986C40.1333 35.8964 40.3799 36.4366 39.9781 38.1451L39.7615 39.1016L40.5634 38.2834C42.4571 36.3428 44.7834 35.3887 45.5846 36.19C46.0148 36.6201 45.9678 37.1603 45.3524 39.0685C45.0607 39.978 44.6588 41.4116 44.476 42.2267C44.1986 43.4581 44.1818 43.7516 44.3376 43.952C44.8309 44.5367 46.339 43.9351 47.6787 42.6261L48.4637 41.8579L48.5576 40.1471C48.649 38.1758 48.8325 37.4683 49.3564 36.8361C49.8497 36.2514 50.743 35.8212 51.2201 35.9434C51.6971 36.0679 51.6971 36.5287 51.267 37.8846C50.6654 39.7476 50.7286 44.0434 51.3446 44.0434C51.5912 44.0434 52.8527 42.72 53.6546 41.6113L54.2538 40.7932L53.7767 40.3023C52.9448 39.424 52.745 38.8549 52.745 37.4214C52.745 36.3759 52.8226 35.9903 53.0831 35.4802C53.5156 34.6813 54.1924 34.0966 54.9937 33.8638C55.8395 33.6027 56.8874 34.0328 57.3175 34.8034C57.75 35.5884 57.6424 37.3438 57.0871 38.5469L56.6877 39.4234H57.2261C57.966 39.4234 58.2578 39.2399 59.583 37.9923C60.276 37.33 61.0773 36.7591 61.6764 36.4818C64.0334 35.3749 66.8066 35.9434 67.2668 37.6374C67.6518 38.9933 66.8066 39.9474 65.3261 39.8391C64.2638 39.7621 64.064 39.4842 64.68 38.9632C65.7887 38.0368 64.68 36.8529 63.0937 37.283C62.2311 37.5152 61.2608 38.4838 60.7536 39.6093C59.7358 41.8579 60.276 44.506 61.7378 44.506C62.3231 44.506 63.3566 43.3504 63.756 42.2267C64.2331 40.9321 65.2341 40.117 65.9884 40.41C66.4047 40.5634 66.4354 40.979 66.1743 42.288C65.8808 43.7216 65.8356 45.0612 66.066 45.6766C66.1581 45.9064 66.4354 46.339 66.6983 46.6307C67.1892 47.1848 67.206 47.3851 66.7897 47.648C66.59 47.7863 66.3265 47.7256 65.681 47.3713C64.7877 46.908 64.0171 46.0761 63.7398 45.291L63.5708 44.8302L62.9548 45.291C62.5998 45.5377 62.0458 45.815 61.7234 45.9064C60.445 46.2451 58.8732 45.3686 58.1356 43.8906C57.8415 43.3191 57.75 41.642 57.966 40.9953C58.0887 40.6404 58.0887 40.6404 57.5948 40.887C57.3344 41.026 56.7797 41.1788 56.3496 41.2257C55.6398 41.3039 55.5315 41.3809 54.8246 42.2736C53.8236 43.5188 52.0514 45.1996 51.3278 45.5545C49.789 46.3227 49.2812 46.1068 48.8794 44.5198L48.6021 43.4581L47.9392 44.0434C47.0934 44.7833 45.3994 45.6766 44.4284 45.8926C43.505 46.0923 42.5185 45.7988 42.1184 45.1828C41.5199 44.2594 41.7196 42.3043 42.6731 39.67C43.3805 37.715 42.8734 37.6849 41.0874 39.5479C39.7621 40.9484 39.193 41.9494 38.8243 43.505C38.4393 45.122 37.9761 45.7067 36.9306 45.9534C36.2983 46.0923 36.0042 45.7067 36.1293 44.8609L36.2207 44.1818L35.6354 44.5836C34.8034 45.1527 33.7555 45.6766 33.0318 45.8764C32.3082 46.0761 31.3541 45.8619 31.1237 45.4601C30.708 44.7532 30.708 44.7532 30.0619 45.2604C28.6591 46.4003 26.6571 46.0761 25.6416 44.5674L25.3168 44.0903L24.302 45.03C21.3742 47.7093 17.7106 48.91 14.9994 48.0781C11.5494 47.0326 9.64128 44.0741 9.67196 39.809C9.68639 35.5277 11.5801 31.016 14.769 27.6743C16.5713 25.7944 18.2653 24.6851 19.9906 24.2694C21.2358 23.9614 21.9926 23.9771 23.1764 24.3464Z" fill="#00C4CC"/>
<path d="M54.3922 35.2973C54.0535 35.6354 54.1781 36.9913 54.6088 37.8539C54.8247 38.3003 55.0551 38.6552 55.1321 38.6552C55.1935 38.6552 55.3319 38.3003 55.4401 37.8678C55.8251 36.2676 55.1321 34.5568 54.3922 35.2973Z" fill="#00C4CC"/>
</svg>
