<svg width="77" height="77" viewBox="0 0 77 77" fill="none" xmlns="http://www.w3.org/2000/svg">
<path d="M77 59.6365C75.8794 60.0604 74.6423 60.0594 73.5223 59.6339C72.4023 59.2083 71.4767 58.3876 70.9202 57.3265L59.8515 42.0195L58.2473 39.8796L45.4044 57.3457C44.8814 58.3623 44.006 59.1536 42.942 59.5717C41.8779 59.9897 40.6981 60.0059 39.623 59.6172L56.1715 37.4156L40.778 17.3603C41.8848 16.9614 43.0953 16.9561 44.2056 17.3453C45.3159 17.7345 46.2582 18.4944 46.8738 19.497L58.3468 34.9933L69.884 19.5612C70.411 18.5627 71.2866 17.7927 72.3442 17.3976C73.4019 17.0025 74.5678 17.0097 75.6205 17.418L69.6465 25.3458L61.5551 35.8788C61.3304 36.0792 61.1506 36.3249 61.0275 36.5997C60.9044 36.8745 60.8407 37.1722 60.8407 37.4733C60.8407 37.7744 60.9044 38.0722 61.0275 38.347C61.1506 38.6218 61.3304 38.8674 61.5551 39.0679L76.968 59.6397L77 59.6365ZM0.00645516 37.1397L1.35396 30.4824C5.05637 17.3186 20.1484 11.842 30.5305 19.9911C36.6103 24.7683 38.1279 31.5315 37.8295 39.1545H3.58054C3.0255 52.7675 12.8494 60.9872 25.41 56.7875C27.4462 56.0546 29.2688 54.828 30.7146 53.2176C32.1603 51.6073 33.184 49.6635 33.694 47.5603C34.3581 45.4236 35.4521 45.0578 37.4605 45.6738C37.1259 48.2802 36.2045 50.7768 34.7658 52.9757C33.327 55.1747 31.4084 57.0187 29.1542 58.3692C25.4306 60.4059 21.1584 61.2132 16.9485 60.6756C12.7385 60.138 8.80627 58.283 5.71408 55.3758C2.65663 51.9345 0.808783 47.5876 0.452414 42.9981C0.452414 42.2441 0.195747 41.5383 0.0224968 40.8613C0.00687875 39.6219 -0.000607521 38.3824 3.84881e-05 37.1429L0.00645516 37.1397ZM3.62225 36.2221H34.5955C34.403 26.3532 28.1756 19.3527 19.8692 19.2885C10.6228 19.1602 4.00725 26.0067 3.59979 36.1772L3.62225 36.2221Z" fill="white"/>
</svg>
