<svg width="45" height="67" viewBox="0 0 45 67" fill="none" xmlns="http://www.w3.org/2000/svg">
<path d="M11.25 67C17.46 67 22.5 61.9973 22.5 55.8333V44.6667H11.25C5.04 44.6667 0 49.6693 0 55.8333C0 61.9973 5.04 67 11.25 67Z" fill="#0ACF83"/>
<path d="M0 33.5C0 27.336 5.04 22.3333 11.25 22.3333H22.5V44.6667H11.25C5.04 44.6667 0 39.664 0 33.5Z" fill="#A259FF"/>
<path d="M0 11.1667C0 5.00267 5.04 0 11.25 0H22.5V22.3333H11.25C5.04 22.3333 0 17.3307 0 11.1667Z" fill="#F24E1E"/>
<path d="M22.5 0H33.75C39.96 0 45 5.00267 45 11.1667C45 17.3307 39.96 22.3333 33.75 22.3333H22.5V0Z" fill="#FF7262"/>
<path d="M45 33.5C45 39.664 39.96 44.6667 33.75 44.6667C27.54 44.6667 22.5 39.664 22.5 33.5C22.5 27.336 27.54 22.3333 33.75 22.3333C39.96 22.3333 45 27.336 45 33.5Z" fill="#1ABCFE"/>
</svg>
