<svg width="24" height="24" viewBox="0 0 24 24" fill="none" xmlns="http://www.w3.org/2000/svg">
<path d="M16.125 7.5H7.875C7.66789 7.5 7.5 7.66789 7.5 7.875V16.125C7.5 16.3321 7.66789 16.5 7.875 16.5H16.125C16.3321 16.5 16.5 16.3321 16.5 16.125V7.875C16.5 7.66789 16.3321 7.5 16.125 7.5Z" fill="#9DAAF2"/>
<path d="M21.75 9C21.9489 9 22.1397 8.92098 22.2803 8.78033C22.421 8.63968 22.5 8.44891 22.5 8.25C22.5 8.05109 22.421 7.86032 22.2803 7.71967C22.1397 7.57902 21.9489 7.5 21.75 7.5H21V6C20.9991 5.20462 20.6828 4.44206 20.1204 3.87964C19.5579 3.31722 18.7954 3.00087 18 3H16.5V2.25C16.5 2.05109 16.421 1.86032 16.2803 1.71967C16.1397 1.57902 15.9489 1.5 15.75 1.5C15.5511 1.5 15.3603 1.57902 15.2197 1.71967C15.079 1.86032 15 2.05109 15 2.25V3H12.75V2.25C12.75 2.05109 12.671 1.86032 12.5303 1.71967C12.3897 1.57902 12.1989 1.5 12 1.5C11.8011 1.5 11.6103 1.57902 11.4697 1.71967C11.329 1.86032 11.25 2.05109 11.25 2.25V3H9V2.25C9 2.05109 8.92098 1.86032 8.78033 1.71967C8.63968 1.57902 8.44891 1.5 8.25 1.5C8.05109 1.5 7.86032 1.57902 7.71967 1.71967C7.57902 1.86032 7.5 2.05109 7.5 2.25V3H6C5.20462 3.00087 4.44206 3.31722 3.87964 3.87964C3.31722 4.44206 3.00087 5.20462 3 6V7.5H2.25C2.05109 7.5 1.86032 7.57902 1.71967 7.71967C1.57902 7.86032 1.5 8.05109 1.5 8.25C1.5 8.44891 1.57902 8.63968 1.71967 8.78033C1.86032 8.92098 2.05109 9 2.25 9H3V11.25H2.25C2.05109 11.25 1.86032 11.329 1.71967 11.4697C1.57902 11.6103 1.5 11.8011 1.5 12C1.5 12.1989 1.57902 12.3897 1.71967 12.5303C1.86032 12.671 2.05109 12.75 2.25 12.75H3V15H2.25C2.05109 15 1.86032 15.079 1.71967 15.2197C1.57902 15.3603 1.5 15.5511 1.5 15.75C1.5 15.9489 1.57902 16.1397 1.71967 16.2803C1.86032 16.421 2.05109 16.5 2.25 16.5H3V18C3.00087 18.7954 3.31722 19.5579 3.87964 20.1204C4.44206 20.6828 5.20462 20.9991 6 21H7.5V21.75C7.5 21.9489 7.57902 22.1397 7.71967 22.2803C7.86032 22.421 8.05109 22.5 8.25 22.5C8.44891 22.5 8.63968 22.421 8.78033 22.2803C8.92098 22.1397 9 21.9489 9 21.75V21H11.25V21.75C11.25 21.9489 11.329 22.1397 11.4697 22.2803C11.6103 22.421 11.8011 22.5 12 22.5C12.1989 22.5 12.3897 22.421 12.5303 22.2803C12.671 22.1397 12.75 21.9489 12.75 21.75V21H15V21.75C15 21.9489 15.079 22.1397 15.2197 22.2803C15.3603 22.421 15.5511 22.5 15.75 22.5C15.9489 22.5 16.1397 22.421 16.2803 22.2803C16.421 22.1397 16.5 21.9489 16.5 21.75V21H18C18.7954 20.9991 19.5579 20.6828 20.1204 20.1204C20.6828 19.5579 20.9991 18.7954 21 18V16.5H21.75C21.9489 16.5 22.1397 16.421 22.2803 16.2803C22.421 16.1397 22.5 15.9489 22.5 15.75C22.5 15.5511 22.421 15.3603 22.2803 15.2197C22.1397 15.079 21.9489 15 21.75 15H21V12.75H21.75C21.9489 12.75 22.1397 12.671 22.2803 12.5303C22.421 12.3897 22.5 12.1989 22.5 12C22.5 11.8011 22.421 11.6103 22.2803 11.4697C22.1397 11.329 21.9489 11.25 21.75 11.25H21V9H21.75ZM18 16.5C18 16.8978 17.842 17.2794 17.5607 17.5607C17.2794 17.842 16.8978 18 16.5 18H7.5C7.10218 18 6.72064 17.842 6.43934 17.5607C6.15804 17.2794 6 16.8978 6 16.5V7.5C6 7.10218 6.15804 6.72064 6.43934 6.43934C6.72064 6.15804 7.10218 6 7.5 6H16.5C16.8978 6 17.2794 6.15804 17.5607 6.43934C17.842 6.72064 18 7.10218 18 7.5V16.5Z" fill="#9DAAF2"/>
</svg>
