<svg width="24" height="25" viewBox="0 0 24 25" fill="none" xmlns="http://www.w3.org/2000/svg">
<g clip-path="url(#clip0_127_65)">
<path d="M13.8174 6.47541L13.7933 0H10.1826L10.2067 6.47541L12.012 8.95491L13.8174 6.47541ZM10.2067 17.5727V24.0722H13.8174V17.5727L12.012 15.0933L10.2067 17.5727Z" fill="white"/>
<path d="M13.8175 17.5727L17.6209 22.8204L20.5336 20.7021L16.7302 15.4544L13.8175 14.5155V17.5727ZM10.2067 6.4754L6.37915 1.22765L3.46643 3.34603L7.26987 8.59378L10.2067 9.53259V6.4754Z" fill="#00F2E6"/>
<path d="M7.26984 8.59378L1.10728 6.59578L0 10.014L6.16247 12.0361L9.07519 11.0732L7.26984 8.59378ZM14.9248 12.9749L16.7302 15.4544L22.8927 17.4523L24 14.0341L17.8375 12.0361L14.9248 12.9749Z" fill="#00B9F1"/>
<path d="M17.8375 12.0361L24 10.014L22.8927 6.59578L16.7302 8.59378L14.9248 11.0732L17.8375 12.0361ZM6.16247 12.0361L0 14.0341L1.10728 17.4523L7.26984 15.4544L9.07519 12.9749L6.16247 12.0361Z" fill="#D63AFF"/>
<path d="M7.26987 15.4544L3.46643 20.7021L6.37915 22.8204L10.2067 17.5727V14.5155L7.26987 15.4544ZM16.7302 8.59378L20.5336 3.34603L17.6209 1.22765L13.8175 6.4754V9.53259L16.7302 8.59378Z" fill="#FB015B"/>
</g>
<defs>
<clipPath id="clip0_127_65">
<rect width="24" height="24.0938" fill="white"/>
</clipPath>
</defs>
</svg>
