<svg width="61" height="69" viewBox="0 0 61 69" fill="none" xmlns="http://www.w3.org/2000/svg">
<path d="M30.5001 68.1875C29.5912 68.1879 28.6982 67.9489 27.9109 67.4945L19.672 62.6171C18.4424 61.9289 19.0415 61.6859 19.4482 61.5439C20.7559 61.1399 22.008 60.574 23.1755 59.8595C23.2732 59.8143 23.3808 59.7948 23.4882 59.8028C23.5955 59.8108 23.6991 59.846 23.789 59.9052L30.1199 63.6662C30.2378 63.7286 30.3691 63.7612 30.5025 63.7612C30.6358 63.7612 30.7672 63.7286 30.8851 63.6662L55.5732 49.4164C55.6887 49.3472 55.7843 49.2491 55.8505 49.1319C55.9167 49.0146 55.9514 48.8821 55.951 48.7474V20.243C55.9511 20.1062 55.9159 19.9717 55.8489 19.8524C55.7819 19.7331 55.6853 19.6331 55.5684 19.562L30.8803 5.32426C30.7638 5.25869 30.6325 5.22425 30.4989 5.22425C30.3653 5.22425 30.2339 5.25869 30.1175 5.32426L5.44379 19.5669C5.3261 19.6365 5.22838 19.7353 5.16008 19.8537C5.09179 19.9722 5.05524 20.1063 5.05398 20.243V48.7354C5.05432 48.8698 5.09037 49.0017 5.15845 49.1175C5.22652 49.2334 5.32417 49.329 5.44139 49.3947L12.2126 53.3025C15.8821 55.136 18.1295 52.9752 18.1295 50.8048V22.6733C18.1295 22.4819 18.2056 22.2983 18.341 22.1629C18.4764 22.0275 18.66 21.9514 18.8514 21.9514H21.9795C22.171 21.9514 22.3546 22.0275 22.49 22.1629C22.6254 22.2983 22.7014 22.4819 22.7014 22.6733V50.8072C22.7014 55.7039 20.0353 58.5072 15.3912 58.5072C13.3877 58.5421 11.4157 58.0063 9.70526 56.9624L3.21561 53.2399C2.42777 52.7811 1.77406 52.1237 1.31974 51.3333C0.865419 50.5429 0.626378 49.6471 0.626482 48.7354V20.243C0.62414 19.3299 0.86217 18.4323 1.31665 17.6403C1.77113 16.8483 2.42606 16.19 3.21561 15.7313L27.9061 1.47667C28.7015 1.04154 29.5935 0.813477 30.5001 0.813477C31.4067 0.813477 32.2987 1.04154 33.094 1.47667L57.7821 15.7313C58.5699 16.1892 59.2237 16.8457 59.6785 17.6352C60.1332 18.4248 60.3729 19.3198 60.3737 20.231V48.7354C60.3723 49.6471 60.1324 50.5425 59.6778 51.3328C59.2231 52.123 58.5696 52.7805 57.7821 53.2399L33.094 67.4945C32.3053 67.9496 31.4106 68.1886 30.5001 68.1875Z" fill="#83CD29"/>
</svg>
