<svg width="87" height="77" viewBox="0 0 87 77" fill="none" xmlns="http://www.w3.org/2000/svg">
<path d="M71.0842 24.9317C70.1641 24.6161 69.2362 24.3236 68.3014 24.0547C68.4584 23.413 68.603 22.7791 68.7313 22.1564C70.838 11.9299 69.4608 3.69121 64.7567 0.978652C60.2464 -1.62179 52.8703 1.08976 45.4209 7.57296C44.6867 8.21305 43.9688 8.87159 43.2679 9.54794C42.7987 9.09819 42.3212 8.65716 41.8357 8.2251C34.0283 1.29307 26.2026 -1.62854 21.5036 1.09179C16.9974 3.70033 15.6631 11.4452 17.5597 21.1371C17.7484 22.097 17.9615 23.0519 18.1987 24.001C17.091 24.3157 16.0221 24.6507 14.9991 25.0074C5.84558 28.1988 0 33.2001 0 38.3878C0 43.7457 6.2755 49.1199 15.8093 52.3785C16.5822 52.6416 17.3616 52.8854 18.1467 53.1097C17.8917 54.1319 17.6653 55.1609 17.4679 56.1958C15.6597 65.7194 17.0717 73.2813 21.5657 75.8733C26.2074 78.5501 33.9979 75.799 41.5834 69.1679C42.1985 68.6288 42.8 68.0744 43.3875 67.5053C44.1465 68.2377 44.9258 68.9487 45.7245 69.6377C53.0726 75.9604 60.3295 78.5136 64.8191 75.9145C69.4564 73.23 70.9636 65.1065 69.0069 55.2231C68.8527 54.4488 68.6799 53.6784 68.4885 52.9125C69.0356 52.7503 69.5725 52.5835 70.096 52.4099C80.0074 49.1263 86.4561 43.8173 86.4561 38.3878C86.4561 33.1812 80.4218 28.1461 71.0842 24.9317ZM68.9346 48.9044C68.4618 49.0608 67.9768 49.2117 67.4824 49.3586C66.3882 45.8946 64.9117 42.2115 63.1045 38.4057C64.8289 34.6908 66.2487 31.0546 67.3122 27.6132C68.1967 27.8692 69.0548 28.1391 69.8822 28.4237C77.8828 31.1782 82.7628 35.2501 82.7628 38.3878C82.7628 41.7299 77.4924 46.0686 68.9346 48.9044ZM65.3838 55.9404C66.249 60.3105 66.3723 64.2618 65.7992 67.351C65.2845 70.1267 64.2491 71.9771 62.9684 72.7183C60.2441 74.2955 54.4174 72.2455 48.1334 66.838C47.3906 66.1974 46.6657 65.5364 45.9595 64.8556C48.3958 62.1913 50.8305 59.0941 53.2067 55.6541C57.3863 55.2832 61.3349 54.6767 64.9157 53.849C65.0882 54.5423 65.2443 55.2397 65.3838 55.9404ZM29.4748 72.4458C26.8129 73.3857 24.6927 73.4127 23.411 72.6738C20.684 71.101 19.5502 65.0292 21.0966 56.8847C21.2805 55.9223 21.491 54.9652 21.7278 54.0144C25.2692 54.7979 29.1891 55.3613 33.3785 55.701C35.7709 59.0671 38.2758 62.1609 40.8002 64.8701C40.2637 65.3892 39.7145 65.895 39.1531 66.3871C35.7986 69.3192 32.4373 71.3996 29.4748 72.4458ZM17.0042 48.8838C12.7884 47.4428 9.30687 45.5701 6.92054 43.5266C4.77603 41.6904 3.69364 39.867 3.69364 38.3878C3.69364 35.2396 8.38692 31.2241 16.2149 28.495C17.1649 28.164 18.1592 27.8517 19.1909 27.5585C20.273 31.0775 21.692 34.757 23.4046 38.4777C21.6698 42.2534 20.2304 45.9916 19.1379 49.5521C18.4213 49.3469 17.7098 49.124 17.0042 48.8838ZM21.1845 20.4276C19.5597 12.1241 20.6387 5.86038 23.3543 4.2883C26.2465 2.61389 32.6423 5.00123 39.3835 10.987C39.8231 11.3782 40.2555 11.7773 40.6807 12.1842C38.1687 14.8815 35.6868 17.9524 33.3157 21.2985C29.2495 21.6754 25.3573 22.2806 21.7788 23.0915C21.5584 22.2088 21.3602 21.3203 21.1845 20.4276ZM58.4778 29.6365C57.6326 28.1765 56.756 26.7349 55.8486 25.3127C58.6071 25.6615 61.2501 26.1246 63.732 26.6906C62.987 29.0789 62.0583 31.5757 60.9651 34.1356C60.166 32.6195 59.3368 31.1195 58.4778 29.6365ZM43.2696 14.8238C44.9731 16.6694 46.6792 18.7299 48.3573 20.9656C44.9531 20.8048 41.5433 20.8041 38.139 20.9635C39.8188 18.7484 41.5395 16.6907 43.2696 14.8238ZM27.9638 29.6618C27.1156 31.1329 26.3018 32.6235 25.5231 34.1326C24.4478 31.5818 23.5276 29.0735 22.7761 26.6514C25.2428 26.0996 27.8733 25.6484 30.6143 25.3059C29.6968 26.7368 28.8131 28.1894 27.9638 29.6618ZM30.6929 51.7325C27.8612 51.4164 25.1912 50.9885 22.7251 50.4515C23.4884 47.9861 24.4289 45.4245 25.5275 42.819C26.3093 44.3292 27.1265 45.8207 27.9784 47.2925C28.8544 48.8055 29.7615 50.2874 30.6929 51.7325ZM43.3716 62.2119C41.6209 60.3234 39.8749 58.2339 38.1697 55.9867C39.8252 56.0516 41.5128 56.0847 43.2281 56.0847C44.9903 56.0847 46.7322 56.0451 48.4468 55.9688C46.7633 58.2565 45.0636 60.349 43.3716 62.2119ZM60.9999 42.686C62.1555 45.3202 63.1295 47.8683 63.9029 50.2914C61.3964 50.8635 58.6899 51.3242 55.8382 51.6663C56.752 50.2176 57.6369 48.751 58.4923 47.2671C59.362 45.7589 60.1981 44.2314 60.9999 42.686ZM55.2931 45.4218C53.9835 47.6968 52.6002 49.9287 51.1456 52.1138C48.5105 52.3004 45.8697 52.3931 43.2281 52.3917C40.5375 52.3917 37.9205 52.3079 35.4004 52.1445C33.9078 49.9644 32.4981 47.7287 31.1745 45.4421C29.8572 43.1676 28.627 40.8439 27.486 38.476C28.6241 36.1075 29.8508 33.7827 31.1637 31.5065L31.1634 31.5068C32.4758 29.23 33.8741 27.0038 35.3555 24.8331C37.9266 24.6386 40.5631 24.5373 43.2277 24.5373C45.9045 24.5373 48.5448 24.6396 51.1152 24.8355C52.5816 27.0029 53.971 29.2214 55.2809 31.4869C56.5982 33.7581 57.8412 36.0716 59.008 38.4236C57.8532 40.7997 56.6141 43.1339 55.2931 45.4218ZM62.912 4.1782C65.807 5.84789 66.9329 12.581 65.114 21.4107C64.9978 21.974 64.8674 22.5478 64.7256 23.1297C61.1383 22.3016 57.2434 21.6859 53.1655 21.3033C50.7899 17.9203 48.3283 14.8447 45.8572 12.1822C46.5048 11.5579 47.1679 10.9498 47.8457 10.3585C54.2286 4.804 60.1941 2.61085 62.912 4.1782ZM43.2281 30.6676C47.4918 30.6676 50.9483 34.1241 50.9483 38.3878C50.9483 42.6515 47.4918 46.1081 43.2281 46.1081C38.9644 46.1081 35.5078 42.6515 35.5078 38.3878C35.5078 34.1241 38.9644 30.6676 43.2281 30.6676Z" fill="#00D8FF"/>
</svg>
