<svg width="69" height="51" viewBox="0 0 69 51" fill="none" xmlns="http://www.w3.org/2000/svg">
<path d="M58.8272 29.2826C56.7114 29.2854 54.6239 29.7692 52.7225 30.6975C52.1273 29.7096 51.6675 28.6461 51.3558 27.5357C51.1767 26.6652 51.1353 25.7721 51.2331 24.8888C51.4388 23.9168 51.7056 22.9589 52.032 22.0205C52.0199 21.8978 51.8852 21.3179 50.5305 21.2987C49.1757 21.2794 48.0087 21.5561 47.8836 21.9147C47.6483 22.5695 47.4593 23.2401 47.3181 23.9215C46.1969 26.6875 44.8168 29.3414 43.1962 31.8477C42.2882 30.3592 41.9148 28.6056 42.1375 26.8764C42.3431 25.9044 42.61 24.9464 42.9363 24.0081C42.9243 23.8854 42.7896 23.3055 41.4348 23.2862C40.0801 23.267 38.9131 23.5437 38.788 23.9022C38.6628 24.2608 38.504 25.1054 38.2225 25.909C37.941 26.7127 34.654 34.0566 33.7926 35.9503C33.3498 36.9128 32.9672 37.6973 32.6977 38.2266C32.685 38.261 32.6688 38.2941 32.6496 38.3253L32.2815 39.0279V39.0399C32.0962 39.372 31.8989 39.68 31.8002 39.68C31.6281 38.9925 31.6364 38.2723 31.8243 37.589C32.3055 35.0408 33.4846 31.0801 33.4725 30.9429C33.4725 30.8683 33.6939 30.1801 32.7098 29.824C32.4815 29.7154 32.2252 29.6802 31.9761 29.7233C31.727 29.7664 31.4974 29.8856 31.319 30.0646C31.2323 30.0646 31.1722 30.274 31.1722 30.274C31.1722 30.274 32.243 25.82 29.1293 25.82C27.9167 26.0639 26.7652 26.5478 25.7425 27.2433C24.7197 27.9388 23.8464 28.8318 23.1738 29.8697C22.3364 30.3245 20.5534 31.2966 18.6452 32.3433C17.9234 32.75 17.1678 33.1567 16.4676 33.5465C16.4195 33.4984 16.3689 33.4358 16.3208 33.3877C12.531 29.35 5.56486 26.501 5.86564 21.0989C5.97633 19.1306 6.65249 13.962 19.242 7.6841C29.6033 2.57804 37.8495 3.99291 39.2764 7.13066C41.3193 11.6111 34.8586 19.9295 24.1531 21.135C22.9688 21.3753 21.7456 21.3463 20.574 21.0502C19.4024 20.7541 18.3123 20.1984 17.3844 19.4242C16.8189 18.8082 16.7323 18.7721 16.5229 18.8948C16.1788 19.0801 16.4002 19.6335 16.5229 19.9536C16.9313 20.6926 17.4837 21.3424 18.1475 21.8644C18.8112 22.3863 19.5728 22.77 20.3874 22.9927C24.5989 23.9028 28.9898 23.4676 32.9408 21.7486C39.4376 19.2389 44.4908 12.2608 43.0085 6.41601C41.5191 0.484601 31.6751 -1.47168 22.3581 1.84413C16.5223 3.80781 11.1301 6.90087 6.48886 10.947C1.35633 15.7474 0.545426 19.9175 0.877488 21.6668C2.08061 27.8701 10.6252 31.9054 14.0445 34.9012C13.89 34.989 13.7344 35.0749 13.5777 35.1587C11.8668 36.0081 5.34589 39.4177 3.71205 43.0223C1.86646 47.1129 4.00802 50.0365 5.42289 50.4311C7.55485 50.9415 9.79295 50.7734 11.8247 49.9503C13.8565 49.1272 15.5806 47.6903 16.7563 45.84C17.7575 44.3053 18.3729 42.5514 18.5501 40.7277C18.7273 38.9039 18.4611 37.0643 17.7742 35.3656C17.7626 35.3381 17.7463 35.3129 17.7261 35.291L19.0663 34.5042C19.8807 34.0227 20.7055 33.559 21.54 33.1133C21.039 34.5582 20.745 36.0666 20.6665 37.5938C20.4964 39.9345 21.2128 42.2536 22.6733 44.0907C22.8955 44.282 23.1535 44.4273 23.4324 44.5181C23.7112 44.609 24.0052 44.6436 24.2975 44.62C25.7413 44.62 26.403 43.4169 27.1273 41.9876C28.0128 40.2407 28.8116 38.2098 28.8116 38.2098C28.8116 38.2098 27.8155 43.6984 30.5225 43.6984C31.5066 43.6984 32.5028 42.4183 32.948 41.7734V41.7855L33.0226 41.6628L33.1814 41.4053V41.3812C33.576 40.693 34.4615 39.129 35.7777 36.5326C37.4766 33.1855 39.1128 29.0011 39.1128 29.0011C39.2706 29.9207 39.4884 30.829 39.7649 31.7201C40.1612 32.8004 40.6299 33.8527 41.1677 34.8699C40.7731 35.4233 40.5277 35.7314 40.5277 35.7314L40.5397 35.7434C40.2197 36.1621 39.8756 36.6169 39.493 37.0596C38.3547 38.3111 37.2985 39.6349 36.3312 41.0227C36.1874 41.2558 36.138 41.535 36.193 41.8032C36.248 42.0715 36.4033 42.3087 36.6271 42.4664C37.1337 42.73 37.7111 42.8253 38.2754 42.7383C39.1259 42.6903 39.9622 42.4992 40.7491 42.1729C41.5095 41.9053 42.2268 41.5284 42.8786 41.054C43.5505 40.5885 44.0913 39.958 44.4491 39.223C44.8069 38.4881 44.9696 37.6735 44.9215 36.8575C44.8458 35.8296 44.5833 34.8242 44.1467 33.8906C44.2694 33.7173 44.3873 33.5465 44.5028 33.3732C45.8708 31.3312 47.1039 29.202 48.194 26.9991C48.3518 27.9187 48.5696 28.827 48.8461 29.7181C49.173 30.6516 49.5753 31.557 50.0492 32.4252C48.4754 33.636 47.2357 35.2276 46.4471 37.05C45.6722 39.2902 46.2738 40.2984 47.4095 40.5318C48.031 40.5747 48.6524 40.4474 49.207 40.1637C50.0224 39.8957 50.7906 39.501 51.4833 38.9942C52.2138 38.5631 52.8255 37.9572 53.2636 37.231C53.7017 36.5048 53.9524 35.681 53.993 34.8338C53.9384 33.9882 53.7475 33.1569 53.4276 32.3722C55.5044 31.5609 57.7562 31.3022 59.963 31.6215C65.8198 32.3097 66.9772 35.9648 66.7558 37.5048C66.652 38.0507 66.4325 38.5681 66.1121 39.0221C65.7917 39.4762 65.3777 39.8564 64.8982 40.1372C64.4915 40.3947 64.3568 40.4813 64.3929 40.6666C64.441 40.9385 64.6335 40.924 64.9824 40.8759C65.8651 40.6016 66.6439 40.0661 67.2161 39.3401C67.7883 38.6141 68.127 37.7317 68.1875 36.8094C68.3728 33.2 64.9271 29.2417 58.8344 29.2778L58.8272 29.2826ZM13.6378 44.5093C11.6936 46.6269 8.98655 47.4257 7.81711 46.7496C6.56105 46.0277 7.05433 42.8996 9.44133 40.6569C10.8573 39.3823 12.3877 38.241 14.0132 37.2473C14.2971 37.074 14.7158 36.8286 15.2163 36.5254L15.3511 36.4508L15.6471 36.2655C16.0735 37.6944 16.1122 39.2109 15.7591 40.6596C15.406 42.1083 14.6739 43.437 13.6378 44.5093ZM27.789 34.8843C27.1128 36.5326 25.698 40.7556 24.8365 40.5198C24.0978 40.3225 23.6334 37.1222 24.6897 33.9604C25.2231 32.4383 26 31.0129 26.9901 29.7398C28.0489 28.5583 29.2183 28.1637 29.4998 28.6449C29.243 30.7982 28.6664 32.9012 27.789 34.8843ZM39.4665 40.4717C39.1826 40.6184 38.9131 40.7123 38.7904 40.6449C38.7037 40.5968 38.9131 40.4043 38.9131 40.4043C38.9131 40.4043 40.3785 38.8282 40.956 38.1159C41.2881 37.6973 41.6779 37.2064 42.1014 36.6505V36.8094C42.1014 38.691 40.2798 39.9591 39.4689 40.4765L39.4665 40.4717ZM48.4755 38.4167C48.2662 38.2699 48.3023 37.7767 49.0049 36.2391C49.4934 35.2516 50.176 34.3726 51.0117 33.6548C51.1398 34.019 51.2065 34.402 51.209 34.7881C51.2185 35.6099 50.9557 36.4118 50.4617 37.0686C49.9677 37.7254 49.2701 38.2003 48.4779 38.4191L48.4755 38.4167Z" fill="#CD6799"/>
</svg>
