<svg width="68" height="77" viewBox="0 0 68 77" fill="none" xmlns="http://www.w3.org/2000/svg">
<path d="M58.0126 14.4989C55.9689 14.3445 53.9251 14.1913 51.8812 14.0393C51.8812 14.0393 47.8149 9.97967 47.3686 9.53033C47.2016 9.36314 46.9764 9.27744 46.7409 9.24052L43.4561 76.8088L66.9934 71.6883C66.9934 71.6883 58.7298 15.5055 58.6779 15.1205C58.6252 14.7355 58.2898 14.5224 58.0126 14.4989Z" fill="#5E8E3E"/>
<path d="M58.678 15.1205C58.6253 14.7355 58.2899 14.5224 58.0127 14.4989C55.969 14.3445 53.9252 14.1913 51.8812 14.0393C51.8812 14.0393 47.815 9.97968 47.3687 9.53033C46.9221 9.08125 46.05 9.21785 45.7115 9.31806C45.6616 9.33282 44.8231 9.59309 43.4359 10.0248C42.0776 6.09408 39.6804 2.48193 35.4631 2.48193C35.3467 2.48193 35.2269 2.48668 35.107 2.49353C33.9077 0.898422 32.4219 0.205421 31.1386 0.205421C21.3146 0.205421 16.6211 12.5557 15.1495 18.8318C11.3321 20.0213 8.62025 20.867 8.27386 20.9764C6.14306 21.6486 6.07567 21.7161 5.79588 23.7353C5.58532 25.2639 0.0100098 68.6236 0.0100098 68.6236L43.454 76.8093L66.9935 71.6883C66.9935 71.6883 58.7299 15.5055 58.678 15.1205ZM41.0348 10.7716L37.3587 11.9158C37.36 11.6552 37.3614 11.3989 37.3614 11.1186C37.3614 8.67569 37.0241 6.70876 36.4832 5.14951C38.6562 5.42375 40.1034 7.91017 41.0348 10.7716ZM33.7876 5.63392C34.3917 7.15625 34.7845 9.341 34.7845 12.2891C34.7845 12.44 34.7832 12.5779 34.7819 12.7174C32.3912 13.4621 29.7934 14.2706 27.1899 15.0817C28.6517 9.40798 31.3919 6.66762 33.7876 5.63392ZM30.8688 2.85533C31.2928 2.85533 31.72 3.0001 32.1288 3.28305C28.9803 4.77295 25.6055 8.52538 24.1804 16.0189L18.1792 17.888C19.8485 12.1723 23.8125 2.85533 30.8688 2.85533Z" fill="#95BF46"/>
<path d="M35.463 27.5789L32.5605 36.2615C32.5605 36.2615 30.0175 34.8966 26.9002 34.8966C22.3303 34.8966 22.1003 37.7806 22.1003 38.5074C22.1003 42.4729 32.3793 43.9923 32.3793 53.2808C32.3793 60.5887 27.7703 65.2944 21.5557 65.2944C14.0981 65.2944 10.2844 60.627 10.2844 60.627L12.2812 53.9923C12.2812 53.9923 16.2014 57.3769 19.5093 57.3769C21.6708 57.3769 22.55 55.6655 22.55 54.415C22.55 49.2423 14.117 49.0116 14.117 40.5118C14.117 33.3579 19.223 26.435 29.5298 26.435C33.5011 26.435 35.463 27.5789 35.463 27.5789Z" fill="white"/>
</svg>
