<svg width="77" height="77" viewBox="0 0 77 77" fill="none" xmlns="http://www.w3.org/2000/svg">
<path d="M69.0305 4.8125H7.9695C6.22594 4.8125 4.8125 6.22594 4.8125 7.9695V69.0305C4.8125 70.7741 6.22594 72.1875 7.9695 72.1875H69.0305C70.7741 72.1875 72.1875 70.7741 72.1875 69.0305V7.9695C72.1875 6.22594 70.7741 4.8125 69.0305 4.8125Z" fill="#3178C6"/>
<path fill-rule="evenodd" clip-rule="evenodd" d="M43.9021 57.1701V64.5525C45.2434 65.2145 46.6729 65.6805 48.1467 65.9361C49.8498 66.2505 51.5786 66.4052 53.3105 66.3981C54.9984 66.4061 56.6825 66.2359 58.3347 65.8903C59.8181 65.5906 61.2335 65.0196 62.5096 64.206C63.6943 63.4412 64.6707 62.3945 65.3514 61.1597C66.5704 58.6026 66.7312 55.6678 65.7989 52.9928C65.4055 51.9925 64.8193 51.0793 64.0736 50.3051C63.2733 49.4818 62.3641 48.7718 61.3714 48.1948C60.2286 47.5254 59.0411 46.9353 57.8174 46.4286C56.8549 46.0292 55.9886 45.6409 55.2186 45.264C54.5347 44.9365 53.8802 44.5509 53.2624 44.1114C52.7784 43.7721 52.3581 43.3502 52.0207 42.8649C51.7292 42.4244 51.5775 41.9061 51.5852 41.3779C51.5788 40.8917 51.7142 40.4142 51.975 40.0039C52.2582 39.5745 52.6361 39.2156 53.0795 38.9548C53.6215 38.6356 54.2114 38.4057 54.8264 38.2738C55.5815 38.1061 56.3533 38.0253 57.1268 38.0332C57.7773 38.0354 58.4269 38.0821 59.071 38.1727C59.7667 38.2668 60.4549 38.4091 61.1308 38.5987C61.8183 38.7892 62.4907 39.0305 63.1424 39.3205C63.7749 39.6024 64.3798 39.9424 64.9495 40.336V33.4469C63.7635 32.9982 62.5335 32.6756 61.28 32.4844C59.7662 32.2641 58.2378 32.1603 56.7081 32.174C55.0361 32.165 53.3689 32.3548 51.7416 32.7394C50.2708 33.0755 48.8722 33.6729 47.6125 34.5032C46.4423 35.2828 45.476 36.3315 44.7948 37.5616C44.0728 38.9275 43.7156 40.4567 43.7577 42.0011C43.7044 44.0435 44.3771 46.0386 45.6562 47.6317C47.2255 49.3981 49.2044 50.7523 51.4192 51.5756C52.4298 51.9926 53.3722 52.4009 54.2465 52.8003C55.0353 53.1513 55.7935 53.5674 56.5132 54.0444C57.0937 54.422 57.6035 54.8984 58.0195 55.452C58.3853 55.9542 58.5794 56.5609 58.573 57.1821C58.5763 57.6476 58.4568 58.1058 58.2265 58.5104C57.9706 58.9451 57.6109 59.3097 57.1797 59.5715C56.6402 59.9005 56.0499 60.1379 55.4328 60.2742C54.629 60.4539 53.8068 60.5387 52.9832 60.5268C51.367 60.5238 49.7636 60.2388 48.2453 59.6846C46.6592 59.1122 45.1882 58.2606 43.9021 57.1701ZM31.5002 38.7912H41.1252V32.7106H14.2883V38.7912H23.87V65.8711H31.5002V38.7912Z" fill="white"/>
</svg>
