<svg width="77" height="77" viewBox="0 0 77 77" fill="none" xmlns="http://www.w3.org/2000/svg">
<path d="M58.9531 0H18.0469C8.07986 0 0 8.07986 0 18.0469V58.9531C0 68.9201 8.07986 77 18.0469 77H58.9531C68.9201 77 77 68.9201 77 58.9531V18.0469C77 8.07986 68.9201 0 58.9531 0Z" fill="#0073AA"/>
<path d="M12.6973 38.4982C12.6973 48.7112 18.6326 57.5373 27.2391 61.72L14.9312 27.9976C13.4558 31.3016 12.6945 34.8798 12.6973 38.4982ZM55.9177 37.1961C55.9177 34.0075 54.7724 31.7992 53.79 30.0802C52.4819 27.9549 51.2559 26.155 51.2559 24.0297C51.2559 21.6578 53.0549 19.45 55.5887 19.45C55.7033 19.45 55.8116 19.4642 55.9231 19.4705C51.3326 15.265 45.2168 12.6972 38.4992 12.6972C29.4854 12.6972 21.5547 17.322 16.9413 24.3272C17.5465 24.3452 18.1171 24.3582 18.6016 24.3582C21.3005 24.3582 25.4781 24.0303 25.4781 24.0303C26.8689 23.9485 27.0331 25.9914 25.6435 26.1559C25.6435 26.1559 24.2458 26.3205 22.6904 26.402L32.0862 54.35L37.7328 37.4151L33.7129 26.4011C32.3236 26.3196 31.0073 26.155 31.0073 26.155C29.6168 26.0735 29.7798 23.9476 31.1704 24.0297C31.1704 24.0297 35.4312 24.357 37.9665 24.357C40.6651 24.357 44.843 24.0297 44.843 24.0297C46.235 23.9476 46.3983 25.9905 45.0084 26.155C45.0084 26.155 43.6077 26.3196 42.0553 26.4011L51.3798 54.1373L53.9533 45.5374C55.0689 41.9683 55.9177 39.4051 55.9177 37.1961Z" fill="white"/>
<path d="M38.952 40.7553L31.2104 63.2507C33.5773 63.9478 36.0319 64.3018 38.4993 64.3019C41.4175 64.303 44.3147 63.8084 47.0673 62.8392C46.9957 62.7264 46.9343 62.6074 46.8839 62.4837L38.952 40.7553ZM61.1394 26.1192C61.2567 26.9986 61.3148 27.8849 61.3132 28.7721C61.3132 31.3904 60.8242 34.3339 59.3512 38.0142L51.4699 60.8011C59.1407 56.3279 64.3003 48.0176 64.3003 38.4988C64.3006 34.0126 63.1549 29.7942 61.1394 26.1192Z" fill="white"/>
<path d="M38.4994 8.42188C21.9149 8.42188 8.42188 21.914 8.42188 38.4982C8.42188 55.0845 21.9149 68.576 38.4994 68.576C55.083 68.576 68.5781 55.0845 68.5781 38.4982C68.5775 21.914 55.083 8.42188 38.4994 8.42188ZM38.4994 67.1975C22.6753 67.1975 9.80096 54.3229 9.80096 38.4982C9.80096 22.6744 22.675 9.80096 38.4994 9.80096C54.3226 9.80096 67.196 22.6744 67.196 38.4982C67.196 54.3229 54.3226 67.1975 38.4994 67.1975Z" fill="white"/>
</svg>
