<?xml version="1.0" encoding="UTF-8" standalone="no"?>
<svg width="512px" height="512px" viewBox="0 0 512 512" version="1.1" xmlns="http://www.w3.org/2000/svg" xmlns:xlink="http://www.w3.org/1999/xlink" xmlns:sketch="http://www.bohemiancoding.com/sketch/ns">
    <title>github</title>
    <description>Created with Sketch (http://www.bohemiancoding.com/sketch)</description>
    <defs></defs>
    <g id="Page-1" stroke="none" stroke-width="1" fill="none" fill-rule="evenodd" sketch:type="MSPage">
        <path d="M145.34835,324.66268 C145.34835,325.508971 144.380272,326.192466 143.187262,326.192466 C141.99301,326.192466 141.026175,325.507728 141.026175,324.66268 C141.026175,323.813903 141.99301,323.129165 143.187262,323.129165 C144.380272,323.129165 145.34835,323.813903 145.34835,324.66268 L145.34835,324.66268 Z M148.332117,328.160932 C146.936544,328.160932 145.804427,328.964971 145.804427,329.952932 C145.804427,330.943379 146.936544,331.746175 148.332117,331.746175 C149.726447,331.746175 150.85732,330.943379 150.85732,329.952932 C150.858563,328.966214 149.726447,328.160932 148.332117,328.160932 L148.332117,328.160932 Z M160.560466,339.968 C158.836816,339.968 157.438757,340.960932 157.438757,342.182524 C157.438757,343.405359 158.836816,344.394563 160.560466,344.394563 C162.282874,344.394563 163.680932,343.405359 163.680932,342.182524 C163.680932,340.960932 162.282874,339.968 160.560466,339.968 L160.560466,339.968 Z M132.673864,315.655456 C131.757981,315.655456 131.014835,316.182369 131.014835,316.832311 C131.014835,317.479767 131.757981,318.00668 132.673864,318.00668 C133.589748,318.00668 134.332893,317.479767 134.332893,316.832311 C134.332893,316.182369 133.589748,315.655456 132.673864,315.655456 L132.673864,315.655456 Z M137.893282,318.953631 C136.875495,318.953631 136.049087,319.540194 136.049087,320.262214 C136.049087,320.98299 136.875495,321.568311 137.893282,321.568311 C138.908583,321.568311 139.73499,320.98299 139.73499,320.262214 C139.73499,319.540194 138.908583,318.953631 137.893282,318.953631 L137.893282,318.953631 Z M153.998913,334.03899 C152.448,334.03899 151.190369,334.932505 151.190369,336.032311 C151.190369,337.134602 152.448,338.025631 153.998913,338.025631 C155.549825,338.025631 156.808699,337.134602 156.808699,336.032311 C156.808699,334.932505 155.549825,334.03899 153.998913,334.03899 L153.998913,334.03899 Z M512,256 C512,397.38532 397.38532,512 256,512 C114.61468,512 0,397.38532 0,256 C0,114.61468 114.61468,0 256,0 C397.38532,0 512,114.61468 512,256 L512,256 Z M380.150058,269.488466 C380.90066,267.797126 381.643806,266.097087 382.286291,264.311301 C402.320155,262.704466 422.959223,262.862291 443.720078,264.879223 L444.049398,261.461748 C423.564427,259.473398 403.187573,259.296932 383.394796,260.808078 C386.576155,250.655068 388.252583,239.187262 388.132039,226.144932 C387.871068,198.439767 378.632699,176.861204 364.115262,158.953631 C366.90268,142.086214 364.802485,125.218796 359.540816,108.345165 C338.794874,110.043961 320.123029,116.837903 303.497942,128.642485 C272.427495,122.339417 241.360777,121.938019 210.289087,128.642485 C190.897709,115.554175 171.854291,109.135534 153.105398,108.345165 C147.547961,126.925049 146.691728,145.23899 151.390447,163.244738 C135.033786,180.600544 128.782913,201.669592 129.089864,224.999146 C129.265087,238.354641 131.321786,250.238757 135.119534,260.745942 C115.616311,259.315573 95.5700194,259.506951 75.4081553,261.460505 L75.7387184,264.877981 C96.2696699,262.88466 116.682563,262.720621 136.510136,264.271534 C137.238369,266.036194 137.97033,267.795883 138.80668,269.476039 C117.323806,268.909359 97.9895922,270.775922 79.8831845,275.228583 L80.6996505,278.559068 C99.0769709,274.043029 118.764117,272.223689 140.744078,272.96435 C155.280155,298.789282 183.263689,313.964117 224.01367,318.77965 C214.546641,326.469592 209.456466,335.538951 208.145398,345.802563 L186.563107,345.802563 C157.577942,345.802563 149.675495,308.845359 119.653903,312.490252 C148.779495,326.934369 142.96233,373.101359 189.568,373.101359 L209.148272,373.101359 L209.148272,415.420893 C209.355806,422.259573 206.378252,426.832777 201.570175,430.001709 C218.261126,431.685592 230.803883,423.353165 230.803883,413.133049 L230.803883,357.19332 C230.803883,352.210019 236.022058,351.824777 236.022058,351.824777 L236.022058,417.135845 C236.243262,423.635262 233.084272,427.329864 229.731417,430.860427 C244.436505,431.44699 258.267961,428.509204 258.894291,415.995029 L258.894291,353.487534 C258.894291,350.345942 264.045359,350.26765 264.045359,353.487534 L264.045359,413.060971 C264.196971,423.619107 273.316039,432.178951 292.63534,430.859184 C287.466874,426.698563 285.879922,422.494447 285.879922,416.408854 L285.879922,351.823534 C285.879922,351.823534 291.204971,351.551379 291.204971,357.192078 L291.204971,411.665398 C291.204971,423.789359 305.758447,428.791301 322.368621,428.320311 C316.926757,424.244194 313.24334,419.38268 313.220971,412.880777 L313.220971,347.370874 C312.659262,337.742291 308.743456,328.664233 301.068427,320.207534 C338.318913,314.487301 365.166602,299.619417 378.535767,272.968078 C400.587806,272.211262 420.334602,274.025631 438.759146,278.55534 L439.576854,275.224854 C421.328777,270.742369 401.835495,268.878291 380.150058,269.488466 L380.150058,269.488466 Z M203.470291,349.376621 C201.556505,349.376621 200.003107,350.481398 200.003107,351.838447 C200.003107,353.195495 201.556505,354.297786 203.470291,354.297786 C205.38532,354.297786 206.937476,353.195495 206.937476,351.838447 C206.937476,350.481398 205.38532,349.376621 203.470291,349.376621 L203.470291,349.376621 Z M192.026097,349.154175 C190.111068,349.154175 188.560155,350.257709 188.560155,351.616 C188.560155,352.973049 190.111068,354.07534 192.026097,354.07534 C193.939883,354.07534 195.493282,352.973049 195.493282,351.616 C195.493282,350.257709 193.939883,349.154175 192.026097,349.154175 L192.026097,349.154175 Z M180.430291,348.780117 C178.516505,348.780117 176.963107,349.88365 176.963107,351.241942 C176.963107,352.59899 178.516505,353.701282 180.430291,353.701282 C182.346563,353.701282 183.897476,352.59899 183.897476,351.241942 C183.897476,349.88365 182.346563,348.780117 180.430291,348.780117 L180.430291,348.780117 Z M169.434718,345.536621 C167.518447,345.536621 165.966291,346.640155 165.966291,347.997204 C165.966291,349.356738 167.518447,350.457786 169.434718,350.457786 C171.348505,350.457786 172.90066,349.355495 172.90066,347.997204 C172.90066,346.640155 171.348505,345.536621 169.434718,345.536621 L169.434718,345.536621 Z" id="github" fill="#000000" sketch:type="MSShapeGroup"></path>
    </g>
</svg>