<?xml version="1.0" encoding="utf-8"?>
<!-- Generator: Adobe Illustrator 19.0.0, SVG Export Plug-In . SVG Version: 6.00 Build 0)  -->
<svg version="1.1" id="Layer_1" xmlns="http://www.w3.org/2000/svg" xmlns:xlink="http://www.w3.org/1999/xlink" x="0px" y="0px"
	 viewBox="0 0 500 500" style="enable-background:new 0 0 500 500;" xml:space="preserve">
<style type="text/css">
	.st0{fill:#949494;}
	.st1{fill:#EFEFEF;}
	.st2{fill:#D6D6D6;}
</style>
<g id="XMLID_1_">
	<polygon id="XMLID_3_" class="st0" points="89,151.7 89,276.9 110.6,264.8 110.6,163.8 	"/>
	<polygon id="XMLID_4_" class="st1" points="67.5,264.8 67.5,114 195.5,186.7 195.5,212.3 89,151.7 89,276.9 	"/>
	<polygon id="XMLID_5_" class="st0" points="326.1,114 326.1,264.8 239.9,313.3 218.3,299.8 304.5,251.3 304.5,150.3 195.5,212.3 
		195.5,186.7 	"/>
	<polygon id="XMLID_6_" class="st2" points="304.5,101.8 196.8,162.5 89,101.8 67.5,114 195.5,186.7 326.1,114 	"/>
	<polygon id="XMLID_7_" class="st1" points="283,162.5 283,239.2 304.5,251.3 304.5,150.3 	"/>
	<polygon id="XMLID_8_" class="st2" points="175.2,299.8 283,239.2 304.5,251.3 218.3,299.8 303.2,348.3 389.4,299.8 411,312 
		303.2,372.6 	"/>
	<polygon id="XMLID_9_" class="st1" points="175.2,299.8 175.2,325.4 303.2,398.2 303.2,372.6 	"/>
	<polygon id="XMLID_10_" class="st1" points="411,312 411,236.5 389.4,224.4 389.4,299.8 	"/>
	<polygon id="XMLID_11_" class="st0" points="303.2,372.6 411,312 411,236.5 432.5,224.4 432.5,325.4 303.2,398.2 	"/>
	<polygon id="XMLID_12_" class="st2" points="432.5,224.4 411,236.5 389.4,224.4 411,212.3 	"/>
	<polygon id="XMLID_13_" class="st0" points="411,212.3 411,186.7 432.5,174.6 432.5,200.2 	"/>
	<polygon id="XMLID_14_" class="st1" points="411,186.7 411,212.3 389.4,200.2 389.4,174.6 	"/>
	<polygon id="XMLID_15_" class="st2" points="432.5,174.6 411,186.7 389.4,174.6 411,162.5 	"/>
</g>
</svg>
